<svg width="70" height="70" viewBox="0 0 70 70" fill="none" xmlns="http://www.w3.org/2000/svg">
<g clip-path="url(#clip0_391_10)">
<path d="M35 65.625C26.8777 65.625 19.0882 62.3984 13.3449 56.6551C7.60155 50.9118 4.375 43.1223 4.375 35C4.375 26.8777 7.60155 19.0882 13.3449 13.3449C19.0882 7.60155 26.8777 4.375 35 4.375C43.1223 4.375 50.9118 7.60155 56.6551 13.3449C62.3984 19.0882 65.625 26.8777 65.625 35C65.625 43.1223 62.3984 50.9118 56.6551 56.6551C50.9118 62.3984 43.1223 65.625 35 65.625ZM35 70C44.2826 70 53.185 66.3125 59.7487 59.7487C66.3125 53.185 70 44.2826 70 35C70 25.7174 66.3125 16.815 59.7487 10.2513C53.185 3.68749 44.2826 0 35 0C25.7174 0 16.815 3.68749 10.2513 10.2513C3.68749 16.815 0 25.7174 0 35C0 44.2826 3.68749 53.185 10.2513 59.7487C16.815 66.3125 25.7174 70 35 70V70Z" fill="#F55C47"/>
<path d="M18.7469 41.8556C19.2493 41.5656 19.8464 41.487 20.4068 41.6371C20.9671 41.7872 21.4449 42.1538 21.735 42.6562C23.0786 44.9852 25.0121 46.9191 27.3408 48.2632C29.6695 49.6073 32.3113 50.3141 35 50.3125C37.6888 50.3141 40.3305 49.6073 42.6592 48.2632C44.9879 46.9191 46.9214 44.9852 48.265 42.6562C48.4076 42.4055 48.5984 42.1854 48.8264 42.0086C49.0544 41.8318 49.3151 41.7019 49.5935 41.6264C49.8719 41.5508 50.1625 41.531 50.4486 41.5682C50.7347 41.6054 51.0106 41.6988 51.2604 41.843C51.5103 41.9873 51.7291 42.1795 51.9043 42.4087C52.0796 42.6378 52.2077 42.8994 52.2815 43.1783C52.3552 43.4572 52.3731 43.7479 52.334 44.0338C52.2949 44.3196 52.1997 44.5949 52.0538 44.8438C50.3262 47.8378 47.8404 50.324 44.8466 52.052C41.8529 53.7801 38.4567 54.6891 35 54.6875C31.5433 54.6891 28.1472 53.7801 25.1534 52.052C22.1596 50.324 19.6739 47.8378 17.9463 44.8438C17.6562 44.3413 17.5776 43.7443 17.7277 43.1839C17.8779 42.6235 18.2445 42.1457 18.7469 41.8556ZM30.625 28.4375C30.625 32.06 28.665 35 26.25 35C23.835 35 21.875 32.06 21.875 28.4375C21.875 24.815 23.835 21.875 26.25 21.875C28.665 21.875 30.625 24.815 30.625 28.4375ZM38.3119 26.5256C38.563 26.386 38.8391 26.2972 39.1245 26.2643C39.4098 26.2314 39.6989 26.255 39.9752 26.3338C40.2514 26.4126 40.5095 26.5451 40.7345 26.7236C40.9596 26.9022 41.1473 27.1233 41.2869 27.3744C41.6323 28.0194 42.1447 28.5599 42.7703 28.9393C43.396 29.3187 44.1121 29.5231 44.8438 29.5312C46.3269 29.5312 47.6656 28.7 48.4006 27.3744C48.6826 26.8673 49.1544 26.493 49.7124 26.3339C50.2703 26.1747 50.8686 26.2437 51.3756 26.5256C51.8827 26.8076 52.257 27.2794 52.4162 27.8373C52.5753 28.3953 52.5064 28.9936 52.2244 29.5006C51.4999 30.8273 50.4332 31.9357 49.1352 32.7104C47.8372 33.4852 46.3554 33.8981 44.8438 33.9062C41.65 33.9062 38.9113 32.1038 37.4631 29.5006C37.3235 29.2496 37.2347 28.9734 37.2018 28.6881C37.1689 28.4027 37.1925 28.1136 37.2713 27.8373C37.3502 27.5611 37.4826 27.303 37.6612 27.078C37.8397 26.8529 38.0608 26.6652 38.3119 26.5256V26.5256Z" fill="#F55C47"/>
</g>
<defs>
<clipPath id="clip0_391_10">
<rect width="70" height="70" fill="white"/>
</clipPath>
</defs>
</svg>
