<svg width="682" height="682" viewBox="0 0 682 682" fill="none" xmlns="http://www.w3.org/2000/svg">
<path d="M341 681C528.777 681 681 528.777 681 341C681 153.223 528.777 1 341 1C153.223 1 1 153.223 1 341C1 528.777 153.223 681 341 681Z" fill="#D9D9D9" stroke="#231815" stroke-width="2" stroke-miterlimit="10"/>
<path d="M135.229 96.1569C141.651 90.6973 148.253 85.4433 155.092 80.5193C158.993 77.3323 166.201 74.3671 169.734 79.7672C171.622 82.6621 171.07 85.7842 168.403 88.8792C171.606 86.9096 174.604 87.1748 176.314 89.7504C177.547 91.6009 178.164 92.5261 179.392 94.3821C176.324 96.422 174.804 97.4717 171.785 99.6198L169.339 96.1785C168.035 94.3442 167.05 94.2144 164.956 95.7402C160.681 98.8569 158.571 100.469 154.405 103.802C156.185 106.037 157.078 107.152 158.863 109.381C155.941 111.719 154.497 112.914 151.629 115.333L135.229 96.1569ZM159.962 91.2005C162.061 89.6584 163.262 88.284 162.077 86.6228C160.892 84.9617 159.199 85.6922 157.067 87.2613C153.085 90.194 151.115 91.7091 147.224 94.8366L150.276 98.6567C154.129 95.5779 156.044 94.0683 159.962 91.2005V91.2005Z" fill="#231815"/>
<path d="M169.652 70.5736C178.434 65.0653 187.346 59.9412 196.523 55.1309L199.353 60.677C193.22 63.7973 187.209 67.125 181.318 70.6602L183.142 73.7119C188.737 70.3644 194.436 67.1972 200.24 64.2104C201.279 66.2286 201.793 67.2351 202.832 69.2479C197.14 72.177 191.549 75.2847 186.058 78.5709L187.898 81.6497C193.551 78.2697 199.311 75.0809 205.18 72.0832L208.01 77.6294C199.569 82.0556 191.377 86.763 183.299 91.8277L169.652 70.5736Z" fill="#231815"/>
<path d="M213.844 46.9437C218.432 44.9471 220.737 43.9947 225.385 42.1875C233.052 48.2098 240.471 54.4432 247.711 60.9688C244.085 62.1808 242.3 62.8193 238.685 64.1504C237.132 62.7327 236.348 62.0293 234.768 60.6279C229.844 62.4892 224.941 64.5075 220.158 66.661C220.007 68.7767 219.936 69.8318 219.817 71.9421C216.322 73.5329 214.58 74.3554 211.127 76.0706C211.701 66.3148 212.615 56.64 213.844 46.9437ZM229.66 56.2288C226.521 53.5775 224.925 52.268 221.69 49.6924C221.208 53.8047 220.997 55.8555 220.634 59.9732C224.227 58.3986 226.029 57.6573 229.66 56.2288V56.2288Z" fill="#231815"/>
<path d="M243.328 49.1196C240.249 39.9589 250.107 32.5622 258.018 30.8957C265.117 29.3968 275.582 28.5149 279.121 37.0479C275.219 37.8324 273.277 38.2545 269.381 39.1689C268.418 37.1615 264.641 36.3012 259.798 37.589C254.306 39.0607 251.525 42.5724 252.607 46.1761C253.689 49.7797 257.818 51.2353 263.094 49.823C267.736 48.5839 270.582 46.1923 270.528 43.9305C274.316 43.0269 276.258 42.6103 280.095 41.8365C280.23 50.1693 271.892 54.6009 264.895 56.5542C256.979 58.7564 246.228 57.7284 243.328 49.1196Z" fill="#231815"/>
<path d="M279.835 26.5072C291.36 24.4132 302.864 22.8549 314.535 21.8105C314.757 24.5918 314.865 25.9769 315.076 28.7527C310.141 29.1477 307.674 29.3912 302.756 29.981L304.92 48.14C301.403 48.5567 299.644 48.7948 296.138 49.325C295.254 43.2973 294.349 37.2695 293.422 31.2418C288.503 31.9831 286.047 32.4051 281.155 33.3466C280.625 30.6087 280.36 29.2397 279.835 26.5072Z" fill="#231815"/>
<path d="M334.691 33.4927C334.534 23.8775 346.011 19.7652 354.051 20.5715C361.253 21.2911 371.431 23.6286 372.189 32.7947C368.25 32.3727 366.275 32.1887 362.319 31.8911C362.011 29.6834 358.688 27.7247 353.716 27.492C348.067 27.2323 344.371 29.7321 344.312 33.4981C344.252 37.2641 347.71 39.8884 353.126 40.1427C357.893 40.3646 361.318 38.9415 361.951 36.7663C365.842 37.0585 367.784 37.2371 371.664 37.6591C369.283 45.6132 360.052 47.3501 352.807 47.0957C344.625 46.8144 334.853 42.5398 334.691 33.4927Z" fill="#231815"/>
<path d="M375.435 35.6302C376.615 25.7824 389.368 24.2403 397.452 25.6309C405.276 26.9782 417.007 33.0438 414.448 42.9458C412.051 52.2147 400.228 53.286 392.561 51.7493C384.634 50.1261 374.31 44.8612 375.435 35.6302ZM393.832 44.8883C399.871 46.0192 404.227 44.4284 405.06 40.6894C405.893 36.9505 402.463 33.6174 396.17 32.4432C389.877 31.269 385.554 33.1791 384.98 36.9343C384.407 40.6894 387.88 43.7466 393.832 44.8612V44.8883Z" fill="#231815"/>
<path d="M421.52 31.7061C428.345 33.5494 435.099 35.6217 441.784 37.9232C448.277 40.3365 453.964 47.6628 451.096 54.7998C448.39 61.4823 440.03 63.8523 433.559 61.8015C427.427 59.6841 421.215 57.7794 414.924 56.0876C417.121 47.9604 419.319 39.8332 421.52 31.7061ZM432.342 54.0315C437.596 55.7684 440.766 54.9351 442.081 51.3639C443.396 47.7927 441.372 45.0818 435.918 43.28C433.105 42.3493 431.692 41.9056 428.884 41.0453C427.564 45.374 426.909 47.5384 425.589 51.8671C428.251 52.7112 429.609 53.1387 432.32 54.0261L432.342 54.0315Z" fill="#231815"/>
<path d="M459.57 44.6494C463.184 46.1428 464.98 46.922 468.562 48.5344L458.19 71.5633C454.9 70.0807 453.244 69.3665 449.917 67.9921L459.57 44.6494Z" fill="#231815"/>
<path d="M473.762 50.9316C479.027 53.4207 481.635 54.7193 486.802 57.4788C488.555 64.9405 490.092 72.4021 491.434 79.9449C494.388 74.9885 497.341 70.0322 500.292 65.0758C503.711 67.1157 505.405 68.1654 508.771 70.3189L495.168 91.6C490.585 88.6619 488.263 87.2713 483.577 84.5659C482.327 77.0934 480.726 69.7129 478.989 62.3378C476.359 67.489 473.728 72.6366 471.094 77.7806C467.848 76.1248 466.225 75.324 462.978 73.7819L473.762 50.9316Z" fill="#231815"/>
<path d="M513.651 73.5059C519.755 77.5713 525.707 81.8477 531.507 86.3351C536.918 90.7234 540.571 99.7271 535.403 105.728C530.56 111.35 521.573 110.381 516.075 106.328C510.74 102.205 505.264 98.2716 499.648 94.5273C504.323 87.5255 508.991 80.5184 513.651 73.5059ZM517.271 98.4772C521.871 101.94 525.236 102.265 527.601 99.278C529.965 96.2912 528.851 93.0176 524.073 89.4248C521.611 87.5688 520.372 86.6598 517.877 84.8796L511.303 94.0781C513.705 95.8259 514.901 96.697 517.271 98.4826V98.4772Z" fill="#231815"/>
<path d="M584.643 135.851C590.102 142.273 595.356 148.875 600.286 155.714C603.467 159.615 606.432 166.823 601.032 170.356C598.143 172.25 595.015 171.692 591.92 169.025C593.89 172.228 593.63 175.226 591.049 176.941L586.423 180.014C584.377 176.946 583.333 175.426 581.18 172.407L584.621 169.961C586.455 168.657 586.585 167.672 585.059 165.578C581.943 161.304 580.33 159.193 576.997 155.027L571.418 159.485C569.081 156.564 567.885 155.119 565.466 152.256L584.643 135.851ZM589.599 160.584C591.147 162.683 592.515 163.89 594.177 162.705C595.838 161.52 595.107 159.821 593.538 157.689C590.605 153.707 589.096 151.737 585.963 147.847L582.175 150.898C585.227 154.729 586.715 156.666 589.599 160.584V160.584Z" fill="#231815"/>
<path d="M610.231 170.274C615.734 179.056 620.858 187.968 625.668 197.145L620.122 199.975C617.001 193.843 613.674 187.833 610.139 181.946L607.087 183.764C610.438 189.366 613.605 195.067 616.589 200.868C614.576 201.901 613.564 202.415 611.551 203.454C608.625 197.762 605.518 192.171 602.228 186.68L599.149 188.52C602.533 194.176 605.722 199.937 608.716 205.802L603.169 208.632C598.749 200.191 594.036 191.999 588.971 183.926L610.231 170.274Z" fill="#231815"/>
<path d="M633.855 214.466C635.852 219.054 636.804 221.365 638.611 226.013C632.589 233.675 626.355 241.093 619.83 248.333C618.618 244.708 617.985 242.922 616.648 239.313C618.066 237.76 618.775 236.975 620.176 235.395C618.315 230.466 616.291 225.564 614.143 220.753C612.027 220.602 610.967 220.537 608.857 220.413C607.271 216.917 606.443 215.18 604.733 211.723C614.489 212.323 624.159 213.238 633.855 214.466ZM624.57 230.282C627.221 227.144 628.531 225.553 631.106 222.312C626.999 221.83 624.943 221.619 620.825 221.257C622.4 224.85 623.141 226.635 624.57 230.282V230.282Z" fill="#231815"/>
<path d="M631.679 243.951C640.834 240.872 648.237 250.73 649.903 258.647C651.402 265.746 652.284 276.21 643.756 279.749C642.972 275.853 642.544 273.905 641.63 270.01C643.643 269.041 644.503 265.264 643.21 260.427C641.743 254.919 638.226 252.126 634.623 253.209C631.019 254.291 629.569 258.419 630.976 263.695C632.215 268.338 634.607 271.184 636.874 271.135C637.772 274.95 638.189 276.86 638.962 280.696C630.635 280.831 626.198 272.493 624.25 265.497C622.042 257.608 623.07 246.851 631.679 243.951Z" fill="#231815"/>
<path d="M654.291 280.458C656.391 291.983 657.944 303.492 658.988 315.158L652.046 315.699C651.656 310.765 651.413 308.297 650.823 303.379L632.664 305.543C632.242 302.021 632.004 300.262 631.474 296.756L649.557 294.018C648.816 289.099 648.399 286.643 647.457 281.751L654.291 280.458Z" fill="#231815"/>
<path d="M647.306 335.318C656.921 335.156 661.034 346.632 660.227 354.673C659.508 361.875 657.176 372.053 648.004 372.821C648.432 368.882 648.61 366.907 648.908 362.952C651.121 362.643 653.074 359.321 653.307 354.348C653.566 348.699 651.067 345.004 647.301 344.944C643.535 344.885 640.91 348.342 640.656 353.764C640.44 358.531 641.857 361.951 644.032 362.584C643.74 366.474 643.562 368.417 643.145 372.323C635.186 369.948 633.449 360.712 633.703 353.466C633.99 345.247 638.259 335.464 647.306 335.318Z" fill="#231815"/>
<path d="M645.196 376.041C655.049 377.221 656.559 389.974 655.195 398.064C653.848 405.882 647.782 417.613 637.88 415.059C628.611 412.662 627.545 400.834 629.077 393.167C630.678 385.262 635.938 374.932 645.196 376.041ZM635.938 394.438C634.812 400.472 636.397 404.827 640.142 405.661C643.886 406.494 647.208 403.063 648.383 396.771C649.557 390.478 647.652 386.16 643.897 385.586C640.142 385.013 637.052 388.492 635.938 394.455V394.438Z" fill="#231815"/>
<path d="M649.092 422.143C647.252 428.964 645.181 435.719 642.88 442.407C640.467 448.9 633.14 454.587 625.998 451.719C619.315 449.013 616.945 440.654 618.996 434.187C621.11 428.055 623.015 421.842 624.71 415.547L649.092 422.143ZM626.766 432.965C625.029 438.219 625.863 441.389 629.434 442.704C633.005 444.019 635.721 441.995 637.523 436.541C638.448 433.728 638.897 432.315 639.752 429.507L628.931 426.212C628.092 428.874 627.659 430.232 626.766 432.943V432.965Z" fill="#231815"/>
<path d="M636.149 460.192C634.656 463.807 633.877 465.603 632.264 469.185L609.235 458.812C610.723 455.523 611.438 453.867 612.812 450.539L636.149 460.192Z" fill="#231815"/>
<path d="M629.867 474.385C627.378 479.649 626.079 482.257 623.32 487.43C615.858 489.178 608.397 490.72 600.854 492.062L615.723 500.914C613.683 504.334 612.639 506.028 610.48 509.393L589.204 495.79C592.137 491.207 593.533 488.886 596.238 484.2C603.711 482.95 611.091 481.348 618.466 479.617L603.024 471.717C604.679 468.47 605.48 466.847 607.028 463.601L629.867 474.385Z" fill="#231815"/>
<path d="M607.293 514.272C603.224 520.376 598.946 526.328 594.458 532.128C590.076 537.539 581.072 541.192 575.071 536.03C569.444 531.16 570.412 522.194 574.465 516.697C578.588 511.361 582.524 505.887 586.272 500.274L607.293 514.272ZM582.316 517.892C578.859 522.492 578.529 525.857 581.521 528.227C584.513 530.597 587.781 529.472 591.374 524.694C593.225 522.232 594.134 520.993 595.914 518.498L586.715 511.924C584.978 514.327 584.102 515.522 582.316 517.892V517.892Z" fill="#231815"/>
<path d="M541.88 584.778C535.463 590.237 528.856 595.491 522.022 600.421C518.115 603.602 510.908 606.568 507.375 601.168C505.486 598.278 506.038 595.156 508.706 592.056C505.503 594.025 502.505 593.765 500.795 591.184L497.716 586.558C500.784 584.513 502.31 583.468 505.324 581.315L507.77 584.756C509.079 586.59 510.059 586.72 512.153 585.195C516.427 582.078 518.537 580.465 522.704 577.132L518.245 571.554C521.167 569.216 522.617 568.02 525.48 565.602L541.88 584.778ZM517.147 589.734C515.047 591.282 513.846 592.651 515.031 594.312C516.216 595.973 517.91 595.243 520.042 593.673C524.024 590.741 525.994 589.231 529.89 586.098L526.832 582.31C523.007 585.378 521.064 586.85 517.147 589.734V589.734Z" fill="#231815"/>
<path d="M507.461 610.366C498.68 615.869 489.768 620.993 480.591 625.803L477.761 620.257C483.893 617.137 489.905 613.809 495.796 610.274L493.972 607.228C488.377 610.572 482.678 613.737 476.874 616.724C475.835 614.711 475.321 613.699 474.287 611.686C479.979 608.761 485.571 605.653 491.061 602.363L489.221 599.284C483.569 602.668 477.808 605.857 471.939 608.851L469.109 603.305C477.55 598.884 485.742 594.171 493.821 589.106L507.461 610.366Z" fill="#231815"/>
<path d="M463.265 633.991C458.682 635.987 456.371 636.94 451.723 638.747C444.056 632.725 436.643 626.491 429.398 619.966C433.023 618.754 434.809 618.12 438.423 616.784C439.976 618.202 440.761 618.91 442.341 620.312C447.27 618.451 452.167 616.427 456.977 614.279C457.129 612.163 457.199 611.103 457.318 608.992C460.814 607.407 462.556 606.579 466.008 604.869C465.413 614.625 464.499 624.294 463.265 633.991ZM447.449 624.706C450.587 627.357 452.183 628.666 455.419 631.242C455.901 627.135 456.112 625.079 456.474 620.961C452.881 622.536 451.079 623.282 447.449 624.706V624.706Z" fill="#231815"/>
<path d="M433.781 631.815C436.86 640.97 427.001 648.372 419.09 650.039C411.986 651.538 401.526 652.42 397.988 643.892C401.889 643.107 403.831 642.68 407.727 641.765C408.69 643.778 412.467 644.639 417.31 643.346C422.813 641.879 425.605 638.362 424.523 634.758C423.441 631.155 419.312 629.705 414.036 631.111C409.394 632.351 406.548 634.742 406.602 637.009C402.787 637.908 400.872 638.324 397.035 639.098C396.9 630.771 405.244 626.334 412.235 624.386C420.129 622.173 430.881 623.206 433.781 631.815Z" fill="#231815"/>
<path d="M397.273 654.427C385.748 656.527 374.245 658.08 362.573 659.124C362.351 656.348 362.243 654.957 362.032 652.182C366.967 651.792 369.434 651.549 374.358 650.959C373.637 644.902 372.915 638.849 372.194 632.8C375.711 632.378 377.47 632.14 380.976 631.609C381.888 637.637 382.801 643.665 383.714 649.693C388.632 648.951 391.089 648.535 395.98 647.593C396.483 650.31 396.749 651.695 397.273 654.427Z" fill="#231815"/>
<path d="M342.429 647.441C342.586 657.056 331.115 661.168 323.069 660.362C315.867 659.642 305.694 657.31 304.92 648.139C308.865 648.566 310.84 648.745 314.79 649.042C315.098 651.256 318.421 653.209 323.393 653.442C329.042 653.701 332.738 651.201 332.797 647.435C332.857 643.669 329.399 641.045 323.983 640.796C319.216 640.574 315.791 641.992 315.158 644.167C311.267 643.875 309.325 643.696 305.418 643.28C307.799 635.32 317.03 633.583 324.275 633.838C332.484 634.125 342.267 638.405 342.429 647.441Z" fill="#231815"/>
<path d="M301.69 645.33C300.51 655.184 287.762 656.693 279.673 655.33C271.848 653.982 260.118 647.917 262.677 638.015C265.074 628.746 276.897 627.68 284.564 629.211C292.475 630.829 302.799 636.072 301.69 645.33ZM283.293 636.072C277.254 634.947 272.898 636.532 272.065 640.277C271.232 644.021 274.668 647.343 280.96 648.517C287.253 649.692 291.571 647.787 292.145 644.032C292.718 640.277 289.239 637.187 283.282 636.072H283.293Z" fill="#231815"/>
<path d="M255.588 649.227C248.764 647.388 242.009 645.317 235.325 643.016C228.832 640.602 223.145 633.276 226.018 626.134C228.723 619.451 237.078 617.081 243.549 619.132C249.682 621.246 255.893 623.15 262.184 624.846C259.988 632.973 257.789 641.1 255.588 649.227ZM244.767 626.902C239.513 625.165 236.342 625.998 235.027 629.575C233.712 633.152 235.736 635.857 241.195 637.659C244.004 638.584 245.416 639.033 248.23 639.888C249.55 635.559 250.21 633.395 251.525 629.066C248.857 628.228 247.499 627.795 244.788 626.902H244.767Z" fill="#231815"/>
<path d="M217.539 636.284C213.924 634.791 212.128 634.011 208.546 632.399L218.919 609.37C222.214 610.858 223.864 611.572 227.192 612.947L217.539 636.284Z" fill="#231815"/>
<path d="M203.368 630.002C198.103 627.513 195.495 626.214 190.328 623.455C188.575 615.993 187.038 608.531 185.696 600.989L176.838 615.858C173.424 613.818 171.725 612.774 168.359 610.615L181.962 589.339C186.545 592.272 188.867 593.668 193.553 596.373C194.802 603.846 196.41 611.226 198.141 618.601C200.771 613.454 203.402 608.306 206.036 603.158C209.282 604.814 210.905 605.615 214.152 607.162L203.368 630.002Z" fill="#231815"/>
<path d="M163.457 607.428C157.361 603.359 151.409 599.081 145.601 594.593C140.19 590.21 136.538 581.207 141.705 575.206C146.575 569.578 155.535 570.547 161.033 574.6C166.368 578.723 171.844 582.658 177.46 586.406C172.789 593.412 168.121 600.419 163.457 607.428ZM159.837 582.451C155.238 578.993 151.872 578.663 149.507 581.656C147.143 584.648 148.258 587.916 153.035 591.509C155.497 593.359 156.736 594.268 159.231 596.049L165.805 586.85C163.403 585.113 162.207 584.237 159.837 582.451Z" fill="#231815"/>
<path d="M91.9955 545.171C86.6224 538.678 81.4496 532.011 76.6122 525.113C73.4739 521.168 70.6007 513.923 76.0441 510.46C78.9606 508.604 82.0773 509.199 85.1398 511.905C83.2135 508.658 83.5166 505.682 86.1138 504.005L90.778 500.985C92.78 504.08 93.8081 505.617 95.9238 508.658L92.4446 511.066C90.594 512.348 90.4533 513.328 91.9522 515.438C95.0147 519.767 96.6001 521.888 99.8792 526.092L105.512 521.704C107.812 524.658 108.991 526.119 111.399 529.014L91.9955 545.171ZM87.3529 520.378C85.8378 518.257 84.4797 517.034 82.8077 518.214C81.1358 519.393 81.8338 521.081 83.3813 523.235C86.2653 527.25 87.7479 529.241 90.8105 533.169L94.6684 530.166C91.6546 526.287 90.1936 524.333 87.3529 520.378V520.378Z" fill="#231815"/>
<path d="M66.8504 510.422C61.4395 501.575 56.4452 492.598 51.7485 483.367L57.3326 480.608C60.3771 486.765 63.6237 492.816 67.0722 498.761L70.1456 496.981C66.8774 491.343 63.7878 485.602 60.8767 479.758L65.9468 477.231C68.8218 482.956 71.8591 488.589 75.0587 494.13L78.1592 492.311C74.8477 486.619 71.731 480.819 68.8091 474.91L74.3932 472.15C78.7219 480.651 83.3158 488.924 88.2776 497.041L66.8504 510.422Z" fill="#231815"/>
<path d="M43.7839 465.938C41.8468 461.328 40.9216 459.002 39.1738 454.332C45.2936 446.757 51.6189 439.409 58.2419 432.25C59.4052 435.892 60.0167 437.704 61.3045 441.313C59.8651 442.85 59.1401 443.624 57.7332 445.187C59.5297 450.138 61.4884 455.062 63.577 459.9C65.6927 460.078 66.7478 460.159 68.8581 460.306C70.4002 463.823 71.2064 465.57 72.873 469.05C63.1225 468.33 53.4857 467.291 43.7839 465.938ZM53.2692 450.247C50.5638 453.347 49.2489 454.927 46.6355 458.13C50.7369 458.671 52.7877 458.904 56.8783 459.315C55.3741 455.701 54.649 453.894 53.2692 450.241V450.247Z" fill="#231815"/>
<path d="M46.3328 436.481C37.1343 439.446 29.862 429.49 28.2983 421.558C26.8914 414.443 26.1339 403.967 34.7156 400.547C35.4515 404.454 35.8519 406.402 36.7176 410.287C34.694 411.228 33.7849 414.989 35.0132 419.848C36.4146 425.373 39.883 428.208 43.5083 427.174C47.1336 426.141 48.627 422.029 47.296 416.731C46.1164 412.073 43.7626 409.199 41.5009 409.221C40.646 405.396 40.251 403.475 39.5259 399.633C47.8587 399.6 52.1874 407.998 54.0488 415.016C56.1428 422.954 54.9795 433.695 46.3328 436.481Z" fill="#231815"/>
<path d="M24.1861 399.691C22.2382 388.139 20.8259 376.614 19.9331 364.932L26.8807 364.472C27.2054 369.412 27.4218 371.879 27.9629 376.809L46.149 374.855C46.5277 378.383 46.7388 380.142 47.2312 383.659L29.11 386.164C29.7918 391.093 30.1922 393.555 31.0633 398.458L24.1861 399.691Z" fill="#231815"/>
<path d="M31.8692 344.929C22.2486 344.961 18.2824 333.442 19.1914 325.406C20.0031 318.215 22.465 308.091 31.6365 307.415C31.1604 311.349 30.9548 313.324 30.6085 317.274C28.3954 317.555 26.3934 320.85 26.1012 325.818C25.7711 331.467 28.2223 335.189 31.9882 335.297C35.7542 335.406 38.4218 331.981 38.7411 326.564C39.0224 321.803 37.6589 318.361 35.4945 317.701C35.8354 313.816 36.0356 311.874 36.5064 307.999C44.4333 310.483 46.0566 319.736 45.7049 326.981C45.3099 335.162 40.9162 344.896 31.8692 344.929Z" fill="#231815"/>
<path d="M34.4933 304.233C24.6563 302.929 23.2819 290.165 24.7537 282.086C26.193 274.284 32.4101 262.607 42.2634 265.312C51.4998 267.829 52.4197 279.668 50.791 287.308C49.1569 295.197 43.746 305.456 34.4933 304.233ZM43.9841 285.939C45.1853 279.922 43.654 275.545 39.9259 274.663C36.1978 273.781 32.8214 277.173 31.566 283.45C30.3107 289.727 32.1666 294.071 35.8948 294.688C39.6229 295.305 42.7937 291.885 43.9841 285.939Z" fill="#231815"/>
<path d="M31.1816 258.083C33.1079 251.287 35.2723 244.559 37.6747 237.9C40.1692 231.407 47.5821 225.845 54.6704 228.804C61.3204 231.586 63.5822 239.983 61.4449 246.422C59.2516 252.555 57.2676 258.743 55.4929 264.987L31.1816 258.083ZM53.6423 247.57C55.4442 242.337 54.6488 239.156 51.0938 237.83C47.5388 236.504 44.828 238.447 42.9341 243.879C41.971 246.682 41.5057 248.084 40.6074 250.913L51.4293 254.344C52.268 251.622 52.7117 250.264 53.6423 247.57V247.57Z" fill="#231815"/>
<path d="M44.6064 220.202C46.1431 216.604 46.944 214.818 48.6051 211.258L71.4987 221.923C69.9728 225.169 69.2369 226.841 67.8193 230.147L44.6064 220.202Z" fill="#231815"/>
<path d="M51.0674 206.074C53.6213 200.841 54.9632 198.249 57.7769 193.114C65.2602 191.459 72.7435 190.014 80.3025 188.786L65.547 179.739C67.6302 176.351 68.6961 174.669 70.893 171.33C77.9344 175.951 84.9685 180.576 91.9955 185.204C89.0033 189.749 87.564 192.048 84.8044 196.702C77.3157 197.854 69.919 199.364 62.5223 201.004L77.8622 209.12C76.1686 212.329 75.3461 213.946 73.7607 217.193L51.0674 206.074Z" fill="#231815"/>
<path d="M74.145 166.487C78.2898 160.438 82.6438 154.54 87.207 148.793C91.6601 143.426 100.734 139.898 106.643 145.141C112.205 150.054 111.123 159.031 107 164.474C102.812 169.759 98.808 175.184 94.9879 180.75L74.145 166.487ZM99.1651 163.186C102.682 158.63 103.034 155.27 100.096 152.868C97.1576 150.465 93.8516 151.537 90.1992 156.271C88.3162 158.706 87.3909 159.934 85.5783 162.407L94.7119 169.1C96.4596 166.72 97.3524 165.535 99.1651 163.186V163.186Z" fill="#231815"/>
<path d="M542.053 121.463C541.873 121.418 541.708 121.324 541.578 121.19C541.448 121.057 541.358 120.889 541.319 120.707C541.28 120.525 541.292 120.336 541.355 120.16C541.418 119.985 541.529 119.831 541.675 119.715L548.509 113.845L547.399 104.781C547.376 104.591 547.405 104.397 547.485 104.222C547.564 104.048 547.69 103.898 547.849 103.79C548.008 103.682 548.193 103.62 548.385 103.611C548.577 103.601 548.768 103.645 548.936 103.737L556.874 108.564L565.196 104.884C565.359 104.81 565.539 104.782 565.717 104.804C565.894 104.826 566.062 104.898 566.202 105.01C566.341 105.122 566.446 105.271 566.506 105.44C566.565 105.609 566.576 105.791 566.538 105.966L564.552 114.846L570.829 121.69C570.953 121.837 571.034 122.016 571.063 122.206C571.092 122.396 571.068 122.591 570.994 122.768C570.919 122.946 570.797 123.099 570.641 123.212C570.485 123.324 570.301 123.391 570.109 123.406L561.03 124.098L556.576 131.944C556.492 132.111 556.362 132.25 556.202 132.346C556.042 132.443 555.857 132.492 555.671 132.489C555.484 132.485 555.302 132.429 555.145 132.327C554.989 132.225 554.864 132.081 554.785 131.912L551.106 123.411L542.048 121.458L542.053 121.463Z" fill="#040000"/>
<path d="M542.053 562.468C541.873 562.424 541.708 562.329 541.578 562.195C541.448 562.062 541.358 561.894 541.319 561.712C541.28 561.53 541.292 561.341 541.355 561.166C541.418 560.99 541.529 560.836 541.675 560.72L548.509 554.844L547.399 545.781C547.375 545.59 547.404 545.396 547.483 545.221C547.563 545.046 547.689 544.896 547.848 544.789C548.007 544.681 548.193 544.62 548.385 544.611C548.578 544.603 548.768 544.648 548.936 544.742L556.874 549.563L565.196 545.889C565.359 545.815 565.539 545.787 565.717 545.809C565.894 545.831 566.062 545.903 566.202 546.015C566.341 546.127 566.446 546.276 566.506 546.445C566.565 546.614 566.576 546.796 566.538 546.971L564.552 555.851L570.829 562.69C570.955 562.836 571.038 563.015 571.068 563.206C571.098 563.397 571.075 563.592 571 563.77C570.925 563.949 570.802 564.102 570.645 564.215C570.487 564.327 570.302 564.393 570.109 564.405L561.002 565.082L556.576 572.927C556.493 573.094 556.365 573.234 556.207 573.332C556.049 573.429 555.867 573.481 555.681 573.481C555.495 573.481 555.313 573.429 555.154 573.332C554.996 573.234 554.868 573.094 554.785 572.927L551.106 564.427L542.048 562.474L542.053 562.468Z" fill="#040000"/>
<path d="M107.665 562.468C107.484 562.423 107.32 562.329 107.19 562.195C107.06 562.062 106.97 561.894 106.931 561.712C106.891 561.53 106.904 561.341 106.967 561.165C107.03 560.99 107.14 560.836 107.286 560.72L114.12 554.844L113.006 545.781C112.983 545.59 113.013 545.396 113.093 545.221C113.173 545.046 113.3 544.897 113.459 544.79C113.619 544.682 113.805 544.621 113.997 544.612C114.189 544.604 114.38 544.649 114.548 544.742L122.48 549.563L130.808 545.878C130.97 545.803 131.151 545.776 131.329 545.798C131.506 545.82 131.674 545.891 131.814 546.004C131.953 546.116 132.058 546.265 132.118 546.434C132.177 546.603 132.188 546.785 132.15 546.96L130.169 555.84L136.446 562.679C136.57 562.826 136.651 563.005 136.68 563.196C136.709 563.386 136.685 563.581 136.61 563.759C136.535 563.937 136.412 564.09 136.255 564.202C136.098 564.314 135.913 564.381 135.721 564.394L126.614 565.07L122.204 572.933C122.121 573.099 121.993 573.239 121.835 573.337C121.677 573.434 121.495 573.486 121.309 573.486C121.123 573.486 120.941 573.434 120.782 573.337C120.624 573.239 120.496 573.099 120.413 572.933L116.734 564.432L107.676 562.479L107.665 562.468Z" fill="#040000"/>
<path d="M108.428 130.732C108.244 130.709 108.07 130.635 107.925 130.517C107.781 130.4 107.672 130.245 107.611 130.07C107.55 129.894 107.54 129.705 107.581 129.523C107.622 129.342 107.713 129.176 107.844 129.044L113.942 122.404L111.778 113.536C111.731 113.348 111.737 113.152 111.796 112.967C111.854 112.783 111.963 112.619 112.109 112.493C112.256 112.366 112.434 112.283 112.625 112.253C112.816 112.222 113.011 112.245 113.19 112.318L121.636 116.171L129.466 111.539C129.621 111.445 129.8 111.395 129.982 111.398C130.163 111.4 130.341 111.453 130.494 111.551C130.647 111.649 130.769 111.789 130.847 111.953C130.924 112.117 130.954 112.3 130.932 112.481L130.007 121.528L137.041 127.583C137.183 127.714 137.285 127.882 137.337 128.068C137.389 128.254 137.388 128.451 137.335 128.636C137.281 128.822 137.178 128.989 137.035 129.119C136.893 129.249 136.717 129.337 136.527 129.374L127.561 131.116L124.088 139.433C124.024 139.608 123.912 139.761 123.765 139.875C123.618 139.99 123.442 140.06 123.256 140.079C123.071 140.098 122.884 140.064 122.717 139.981C122.55 139.898 122.41 139.77 122.313 139.611L117.649 131.603L108.45 130.732H108.428Z" fill="#040000"/>
</svg>
