<svg width="100" height="100" viewBox="0 0 100 100" fill="none" xmlns="http://www.w3.org/2000/svg">
<g clip-path="url(#clip0_310_208)">
<path d="M50 6.25C61.6032 6.25 72.7312 10.8594 80.9359 19.0641C89.1406 27.2688 93.75 38.3968 93.75 50C93.75 61.6032 89.1406 72.7312 80.9359 80.9359C72.7312 89.1406 61.6032 93.75 50 93.75C38.3968 93.75 27.2688 89.1406 19.0641 80.9359C10.8594 72.7312 6.25 61.6032 6.25 50C6.25 38.3968 10.8594 27.2688 19.0641 19.0641C27.2688 10.8594 38.3968 6.25 50 6.25ZM50 0C36.7392 0 24.0215 5.26784 14.6447 14.6447C5.26784 24.0215 0 36.7392 0 50C0 63.2608 5.26784 75.9785 14.6447 85.3553C24.0215 94.7322 36.7392 100 50 100C63.2608 100 75.9785 94.7322 85.3553 85.3553C94.7322 75.9785 100 63.2608 100 50C100 36.7392 94.7322 24.0215 85.3553 14.6447C75.9785 5.26784 63.2608 0 50 0Z" fill="black"/>
<path d="M73.2188 40.2062C72.5011 40.6206 71.6481 40.7329 70.8476 40.5184C70.0471 40.3039 69.3645 39.7802 68.9501 39.0625C67.0306 35.7354 64.2685 32.9727 60.9418 31.0526C57.6151 29.1325 53.8412 28.1227 50.0001 28.125C46.159 28.1227 42.3851 29.1325 39.0584 31.0526C35.7317 32.9727 32.9695 35.7354 31.0501 39.0625C30.8464 39.4208 30.5738 39.7352 30.2481 39.9877C29.9224 40.2402 29.55 40.4258 29.1522 40.5338C28.7545 40.6418 28.3394 40.67 27.9307 40.6169C27.522 40.5638 27.1278 40.4303 26.7709 40.2243C26.414 40.0182 26.1014 39.7436 25.8511 39.4162C25.6007 39.0888 25.4176 38.7151 25.3123 38.3167C25.2069 37.9183 25.1814 37.5029 25.2373 37.0946C25.2931 36.6863 25.4292 36.293 25.6376 35.9375C28.1056 31.6603 31.6567 28.1086 35.9335 25.64C40.2103 23.1713 45.0619 21.8728 50.0001 21.875C54.9382 21.8728 59.7899 23.1713 64.0667 25.64C68.3435 28.1086 71.8946 31.6603 74.3626 35.9375C74.777 36.6552 74.8893 37.5082 74.6748 38.3087C74.4603 39.1093 73.9366 39.7918 73.2188 40.2062ZM56.2501 59.375C56.2501 54.2 59.0501 50 62.5001 50C65.9501 50 68.7501 54.2 68.7501 59.375C68.7501 64.55 65.9501 68.75 62.5001 68.75C59.0501 68.75 56.2501 64.55 56.2501 59.375ZM45.2688 62.1062C44.9102 62.3057 44.5157 62.4326 44.108 62.4796C43.7003 62.5266 43.2874 62.4928 42.8927 62.3802C42.4981 62.2677 42.1294 62.0784 41.8079 61.8234C41.4864 61.5683 41.2183 61.2524 41.0188 60.8938C40.5253 59.9723 39.7935 59.2002 38.8996 58.6582C38.0058 58.1162 36.9828 57.8241 35.9376 57.8125C33.8188 57.8125 31.9063 59 30.8563 60.8938C30.4535 61.6181 29.7795 62.1528 28.9825 62.3802C28.1854 62.6076 27.3307 62.509 26.6063 62.1062C25.882 61.7035 25.3473 61.0294 25.1199 60.2324C24.8925 59.4353 24.991 58.5806 25.3938 57.8562C26.4289 55.961 27.9528 54.3776 29.807 53.2708C31.6612 52.164 33.7782 51.5741 35.9376 51.5625C40.5001 51.5625 44.4126 54.1375 46.4813 57.8562C46.6808 58.2149 46.8077 58.6094 46.8547 59.0171C46.9017 59.4248 46.8679 59.8377 46.7553 60.2324C46.6427 60.627 46.4535 60.9956 46.1985 61.3172C45.9434 61.6387 45.6275 61.9068 45.2688 62.1062Z" fill="black"/>
</g>
<defs>
<clipPath id="clip0_310_208">
<rect width="100" height="100" fill="white" transform="translate(100 100) rotate(-180)"/>
</clipPath>
</defs>
</svg>
