<svg width="652" height="652" viewBox="0 0 652 652" fill="none" xmlns="http://www.w3.org/2000/svg">
<path d="M326 651C505.493 651 651 505.493 651 326C651 146.507 505.493 1 326 1C146.507 1 1 146.507 1 326C1 505.493 146.507 651 326 651Z" fill="white" stroke="#231815" stroke-width="2" stroke-miterlimit="10"/>
<path d="M68.2749 176.409C70.3438 173.078 71.3783 171.433 73.5351 168.196C76.3746 170.084 80.0779 171.071 83.5691 166.075C87.0603 161.079 84.7742 157.975 82.064 155.974L76.4832 151.836C73.8247 155.457 72.5213 157.298 69.9714 161.043L63.2476 156.455C67.3853 150.527 71.5593 144.673 76.0125 138.988L87.8517 148.298C95.8789 154.345 95.61 162.977 90.2154 170.704C84.888 178.359 76.6849 181.866 68.2749 176.409Z" fill="#231815"/>
<path d="M86.1549 126.715C89.4548 122.908 91.1357 121.026 94.5597 117.405C105.08 120.509 115.424 123.953 125.691 127.807C122.991 130.424 121.657 131.758 119.024 134.479C116.795 133.636 115.678 133.227 113.433 132.41C109.813 136.196 106.28 140.111 102.887 144.104C103.896 146.287 104.408 147.368 105.447 149.53C102.985 152.462 101.775 153.952 99.3957 156.983C94.6166 147.026 90.2358 136.967 86.1549 126.715ZM106.228 129.932C101.821 128.463 99.6026 127.765 95.1287 126.426C96.9027 130.76 97.8182 132.906 99.7061 137.163C102.277 134.22 103.58 132.772 106.228 129.932Z" fill="#231815"/>
<path d="M101.439 110.293C104.367 107.361 105.851 105.923 108.856 103.109C116.687 106.213 124.445 109.481 132.058 113.071C129.581 105.023 127.3 96.9078 125.335 88.7202C128.505 86.1341 130.109 84.8773 133.346 82.4102C135.586 93.0287 138.156 103.523 141.105 113.961C137.298 117.141 135.415 118.781 131.733 122.153C121.724 117.845 111.685 113.904 101.439 110.293Z" fill="#231815"/>
<path d="M141.109 76.6694C145.051 73.8505 147.047 72.4851 151.081 69.8369C160.479 75.3815 169.634 81.2157 178.623 87.4224C175.484 89.2792 173.932 90.2361 170.865 92.2015C168.915 90.8515 167.932 90.1792 165.962 88.8551C161.716 91.586 157.531 94.4566 153.456 97.4306C153.973 99.7632 154.221 100.922 154.759 103.239C151.806 105.422 150.342 106.534 147.445 108.82C144.952 98.1443 142.858 87.4638 141.109 76.6694ZM159.585 84.6966C155.69 82.214 153.714 80.9933 149.726 78.609C150.513 83.1915 150.937 85.4725 151.847 89.9878C154.914 87.831 156.461 86.7655 159.585 84.6966V84.6966Z" fill="#231815"/>
<path d="M174.01 78.8163C177.165 76.9543 178.753 76.0492 181.954 74.2906C182.989 76.163 185.409 76.4112 190.53 73.7734C195.743 71.0839 196.364 69.8426 195.702 68.4357C194.906 66.8116 193.819 66.853 187.809 69.4702L186.604 69.9874C180.992 72.6407 172.267 75.4802 168.579 68.8081C164.959 62.286 172.986 55.7845 178.096 53.1519C183.703 50.2606 194.28 47.0073 198.097 54.6053C194.673 56.1569 192.971 56.9586 189.589 58.6137C188.59 56.5862 185.942 56.9328 181.267 59.374C176.87 61.6705 176.218 62.9946 176.829 64.1221C177.563 65.4514 178.737 65.3945 184.447 62.9532C185.027 62.7049 185.322 62.586 185.906 62.3429C191.647 59.8706 200.336 56.9276 203.724 64.2773C207.071 71.5183 199.586 77.0267 194.052 79.7939C187.809 82.9489 178.81 86.1039 174.01 78.8163Z" fill="#231815"/>
<path d="M203.719 57.9915C199.835 48.6815 206.543 40.0698 215.031 36.7855C222.204 34.0132 233.009 34.6545 236.418 42.8886C232.797 43.9903 230.982 44.5748 227.382 45.7902C226.13 43.5248 222.339 42.7128 217.849 44.3679C212.744 46.2557 210.608 50.3314 212.253 54.4071C213.898 58.4828 218.139 60.0189 223.006 58.2242C227.278 56.6725 229.632 53.7865 229.213 51.1952C232.745 50.0004 234.519 49.4263 238.083 48.3453C239.769 56.4812 232.844 63.3447 225.83 65.848C217.886 68.6669 207.283 66.5152 203.719 57.9915Z" fill="#231815"/>
<path d="M236.666 30.3943C244.067 28.3254 251.484 26.4428 258.984 24.7566C264.74 23.5049 270.807 24.917 271.95 31.4184C272.654 35.4113 271.133 38.3905 267.813 40.2525C271.221 39.8336 273.725 41.6128 274.361 45.1661C274.821 47.7212 275.049 48.9987 275.504 51.5538C272.204 52.1382 270.559 52.4537 267.275 53.1364L266.24 48.3108C265.723 45.7247 264.896 45.104 262.62 45.6006C257.929 46.635 255.591 47.1522 250.941 48.3884C251.784 51.6158 252.208 53.2244 253.051 56.4518C249.803 57.2949 248.184 57.7449 244.957 58.681L236.666 30.3943ZM259.765 38.3285C262.082 37.8112 263.566 37.0095 263.075 34.6769C262.584 32.3442 260.877 32.2356 258.518 32.758C254.112 33.7355 251.919 34.2683 247.543 35.401L248.991 40.9249C253.284 39.7922 255.436 39.275 259.765 38.3285Z" fill="#231815"/>
<path d="M274.935 21.7513C278.555 21.1617 280.407 20.8927 284.064 20.4014C285.371 30.1423 286.676 39.8799 287.979 49.6139C284.659 50.0587 283.003 50.3018 279.704 50.8397C278.107 41.147 276.518 31.4509 274.935 21.7513Z" fill="#231815"/>
<path d="M289.401 19.7384C296.73 18.9522 304.034 18.3574 311.388 17.9385C318.05 17.7057 322.638 22.1073 322.824 28.6811C322.995 34.7998 318.764 39.9772 312.433 40.06C307.659 40.2875 305.275 40.4479 300.537 40.8617C300.791 43.7736 300.92 45.2322 301.173 48.1441C297.837 48.4338 296.172 48.6044 292.846 48.9924C291.691 39.2445 290.543 29.4932 289.401 19.7384ZM309.956 32.1103C312.464 31.9707 313.644 31.3552 313.54 28.9346C313.437 26.514 312.195 26.0278 309.635 26.1675C305.497 26.3899 303.428 26.5399 299.291 26.8967C299.498 29.2708 299.601 30.4552 299.808 32.8292C303.863 32.4724 305.89 32.3275 309.956 32.1103Z" fill="#231815"/>
<path d="M325.757 17.5771C336.98 17.6547 348.096 18.1978 359.273 19.2271C358.936 22.4597 358.755 24.0786 358.435 27.3112C353.718 26.8302 351.354 26.6388 346.632 26.3388C346.166 33.4385 345.703 40.5382 345.24 47.6379C341.894 47.4259 340.218 47.3431 336.867 47.2293C337.125 40.1193 337.382 33.0075 337.637 25.894C332.894 25.7285 330.52 25.6923 325.772 25.7027C325.767 22.4545 325.762 20.8305 325.757 17.5771Z" fill="#231815"/>
<path d="M375.927 36.2893C377.758 26.4001 388.046 22.7795 396.973 24.6312C404.493 26.1828 413.27 32.6015 411.621 41.3787C407.953 40.3443 406.107 39.8271 402.414 38.8909C402.6 36.3048 399.859 33.5687 395.173 32.5239C389.861 31.3343 385.863 33.5946 384.994 37.903C384.125 42.2114 386.846 45.8113 391.92 46.944C396.373 47.9422 399.921 46.8199 400.997 44.42C404.617 45.3406 406.433 45.8268 410.038 46.8613C406.981 54.6195 397.376 56.5953 390.125 54.873C381.917 52.9282 374.246 45.3613 375.927 36.2893Z" fill="#231815"/>
<path d="M414.072 45.0451C417.176 34.7524 428.792 33.3714 437.549 36.6041C446.305 39.8367 454.41 48.4639 449.998 58.3273C445.897 67.5028 435.283 68.832 426.765 65.6873C418.246 62.5426 411.207 54.624 414.072 45.0451ZM429.589 58.0583C435.123 60.1272 439.716 58.8186 441.412 54.6705C443.109 50.5224 440.544 46.3381 434.73 44.1917C428.916 42.0452 424.329 43.6331 422.922 47.8432C421.515 52.0534 424.127 56.0412 429.594 58.0583H429.589Z" fill="#231815"/>
<path d="M459.618 46.4844C465.887 49.367 472.056 52.4514 478.125 55.7374C484.942 59.7252 487.305 68.8438 483.209 75.5831C479.397 81.8518 470.915 85.0586 464.072 81.6812C458.555 78.6951 452.955 75.8969 447.272 73.2867C451.4 64.3526 455.515 55.4185 459.618 46.4844ZM464.791 72.8367C469.534 75.3297 472.88 74.709 475.047 70.8402C477.214 66.9714 475.895 63.7336 470.94 61.1269C468.385 59.7821 467.103 59.1304 464.527 57.8477L458.646 69.6972C461.124 70.923 462.36 71.5488 464.801 72.8367H464.791Z" fill="#231815"/>
<path d="M494.236 65.0947C497.499 67.1171 499.118 68.1618 502.33 70.2669L486.059 94.8659C483.141 92.9315 481.672 91.985 478.714 90.1488C483.886 81.8044 489.06 73.453 494.236 65.0947Z" fill="#231815"/>
<path d="M506.99 73.4512C511.707 76.7097 514.04 78.3958 518.638 81.8922C518.602 90.2556 518.317 98.6294 517.655 106.967L530.586 91.4504C533.606 93.9848 535.101 95.2778 538.055 97.9208C531.534 105.272 525.009 112.62 518.478 119.965C514.506 116.411 512.483 114.689 508.392 111.358C509.07 103.083 509.37 94.8072 509.426 86.5316L497.458 102.891C494.613 100.797 493.181 99.788 490.289 97.7812L506.99 73.4512Z" fill="#231815"/>
<path d="M531.098 111.716C538.577 103.466 550.034 108.183 556.582 114.819C561.65 119.991 567.831 130.925 561.355 137.473C558.599 134.22 557.218 132.627 554.373 129.493C555.345 127.879 554.207 124.15 550.752 120.54C546.278 115.885 541.339 115.492 538.339 118.579C534.47 122.583 537.775 128.334 540.925 131.51C543.191 133.781 545.989 136.279 548.994 137.799L550.064 136.842C546.827 133.222 545.182 131.427 541.841 127.951L546.149 123.788C550.832 128.657 555.356 133.668 559.721 138.823L550.002 147.042C544.075 145.154 538.893 141.156 534.636 136.755C528.31 130.191 524.054 119.49 531.098 111.716Z" fill="#231815"/>
<path d="M577.756 168.537C579.748 171.909 580.715 173.606 582.587 177.009C579.598 178.649 577.001 181.473 579.81 186.883C582.618 192.293 586.425 191.709 589.456 190.24L595.694 187.204C593.723 183.169 592.694 181.162 590.558 177.164L597.737 173.347C601.078 179.745 604.316 186.179 607.285 192.764L593.532 198.919C584.449 203.222 576.924 198.991 572.589 190.612C568.317 182.352 569.021 173.456 577.756 168.537Z" fill="#231815"/>
<path d="M613.476 207.437C615.317 212.134 616.186 214.487 617.831 219.209C610.207 227.097 602.35 234.653 594.168 241.967C593.102 238.346 592.544 236.557 591.354 232.962C593.133 231.379 594.018 230.578 595.776 228.964C594.106 223.999 592.275 219.059 590.309 214.197C587.909 214.083 586.689 214.032 584.315 213.949C582.861 210.411 582.106 208.642 580.524 205.156C591.551 205.523 602.526 206.294 613.476 207.437ZM601.311 223.73C604.652 220.507 606.307 218.868 609.586 215.521C604.931 215.082 602.593 214.901 597.944 214.59C599.345 218.232 600.023 220.063 601.311 223.73Z" fill="#231815"/>
<path d="M620.929 228.577C622.165 232.534 622.749 234.515 623.851 238.482C617.484 243.99 610.967 249.344 604.259 254.412C612.534 255.964 620.81 257.702 628.956 259.74C629.773 263.743 630.146 265.75 630.828 269.763C620.38 266.82 609.896 264.224 599.278 261.964C598.243 257.117 597.643 254.723 596.371 249.861C604.822 243.059 612.979 235.989 620.929 228.577Z" fill="#231815"/>
<path d="M632.302 279.341C632.964 284.141 633.254 286.546 633.73 291.346C624.456 297.098 615.038 302.502 605.386 307.592C605.195 303.971 605.071 302.13 604.766 298.484C606.866 297.387 607.91 296.829 610 295.691C609.55 290.668 608.966 285.626 608.21 280.634C605.909 280.003 604.761 279.693 602.459 279.083C601.9 275.462 601.59 273.636 600.907 270.011C611.495 272.783 621.927 275.881 632.302 279.341ZM616.615 291.982C620.624 289.686 622.62 288.501 626.582 286.076C622.16 284.648 619.946 283.965 615.508 282.667C616.01 286.391 616.232 288.258 616.615 291.982Z" fill="#231815"/>
<path d="M615.131 307.489C615.317 311.146 615.379 312.976 615.452 316.628C613.315 316.675 611.965 318.697 611.929 324.464C611.888 330.329 612.705 331.457 614.262 331.498C616.067 331.55 616.538 330.567 617.024 324.035C617.06 323.517 617.081 323.248 617.112 322.721C617.36 316.514 618.917 307.504 626.515 307.328C633.968 307.153 636.006 317.275 635.964 323.026C635.923 329.331 633.896 340.213 625.398 340.068C625.615 336.313 625.692 334.436 625.791 330.671C628.051 330.727 628.977 328.219 628.982 322.948C628.982 317.988 628.108 316.788 626.836 316.814C625.315 316.845 624.824 317.911 624.337 324.102C624.286 324.733 624.26 325.048 624.203 325.654C623.727 331.891 622.299 340.953 614.215 340.544C606.245 340.141 604.833 330.981 604.942 324.769C605.066 317.797 606.447 308.363 615.131 307.489Z" fill="#231815"/>
<path d="M619.791 343.471C629.82 344.34 634.351 354.287 633.322 363.333C632.453 370.972 626.872 380.246 617.991 379.444C618.7 375.715 619.026 373.848 619.615 370.093C622.201 370.036 624.679 367.057 625.305 362.309C626.008 356.914 623.391 353.123 619.015 352.693C614.64 352.264 611.309 355.28 610.641 360.452C610.057 364.972 611.5 368.386 613.983 369.245C613.403 372.927 613.088 374.763 612.39 378.42C604.404 376.139 601.528 366.814 602.562 359.443C603.757 351.069 610.585 342.675 619.791 343.471Z" fill="#231815"/>
<path d="M628.946 385.465C627.348 392.985 625.569 400.423 623.577 407.85C622.026 413.54 617.955 418.246 611.681 416.24C607.823 415.009 605.889 412.283 605.775 408.481C604.564 411.693 601.828 413.085 598.384 411.998L592.177 410.043C593.211 406.852 593.672 405.244 594.598 402.021L599.335 403.366C601.865 404.085 602.801 403.666 603.427 401.401C604.699 396.772 605.288 394.439 606.375 389.758L598.254 387.891C599.015 384.617 599.371 382.977 600.039 379.683L628.946 385.465ZM611.195 402.239C610.58 404.53 610.606 406.221 612.897 406.894C615.188 407.566 616.078 406.081 616.709 403.749C617.888 399.394 618.436 397.201 619.46 392.804L613.905 391.501C612.897 395.815 612.354 397.966 611.195 402.239Z" fill="#231815"/>
<path d="M618.839 423.372C617.67 426.873 617.065 428.616 615.798 432.087L588.106 422.017C589.254 418.872 589.808 417.289 590.863 414.108L618.839 423.372Z" fill="#231815"/>
<path d="M613.905 437.124C611.2 443.977 608.34 450.726 605.293 457.435C602.407 463.44 596.382 465.462 590.47 462.571C584.972 459.881 582.349 453.737 585.194 448.089C587.211 443.754 588.173 441.567 590.015 437.155L583.291 434.346C584.584 431.243 585.204 429.691 586.394 426.588L613.905 437.124ZM593.408 449.583C592.373 451.87 592.373 453.204 594.556 454.238C596.738 455.273 597.757 454.394 598.823 452.061C600.545 448.29 601.373 446.372 602.961 442.565L597.468 440.268C595.916 444.018 595.104 445.885 593.413 449.583H593.408Z" fill="#231815"/>
<path d="M598.952 470.331C593.677 480.23 588.034 489.83 581.936 499.248L575.165 494.754C577.777 490.802 579.044 488.8 581.506 484.751L563.28 473.636C565.023 470.765 565.866 469.322 567.531 466.395L586.068 476.977C588.416 472.839 589.554 470.77 591.758 466.555L598.952 470.331Z" fill="#231815"/>
<path d="M559.08 506.086C566.988 512.292 565.421 523.087 559.633 530.136C554.761 536.074 545.017 540.874 538.003 535.34C540.641 532.578 541.939 531.202 544.479 528.337C546.677 529.702 550.38 528.543 553.473 524.892C556.996 520.754 556.861 516.125 553.432 513.373C550.003 510.622 545.57 511.346 542.219 515.308C539.27 518.784 538.598 522.451 540.238 524.519C537.739 527.302 536.472 528.657 533.881 531.393C528.44 525.088 531.135 515.659 536.027 510.032C541.577 503.67 551.839 500.386 559.08 506.086Z" fill="#231815"/>
<path d="M533.633 535.805C541.324 543.31 537.145 554.265 530.214 560.523C523.283 566.781 511.889 569.952 505.201 561.469C498.995 553.577 502.724 543.558 509.463 537.47C516.203 531.383 526.495 528.823 533.633 535.805ZM514.904 543.517C510.524 547.473 509.53 552.139 512.417 555.563C515.303 558.987 520.201 558.666 524.799 554.528C529.397 550.391 530.121 545.575 527.049 542.374C523.976 539.172 519.254 539.612 514.904 543.517V543.517Z" fill="#231815"/>
<path d="M511.222 575.48C505.763 579.701 500.169 583.735 494.438 587.583C487.74 591.768 478.57 589.652 474.499 582.877C470.718 576.587 471.815 567.588 477.97 563.114C483.169 559.624 488.247 555.962 493.202 552.128L511.222 575.48ZM485.474 567.841C481.063 570.887 480.059 574.141 482.485 577.86C484.911 581.578 488.386 581.904 492.995 578.728C495.369 577.089 496.543 576.256 498.87 574.591C495.767 570.303 494.215 568.162 491.112 563.879C488.873 565.477 487.75 566.274 485.474 567.841Z" fill="#231815"/>
<path d="M478.673 597.514C475.368 599.459 473.692 600.411 470.31 602.268L456.071 576.438C459.143 574.757 460.663 573.893 463.663 572.124C468.656 580.586 473.659 589.049 478.673 597.514Z" fill="#231815"/>
<path d="M465.349 604.931C460.275 607.6 457.699 608.878 452.465 611.329C445.074 607.419 437.792 603.281 430.742 598.823C433.318 605.03 435.904 611.252 438.5 617.49C434.88 618.984 433.013 619.708 429.299 621.11C425.816 611.921 422.337 602.73 418.861 593.537C423.853 591.665 426.315 590.677 431.166 588.598C438.159 593.025 445.364 597.132 452.672 601.011L443.74 582.831C446.915 581.279 448.488 580.493 451.596 578.858L465.349 604.931Z" fill="#231815"/>
<path d="M420.269 608.526C424.107 618.979 414.61 626.939 405.678 629.65C398.752 631.75 386.189 632.143 383.391 623.365C387.529 622.434 389.598 621.938 393.699 620.883C394.682 622.496 398.509 623.215 403.314 621.829C409.521 620.035 412.154 615.84 410.804 611.764C409.045 606.483 402.42 606.737 398.137 608.066C395.075 609.018 391.563 610.342 388.827 612.297L389.174 613.688C393.901 612.509 396.239 611.878 400.868 610.528C401.54 612.83 401.902 613.978 402.554 616.28C396.075 618.169 389.536 619.85 382.936 621.322C381.829 616.352 381.276 613.869 380.164 608.909C384.591 604.539 390.539 601.803 396.409 600.075C405.197 597.484 416.653 598.679 420.269 608.526Z" fill="#231815"/>
<path d="M314.435 623.013C310.525 622.739 308.58 622.568 304.716 622.175C305.068 618.787 304.199 615.043 298.174 614.282C292.148 613.522 290.441 616.982 289.929 620.308C289.51 623.054 289.303 624.446 288.895 627.166C293.337 627.833 295.572 628.133 300.077 628.651C299.699 631.878 299.513 633.492 299.141 636.724C291.972 635.835 284.84 634.847 277.738 633.549L280.485 618.73C282.103 608.81 289.862 605.024 299.223 606.219C308.42 607.398 315.345 613.031 314.435 623.013Z" fill="#231815"/>
<path d="M262.118 630.296C257.21 629.148 254.779 628.527 249.958 627.193C247.802 616.44 246.048 605.676 244.683 594.794C248.257 595.968 250.062 596.532 253.693 597.597C253.982 599.956 254.138 601.14 254.469 603.504C259.501 604.952 264.611 606.256 269.721 607.399C271.185 605.49 271.904 604.533 273.342 602.609C277.076 603.426 278.959 603.804 282.755 604.502C276.161 613.347 269.297 621.917 262.118 630.296ZM255.627 611.035C256.377 615.612 256.791 617.903 257.696 622.491C260.706 618.902 262.18 617.091 265.077 613.44C261.26 612.535 259.372 612.054 255.627 611.035Z" fill="#231815"/>
<path d="M240.473 624.404C236.521 623.179 234.556 622.532 230.646 621.182C229.73 612.813 229.037 604.419 228.67 596.009C222.701 601.947 216.577 607.739 210.257 613.305C206.491 611.696 204.629 610.869 200.947 609.167C209.305 602.247 217.419 595.073 225.287 587.646C229.875 589.533 232.202 590.433 236.899 592.13C237.721 602.935 238.921 613.667 240.473 624.404Z" fill="#231815"/>
<path d="M192.252 604.926C187.923 602.744 185.787 601.616 181.566 599.278C182.084 588.381 183.009 577.555 184.302 566.725C187.406 568.638 188.957 569.574 192.154 571.38C191.864 573.733 191.73 574.912 191.471 577.276C195.867 579.764 200.352 582.133 204.883 584.362C206.708 582.81 207.613 582.055 209.419 580.498C212.718 582.102 214.389 582.877 217.756 584.382C209.477 591.534 200.976 598.382 192.252 604.926ZM190.768 584.838C190.38 589.441 190.219 591.753 189.961 596.397C193.654 593.568 195.474 592.13 199.064 589.218C195.712 587.527 194.052 586.638 190.768 584.838V584.838Z" fill="#231815"/>
<path d="M178.851 574.804C175.748 572.875 174.196 571.892 171.15 569.875C172.324 568.091 171.419 565.825 166.707 562.525C161.902 559.158 160.5 559.184 159.59 560.456C158.519 561.915 159.073 562.856 164.157 566.968L165.191 567.785C170.141 571.509 176.689 577.923 172.515 584.274C168.424 590.481 158.938 586.431 154.226 583.131C149.054 579.511 141.26 571.659 146.215 564.749C149.178 567.056 150.678 568.189 153.719 570.439C152.39 572.264 153.931 574.452 158.261 577.452C162.336 580.276 163.826 580.235 164.529 579.175C165.367 577.907 164.767 576.894 159.952 572.968C159.461 572.57 159.217 572.368 158.731 571.964C153.875 568.028 147.228 561.708 152.157 555.284C157.014 548.959 165.357 552.998 170.41 556.624C176.089 560.663 183.061 567.165 178.851 574.804Z" fill="#231815"/>
<path d="M146.597 558.19C140.184 565.948 129.42 564.024 122.567 558.035C116.774 552.976 112.316 543.118 118.021 536.265C120.685 538.965 122.04 540.294 124.791 542.916C123.369 545.078 124.409 548.807 127.967 552.014C132.007 555.635 136.62 555.635 139.455 552.304C142.289 548.973 141.689 544.478 137.836 541.008C134.448 537.956 130.822 537.201 128.717 538.773C126.017 536.187 124.688 534.894 122.071 532.246C128.489 526.97 137.799 529.898 143.277 534.951C149.442 540.682 152.488 551.068 146.597 558.19Z" fill="#231815"/>
<path d="M106.839 541.856C101.56 536.27 96.4374 530.559 91.4721 524.721C87.6809 520.211 86.1137 514.185 91.3428 510.146C94.5495 507.668 97.8908 507.627 101.077 509.696C99.1218 506.872 99.5252 503.83 102.385 501.612L107.506 497.629C109.575 500.282 110.609 501.591 112.735 504.182L108.933 507.316C106.906 508.987 106.72 510.001 108.23 511.801C111.333 515.478 112.885 517.288 116.128 520.842L122.283 515.225C124.543 517.707 125.691 518.933 128.024 521.354L106.839 541.856ZM103.125 517.702C101.573 515.887 100.187 514.951 98.3511 516.466C96.515 517.981 97.2132 519.569 98.7752 521.395C101.687 524.84 103.177 526.536 106.218 529.878L110.428 526.029C107.449 522.771 105.996 521.1 103.125 517.702Z" fill="#231815"/>
<path d="M81.3965 512.013C79.1725 509.064 78.0863 507.57 75.9502 504.559L99.9905 487.491C101.93 490.227 102.918 491.577 104.93 494.256L81.3965 512.013Z" fill="#231815"/>
<path d="M72.8935 500.117C68.7971 493.998 64.8663 487.807 61.0751 481.497C57.7752 475.704 59.5234 469.601 65.2697 466.379C70.6074 463.384 77.1658 464.718 80.1915 470.273C82.6121 474.411 83.8637 476.428 86.4447 480.447L92.5944 476.501C94.4047 479.319 95.3305 480.716 97.2183 483.478L72.8935 500.117ZM74.29 476.17C73.0021 474.013 71.9108 473.258 69.8109 474.473C67.711 475.688 67.8662 477.018 69.1799 479.221C71.3057 482.78 72.397 484.543 74.6365 488.014L79.6432 484.797C77.4295 481.404 76.3589 479.676 74.2745 476.18L74.29 476.17Z" fill="#231815"/>
<path d="M54.0563 468.949C48.8841 458.982 44.2291 448.886 39.931 438.516L47.4773 435.495C49.2462 439.891 50.172 442.074 52.1322 446.398L71.6366 437.724C73.0072 440.786 73.7055 442.307 75.164 445.327L55.9235 454.565C57.9923 458.842 59.0268 460.958 61.2715 465.158L54.0563 468.949Z" fill="#231815"/>
<path d="M47.2859 415.837C37.6812 418.816 29.7005 411.389 27.1816 402.627C25.0662 395.241 26.6644 384.494 35.1933 381.871C35.9692 385.611 36.3829 387.473 37.2622 391.181C34.8934 392.216 33.74 395.919 34.9865 400.543C36.4088 405.803 40.2776 408.301 44.4878 407.055C48.6979 405.808 50.622 401.738 49.2721 396.71C48.0825 392.309 45.4395 389.686 42.8172 389.847C41.9431 386.226 41.5345 384.38 40.7483 380.713C49.0238 379.813 55.2304 387.39 57.1028 394.616C59.2337 402.793 56.1045 413.101 47.2859 415.837Z" fill="#231815"/>
<path d="M37.3037 377.996C26.7576 380.065 20.1217 370.393 18.9062 361.135C17.6908 351.877 21.5647 340.695 32.3539 340.017C42.3776 339.381 48.4912 348.158 49.6653 357.158C50.8394 366.157 47.1154 376.072 37.3037 377.996ZM41.6018 358.202C40.8363 352.347 37.5623 348.892 33.1039 349.311C28.6455 349.73 26.1318 353.966 26.9335 360.095C27.7352 366.224 31.2781 369.566 35.659 368.852C40.0398 368.138 42.3776 363.98 41.6018 358.202Z" fill="#231815"/>
<path d="M17.3908 337.008C17.0253 330.111 16.8856 323.215 16.9718 316.319C17.3339 308.431 24.306 302.095 32.1781 302.592C39.5019 303.047 46.2826 309.067 46.4637 316.676C46.3844 322.934 46.5119 329.192 46.8464 335.451L17.3908 337.008ZM38.3071 320.162C38.3071 314.803 36.202 312.129 31.7695 312.01C27.3369 311.891 25.0818 314.565 25.0818 320.162C25.0818 323.048 25.0818 324.491 25.1594 327.367L38.3847 327.056C38.3226 324.305 38.3071 322.924 38.3071 320.162V320.162Z" fill="#231815"/>
<path d="M17.7629 297.703C18.0371 293.876 18.2026 291.957 18.6008 288.119L47.9427 291.083C47.5858 294.569 47.4255 296.307 47.1824 299.782L17.7629 297.703Z" fill="#231815"/>
<path d="M19.2268 282.523C19.9199 276.833 20.3285 273.983 21.2957 268.289C28.7126 264.43 36.2588 260.789 43.9447 257.494L24.1921 253.258C25.03 249.405 25.48 247.481 26.4472 243.633L55.0649 250.714C53.7719 255.886 53.1874 258.472 52.1375 263.644C44.5085 266.887 37.0347 270.471 29.685 274.283L49.7065 277.283C49.1893 280.774 48.9359 282.517 48.5118 286.003L19.2268 282.523Z" fill="#231815"/>
<path d="M41.8914 243.385C31.1074 240.608 29.9644 228.267 32.7987 219.376C35.0073 212.487 41.8242 201.925 50.6376 204.615C49.0394 208.566 48.2739 210.542 46.8205 214.504C44.9379 214.395 42.1656 217.137 40.5777 221.874C38.5088 228.008 40.4846 232.555 44.6069 233.77C49.9497 235.322 53.503 229.731 54.8426 225.453C55.7995 222.391 56.7046 218.73 56.6581 215.383L55.3133 214.866C53.5961 219.423 52.7893 221.709 51.2686 226.281L45.5792 224.403C47.7033 217.997 50.0359 211.661 52.5772 205.396L64.3698 210.175C65.456 216.299 64.3284 222.748 62.4095 228.562C59.5441 237.267 52.0496 246.008 41.8914 243.385Z" fill="#231815"/>
<path d="M345.323 604.078C349.067 603.724 352.832 604.488 356.141 606.274C359.45 608.06 362.155 610.787 363.914 614.111C365.673 617.435 366.406 621.206 366.022 624.946C365.637 628.687 364.151 632.23 361.752 635.126C359.354 638.022 356.15 640.141 352.546 641.216C348.943 642.291 345.101 642.273 341.508 641.164C337.915 640.055 334.731 637.905 332.36 634.986C329.989 632.067 328.537 628.511 328.188 624.767C327.719 619.751 329.26 614.755 332.473 610.875C335.686 606.996 340.308 604.551 345.323 604.078V604.078ZM345.07 601.373C340.792 601.778 336.731 603.442 333.399 606.156C330.068 608.869 327.615 612.509 326.353 616.617C325.09 620.724 325.074 625.113 326.307 629.229C327.539 633.345 329.964 637.004 333.276 639.742C336.587 642.48 340.636 644.174 344.911 644.61C349.185 645.047 353.493 644.206 357.29 642.194C361.086 640.181 364.201 637.089 366.24 633.306C368.278 629.524 369.15 625.222 368.743 620.944C368.475 618.104 367.65 615.344 366.316 612.822C364.981 610.3 363.162 608.066 360.964 606.247C358.766 604.428 356.23 603.06 353.503 602.221C350.776 601.382 347.911 601.089 345.07 601.357V601.373Z" fill="#040000"/>
<path d="M344.739 630.974C344.509 631.25 344.179 631.424 343.822 631.458C343.464 631.492 343.108 631.383 342.83 631.155L340.922 629.572L339.339 631.486C339.235 631.649 339.097 631.787 338.935 631.893C338.773 631.998 338.59 632.067 338.399 632.097C338.208 632.126 338.013 632.114 337.827 632.062C337.641 632.01 337.468 631.919 337.32 631.795C337.172 631.671 337.052 631.517 336.968 631.343C336.884 631.169 336.839 630.979 336.834 630.785C336.829 630.592 336.866 630.4 336.941 630.222C337.016 630.044 337.128 629.885 337.27 629.753L338.853 627.845L336.939 626.262C336.677 626.028 336.516 625.701 336.49 625.35C336.464 625 336.574 624.653 336.798 624.382C337.022 624.111 337.343 623.937 337.692 623.897C338.041 623.857 338.392 623.954 338.672 624.167L340.585 625.75L342.168 623.836C342.279 623.691 342.419 623.569 342.578 623.479C342.737 623.388 342.913 623.331 343.095 623.31C343.277 623.289 343.461 623.305 343.637 623.358C343.812 623.41 343.975 623.497 344.117 623.613C344.258 623.73 344.374 623.874 344.458 624.037C344.542 624.199 344.592 624.377 344.606 624.56C344.62 624.743 344.596 624.926 344.537 625.1C344.478 625.273 344.385 625.433 344.263 625.569L342.675 627.483L344.589 629.066C344.726 629.179 344.84 629.318 344.924 629.475C345.008 629.632 345.06 629.804 345.077 629.981C345.095 630.158 345.077 630.337 345.025 630.508C344.973 630.678 344.888 630.837 344.775 630.974H344.739ZM358.259 629.696C358.145 629.835 358.006 629.949 357.848 630.033C357.69 630.116 357.517 630.168 357.34 630.185C357.162 630.202 356.982 630.183 356.812 630.131C356.641 630.078 356.482 629.992 356.345 629.878V629.878L354.431 628.295L352.849 630.209C352.743 630.369 352.605 630.505 352.443 630.609C352.281 630.712 352.099 630.779 351.909 630.807C351.719 630.835 351.525 630.822 351.34 630.77C351.156 630.717 350.984 630.626 350.837 630.503C350.69 630.379 350.571 630.226 350.487 630.053C350.404 629.88 350.358 629.692 350.352 629.5C350.347 629.308 350.382 629.117 350.456 628.939C350.53 628.762 350.64 628.602 350.78 628.471L352.368 626.562L350.454 624.979C350.229 624.737 350.101 624.42 350.093 624.089C350.085 623.759 350.197 623.436 350.41 623.182C350.622 622.929 350.92 622.761 351.247 622.711C351.574 622.661 351.908 622.732 352.187 622.911L354.095 624.498L355.678 622.58C355.921 622.351 356.239 622.22 356.572 622.21C356.905 622.201 357.23 622.314 357.485 622.529C357.74 622.743 357.908 623.044 357.956 623.373C358.004 623.703 357.93 624.039 357.747 624.317L356.164 626.226L358.078 627.809C358.215 627.922 358.329 628.061 358.412 628.219C358.495 628.376 358.547 628.548 358.564 628.725C358.581 628.903 358.562 629.081 358.51 629.252C358.458 629.422 358.372 629.58 358.259 629.717V629.696ZM340.937 615.364C340.837 614.295 341.055 613.22 341.566 612.275C342.076 611.33 342.855 610.557 343.805 610.055C344.754 609.553 345.831 609.343 346.899 609.453C347.968 609.563 348.98 609.987 349.807 610.672C350.634 611.357 351.24 612.272 351.548 613.301C351.855 614.33 351.85 615.427 351.534 616.454C351.218 617.48 350.605 618.39 349.772 619.068C348.939 619.746 347.923 620.162 346.854 620.262C345.423 620.397 343.998 619.959 342.889 619.045C341.78 618.131 341.079 616.815 340.937 615.385V615.364Z" fill="#040000"/>
</svg>
