<svg width="70" height="70" viewBox="0 0 70 70" fill="none" xmlns="http://www.w3.org/2000/svg">
<g clip-path="url(#clip0_391_13)">
<path d="M35 65.625C26.8777 65.625 19.0882 62.3984 13.3449 56.6551C7.60155 50.9118 4.375 43.1223 4.375 35C4.375 26.8777 7.60155 19.0882 13.3449 13.3449C19.0882 7.60155 26.8777 4.375 35 4.375C43.1223 4.375 50.9118 7.60155 56.6551 13.3449C62.3984 19.0882 65.625 26.8777 65.625 35C65.625 43.1223 62.3984 50.9118 56.6551 56.6551C50.9118 62.3984 43.1223 65.625 35 65.625ZM35 70C44.2826 70 53.185 66.3125 59.7487 59.7487C66.3125 53.185 70 44.2826 70 35C70 25.7174 66.3125 16.815 59.7487 10.2513C53.185 3.68749 44.2826 0 35 0C25.7174 0 16.815 3.68749 10.2513 10.2513C3.68749 16.815 0 25.7174 0 35C0 44.2826 3.68749 53.185 10.2513 59.7487C16.815 66.3125 25.7174 70 35 70V70Z" fill="#F55C47"/>
<path d="M49.5031 43.8113C49.9184 43.7135 50.3532 43.7393 50.754 43.8855C51.1549 44.0317 51.5042 44.2919 51.759 44.6341C52.0138 44.9764 52.1629 45.3856 52.1881 45.8115C52.2133 46.2374 52.1133 46.6614 51.9006 47.0313C50.173 50.0253 47.6872 52.5115 44.6935 54.2395C41.6997 55.9676 38.3036 56.8766 34.8468 56.875C31.3901 56.8766 27.994 55.9676 25.0002 54.2395C22.0064 52.5115 19.5207 50.0253 17.7931 47.0313C17.5804 46.6614 17.4804 46.2374 17.5056 45.8115C17.5307 45.3856 17.6799 44.9764 17.9347 44.6341C18.1895 44.2919 18.5388 44.0317 18.9396 43.8855C19.3405 43.7393 19.7753 43.7135 20.1906 43.8113H20.2125L20.2868 43.8331L20.58 43.8988L21.6825 44.1394C22.6231 44.3406 23.9356 44.6119 25.4318 44.8788C28.4637 45.4213 32.0906 45.9375 34.8468 45.9375C37.6031 45.9375 41.2343 45.4213 44.2618 44.8788C45.8859 44.5865 47.5036 44.2598 49.1137 43.8988L49.4068 43.8331L49.4812 43.8156L49.5031 43.8069V43.8113ZM20.8075 19.9763C24.1456 13.7463 38.395 19.4513 24.9725 35C5.30247 28.0175 14.6912 16.1963 20.8075 19.9763ZM49.1925 19.9763C55.3087 16.1963 64.6975 28.0175 45.0275 35C31.6093 19.4513 45.8587 13.7463 49.1925 19.9763Z" fill="#F55C47"/>
</g>
<defs>
<clipPath id="clip0_391_13">
<rect width="70" height="70" fill="white"/>
</clipPath>
</defs>
</svg>
