<svg width="100" height="75" viewBox="0 0 100 75" fill="none" xmlns="http://www.w3.org/2000/svg">
<path d="M23.4984 50.2669C23.2135 49.7657 22.8323 49.3259 22.3767 48.9727C21.9211 48.6195 21.4002 48.36 20.8439 48.2089C20.2876 48.0579 19.7069 48.0184 19.1352 48.0927C18.5636 48.167 18.0123 48.3536 17.5131 48.6419C17.0138 48.9301 16.5766 49.3142 16.2264 49.7721C15.8763 50.2301 15.6201 50.7527 15.4728 51.31C15.3254 51.8673 15.2898 52.4483 15.3679 53.0194C15.446 53.5905 15.6363 54.1406 15.9278 54.6379C19.3799 60.6205 24.3469 65.5884 30.329 69.0414C36.3111 72.4943 43.0972 74.3107 50.0044 74.3075C56.9112 74.3089 63.6966 72.4918 69.6784 69.039C75.6602 65.5862 80.6275 60.6194 84.0809 54.6379C84.3725 54.1406 84.5628 53.5905 84.6409 53.0194C84.7189 52.4483 84.6833 51.8673 84.5359 51.31C84.3886 50.7527 84.1325 50.2301 83.7823 49.7721C83.4322 49.3142 82.9949 48.9301 82.4957 48.6419C81.9965 48.3536 81.4452 48.167 80.8735 48.0927C80.3019 48.0184 79.7212 48.0579 79.1649 48.2089C78.6086 48.36 78.0876 48.6195 77.632 48.9727C77.1764 49.3259 76.7952 49.7657 76.5103 50.2669C73.8255 54.9206 69.962 58.7848 65.3088 61.4706C60.6557 64.1563 55.377 65.5686 50.0044 65.5655C44.6317 65.5686 39.3531 64.1563 34.6999 61.4706C30.0467 58.7848 26.1832 54.9206 23.4984 50.2669ZM41.2623 9.75614V8.74206C41.2623 6.42352 40.3413 4.19995 38.7018 2.56049C37.0624 0.921038 34.8388 0 32.5202 0H8.74183C7.41299 3.49329e-05 6.10164 0.303008 4.90746 0.88589C3.71327 1.46877 2.66769 2.31622 1.85016 3.36383C1.03264 4.41144 0.464702 5.63163 0.189512 6.93167C-0.0856785 8.23171 -0.0608773 9.57737 0.262032 10.8664L2.98081 21.724C3.92629 25.5065 6.10893 28.8645 9.18182 31.2642C12.2547 33.6639 16.0415 34.9677 19.9404 34.9683H23.7782C28.1724 34.9693 32.4058 33.3158 35.636 30.3367C38.8661 27.3576 40.8561 23.2715 41.2099 18.8916C44.0393 17.9228 47.0139 17.4467 50.0044 17.4841C53.44 17.4841 56.4735 18.0436 58.7989 18.8916C59.1526 23.2715 61.1426 27.3576 64.3727 30.3367C67.6029 33.3158 71.8364 34.9693 76.2306 34.9683H80.0596C83.9585 34.9677 87.7453 33.6639 90.8182 31.2642C93.8911 28.8645 96.0737 25.5065 97.0192 21.724L99.738 10.8664C100.061 9.57809 100.086 8.23319 99.8109 6.9338C99.5362 5.63442 98.9691 4.41471 98.1525 3.36728C97.336 2.31984 96.2915 1.47222 95.0984 0.888762C93.9053 0.305308 92.595 0.00136284 91.2669 0H67.4885C65.17 0 62.9464 0.921038 61.3069 2.56049C59.6675 4.19995 58.7464 6.42352 58.7464 8.74206V9.75614C55.8833 9.0705 52.9484 8.73005 50.0044 8.74206C46.9446 8.74206 43.9723 9.09175 41.2623 9.75614Z" fill="black"/>
</svg>
