<svg width="652" height="652" viewBox="0 0 652 652" fill="none" xmlns="http://www.w3.org/2000/svg">
<path d="M326 651C505.493 651 651 505.493 651 326C651 146.507 505.493 1 326 1C146.507 1 1 146.507 1 326C1 505.493 146.507 651 326 651Z" fill="#D9D9D9" stroke="#231815" stroke-width="2" stroke-miterlimit="10"/>
<path d="M533.803 106.383C533.924 106.308 534.065 106.273 534.207 106.283C534.349 106.293 534.484 106.348 534.593 106.438C534.703 106.529 534.78 106.652 534.816 106.79C534.851 106.928 534.843 107.073 534.791 107.206L533.379 110.764C533.07 111.547 532.947 112.391 533.021 113.229C533.094 114.068 533.362 114.878 533.803 115.595L535.805 118.853C535.881 118.975 535.916 119.117 535.906 119.259C535.896 119.402 535.842 119.538 535.75 119.648C535.658 119.757 535.534 119.835 535.395 119.87C535.256 119.905 535.11 119.895 534.977 119.841L531.419 118.429C530.637 118.12 529.793 117.997 528.956 118.071C528.118 118.145 527.309 118.412 526.593 118.853L523.335 120.855C523.182 120.949 522.999 120.979 522.824 120.938C522.65 120.898 522.499 120.79 522.404 120.638C522.348 120.547 522.313 120.445 522.303 120.339C522.294 120.233 522.308 120.127 522.347 120.027L523.759 116.469C524.068 115.687 524.191 114.844 524.117 114.006C524.043 113.168 523.775 112.359 523.335 111.643L521.333 108.385C521.286 108.309 521.253 108.225 521.239 108.137C521.224 108.049 521.227 107.959 521.247 107.872C521.267 107.785 521.304 107.702 521.356 107.63C521.408 107.557 521.474 107.496 521.55 107.449C521.641 107.395 521.744 107.362 521.849 107.353C521.955 107.344 522.061 107.359 522.161 107.397L525.719 108.804C526.5 109.115 527.344 109.239 528.182 109.166C529.019 109.094 529.829 108.826 530.545 108.385L533.803 106.383ZM534.403 94.4043C534.449 94.3761 534.499 94.3572 534.552 94.3487C534.605 94.3401 534.659 94.3422 534.711 94.3547C534.763 94.3672 534.812 94.3899 534.855 94.4215C534.898 94.4532 534.934 94.493 534.962 94.5388C534.996 94.5922 535.016 94.653 535.022 94.716C535.027 94.7791 535.017 94.8425 534.993 94.9009L534.15 97.037C533.964 97.5063 533.891 98.0124 533.935 98.5151C533.979 99.0178 534.139 99.5033 534.403 99.9334L535.603 101.888C535.632 101.934 535.651 101.984 535.66 102.036C535.669 102.089 535.667 102.143 535.655 102.195C535.643 102.247 535.621 102.296 535.59 102.339C535.559 102.382 535.519 102.419 535.474 102.447C535.419 102.481 535.358 102.502 535.294 102.508C535.231 102.514 535.166 102.506 535.107 102.483L532.976 101.635C532.506 101.449 532 101.374 531.497 101.418C530.994 101.462 530.509 101.623 530.079 101.888L528.119 103.088C528.074 103.117 528.024 103.136 527.971 103.145C527.918 103.154 527.865 103.152 527.813 103.14C527.761 103.128 527.712 103.106 527.668 103.075C527.625 103.044 527.588 103.005 527.56 102.959C527.527 102.904 527.507 102.843 527.502 102.779C527.496 102.715 527.506 102.651 527.529 102.592L528.372 100.461C528.559 99.9918 528.633 99.4856 528.589 98.9827C528.545 98.4798 528.384 97.9941 528.119 97.5645L526.919 95.6043C526.872 95.5297 526.85 95.4418 526.856 95.3537C526.863 95.2656 526.898 95.1821 526.957 95.1157C527.015 95.0492 527.093 95.0035 527.18 94.9853C527.266 94.9671 527.356 94.9774 527.436 95.0146L529.572 95.8577C530.041 96.0442 530.548 96.1184 531.051 96.0744C531.553 96.0304 532.039 95.8694 532.469 95.6043L534.403 94.4043ZM545.818 101.418C545.849 101.399 545.883 101.387 545.918 101.381C545.953 101.376 545.989 101.378 546.024 101.386C546.059 101.395 546.091 101.41 546.12 101.432C546.148 101.453 546.172 101.48 546.191 101.511C546.208 101.548 546.218 101.589 546.218 101.63C546.218 101.671 546.208 101.712 546.191 101.749L545.627 103.171C545.502 103.484 545.452 103.823 545.481 104.159C545.511 104.495 545.619 104.819 545.797 105.106L546.594 106.409C546.613 106.439 546.625 106.473 546.63 106.509C546.636 106.544 546.634 106.58 546.626 106.615C546.617 106.649 546.601 106.682 546.58 106.711C546.559 106.739 546.532 106.763 546.501 106.781C546.464 106.798 546.425 106.806 546.384 106.806C546.344 106.806 546.305 106.798 546.268 106.781L544.846 106.218C544.533 106.092 544.194 106.043 543.858 106.072C543.522 106.102 543.198 106.21 542.911 106.388L541.608 107.185C541.577 107.203 541.544 107.216 541.508 107.221C541.473 107.227 541.437 107.225 541.402 107.216C541.368 107.208 541.335 107.192 541.306 107.171C541.278 107.149 541.254 107.123 541.236 107.092C541.218 107.055 541.208 107.014 541.208 106.973C541.208 106.932 541.218 106.891 541.236 106.854L541.799 105.431C541.922 105.119 541.971 104.782 541.941 104.447C541.911 104.112 541.804 103.789 541.629 103.502L540.827 102.199C540.791 102.136 540.781 102.062 540.8 101.992C540.818 101.923 540.863 101.863 540.925 101.826C540.961 101.809 541.001 101.799 541.042 101.799C541.082 101.799 541.122 101.809 541.158 101.826L542.58 102.39C542.894 102.513 543.232 102.561 543.568 102.532C543.903 102.502 544.227 102.395 544.515 102.22L545.818 101.418Z" fill="#040000"/>
<path d="M541.779 535.365C541.843 535.492 541.865 535.635 541.843 535.775C541.822 535.915 541.757 536.045 541.657 536.146C541.558 536.247 541.429 536.314 541.29 536.338C541.15 536.363 541.006 536.342 540.879 536.281L537.439 534.6C536.683 534.231 535.851 534.044 535.01 534.053C534.169 534.062 533.341 534.267 532.593 534.651L529.19 536.394C529.063 536.46 528.919 536.484 528.778 536.463C528.636 536.443 528.505 536.378 528.403 536.278C528.301 536.178 528.233 536.049 528.209 535.908C528.185 535.767 528.206 535.623 528.269 535.495L529.95 532.055C530.319 531.299 530.507 530.467 530.498 529.626C530.489 528.784 530.284 527.957 529.898 527.209L528.155 523.805C528.073 523.646 528.058 523.461 528.112 523.29C528.166 523.12 528.286 522.978 528.445 522.895C528.539 522.846 528.644 522.821 528.75 522.821C528.856 522.821 528.961 522.846 529.055 522.895L532.495 524.571C533.25 524.94 534.082 525.128 534.923 525.12C535.764 525.112 536.592 524.908 537.341 524.524L540.744 522.776C540.871 522.71 541.015 522.686 541.156 522.707C541.297 522.728 541.428 522.793 541.53 522.893C541.632 522.992 541.7 523.122 541.725 523.263C541.749 523.403 541.728 523.548 541.665 523.676L539.984 527.116C539.615 527.872 539.428 528.704 539.437 529.545C539.446 530.386 539.651 531.214 540.036 531.962L541.779 535.365ZM553.675 536.886C553.707 536.959 553.718 537.041 553.704 537.12C553.69 537.2 553.654 537.273 553.598 537.332C553.543 537.391 553.472 537.432 553.393 537.45C553.315 537.468 553.233 537.462 553.158 537.434L551.089 536.431C550.637 536.205 550.14 536.087 549.635 536.087C549.131 536.087 548.633 536.205 548.182 536.431L546.113 537.465C546.039 537.501 545.957 537.513 545.876 537.5C545.795 537.488 545.72 537.451 545.661 537.395C545.601 537.339 545.56 537.266 545.543 537.186C545.526 537.107 545.534 537.023 545.565 536.948L546.568 534.879C546.794 534.428 546.911 533.93 546.911 533.426C546.911 532.921 546.794 532.423 546.568 531.972L545.534 529.903C545.485 529.807 545.476 529.696 545.509 529.593C545.542 529.49 545.614 529.405 545.71 529.355C545.767 529.327 545.829 529.312 545.893 529.312C545.957 529.312 546.02 529.327 546.077 529.355L548.146 530.364C548.599 530.586 549.098 530.699 549.603 530.693C550.107 530.688 550.604 530.564 551.052 530.333L553.095 529.298C553.143 529.273 553.195 529.258 553.248 529.253C553.302 529.249 553.355 529.255 553.406 529.271C553.458 529.288 553.505 529.314 553.545 529.349C553.586 529.384 553.62 529.426 553.644 529.474C553.67 529.531 553.684 529.593 553.684 529.655C553.684 529.718 553.67 529.78 553.644 529.836L552.609 531.905C552.383 532.357 552.266 532.856 552.266 533.361C552.266 533.866 552.383 534.365 552.609 534.817L553.675 536.886ZM545.803 547.747C545.827 547.798 545.835 547.855 545.826 547.911C545.816 547.967 545.79 548.018 545.751 548.058C545.711 548.098 545.66 548.125 545.604 548.135C545.549 548.146 545.492 548.138 545.441 548.115L544.065 547.442C543.764 547.292 543.432 547.213 543.095 547.213C542.758 547.213 542.426 547.292 542.125 547.442L540.765 548.141C540.733 548.156 540.698 548.166 540.663 548.168C540.627 548.17 540.592 548.166 540.558 548.154C540.524 548.143 540.493 548.124 540.467 548.101C540.44 548.077 540.418 548.048 540.403 548.016C540.385 547.979 540.376 547.939 540.376 547.897C540.376 547.856 540.385 547.816 540.403 547.778L541.075 546.408C541.226 546.106 541.304 545.773 541.304 545.435C541.304 545.098 541.226 544.765 541.075 544.463L540.377 543.103C540.361 543.071 540.352 543.036 540.349 543.001C540.347 542.965 540.352 542.93 540.363 542.896C540.375 542.862 540.393 542.831 540.417 542.804C540.44 542.778 540.469 542.756 540.501 542.741C540.539 542.724 540.579 542.716 540.62 542.716C540.661 542.716 540.702 542.724 540.739 542.741L542.115 543.413C542.416 543.565 542.748 543.644 543.085 543.644C543.422 543.644 543.754 543.565 544.054 543.413L545.415 542.72C545.446 542.704 545.481 542.694 545.516 542.692C545.551 542.689 545.587 542.693 545.62 542.704C545.654 542.715 545.685 542.733 545.712 542.756C545.739 542.779 545.761 542.807 545.777 542.839C545.793 542.877 545.802 542.917 545.802 542.958C545.802 542.999 545.793 543.04 545.777 543.077L545.104 544.453C544.953 544.753 544.873 545.086 544.873 545.423C544.873 545.759 544.953 546.092 545.104 546.392L545.803 547.753V547.747Z" fill="#040000"/>
<path d="M111.313 530.731C111.189 530.802 111.046 530.832 110.905 530.816C110.764 530.801 110.631 530.742 110.525 530.647C110.419 530.552 110.346 530.426 110.315 530.287C110.285 530.148 110.299 530.003 110.356 529.873L111.907 526.366C112.244 525.595 112.397 524.756 112.353 523.916C112.309 523.075 112.069 522.257 111.654 521.525L109.771 518.194C109.703 518.071 109.675 517.929 109.691 517.789C109.707 517.648 109.766 517.516 109.861 517.412C109.955 517.307 110.08 517.234 110.218 517.204C110.356 517.173 110.5 517.187 110.63 517.242L114.137 518.794C114.908 519.13 115.746 519.283 116.586 519.24C117.427 519.197 118.245 518.959 118.978 518.546L122.304 516.658C122.381 516.614 122.466 516.585 122.555 516.574C122.643 516.563 122.733 516.569 122.819 516.592C122.905 516.616 122.986 516.656 123.056 516.711C123.126 516.766 123.185 516.834 123.229 516.911C123.283 517.002 123.313 517.105 123.319 517.21C123.324 517.315 123.304 517.421 123.26 517.516L121.709 521.023C121.371 521.794 121.218 522.633 121.261 523.473C121.304 524.314 121.542 525.132 121.957 525.864L123.845 529.195C123.914 529.319 123.943 529.462 123.927 529.603C123.911 529.744 123.851 529.877 123.756 529.982C123.66 530.087 123.534 530.16 123.395 530.19C123.256 530.219 123.111 530.204 122.981 530.147L119.474 528.595C118.704 528.259 117.866 528.106 117.027 528.149C116.188 528.193 115.37 528.43 114.638 528.844L111.313 530.731ZM110.278 542.679C110.232 542.706 110.181 542.723 110.128 542.73C110.075 542.737 110.022 542.734 109.97 542.72C109.919 542.706 109.871 542.682 109.828 542.649C109.786 542.616 109.751 542.576 109.725 542.529C109.697 542.472 109.682 542.409 109.682 542.346C109.682 542.282 109.697 542.219 109.725 542.162L110.645 540.057C110.848 539.595 110.94 539.092 110.914 538.588C110.887 538.085 110.744 537.594 110.495 537.155L109.363 535.159C109.31 535.064 109.297 534.952 109.326 534.848C109.355 534.743 109.424 534.654 109.518 534.6C109.574 534.572 109.636 534.557 109.699 534.557C109.762 534.557 109.824 534.572 109.88 534.6L111.985 535.521C112.447 535.722 112.95 535.813 113.453 535.787C113.957 535.761 114.448 535.619 114.887 535.371L116.888 534.238C116.934 534.211 116.985 534.194 117.038 534.187C117.091 534.18 117.145 534.184 117.196 534.198C117.248 534.212 117.296 534.236 117.338 534.268C117.38 534.301 117.415 534.342 117.442 534.388C117.47 534.445 117.484 534.508 117.484 534.572C117.484 534.635 117.47 534.698 117.442 534.755L116.521 536.855C116.317 537.318 116.225 537.822 116.251 538.326C116.277 538.831 116.421 539.323 116.671 539.762L117.804 541.759C117.856 541.853 117.869 541.964 117.84 542.067C117.811 542.171 117.742 542.259 117.649 542.312C117.593 542.341 117.531 542.356 117.468 542.356C117.405 542.356 117.342 542.341 117.286 542.312L115.181 541.391C114.718 541.19 114.215 541.099 113.71 541.125C113.206 541.151 112.715 541.293 112.275 541.541L110.278 542.679ZM99.1321 535.288C99.0823 535.315 99.0254 535.326 98.9693 535.319C98.9131 535.312 98.8605 535.288 98.8186 535.25C98.7767 535.212 98.7475 535.162 98.7351 535.107C98.7227 535.051 98.7277 534.994 98.7493 534.942L99.3648 533.54C99.4992 533.232 99.5598 532.896 99.5419 532.56C99.5239 532.225 99.4279 531.898 99.2614 531.606L98.5114 530.271C98.494 530.24 98.4828 530.206 98.4786 530.171C98.4744 530.136 98.4771 530.1 98.4868 530.066C98.4964 530.032 98.5126 530 98.5346 529.972C98.5566 529.944 98.5839 529.921 98.6149 529.904C98.6516 529.885 98.6924 529.875 98.7338 529.875C98.7752 529.875 98.816 529.885 98.8528 529.904L100.254 530.514C100.563 530.649 100.899 530.711 101.236 530.694C101.572 530.677 101.901 530.582 102.194 530.416L103.523 529.661C103.554 529.644 103.589 529.633 103.624 529.629C103.66 529.625 103.695 529.628 103.73 529.638C103.764 529.648 103.796 529.665 103.823 529.688C103.851 529.71 103.874 529.738 103.891 529.769C103.908 529.806 103.918 529.845 103.918 529.886C103.918 529.926 103.908 529.966 103.891 530.002L103.275 531.404C103.141 531.713 103.08 532.049 103.098 532.386C103.116 532.722 103.212 533.05 103.378 533.343L104.128 534.673C104.146 534.704 104.157 534.738 104.16 534.774C104.164 534.809 104.161 534.845 104.151 534.879C104.141 534.913 104.124 534.945 104.102 534.973C104.079 535 104.051 535.023 104.02 535.04C103.984 535.058 103.944 535.067 103.903 535.067C103.863 535.067 103.823 535.058 103.787 535.04L102.385 534.424C102.076 534.29 101.74 534.229 101.403 534.247C101.067 534.265 100.739 534.361 100.446 534.528L99.1166 535.278L99.1321 535.288Z" fill="#040000"/>
<path d="M116.237 113.604C116.175 113.476 116.156 113.332 116.181 113.192C116.206 113.053 116.274 112.925 116.376 112.826C116.477 112.727 116.607 112.663 116.748 112.642C116.888 112.621 117.031 112.644 117.157 112.709L120.55 114.473C121.297 114.861 122.125 115.07 122.967 115.083C123.809 115.097 124.642 114.914 125.402 114.55L128.846 112.89C128.974 112.829 129.118 112.81 129.258 112.834C129.397 112.859 129.525 112.928 129.624 113.029C129.723 113.131 129.787 113.261 129.808 113.401C129.829 113.541 129.806 113.685 129.741 113.811L127.977 117.209C127.59 117.956 127.382 118.782 127.369 119.623C127.357 120.465 127.54 121.297 127.905 122.055L129.56 125.5C129.623 125.628 129.644 125.773 129.62 125.913C129.596 126.054 129.528 126.183 129.426 126.283C129.324 126.383 129.193 126.448 129.051 126.469C128.91 126.49 128.766 126.466 128.639 126.4L125.241 124.615C124.495 124.228 123.668 124.019 122.827 124.007C121.985 123.994 121.153 124.178 120.395 124.543L116.95 126.203C116.788 126.28 116.602 126.29 116.433 126.231C116.264 126.172 116.124 126.049 116.045 125.888C115.997 125.793 115.971 125.689 115.971 125.583C115.971 125.476 115.997 125.372 116.045 125.277L117.809 121.884C118.196 121.138 118.404 120.311 118.417 119.47C118.43 118.629 118.246 117.796 117.881 117.038L116.237 113.604ZM104.382 111.783C104.353 111.707 104.347 111.624 104.365 111.545C104.383 111.466 104.425 111.394 104.484 111.338C104.544 111.282 104.618 111.246 104.699 111.233C104.779 111.22 104.861 111.232 104.935 111.266L106.973 112.3C107.421 112.533 107.917 112.657 108.422 112.664C108.926 112.672 109.425 112.561 109.88 112.342L111.949 111.349C112.046 111.302 112.158 111.297 112.26 111.332C112.361 111.368 112.445 111.443 112.492 111.54C112.521 111.596 112.537 111.658 112.537 111.721C112.537 111.784 112.521 111.846 112.492 111.902L111.432 113.94C111.199 114.388 111.075 114.884 111.068 115.388C111.06 115.893 111.171 116.392 111.39 116.847L112.383 118.916C112.423 119.009 112.426 119.115 112.392 119.211C112.357 119.307 112.288 119.386 112.197 119.433C112.14 119.462 112.077 119.478 112.013 119.478C111.95 119.478 111.887 119.462 111.83 119.433L109.787 118.409C109.339 118.176 108.843 118.052 108.338 118.045C107.834 118.037 107.334 118.148 106.88 118.367L104.811 119.36C104.763 119.384 104.711 119.398 104.658 119.402C104.605 119.405 104.551 119.398 104.501 119.381C104.45 119.363 104.404 119.336 104.364 119.301C104.324 119.265 104.291 119.222 104.268 119.174C104.24 119.117 104.225 119.054 104.225 118.991C104.225 118.927 104.24 118.864 104.268 118.807L105.328 116.769C105.561 116.321 105.685 115.825 105.692 115.321C105.7 114.816 105.589 114.317 105.37 113.862L104.382 111.783ZM112.528 101.149C112.512 101.117 112.503 101.082 112.501 101.046C112.499 101.01 112.505 100.975 112.517 100.941C112.529 100.907 112.547 100.876 112.571 100.85C112.596 100.823 112.625 100.802 112.657 100.787C112.694 100.768 112.735 100.758 112.776 100.758C112.818 100.758 112.859 100.768 112.895 100.787L114.271 101.496C114.57 101.651 114.901 101.735 115.237 101.74C115.574 101.746 115.907 101.673 116.211 101.527L117.592 100.865C117.643 100.839 117.7 100.831 117.756 100.841C117.813 100.85 117.864 100.877 117.904 100.918C117.944 100.959 117.969 101.011 117.977 101.068C117.985 101.124 117.975 101.182 117.949 101.232L117.245 102.587C117.09 102.886 117.006 103.216 117 103.553C116.995 103.89 117.068 104.223 117.214 104.527L117.876 105.908C117.906 105.973 117.91 106.047 117.886 106.115C117.861 106.183 117.812 106.238 117.747 106.27C117.709 106.286 117.669 106.295 117.628 106.295C117.587 106.295 117.546 106.286 117.509 106.27L116.149 105.566C115.85 105.411 115.519 105.327 115.182 105.322C114.846 105.316 114.513 105.389 114.209 105.535L112.833 106.197C112.782 106.22 112.724 106.227 112.669 106.216C112.614 106.205 112.563 106.177 112.524 106.136C112.485 106.096 112.459 106.044 112.451 105.988C112.442 105.932 112.451 105.875 112.476 105.825L113.18 104.47C113.335 104.171 113.419 103.84 113.424 103.504C113.43 103.167 113.357 102.834 113.211 102.53L112.549 101.154L112.528 101.149Z" fill="#040000"/>
<path d="M142.951 81.3556C145.961 79.1677 147.476 78.0971 150.538 76.0127C154.754 78.4798 158.933 81.04 163.04 83.683C162.45 78.7488 161.964 73.7835 161.586 68.8285C165.315 66.5165 167.193 65.3993 170.984 63.2322C175.148 65.9114 179.26 68.6992 183.309 71.5698C182.93 66.7182 182.649 61.8581 182.466 56.9893C185.683 55.3291 187.302 54.5222 190.561 52.9602C190.447 59.8565 190.518 66.7665 190.773 73.6904C186.868 75.7127 184.928 76.7626 181.085 78.9401C176.508 75.8006 174.175 74.2852 169.438 71.2853C169.789 76.8816 170.017 79.6642 170.575 85.2037C166.8 87.5622 164.933 88.7777 161.234 91.2965C155.238 87.807 149.144 84.4934 142.951 81.3556Z" fill="#231815"/>
<path d="M194.533 61.4165C191.43 54.9409 198.842 48.3826 204.454 46.0551C210.727 43.469 220.275 43.1069 222.918 51.1032C216.05 53.6427 209.295 56.3581 202.576 59.2701C204.19 61.2045 206.978 61.1424 210.66 59.6062C213.629 58.3701 215.744 56.6478 215.998 55.0495C218.863 53.9375 220.301 53.3944 223.187 52.36C223.146 58.7425 217.239 62.1355 212.15 64.4009C206.621 66.8577 197.481 67.5818 194.533 61.4165ZM214.027 50.7566C212.393 49.1274 209.89 49.205 206.667 50.5446C203.15 52.0135 201.298 53.8289 201.335 56.053C206.372 53.8134 208.922 52.7531 214.027 50.7566Z" fill="#231815"/>
<path d="M220.529 33.9831C223.673 32.8918 225.251 32.3694 228.421 31.366C229.611 35.1365 230.201 36.9985 231.385 40.7483C232.497 37.5623 235.523 34.9348 239.966 33.7245C245.898 32.1056 252.741 33.7245 254.376 40.2673C255.927 46.4222 250.957 51.4082 245.324 52.8823C241.217 53.9581 237.473 53.534 234.794 51.5168C235.244 52.9237 235.466 53.6323 235.911 55.0391C232.994 55.9598 231.54 56.4408 228.67 57.4442C225.946 49.6238 223.232 41.8035 220.529 33.9831ZM241.166 47.8704C245.107 46.7326 247.01 44.6068 246.39 42.269C245.769 39.9311 242.997 39.0363 238.947 40.2001C234.53 41.4776 232.363 43.8206 233.092 46.1222C233.821 48.4239 236.852 49.1014 241.166 47.8704Z" fill="#231815"/>
<path d="M270.471 40.1276C273.673 39.5535 275.271 39.2846 278.483 38.7984C278.685 40.1173 279.921 40.7121 284.54 40.1069C288.677 39.5897 289.624 38.9225 289.505 37.8777C289.386 36.8329 288.181 36.564 284.002 36.7967L282.248 36.9054C274.299 37.4226 270.28 37.2002 269.732 33.2848C268.904 27.404 277.8 25.6507 282 25.0972C286.355 24.5283 294.672 24.0111 296.079 29.8505C292.779 30.1401 291.129 30.3108 287.803 30.6884C287.628 29.4626 286.014 29.0074 282.388 29.4884C278.762 29.9694 277.593 30.7091 277.712 31.5159C277.831 32.3228 278.809 32.5504 282.843 32.2969C283.691 32.2452 284.116 32.2193 284.964 32.178C289.619 31.6607 296.55 31.6607 297.377 36.7295C298.287 42.2948 289.567 44.1619 285.264 44.7154C280.785 45.3153 271.94 46.2205 270.471 40.1276Z" fill="#231815"/>
<path d="M302.653 36.7816C302.441 33.6783 302.332 32.1007 302.135 28.9819C300.511 29.0905 299.694 29.1526 298.07 29.2819C297.899 27.213 297.812 26.1476 297.641 24.058C299.296 23.9235 300.129 23.8614 301.779 23.7477L301.546 20.3444C304.737 19.3823 306.34 18.922 309.573 18.0427C309.661 20.1478 309.702 21.2029 309.79 23.3132C313.194 23.1735 314.895 23.127 318.299 23.0804C318.299 25.1804 318.34 26.2251 318.366 28.325C315.025 28.3716 313.349 28.413 310.008 28.5526C310.09 30.6215 310.137 31.6559 310.22 33.761C310.292 35.4678 311.176 36.6368 313.411 36.5644C315.118 36.5052 316.815 36.2606 318.469 35.8351L318.547 41.5245C316.345 42.0772 314.092 42.403 311.823 42.4969C306.159 42.7296 302.932 40.9297 302.653 36.7816Z" fill="#231815"/>
<path d="M321.531 36.1191C321.645 30.5642 328.896 29.6952 333.143 29.9125C336.265 30.0477 339.361 30.5529 342.365 31.4176C342.427 28.997 340.487 28.035 336.334 27.8436C332.558 27.6677 328.989 28.1125 324.128 29.1108C323.76 27.0419 323.569 26.0075 323.186 23.9851C328.093 22.9853 333.106 22.5996 338.108 22.8369C344.496 23.1628 351.039 25.7851 350.149 33.2899C349.782 37.1587 349.601 39.0931 349.239 42.9619C346.197 42.6774 344.677 42.5533 341.63 42.3464L341.791 39.9052C338.307 41.6284 334.469 42.5139 330.582 42.4912C325.503 42.3257 321.448 40.3603 321.531 36.1191ZM333.329 37.7794C336.258 37.751 339.174 37.3936 342.023 36.7139L342.127 35.1622C339.487 34.5328 336.798 34.1297 334.089 33.9571C330.826 33.8278 329.667 34.4071 329.631 35.8346C329.595 36.9208 330.707 37.6811 333.329 37.7794Z" fill="#231815"/>
<path d="M355.068 24.7922C358.316 25.1439 359.94 25.3405 363.183 25.775C362.955 27.4352 362.847 28.268 362.619 29.9127C365.562 27.4249 369.576 26.168 375.172 26.9852C380.768 27.8025 385.284 32.054 383.624 38.0641L381.555 47.8395C378.539 47.2034 377.029 46.9085 374.003 46.3551L375.312 39.2123C376.057 35.1521 374.883 32.9488 370.171 32.1885C365.216 31.392 362.19 33.016 361.662 36.9521L360.68 44.2397C357.633 43.8311 356.113 43.6501 353.061 43.319C353.73 37.1538 354.399 30.9782 355.068 24.7922Z" fill="#231815"/>
<path d="M406.148 50.3997C403.51 52.4272 399.771 52.8978 395.654 51.8841C390.016 50.4927 385.056 45.6774 386.432 39.4243C387.88 32.8814 395.013 31.035 400.754 32.6539C405.114 33.89 408.264 36.3882 409.407 39.5846C410.55 35.7934 411.124 33.8952 412.262 30.1091C415.453 31.066 417.046 31.5729 420.217 32.6176C417.624 40.4759 415.024 48.3342 412.417 56.1925C409.5 55.2253 408.036 54.765 405.098 53.8805L406.148 50.3997ZM399.745 46.8153C404.059 47.9998 407.079 47.3325 407.777 44.9947C408.476 42.6569 406.288 40.3397 401.861 39.1243C397.795 38.0071 395.033 38.9691 394.444 41.3173C393.854 43.6655 395.794 45.7292 399.745 46.8153V46.8153Z" fill="#231815"/>
<path d="M417.279 51.9306C419.224 46.6963 426.47 48.31 430.432 49.9341C433.39 51.1053 436.2 52.619 438.806 54.4442C439.654 52.1737 438.107 50.6168 434.182 49.0445C430.618 47.6169 427.049 46.8463 422.073 46.1739C422.389 44.105 422.544 43.0706 422.849 41.0017C427.887 41.6906 432.819 43.0023 437.533 44.9067C443.476 47.3221 449.026 51.9564 445.69 58.8354L441.645 67.6695C438.811 66.3713 437.388 65.7403 434.528 64.5249L435.485 62.2698C431.57 62.7224 427.603 62.2712 423.889 60.9509C419.043 59.1147 415.81 55.9028 417.279 51.9306ZM428.032 57.4286C430.852 58.3763 433.768 59.0128 436.726 59.3268L437.337 57.8993C435.004 56.4185 432.55 55.1365 430.002 54.0667C426.899 52.8512 425.616 53.0322 425.115 54.3511C424.732 55.3649 425.549 56.4562 428.032 57.4286Z" fill="#231815"/>
<path d="M453.21 52.4841C456.184 53.9013 457.668 54.6254 460.617 56.1047C459.877 57.5529 459.51 58.277 458.775 59.7252C462.225 57.6563 465.272 57.7856 468.602 59.6114C470.195 60.4423 471.603 61.5878 472.74 62.9785C471.509 65.1457 470.894 66.2318 469.668 68.4041C468.451 66.9943 466.985 65.8197 465.344 64.9388C463.275 63.8112 460.26 62.8699 456.287 64.5922L452.15 72.7281C449.383 71.3213 448.012 70.6592 445.193 69.3093L453.21 52.4841Z" fill="#231815"/>
<path d="M486.405 88.8601C483.224 89.9514 479.418 89.1911 475.688 86.9153C470.697 83.8637 467.035 77.6054 470.351 72.066C473.666 66.5265 481.373 66.7334 486.354 70.1212C490.165 72.7073 492.612 76.1054 492.788 79.5398L498.384 71.3729C501.229 73.3228 502.646 74.321 505.449 76.3589C500.58 83.0517 495.717 89.7462 490.858 96.4425C488.272 94.565 486.974 93.6495 484.357 91.8548L486.405 88.8601ZM481.187 83.3672C485.06 85.8757 488.231 86.1964 489.596 84.1999C490.962 82.2035 489.509 79.2553 485.526 76.6744C481.874 74.3055 478.89 74.3469 477.623 76.4054C476.356 78.464 477.633 81.0604 481.187 83.3672Z" fill="#231815"/>
<path d="M505.289 564.423C502.33 566.678 500.841 567.785 497.831 569.941C493.558 567.578 489.317 565.121 485.148 562.576C485.857 567.495 486.462 572.445 486.959 577.389C483.286 579.789 481.435 580.953 477.695 583.208C473.47 580.622 469.285 577.943 465.179 575.171C465.696 580.007 466.068 584.868 466.368 589.725C463.187 591.463 461.589 592.311 458.372 593.946C458.32 587.049 458.084 580.143 457.663 573.226C461.517 571.11 463.43 570.019 467.222 567.743C471.877 570.774 474.24 572.253 479.05 575.124C478.564 569.533 478.269 566.755 477.581 561.232C481.295 558.79 483.136 557.523 486.772 554.921C492.834 558.27 499.006 561.437 505.289 564.423Z" fill="#231815"/>
<path d="M454.167 585.587C457.415 591.985 450.174 598.719 444.624 601.176C438.418 603.928 428.875 604.502 426.041 596.573C432.842 593.868 439.535 590.997 446.181 587.925C444.521 586.032 441.738 586.161 438.092 587.78C435.154 589.089 433.08 590.884 432.868 592.466C430.028 593.646 428.601 594.22 425.741 595.326C425.627 588.944 431.43 585.411 436.488 583.027C441.955 580.436 451.074 579.489 454.167 585.587ZM434.947 596.713C436.623 598.295 439.116 598.166 442.312 596.744C445.793 595.192 447.603 593.335 447.484 591.111C442.514 593.475 440 594.592 434.947 596.713Z" fill="#231815"/>
<path d="M428.839 613.636C425.735 614.799 424.153 615.358 421.013 616.434C419.736 612.715 419.1 610.853 417.822 607.124C416.788 610.336 413.808 613.036 409.412 614.365C403.521 616.129 396.647 614.686 394.852 608.158C393.166 602.04 398.007 596.935 403.598 595.326C407.679 594.152 411.434 594.488 414.155 596.438C413.679 595.042 413.436 594.369 412.96 592.947C415.851 591.954 417.294 591.442 420.16 590.361C423.056 598.126 425.949 605.884 428.839 613.636ZM407.876 600.245C403.966 601.476 402.114 603.643 402.792 605.971C403.469 608.298 406.257 609.115 410.281 607.848C414.662 606.467 416.777 604.077 415.97 601.786C415.164 599.495 412.148 598.905 407.876 600.245V600.245Z" fill="#231815"/>
<path d="M378.772 608.687C375.591 609.338 373.993 609.643 370.797 610.202C370.564 608.888 369.317 608.325 364.714 609.043C360.576 609.68 359.656 610.347 359.801 611.392C359.945 612.436 361.156 612.674 365.33 612.338L367.078 612.188C375.017 611.495 379.036 611.609 379.677 615.504C380.65 621.364 371.795 623.324 367.605 623.981C363.271 624.658 354.965 625.372 353.418 619.569C356.713 619.196 358.357 618.99 361.647 618.534C361.854 619.76 363.478 620.174 367.088 619.605C370.698 619.036 371.867 618.276 371.743 617.448C371.619 616.621 370.626 616.445 366.571 616.797L364.456 616.967C359.801 617.578 352.885 617.759 351.934 612.711C350.899 607.171 359.568 605.097 363.83 604.435C368.329 603.747 377.153 602.63 378.772 608.687Z" fill="#231815"/>
<path d="M346.673 612.798C346.958 615.901 347.103 617.453 347.387 620.587C349.016 620.437 349.828 620.36 351.452 620.184C351.67 622.253 351.778 623.287 352.001 625.403C350.346 625.573 349.523 625.656 347.863 625.806L348.173 629.209C345.008 630.244 343.415 630.761 340.208 631.702C340.068 629.592 340.001 628.542 339.861 626.437C336.468 626.659 334.767 626.742 331.364 626.871C331.286 624.803 331.25 623.727 331.167 621.632C334.513 621.508 336.184 621.42 339.52 621.203L339.184 616C339.07 614.298 338.149 613.15 335.931 613.274C334.223 613.373 332.532 613.659 330.888 614.127C330.805 611.841 330.758 610.703 330.676 608.438C332.861 607.827 335.104 607.446 337.368 607.3C343.017 606.938 346.296 608.66 346.673 612.798Z" fill="#231815"/>
<path d="M327.81 613.905C327.81 619.455 320.605 620.505 316.354 620.38C313.224 620.326 310.112 619.895 307.085 619.098C307.085 621.524 309.04 622.434 313.199 622.527C316.98 622.615 320.533 622.087 325.369 620.975C325.788 623.013 326 624.037 326.434 626.075C321.552 627.19 316.55 627.696 311.544 627.58C305.151 627.404 298.551 624.942 299.26 617.417C299.529 613.538 299.663 611.603 299.937 607.724C302.984 607.936 304.509 608.024 307.561 608.159C307.514 609.136 307.494 609.627 307.452 610.605C310.896 608.805 314.713 607.835 318.598 607.771C323.693 607.802 327.8 609.674 327.81 613.905ZM315.986 612.534C313.059 612.634 310.151 613.061 307.318 613.807C307.292 614.427 307.282 614.738 307.251 615.358C309.909 615.935 312.612 616.281 315.33 616.393C318.593 616.444 319.736 615.839 319.741 614.412C319.736 613.305 318.604 612.57 315.986 612.534Z" fill="#231815"/>
<path d="M294.558 626.029C291.305 625.754 289.676 625.599 286.422 625.242C286.609 623.577 286.702 622.744 286.883 621.079C284.002 623.634 280.024 624.989 274.407 624.301C268.873 623.624 264.177 619.481 265.692 613.439C266.421 609.509 266.789 607.543 267.518 603.612C270.549 604.171 272.064 604.435 275.1 604.916L273.963 612.084C273.316 616.165 274.542 618.338 279.274 618.984C284.245 619.667 287.229 617.95 287.664 614.019C287.99 611.096 288.15 609.633 288.476 606.71C291.527 607.047 293.053 607.191 296.11 607.45L294.558 626.029Z" fill="#231815"/>
<path d="M242.883 601.657C245.469 599.589 249.198 599.009 253.336 599.925C259.025 601.182 264.078 605.888 262.853 612.162C261.56 618.741 254.474 620.758 248.696 619.269C244.31 618.141 241.098 615.716 239.904 612.545C238.869 616.362 238.326 618.271 237.271 622.088C234.059 621.203 232.456 620.738 229.259 619.765C231.673 611.835 234.087 603.918 236.5 596.015C239.438 596.909 240.912 597.339 243.871 598.151C243.462 599.558 243.266 600.261 242.883 601.657ZM249.369 605.113C245.029 604.032 242.024 604.792 241.383 607.125C240.742 609.457 242.981 611.743 247.44 612.85C251.526 613.885 254.267 612.85 254.8 610.481C255.332 608.112 253.346 606.08 249.369 605.113Z" fill="#231815"/>
<path d="M231.716 600.396C229.895 605.676 222.613 604.223 218.615 602.708C215.63 601.609 212.785 600.163 210.138 598.399C209.341 600.685 210.924 602.206 214.886 603.685C218.506 605.025 222.07 605.713 227.061 606.271C226.792 608.34 226.663 609.375 226.409 611.443C221.361 610.877 216.401 609.69 211.643 607.911C205.648 605.635 199.99 601.135 203.16 594.179L206.988 585.251C209.853 586.477 211.291 587.072 214.182 588.22L213.277 590.501C217.181 589.955 221.158 590.309 224.904 591.536C229.782 593.258 233.097 596.392 231.716 600.396ZM220.854 595.161C218.011 594.278 215.08 593.709 212.113 593.465C211.881 594.044 211.767 594.329 211.539 594.908C213.906 596.334 216.389 597.557 218.961 598.565C222.065 599.703 223.373 599.511 223.839 598.166C224.18 597.137 223.342 596.067 220.818 595.161H220.854Z" fill="#231815"/>
<path d="M195.785 600.7C192.775 599.361 191.275 598.668 188.29 597.24L190.044 593.573C186.646 595.694 183.599 595.642 180.217 593.92C178.605 593.129 177.17 592.019 176.001 590.656C177.175 588.453 177.765 587.356 178.944 585.158C180.194 586.538 181.688 587.676 183.351 588.515C185.451 589.596 188.477 590.444 192.413 588.644C193.964 585.349 194.771 583.705 196.349 580.415C199.147 581.755 200.554 582.401 203.383 583.663L195.785 600.7Z" fill="#231815"/>
<path d="M161.726 565.131C164.881 563.962 168.703 564.614 172.484 566.817C177.548 569.75 181.36 575.931 178.174 581.537C174.987 587.144 167.286 587.129 162.222 583.86C158.349 581.362 155.824 578.031 155.561 574.602L150.166 582.877C147.27 580.994 145.837 580.032 142.982 578.062C147.685 571.255 152.388 564.447 157.092 557.637C159.714 559.447 161.038 560.337 163.702 562.069L161.726 565.131ZM167.074 570.5C163.138 568.079 159.967 567.836 158.648 569.864C157.33 571.891 158.855 574.808 162.895 577.291C166.603 579.572 169.588 579.458 170.808 577.369C172.029 575.279 170.679 572.719 167.074 570.5V570.5Z" fill="#231815"/>
<path d="M564.769 133.222C567.035 136.175 568.142 137.665 570.304 140.67C567.948 144.953 565.502 149.185 562.964 153.368C567.878 152.649 572.828 152.039 577.772 151.532C580.177 155.199 581.346 157.05 583.606 160.78C581.038 165.017 578.365 169.197 575.59 173.317C580.426 172.8 585.287 172.407 590.144 172.102C591.887 175.277 592.73 176.875 594.375 180.093C587.479 180.155 580.582 180.403 573.686 180.837C571.566 176.984 570.464 175.07 568.188 171.284C571.209 166.629 572.683 164.26 575.543 159.445C569.957 159.962 567.18 160.237 561.661 160.935C559.204 157.226 557.942 155.39 555.33 151.759C558.63 145.67 561.776 139.491 564.769 133.222Z" fill="#231815"/>
<path d="M586.001 184.282C592.394 181.024 599.143 188.249 601.611 193.799C604.373 200.006 604.962 209.538 597.038 212.388C594.323 205.591 591.437 198.909 588.354 192.263C586.461 193.923 586.596 196.711 588.225 200.357C589.534 203.29 591.328 205.359 592.916 205.571C594.106 208.405 594.68 209.833 595.792 212.693C589.404 212.812 585.861 207.003 583.472 201.966C580.87 196.509 579.913 187.385 586.001 184.282ZM597.157 203.492C598.745 201.816 598.606 199.323 597.157 196.132C595.606 192.651 593.739 190.846 591.514 190.959C593.909 195.919 595.032 198.433 597.157 203.492Z" fill="#231815"/>
<path d="M614.096 209.558C615.265 212.661 615.829 214.213 616.91 217.384L607.6 220.59C610.807 221.625 613.517 224.588 614.841 228.985C616.61 234.871 615.177 241.755 608.671 243.56C602.552 245.257 597.442 240.426 595.828 234.835C594.644 230.754 594.97 226.999 596.919 224.273L593.428 225.478C592.43 222.587 591.913 221.144 590.842 218.278L614.096 209.558ZM600.737 230.547C601.983 234.457 604.15 236.304 606.473 235.626C608.795 234.948 609.617 232.15 608.34 228.131C606.948 223.751 604.559 221.64 602.268 222.442C599.976 223.244 599.387 226.28 600.737 230.547Z" fill="#231815"/>
<path d="M609.25 259.636C609.907 262.816 610.212 264.415 610.802 267.611C609.488 267.844 608.924 269.096 609.648 273.694C610.295 277.805 610.962 278.752 612.007 278.607C613.052 278.462 613.29 277.242 612.943 273.073C612.886 272.375 612.855 272.039 612.788 271.325C612.09 263.385 612.193 259.367 616.082 258.72C621.943 257.737 623.924 266.587 624.58 270.777C625.268 275.111 625.998 283.412 620.194 284.969C619.822 281.674 619.61 280.03 619.16 276.745C620.381 276.538 620.794 274.909 620.194 271.299C619.594 267.689 618.855 266.525 618.032 266.644C617.21 266.763 616.998 267.766 617.386 271.816C617.458 272.664 617.495 273.088 617.557 273.932C618.177 278.587 618.374 285.502 613.326 286.459C607.786 287.493 605.697 278.84 605.05 274.563C604.311 270.089 603.178 261.265 609.25 259.636Z" fill="#231815"/>
<path d="M613.388 291.729L621.146 291C620.996 289.376 620.913 288.564 620.742 286.94L625.956 286.376C626.132 288.031 626.215 288.859 626.37 290.514L629.768 290.198C630.802 293.358 631.32 294.951 632.271 298.158L627.011 298.515C627.239 301.908 627.327 303.61 627.461 307.013L622.222 307.215C622.092 303.874 621.999 302.203 621.777 298.862L616.574 299.213C614.872 299.327 613.729 300.248 613.853 302.472C613.959 304.177 614.248 305.866 614.717 307.51L609.027 307.732C608.416 305.548 608.031 303.307 607.879 301.044C607.553 295.396 609.25 292.112 613.388 291.729Z" fill="#231815"/>
<path d="M614.551 310.587C620.106 310.556 621.162 317.782 621.048 322.033C620.997 325.163 620.573 328.277 619.786 331.307C622.206 331.307 623.117 329.341 623.205 325.188C623.282 321.407 622.744 317.849 621.653 313.018C623.691 312.594 624.71 312.382 626.753 311.942C627.881 316.821 628.402 321.821 628.304 326.828C628.139 333.226 625.687 339.831 618.162 339.132L608.469 338.475C608.676 335.424 608.759 333.898 608.888 330.852L611.334 330.95C609.529 327.511 608.551 323.698 608.479 319.814C608.448 314.714 610.31 310.608 614.551 310.587ZM613.191 322.421C613.298 325.348 613.731 328.254 614.484 331.084L616.036 331.146C616.601 328.489 616.936 325.788 617.039 323.073C617.081 319.804 616.476 318.661 615.048 318.666C613.957 318.666 613.222 319.794 613.191 322.421V322.421Z" fill="#231815"/>
<path d="M626.727 343.818C626.458 347.076 626.303 348.701 625.951 351.954L621.813 351.499C624.4 354.38 625.734 358.357 625.062 363.974C624.394 369.508 620.257 374.21 614.2 372.71L604.373 370.9C604.926 367.869 605.185 366.353 605.661 363.312L612.835 364.44C616.91 365.076 619.088 363.85 619.724 359.117C620.396 354.142 618.689 351.163 614.743 350.733L607.43 349.937C607.761 346.885 607.905 345.354 608.159 342.297L626.727 343.818Z" fill="#231815"/>
<path d="M602.449 395.54C600.38 392.954 599.785 389.23 600.695 385.087C601.942 379.398 606.638 374.334 612.912 375.55C619.496 376.827 621.524 383.913 620.05 389.69C618.927 394.082 616.507 397.294 613.326 398.519L622.874 401.105C621.994 404.323 621.534 405.926 620.567 409.122L596.837 401.959C597.726 399.016 598.151 397.542 598.957 394.583L602.449 395.54ZM605.867 389.049C604.797 393.389 605.557 396.388 607.895 397.03C610.233 397.671 612.509 395.421 613.584 390.963C614.619 386.872 613.584 384.135 611.205 383.603C608.826 383.07 606.85 385.066 605.867 389.049V389.049Z" fill="#231815"/>
<path d="M601.202 406.707C606.483 408.517 605.045 415.805 603.535 419.803C602.441 422.791 601 425.639 599.242 428.291C601.533 429.082 603.054 427.494 604.523 423.532C605.857 419.912 606.535 416.343 607.078 411.352C609.147 411.616 610.181 411.745 612.25 411.993C611.69 417.042 610.512 422.003 608.743 426.765C606.478 432.765 601.988 438.433 595.026 435.273L586.089 431.461C587.315 428.596 587.904 427.153 589.047 424.262L591.328 425.162C590.78 421.258 591.134 417.28 592.363 413.534C594.07 408.657 597.194 405.331 601.202 406.707ZM595.983 417.595C595.109 420.441 594.547 423.373 594.307 426.341L595.751 426.91C597.164 424.538 598.375 422.052 599.371 419.477C600.504 416.374 600.307 415.065 598.957 414.6C597.959 414.259 596.888 415.086 595.983 417.595V417.595Z" fill="#231815"/>
<path d="M601.57 442.638C600.235 445.654 599.547 447.154 598.125 450.138L594.453 448.39C596.584 451.788 596.558 454.834 594.82 458.217C594.027 459.829 592.919 461.266 591.561 462.443L586.058 459.505C587.435 458.251 588.571 456.755 589.41 455.093C590.485 452.993 591.329 449.962 589.523 446.031L581.284 442.111C582.619 439.307 583.265 437.9 584.522 435.071L601.57 442.638Z" fill="#231815"/>
<path d="M566.062 476.759C564.888 473.604 565.545 469.782 567.733 465.996C570.65 460.927 576.826 457.105 582.438 460.275C588.049 463.446 588.055 471.137 584.791 476.226C582.298 480.1 578.972 482.635 575.543 482.899L583.85 488.283C581.972 491.179 581.015 492.617 579.05 495.472L558.594 481.404C560.404 478.776 561.288 477.452 563.016 474.783L566.062 476.759ZM571.421 471.401C569.005 475.342 568.773 478.513 570.805 479.831C572.838 481.15 575.745 479.614 578.222 475.57C580.493 471.856 580.379 468.872 578.284 467.656C576.19 466.441 573.634 467.791 571.421 471.401Z" fill="#231815"/>
<path d="M84.1224 504.115C81.9346 501.104 80.8639 499.589 78.7795 496.527C81.2467 492.312 83.8069 488.133 86.4447 484.026C81.5104 484.615 76.5503 485.102 71.5953 485.479C69.2834 481.75 68.1662 479.873 65.999 476.081C68.6782 471.944 71.466 467.806 74.3366 463.756C69.4851 464.132 64.6249 464.413 59.7562 464.599C58.0959 461.382 57.2891 459.758 55.7271 456.505C62.6233 456.618 69.5334 456.548 76.4572 456.292C78.4795 460.197 79.5295 462.137 81.707 465.98C78.5675 470.557 77.052 472.885 74.047 477.628C79.6484 477.276 82.4311 477.048 87.9705 476.49C90.329 480.26 91.5445 482.133 94.0634 485.831C90.5738 491.827 87.2602 497.922 84.1224 504.115Z" fill="#231815"/>
<path d="M64.1836 452.533C57.708 455.636 51.1497 448.23 48.8222 442.618C46.2361 436.344 45.874 426.796 53.8702 424.153C56.4098 431.017 59.1252 437.777 62.0371 444.49C63.9715 442.882 63.9043 440.094 62.3733 436.406C61.1372 433.442 59.4148 431.327 57.8166 431.073C56.6994 428.208 56.1615 426.77 55.1271 423.879C61.5096 423.925 64.9025 429.832 67.168 434.922C69.6248 440.44 70.3489 449.585 64.1836 452.533ZM53.5237 433.044C51.8945 434.678 51.9721 437.182 53.3117 440.404C54.7806 443.921 56.596 445.773 58.82 445.737C56.5805 440.694 55.5202 438.154 53.5237 433.039V433.044Z" fill="#231815"/>
<path d="M36.745 426.537C35.6589 423.393 35.1365 421.815 34.1589 418.645L43.5413 415.676C40.3552 414.569 37.7277 411.538 36.5175 407.1C34.8986 401.168 36.5175 394.325 43.0603 392.69C49.2152 391.139 54.2012 396.109 55.6753 401.742C56.7511 405.849 56.327 409.593 54.3098 412.272L57.8321 411.155C58.7527 414.072 59.2337 415.526 60.2371 418.396L36.745 426.537ZM50.6531 405.9C49.5152 401.959 47.3894 400.056 45.0516 400.676C42.7137 401.297 41.819 404.069 42.9827 408.119C44.2602 412.536 46.6032 414.703 48.9049 413.974C51.2065 413.245 51.884 410.198 50.6531 405.9Z" fill="#231815"/>
<path d="M42.8947 376.6C42.3154 373.403 42.0517 371.8 41.5655 368.593C42.8844 368.391 43.4792 367.155 42.874 362.536C42.3568 358.399 41.6896 357.452 40.6397 357.571C39.5897 357.69 39.3259 358.916 39.5638 363.054C39.6052 363.752 39.6259 364.088 39.6725 364.807C40.1897 372.757 39.9673 376.775 36.0519 377.324C30.1763 378.172 28.4126 369.26 27.8954 365.071C27.3213 360.721 26.804 352.404 32.6486 350.992C32.9383 354.297 33.1038 355.947 33.4865 359.268C32.2607 359.449 31.8055 361.062 32.2866 364.688C32.7676 368.314 33.502 369.498 34.3554 369.374C35.2088 369.25 35.3899 368.278 35.1364 364.243C35.0847 363.395 35.0589 362.971 35.0175 362.123C34.5003 357.468 34.5003 350.537 39.569 349.709C45.1343 348.794 47.0015 357.519 47.5549 361.823C48.0669 366.281 48.9876 375.126 42.8947 376.6Z" fill="#231815"/>
<path d="M39.5484 344.434L31.7488 344.951C31.8574 346.58 31.9194 347.397 32.0487 349.022L26.8248 349.451C26.6904 347.791 26.6283 346.963 26.5145 345.313L23.1112 345.541C22.1492 342.365 21.6888 340.736 20.8096 337.503L26.08 337.286C25.9404 333.883 25.8938 332.181 25.8473 328.778L31.0919 328.71C31.1333 332.052 31.1798 333.727 31.3195 337.069L36.5279 336.851C38.2347 336.784 39.3984 335.9 39.3312 333.665C39.272 331.958 39.0275 330.262 38.6019 328.607L44.2913 328.529C44.8485 330.731 45.1761 332.984 45.2689 335.253C45.4809 340.896 43.6965 344.134 39.5484 344.434Z" fill="#231815"/>
<path d="M38.8864 325.53C33.3314 325.416 32.4625 318.169 32.6797 313.918C32.8099 310.792 33.3134 307.692 34.1797 304.686C31.7591 304.624 30.797 306.563 30.6057 310.716C30.4298 314.492 30.8746 318.061 31.8729 322.918C29.804 323.29 28.7695 323.481 26.7472 323.864C25.7474 318.957 25.3617 313.945 25.599 308.942C25.9248 302.555 28.5471 296.012 36.052 296.901L45.724 297.812C45.4395 300.853 45.3154 302.374 45.1085 305.42L42.6621 305.26C44.3867 308.741 45.2723 312.578 45.2482 316.463C45.093 321.562 43.1276 325.617 38.8864 325.53ZM40.5466 313.737C40.5183 310.808 40.1609 307.892 39.4812 305.042L37.9295 304.939C37.2974 307.582 36.8925 310.275 36.7192 312.987C36.5899 316.251 37.1692 317.409 38.5967 317.445C39.6881 317.471 40.4484 316.359 40.5466 313.737V313.737Z" fill="#231815"/>
<path d="M27.5695 291.998C27.916 288.75 28.1125 287.126 28.5522 283.883L32.6899 284.447C30.2073 281.504 28.9453 277.49 29.7676 271.894C30.5745 266.375 34.8312 261.782 40.8465 263.437L50.6219 265.506C49.9858 268.521 49.6909 270.032 49.1375 273.057L41.9947 271.749C37.9345 271.004 35.7312 272.178 34.9709 276.89C34.1744 281.845 35.7984 284.871 39.7345 285.398L47.0324 286.376C46.6238 289.422 46.4428 290.943 46.1118 293.994L27.5695 291.998Z" fill="#231815"/>
<path d="M53.1665 240.917C55.194 243.555 55.6647 247.295 54.651 251.412C53.2596 257.049 48.4443 262.01 42.1911 260.629C35.6535 259.186 33.7967 252.048 35.4207 246.312C36.6569 241.952 39.1551 238.802 42.3515 237.659L32.8708 234.783C33.8329 231.592 34.3346 230.004 35.3845 226.833L58.9542 234.633C57.9922 237.55 57.5267 239.014 56.6423 241.952L53.1665 240.917ZM49.5822 247.321C50.7666 243.007 50.0994 239.986 47.7616 239.288C45.4238 238.59 43.1066 240.778 41.8912 245.205C40.774 249.27 41.736 252.032 44.0842 252.622C46.4323 253.212 48.4961 251.272 49.5822 247.321Z" fill="#231815"/>
<path d="M54.6978 229.787C49.4635 227.842 51.0772 220.596 52.7013 216.634C53.8714 213.675 55.3852 210.865 57.2115 208.26C54.9409 207.412 53.384 208.958 51.8117 212.884C50.3842 216.448 49.6135 220.016 48.9411 224.992C46.8722 224.677 45.8378 224.521 43.7689 224.216C44.4513 219.183 45.7561 214.254 47.6532 209.543C50.0687 203.6 54.7029 198.05 61.582 201.386L70.4161 205.431C69.1179 208.265 68.4868 209.688 67.2714 212.548L65.0163 211.591C65.4689 215.506 65.0177 219.473 63.6974 223.187C61.8819 228.023 58.67 231.261 54.6978 229.787ZM60.1906 219.034C61.1425 216.214 61.7808 213.299 62.094 210.339L60.6665 209.729C59.1862 212.063 57.9025 214.516 56.8287 217.063C55.6184 220.166 55.7943 221.449 57.1184 221.951C58.1321 222.334 59.2234 221.516 60.1906 219.034V219.034Z" fill="#231815"/>
<path d="M55.2512 193.855C56.6632 190.876 57.3925 189.397 58.8718 186.449L62.4923 188.29C60.4234 184.84 60.5527 181.794 62.3785 178.463C63.2079 176.871 64.3515 175.463 65.7404 174.325L71.1712 177.397C69.7614 178.615 68.5868 180.08 67.7059 181.721C66.5783 183.79 65.637 186.806 67.3593 190.778L75.4952 194.916C74.0884 197.683 73.4263 199.053 72.0764 201.867L55.2512 193.855Z" fill="#231815"/>
<path d="M91.6273 160.66C92.7186 163.841 91.9583 167.648 89.6825 171.377C86.6309 176.368 80.3726 180.03 74.8332 176.715C69.2938 173.399 69.5006 165.693 72.8884 160.712C75.4745 156.9 78.8727 154.454 82.307 154.278L74.1401 148.681C76.09 145.837 77.0882 144.42 79.1261 141.616L99.2097 156.207C97.3322 158.793 96.4167 160.091 94.622 162.708L91.6273 160.66ZM86.1292 165.874C88.6429 162 88.9636 158.834 86.9671 157.469C84.9707 156.104 82.0225 157.557 79.4416 161.54C77.0727 165.186 77.1141 168.175 79.1726 169.443C81.2312 170.71 83.8276 169.427 86.1292 165.874Z" fill="#231815"/>
</svg>
