<?xml version="1.0" standalone="no"?>
<!DOCTYPE svg PUBLIC "-//W3C//DTD SVG 1.1//EN" "http://www.w3.org/Graphics/SVG/1.1/DTD/svg11.dtd" >
<svg xmlns="http://www.w3.org/2000/svg" xmlns:xlink="http://www.w3.org/1999/xlink" version="1.1">
<metadata>
Created by FontForge 20170731 at Fri Nov 25 10:47:33 2022
 By Aleksey,,,
Pangram Pangram
</metadata>
<defs>
<font id="PPMonumentExtended-Black" horiz-adv-x="0" >
  <font-face 
    font-family="PP Monument Extended Black"
    font-weight="800"
    font-stretch="normal"
    units-per-em="2048"
    panose-1="0 0 0 0 0 0 0 0 0 0"
    ascent="1638"
    descent="-410"
    x-height="1231"
    cap-height="1470"
    bbox="-119 -596 4229 2179"
    underline-thickness="186"
    underline-position="-401"
    unicode-range="U+0020-FB02"
  />
<missing-glyph horiz-adv-x="1064" 
d="M872 1638v-2130h-673v2130h673zM356 -344h353v70h-217l149 100h68v70h-353v-70h148l-148 -100v-70zM356 -55h353v241h-353v-241zM356 313h353v242h-213v-121h73v49h70v-100h-213v172h-70v-242zM356 602h353v213h-70v-141h-283v-72zM356 723h213v149h140v70h-353v-70h140
v-79h-140v-70zM356 999h353v72h-140v150h-213v-222zM356 1276h353v72h-140v77h140v70h-351v-70h138v-77h-140v-72zM426 16v99h213v-99h-213zM426 1071v78h70v-78h-70z" />
    <glyph glyph-name="f_i" unicode="fi" horiz-adv-x="2041" 
d="M365 1282q0 182 130 269t414 87h1014v-282h-887q-115 0 -157 -25.5t-43 -99.5h1087v-1231h-473v885h-614v-885h-471v885h-287v346h287v51z" />
    <glyph glyph-name="f_l" unicode="fl" horiz-adv-x="2043" 
d="M365 1282q0 182 130 269t414 87h1014v-1638h-473v1356h-414q-115 0 -157 -25.5t-43 -99.5h479v-346h-479v-885h-471v885h-287v346h287v51z" />
    <glyph glyph-name="f_f" unicode="ff" horiz-adv-x="2416" 
d="M365 1282q0 182 130 269t414 87h346v-282h-219q-115 0 -157 -25.5t-43 -99.5h614v51q0 182 130.5 269t414.5 87h346v-282h-219q-115 0 -157.5 -25.5t-43.5 -99.5h420v-346h-420v-885h-471v885h-614v-885h-471v885h-287v346h287v51z" />
    <glyph glyph-name="f_f_i" unicode="ffi" horiz-adv-x="3127" 
d="M365 1282q0 182 130 269t414 87h346v-282h-219q-115 0 -157 -25.5t-43 -99.5h614v51q0 182 130.5 269t414.5 87h1014v-282h-887q-115 0 -157.5 -25.5t-43.5 -99.5h1088v-346h-3v-885h-473v885h-612v-885h-471v885h-614v-885h-471v885h-287v346h287v51z" />
    <glyph glyph-name=".notdef" horiz-adv-x="1064" 
d="M872 1638v-2130h-673v2130h673zM356 -344h353v70h-217l149 100h68v70h-353v-70h148l-148 -100v-70zM356 -55h353v241h-353v-241zM356 313h353v242h-213v-121h73v49h70v-100h-213v172h-70v-242zM356 602h353v213h-70v-141h-283v-72zM356 723h213v149h140v70h-353v-70h140
v-79h-140v-70zM356 999h353v72h-140v150h-213v-222zM356 1276h353v72h-140v77h140v70h-351v-70h138v-77h-140v-72zM426 16v99h213v-99h-213zM426 1071v78h70v-78h-70z" />
    <glyph glyph-name=".null" 
 />
    <glyph glyph-name="nonmarkingreturn" horiz-adv-x="682" 
 />
    <glyph glyph-name="space" unicode=" " horiz-adv-x="798" 
 />
    <glyph glyph-name="space" unicode="&#xa0;" horiz-adv-x="798" 
 />
    <glyph glyph-name="exclam" unicode="!" horiz-adv-x="784" 
d="M145 496l-20 981h537l-23 -981h-494zM143 0v371h500v-371h-500z" />
    <glyph glyph-name="quotedbl" unicode="&#x22;" horiz-adv-x="1427" 
d="M815 815l-43 784h535l-41 -784h-451zM121 1599h534l-41 -784h-450z" />
    <glyph glyph-name="numbersign" unicode="#" horiz-adv-x="2680" 
d="M1303 -307l112 370h-497l-113 -370h-451l113 370h-326v345h430l125 413h-354v344h459l137 453h451l-138 -453h498l137 453h449l-137 -453h342v-344h-447l-125 -413h371v-345h-473l-113 -370h-450zM1022 408h498l125 413h-498z" />
    <glyph glyph-name="dollar" unicode="$" horiz-adv-x="2015" 
d="M856 -205v170q-364 22 -554 146.5t-202 373.5h500q0 -138 256 -170v256q-384 31 -558.5 144.5t-174.5 337.5q0 208 193.5 322t539.5 128v135h293v-141q338 -28 516 -152.5t190 -340.5h-499q0 116 -207 143v-232q111 -9 191 -19t165.5 -26.5t143.5 -39t112.5 -57t86 -79.5
t50.5 -106.5t19 -138.5q0 -128 -51 -220.5t-152.5 -149t-239.5 -85t-325 -33.5v-166h-293zM623 1053q0 -49 46 -74t187 -41v217q-130 -6 -181.5 -31.5t-51.5 -70.5zM1149 309q108 5 168.5 21.5t80 39.5t19.5 60q0 40 -19.5 61.5t-76 35.5t-172.5 24v-242z" />
    <glyph glyph-name="percent" unicode="%" horiz-adv-x="3082" 
d="M883 0l925 1477h392l-928 -1477h-389zM121 1020q0 94 38 180.5t108.5 156t183 111t251.5 41.5t252 -41.5t183.5 -111t108.5 -156t38 -180.5q0 -96 -38 -183.5t-108.5 -157.5t-183.5 -111.5t-252 -41.5t-251.5 41.5t-183.5 111.5t-108.5 157.5t-37.5 183.5zM485 1020
q0 -90 51.5 -150.5t165.5 -60.5t167 60.5t53 150.5q0 88 -53 147.5t-167 59.5q-78 0 -128.5 -31t-69.5 -75.5t-19 -100.5zM1798 446q0 76 23.5 147.5t71.5 134.5t116 109.5t163.5 73.5t207.5 27q139 0 251.5 -41t183.5 -110.5t108.5 -157t37.5 -183.5q0 -95 -37.5 -181.5
t-108.5 -155.5t-183.5 -110.5t-251.5 -41.5t-252 41.5t-183.5 110.5t-108.5 155.5t-38 181.5zM2161 446q0 -88 52.5 -147t166.5 -59q113 0 165 59t52 147q0 57 -19.5 102.5t-70 77t-127.5 31.5q-114 0 -166.5 -60.5t-52.5 -150.5z" />
    <glyph glyph-name="ampersand" unicode="&#x26;" horiz-adv-x="2314" 
d="M846 -41q-352 0 -539.5 106.5t-187.5 305.5q0 132 94.5 224.5t314.5 166.5q-104 85 -149 160.5t-45 164.5q0 179 166 283.5t450 104.5q267 0 428.5 -99t161.5 -262q0 -126 -104 -217t-322 -152l381 -262q81 119 107 301h366q-29 -290 -201 -489l426 -295h-569l-129 90
q-265 -131 -649 -131zM594 440q0 -176 362 -176q140 0 248 27l-481 336q-129 -78 -129 -187zM766 1057q0 -40 28.5 -75.5t98.5 -82.5l37 -25q131 38 187.5 82.5t56.5 106.5q0 59 -53.5 93t-145.5 34q-96 0 -152.5 -36.5t-56.5 -96.5z" />
    <glyph glyph-name="quotesingle" unicode="'" horiz-adv-x="776" 
d="M164 815l-43 784h534l-41 -784h-450z" />
    <glyph glyph-name="parenleft" unicode="(" horiz-adv-x="1306" 
d="M1184 -410q-199 0 -358 31.5t-293.5 105.5t-223.5 190.5t-138.5 292t-49.5 404.5t49.5 404t139 292t223.5 191t293 105.5t358 31.5v-368q-155 0 -259.5 -30.5t-179.5 -104.5t-109 -201.5t-34 -319.5q0 -154 23 -266t67.5 -187t116.5 -120t162 -63.5t213 -18.5v-369z" />
    <glyph glyph-name="parenright" unicode=")" horiz-adv-x="1306" 
d="M123 1638q199 0 358 -31.5t293.5 -105.5t223.5 -190.5t138.5 -292t49.5 -404.5t-49.5 -404t-139 -292t-223.5 -191t-293 -105.5t-358 -31.5v369q155 0 259.5 30t179.5 104.5t109 201.5t34 319t-34.5 320t-109.5 202t-179.5 104t-258.5 30v368z" />
    <glyph glyph-name="asterisk" unicode="*" horiz-adv-x="1327" 
d="M522 682l51 348l-331 -217l-121 231l385 138l-385 139l121 229l331 -217l-51 348h283l-47 -348l329 219l119 -231l-387 -139l387 -138l-119 -229l-329 215l47 -348h-283z" />
    <glyph glyph-name="plus" unicode="+" horiz-adv-x="1871" 
d="M719 0v524h-598v344h598v525h432v-525h598v-344h-598v-524h-432z" />
    <glyph glyph-name="comma" unicode="," horiz-adv-x="741" 
d="M166 -451l141 451h-186v373h500v-373l-234 -451h-221z" />
    <glyph glyph-name="hyphen" unicode="-" horiz-adv-x="1951" 
d="M162 524v344h1628v-344h-1628z" />
    <glyph glyph-name="period" unicode="." horiz-adv-x="741" 
d="M121 0v373h500v-373h-500z" />
    <glyph glyph-name="slash" unicode="/" horiz-adv-x="1318" 
d="M141 -307l586 1925h451l-584 -1925h-453z" />
    <glyph glyph-name="zero" unicode="0" horiz-adv-x="1945" 
d="M973 -41q-207 0 -372.5 57.5t-275 161t-167.5 246t-58 313.5q0 169 58 310t167.5 244t275.5 160.5t372 57.5t371.5 -58t274.5 -161t167.5 -244t58.5 -309q0 -170 -58.5 -312.5t-167.5 -246t-274.5 -161.5t-371.5 -58zM614 737q0 -180 94 -273t265 -93t264.5 93.5
t93.5 272.5q0 177 -93 270t-265 93t-265.5 -92.5t-93.5 -270.5z" />
    <glyph glyph-name="one" unicode="1" horiz-adv-x="1658" 
d="M121 0v369h467v712l-367 -112l-100 352l516 149h432v-1101h469v-369h-1417z" />
    <glyph glyph-name="two" unicode="2" horiz-adv-x="1853" 
d="M121 211q0 97 38 177.5t102.5 136.5t148 101.5t175.5 78.5t184 61.5t175.5 56t148 57t102.5 69t38 87.5q0 72 -56.5 107t-191.5 35q-340 0 -340 -226h-502q11 118 60.5 211.5t127 157t183.5 105.5t225.5 60.5t257.5 18.5q346 0 541 -112.5t195 -329.5q0 -88 -32 -161.5
t-87 -125t-126.5 -94t-153 -72t-163 -54t-159.5 -45t-141 -41t-108.5 -46t-60.5 -55.5h1010v-369h-1591v211z" />
    <glyph glyph-name="three" unicode="3" horiz-adv-x="1867" 
d="M965 -41q-417 0 -628.5 136.5t-236.5 422.5h482q0 -111 93.5 -161t285.5 -50q165 0 239 38t74 126q0 81 -68 116.5t-221 35.5h-127v268h115q146 2 213 36t67 109t-71 108.5t-232 33.5q-195 0 -281.5 -53t-86.5 -173h-461q25 278 240 415.5t628 137.5q377 0 568.5 -109
t191.5 -321q0 -230 -231 -317q129 -46 190 -127.5t61 -206.5q0 -230 -202 -347.5t-602 -117.5z" />
    <glyph glyph-name="four" unicode="4" horiz-adv-x="1982" 
d="M1130 0v233h-1009v347l1009 890h482v-890h250v-347h-250v-233h-482zM612 580h518v475z" />
    <glyph glyph-name="five" unicode="5" horiz-adv-x="1814" 
d="M936 -41q-173 0 -318.5 31.5t-259.5 94.5t-182.5 165.5t-77.5 236.5h506q19 -86 98.5 -132t215.5 -46q140 0 216 53.5t76 159.5q0 95 -65 147t-191 52q-94 0 -165.5 -25t-157.5 -88l-447 86l121 779h1292v-353h-903l-30 -221q205 94 464 94q278 0 433 -126t155 -353
q0 -259 -202 -407t-578 -148z" />
    <glyph glyph-name="six" unicode="6" horiz-adv-x="1898" 
d="M979 -41q-396 0 -628 201t-232 545q0 244 118.5 425t338.5 278t516 97q299 0 569 -45v-348q-264 41 -524 41q-185 0 -307.5 -66t-172.5 -190q117 56 228.5 79t242.5 23q302 0 479 -132.5t177 -358.5q0 -252 -218 -400.5t-587 -148.5zM627 516q0 -94 87 -150.5t232 -56.5
q152 0 242 57t90 154q0 92 -88.5 146.5t-239.5 54.5q-147 0 -235 -56t-88 -149z" />
    <glyph glyph-name="seven" unicode="7" horiz-adv-x="1759" 
d="M440 0q0 125 19 239t66 235t122 227.5t193.5 211.5t273.5 193h-989v364h1509v-364q-382 -240 -547 -502.5t-165 -603.5h-482z" />
    <glyph glyph-name="eight" unicode="8" horiz-adv-x="1988" 
d="M993 -41q-201 0 -352.5 21t-249.5 58.5t-159 94t-86 122t-25 148.5q0 142 99 233.5t304 135.5q-280 91 -280 342q0 189 192.5 290t556.5 101q365 0 556.5 -101t191.5 -290q0 -252 -281 -342q406 -83 406 -369q0 -83 -25 -148t-86.5 -122t-160 -94.5t-250 -58.5
t-351.5 -21zM641 438q0 -84 84.5 -126t267.5 -42q353 0 353 168q0 83 -84.5 124.5t-268.5 41.5q-185 0 -268.5 -40.5t-83.5 -125.5zM707 1079q0 -67 65 -100t221 -33q157 0 222 33t65 100q0 68 -66 101.5t-221 33.5t-220.5 -33.5t-65.5 -101.5z" />
    <glyph glyph-name="nine" unicode="9" horiz-adv-x="1898" 
d="M920 1505q396 0 628 -200.5t232 -544.5q0 -244 -118.5 -425.5t-338.5 -278.5t-516 -97q-299 0 -569 45v348q264 -41 524 -41q185 0 307 66t172 190q-117 -56 -228.5 -79t-242.5 -23q-302 0 -478.5 132.5t-176.5 358.5q0 252 218 400.5t587 148.5zM621 944
q0 -92 88 -146.5t239 -54.5q147 0 235.5 56t88.5 149q0 94 -87.5 150.5t-232.5 56.5q-152 0 -241.5 -57t-89.5 -154z" />
    <glyph glyph-name="colon" unicode=":" horiz-adv-x="741" 
d="M121 0v373h500v-373h-500zM121 614v373h500v-373h-500z" />
    <glyph glyph-name="semicolon" unicode=";" horiz-adv-x="741" 
d="M166 -451l141 451h-186v373h500v-373l-234 -451h-221zM121 614v373h500v-373h-500z" />
    <glyph glyph-name="less" unicode="&#x3c;" horiz-adv-x="1867" 
d="M1747 1223v-394l-1247 -133l1247 -135v-393l-1626 223v610z" />
    <glyph glyph-name="equal" unicode="=" horiz-adv-x="1869" 
d="M121 852v344h1628v-344h-1628zM121 197v344h1628v-344h-1628z" />
    <glyph glyph-name="greater" unicode="&#x3e;" horiz-adv-x="1867" 
d="M121 170v393l1247 133l-1247 135v394l1626 -224v-610z" />
    <glyph glyph-name="question" unicode="?" horiz-adv-x="1751" 
d="M604 485q0 92 29.5 164t76.5 117t104 79t114.5 58t104.5 46.5t76.5 51.5t29.5 66q0 117 -226 117q-163 0 -244 -61t-81 -189h-461q13 283 217 427t588 144q337 0 521.5 -99t184.5 -282q0 -68 -24.5 -123t-64.5 -90t-91.5 -67t-105 -55t-105 -52.5t-91.5 -61t-64.5 -80.5
t-24.5 -110h-463zM586 0v373h499v-373h-499z" />
    <glyph glyph-name="at" unicode="@" horiz-adv-x="2983" 
d="M1524 -528q-334 0 -602 77t-448.5 218.5t-277 344t-96.5 451.5q0 253 99 460t284 352.5t459.5 224.5t616.5 79q312 0 561.5 -69.5t417 -197.5t257 -310t89.5 -406q0 -309 -168 -493.5t-449 -184.5q-160 0 -276 64t-170 180q-135 -223 -478 -223q-259 0 -412 139.5
t-153 390.5q0 253 153 393t412 140q294 0 437 -166v137h321v-579q0 -88 54 -139.5t145 -51.5q101 0 162 96t61 254q0 333 -251.5 526t-712.5 193q-347 0 -596 -99t-375.5 -277.5t-126.5 -420.5q0 -370 284.5 -583t800.5 -213q142 0 317 22t332 60l82 -291
q-147 -45 -351 -71.5t-402 -26.5zM1120 569q0 -107 85 -167t229 -60q168 0 257 59t89 168q0 112 -88.5 171t-257.5 59q-144 0 -229 -60.5t-85 -169.5z" />
    <glyph glyph-name="A" unicode="A" horiz-adv-x="2320" 
d="M100 0l754 1470h614l752 -1470h-514l-129 272h-834l-131 -272h-512zM907 618h504l-252 527z" />
    <glyph glyph-name="B" unicode="B" horiz-adv-x="1945" 
d="M121 0v1470h1136q140 0 239.5 -25.5t156.5 -75t82.5 -113t25.5 -146.5q0 -127 -67.5 -213t-186.5 -127q338 -86 338 -364q0 -190 -122.5 -298t-381.5 -108h-1220zM602 348h586q32 0 51 1.5t42 8t35.5 19t21 36t8.5 56.5t-9 56.5t-22 36t-36 19t-42 8t-49 1.5h-586v-242z
M602 883h504q44 0 70.5 3.5t53 15t38.5 37t12 67.5q0 33 -9 55t-21.5 34t-38 18t-47 7.5t-58.5 1.5h-504v-239z" />
    <glyph glyph-name="C" unicode="C" horiz-adv-x="2144" 
d="M1077 -41q-292 0 -514 95.5t-342.5 271.5t-120.5 409q0 231 120.5 406t342.5 269.5t514 94.5q270 0 483 -78t339 -220.5t145 -329.5h-512q-19 97 -143.5 161t-311.5 64q-216 0 -345.5 -101t-129.5 -266q0 -166 129.5 -268t345.5 -102q187 0 311.5 64t143.5 163h512
q-19 -189 -145 -332.5t-339 -222t-483 -78.5z" />
    <glyph glyph-name="D" unicode="D" horiz-adv-x="2007" 
d="M121 0v1470h1050q210 0 378.5 -94t263 -261.5t94.5 -377.5t-94.5 -378.5t-263 -263.5t-378.5 -95h-1050zM602 406h375q432 0 432 331q0 328 -432 328h-375v-659z" />
    <glyph glyph-name="E" unicode="E" horiz-adv-x="1746" 
d="M121 0v1470h1503v-362h-1022v-207h981v-330h-981v-209h1022v-362h-1503z" />
    <glyph glyph-name="F" unicode="F" horiz-adv-x="1746" 
d="M121 0v1470h1503v-405h-1022v-246h899v-405h-899v-414h-481z" />
    <glyph glyph-name="G" unicode="G" horiz-adv-x="2160" 
d="M1135 -41q-312 0 -547 94t-362.5 268.5t-127.5 405.5q0 234 123.5 410.5t351.5 272t529 95.5q416 0 678.5 -160t281.5 -419h-516q-21 71 -142.5 121.5t-297.5 50.5q-232 0 -367 -103.5t-135 -267.5q0 -172 147.5 -266t411.5 -94q294 0 512 84v71h-610v299h997v-635
q-165 -108 -415 -167.5t-512 -59.5z" />
    <glyph glyph-name="H" unicode="H" horiz-adv-x="2084" 
d="M121 0v1470h481v-532h881v532h481v-1470h-481v535h-881v-535h-481z" />
    <glyph glyph-name="I" unicode="I" horiz-adv-x="722" 
d="M121 0v1470h481v-1470h-481z" />
    <glyph glyph-name="J" unicode="J" horiz-adv-x="1947" 
d="M975 -41q-435 0 -644.5 191.5t-209.5 568.5h481q0 -354 373 -354q371 0 371 354v346h-551v405h1034v-751q0 -188 -48.5 -327.5t-151 -237t-266 -146.5t-388.5 -49z" />
    <glyph glyph-name="K" unicode="K" horiz-adv-x="2066" 
d="M121 0v1470h481v-583l655 583h709l-692 -591l692 -879h-586l-452 584l-326 -277v-307h-481z" />
    <glyph glyph-name="L" unicode="L" horiz-adv-x="1660" 
d="M121 0v1470h481v-1064h981v-406h-1462z" />
    <glyph glyph-name="M" unicode="M" horiz-adv-x="2613" 
d="M121 0v1470h751l437 -915l434 915h749v-1470h-481v1014l-479 -1014h-449l-481 1014v-1014h-481z" />
    <glyph glyph-name="N" unicode="N" horiz-adv-x="2187" 
d="M121 0v1470h713l751 -1007v1007h481v-1470h-712l-752 1010v-1010h-481z" />
    <glyph glyph-name="O" unicode="O" horiz-adv-x="2263" 
d="M1130 -41q-310 0 -543.5 95.5t-360 271.5t-126.5 409q0 231 126.5 406t360 269.5t543.5 94.5q311 0 545.5 -94.5t361 -269t126.5 -406.5q0 -233 -126.5 -409t-360.5 -271.5t-546 -95.5zM602 735q0 -168 143.5 -269t384.5 -101q244 0 388.5 101t144.5 269
q0 166 -144.5 266.5t-388.5 100.5q-242 0 -385 -100t-143 -267z" />
    <glyph glyph-name="P" unicode="P" horiz-adv-x="1961" 
d="M121 0v1470h1151q276 0 433 -146t157 -406q0 -259 -157 -406t-433 -147h-670v-365h-481zM602 768h555q108 0 155.5 31.5t47.5 118.5t-47 117t-156 30h-555v-297z" />
    <glyph glyph-name="Q" unicode="Q" horiz-adv-x="2226" 
d="M1843 -123l-190 168q-230 -86 -523 -86q-310 0 -543.5 95.5t-360 271.5t-126.5 409q0 231 126.5 406t360 269.5t543.5 94.5q311 0 545.5 -94.5t361 -269t126.5 -406.5q0 -307 -217 -512l131 -114zM602 735q0 -168 143.5 -269t384.5 -101q80 0 150 12l-219 192l231 232
l301 -266q70 89 70 200q0 166 -144.5 266.5t-388.5 100.5q-242 0 -385 -100t-143 -267z" />
    <glyph glyph-name="R" unicode="R" horiz-adv-x="2062" 
d="M121 0v1470h1198q604 0 604 -450q0 -151 -79 -250.5t-230 -144.5q143 -9 225 -88t82 -213v-324h-481v246q0 99 -35 134.5t-133 35.5h-670v-416h-481zM602 801h602q108 0 162.5 30t54.5 113t-54.5 112t-162.5 29h-602v-284z" />
    <glyph glyph-name="S" unicode="S" horiz-adv-x="2015" 
d="M1051 -41q-227 0 -396.5 28.5t-293.5 90t-189 163t-72 244.5h500q0 -178 430 -178q158 0 245 15.5t114.5 40.5t27.5 67q0 29 -9.5 46.5t-32 31.5t-72 23t-117 16t-180.5 14l-72 4q-426 25 -618.5 139.5t-192.5 348.5q0 221 219.5 336.5t607.5 115.5q432 0 661.5 -128
t243.5 -373h-499q0 83 -99 118t-311 35q-126 0 -199 -13.5t-98.5 -35t-25.5 -55.5q0 -40 27.5 -62t110 -37.5t247.5 -27.5l84 -6q94 -7 161 -14t144.5 -17.5t132 -23.5t112.5 -32.5t97 -44t75 -57.5t57 -74t33.5 -93t12.5 -115q0 -110 -38.5 -193.5t-109.5 -139.5
t-179.5 -91.5t-239.5 -50.5t-299 -15z" />
    <glyph glyph-name="T" unicode="T" horiz-adv-x="1949" 
d="M100 1065v405h1749v-405h-632v-1065h-482v1065h-635z" />
    <glyph glyph-name="U" unicode="U" horiz-adv-x="2029" 
d="M1016 -41q-464 0 -679.5 190.5t-215.5 569.5v751h481v-735q0 -59 11 -109.5t39.5 -100t74 -84t119.5 -55.5t170 -21t170 21.5t118.5 56t73 84t39 99.5t10.5 109v735h484v-751q0 -378 -216 -569t-679 -191z" />
    <glyph glyph-name="V" unicode="V" horiz-adv-x="2320" 
d="M815 0l-715 1470h512l547 -1144l547 1144h514l-719 -1470h-686z" />
    <glyph glyph-name="W" unicode="W" horiz-adv-x="3393" 
d="M588 0l-488 1470h486l358 -1110l434 1110h637l434 -1110l359 1110h485l-487 -1470h-692l-416 1083l-416 -1083h-694z" />
    <glyph glyph-name="X" unicode="X" horiz-adv-x="2322" 
d="M100 0l734 735l-734 735h650l413 -448l412 448h647l-731 -735l731 -735h-647l-412 449l-413 -449h-650z" />
    <glyph glyph-name="Y" unicode="Y" horiz-adv-x="2275" 
d="M897 0v492l-797 978h598l439 -575l440 575h598l-797 -978v-492h-481z" />
    <glyph glyph-name="Z" unicode="Z" horiz-adv-x="1886" 
d="M121 0v406l950 659h-950v405h1646v-405l-956 -659h956v-406h-1646z" />
    <glyph glyph-name="bracketleft" unicode="[" horiz-adv-x="1306" 
d="M121 -410v2048h1063v-368h-582v-1311h582v-369h-1063z" />
    <glyph glyph-name="backslash" unicode="\" horiz-adv-x="1275" 
d="M705 -307l-584 1925h450l584 -1925h-450z" />
    <glyph glyph-name="bracketright" unicode="]" horiz-adv-x="1306" 
d="M1186 1638v-2048h-1063v369h582v1311h-582v368h1063z" />
    <glyph glyph-name="asciicircum" unicode="^" horiz-adv-x="1869" 
d="M121 717l508 921h616l504 -921h-442l-371 702l-373 -702h-442z" />
    <glyph glyph-name="underscore" unicode="_" horiz-adv-x="2361" 
d="M162 -449v365h2038v-365h-2038z" />
    <glyph glyph-name="grave" unicode="`" horiz-adv-x="1099" 
d="M997 1368l-792 164v240l792 -164v-240z" />
    <glyph glyph-name="a" unicode="a" horiz-adv-x="1943" 
d="M657 -43q-165 0 -289.5 42t-201 136.5t-76.5 233.5q0 95 39.5 169.5t104.5 121t157 77t189 42.5t208 12q294 0 560 -68q-4 117 -93 165t-280 48q-160 0 -326.5 -25t-400.5 -80l-58 338q475 103 875 103q395 0 577.5 -146.5t182.5 -484.5v-641h-477v162
q-156 -99 -344 -152t-347 -53zM586 393q0 -56 57 -88.5t174 -32.5q102 0 258.5 31t272.5 70v102q-320 51 -494 51q-147 0 -207.5 -31t-60.5 -102z" />
    <glyph glyph-name="b" unicode="b" horiz-adv-x="2000" 
d="M121 0v1638h473v-649q90 135 244.5 209t353.5 74q332 0 530.5 -178.5t198.5 -477.5q0 -298 -199 -477.5t-530 -179.5q-199 0 -353.5 74.5t-244.5 210.5v-244h-473zM594 616q0 -121 116.5 -192.5t319.5 -71.5q186 0 290.5 71.5t104.5 192.5t-104.5 192t-290.5 71
q-203 0 -319.5 -71t-116.5 -192z" />
    <glyph glyph-name="c" unicode="c" horiz-adv-x="1941" 
d="M973 -41q-407 0 -651 179t-244 478t244 477.5t651 178.5q364 0 607 -147t284 -394h-480q-31 79 -142.5 125.5t-268.5 46.5q-192 0 -308 -78.5t-116 -208.5q0 -132 115.5 -210t308.5 -78q156 0 268 47t143 125h480q-27 -162 -146 -285t-312 -189.5t-433 -66.5z" />
    <glyph glyph-name="d" unicode="d" horiz-adv-x="2000" 
d="M1407 0v240q-90 -135 -244.5 -209t-353.5 -74q-332 0 -530.5 178t-198.5 477q0 298 199 478t530 180q199 0 353.5 -74.5t244.5 -210.5v653h475v-1638h-475zM575 612q0 -121 105 -191.5t291 -70.5q203 0 319.5 70.5t116.5 191.5t-117 193t-319 72q-186 0 -291 -72
t-105 -193z" />
    <glyph glyph-name="e" unicode="e" horiz-adv-x="1955" 
d="M975 -41q-272 0 -475.5 80t-313 228.5t-108.5 346.5q0 200 109.5 349t312.5 229t473 80q433 0 669 -193t236 -559h-1313q59 -231 439 -231q148 0 256.5 39.5t144.5 107.5h463q-75 -242 -290 -360t-603 -117zM575 748h814q-77 194 -398 194q-343 0 -416 -194z" />
    <glyph glyph-name="f" unicode="f" horiz-adv-x="1392" 
d="M365 1284q0 185 147.5 291t443.5 106q200 0 359 -20v-299q-195 14 -240 14q-138 0 -187.5 -32.5t-51.5 -112.5h479v-346h-479v-885h-471v885h-287v346h287v53z" />
    <glyph glyph-name="g" unicode="g" horiz-adv-x="1996" 
d="M1026 -532q-402 0 -883 102l72 350q247 -46 409 -65t318 -19q255 0 359 60t104 200v142q-90 -133 -244 -206t-352 -73q-332 0 -530.5 178t-198.5 477q0 298 199 478t530 180q197 0 351.5 -73.5t244.5 -207.5v240h473v-1110q0 -336 -203.5 -494.5t-648.5 -158.5zM575 614
q0 -121 105 -191.5t291 -70.5q189 0 304 62.5t130 169.5v61q-15 107 -130.5 170.5t-303.5 63.5q-186 0 -291 -72t-105 -193z" />
    <glyph glyph-name="h" unicode="h" horiz-adv-x="2035" 
d="M121 0v1638h473v-698q124 158 292.5 245t411.5 87q619 0 619 -613v-659h-475v479q0 213 -85.5 308.5t-295.5 95.5q-226 0 -346.5 -101t-120.5 -297v-485h-473z" />
    <glyph glyph-name="i" unicode="i" horiz-adv-x="712" 
d="M121 0v1231h473v-1231h-473zM121 1356v282h473v-282h-473z" />
    <glyph glyph-name="j" unicode="j" horiz-adv-x="1083" 
d="M399 -532q-173 0 -360 32v314q175 -21 256 -21q117 0 157 43.5t40 179.5v1215h473v-1188q0 -278 -138.5 -426.5t-427.5 -148.5zM492 1356v282h473v-282h-473z" />
    <glyph glyph-name="k" unicode="k" horiz-adv-x="1982" 
d="M121 0v1638h473v-858l602 451h709l-688 -502l688 -729h-580l-438 489l-293 -215v-274h-473z" />
    <glyph glyph-name="l" unicode="l" horiz-adv-x="714" 
d="M121 0v1638h473v-1638h-473z" />
    <glyph glyph-name="m" unicode="m" horiz-adv-x="2871" 
d="M2277 600q0 154 -67 216.5t-211 62.5q-324 0 -324 -273v-606h-477v600q0 155 -66.5 217t-209.5 62q-324 0 -324 -273v-606h-479v1231h479v-203q211 244 539 244q110 0 202 -30t168.5 -100t118.5 -177q221 307 588 307q89 0 167 -19.5t147.5 -65t119 -113t78.5 -168.5
t29 -228v-678h-478v600z" />
    <glyph glyph-name="n" unicode="n" horiz-adv-x="2037" 
d="M119 0v1231h479v-277q81 99 175.5 167t230 109.5t299.5 41.5q616 0 616 -613v-659h-479v479q0 210 -84.5 305t-292.5 95q-226 0 -345.5 -99.5t-119.5 -294.5v-485h-479z" />
    <glyph glyph-name="o" unicode="o" horiz-adv-x="1945" 
d="M973 -41q-268 0 -471 80.5t-313.5 229.5t-110.5 347q0 197 110.5 346t313.5 229.5t471 80.5t471 -80.5t313.5 -229.5t110.5 -346q0 -198 -110.5 -347t-313.5 -229.5t-471 -80.5zM553 616q0 -132 114.5 -210t305.5 -78t305.5 78t114.5 210q0 130 -114.5 208.5t-305.5 78.5
t-305.5 -78.5t-114.5 -208.5z" />
    <glyph glyph-name="p" unicode="p" horiz-adv-x="2000" 
d="M121 -500v1731h473v-242q90 135 244.5 209t353.5 74q332 0 530.5 -178.5t198.5 -477.5q0 -298 -199 -477.5t-530 -179.5q-199 0 -353.5 74.5t-244.5 210.5v-744h-473zM594 616q0 -121 116.5 -192.5t319.5 -71.5q186 0 290.5 71.5t104.5 192.5t-104.5 192t-290.5 71
q-203 0 -319.5 -71t-116.5 -192z" />
    <glyph glyph-name="q" unicode="q" horiz-adv-x="2000" 
d="M1882 1231v-1729h-475v738q-90 -135 -244.5 -209t-353.5 -74q-332 0 -530.5 178t-198.5 477q0 298 199 478t530 180q199 0 353.5 -74.5t244.5 -210.5v246h475zM575 612q0 -121 105 -191.5t291 -70.5q203 0 319.5 70.5t116.5 191.5t-117 193t-319 72q-186 0 -291 -72
t-105 -193z" />
    <glyph glyph-name="r" unicode="r" horiz-adv-x="1470" 
d="M121 0v1231h473v-268q92 164 212 236.5t286 72.5q155 0 299 -62v-411q-97 35 -168 48t-150 13q-286 0 -479 -258v-602h-473z" />
    <glyph glyph-name="s" unicode="s" horiz-adv-x="1814" 
d="M938 -41q-421 0 -641 107t-219 344h495q0 -47 28.5 -76.5t109 -47.5t219.5 -18q125 0 196.5 12.5t97 35t25.5 59.5q0 54 -65.5 76.5t-259.5 37.5l-107 9q-131 11 -221.5 22t-176.5 29.5t-139.5 44t-95.5 62.5t-60 88t-18 118q0 410 791 410q172 0 310 -23t246.5 -71
t171 -129t69.5 -191h-496q-2 62 -76 92.5t-235 30.5q-293 0 -293 -90q0 -45 59 -65t238 -33l127 -11q96 -8 165.5 -15t143.5 -18.5t124.5 -26t100.5 -35t81.5 -47.5t56.5 -62t36 -80t11 -101q0 -102 -38.5 -178.5t-105.5 -125.5t-169.5 -79.5t-219.5 -42.5t-266 -12z" />
    <glyph glyph-name="t" unicode="t" horiz-adv-x="1370" 
d="M870 -41q-268 0 -408 103t-140 307v516h-244v346h244v225l471 123v-348h499v-346h-499v-344q0 -193 188 -193q81 0 140 8t171 33v-377q-210 -53 -422 -53z" />
    <glyph glyph-name="u" unicode="u" horiz-adv-x="2037" 
d="M1919 1231v-1231h-479v276q-124 -152 -293.5 -234.5t-411.5 -82.5q-142 0 -251.5 32.5t-193 103t-127.5 190.5t-44 286v660h479v-479q0 -210 84.5 -305t292.5 -95q226 0 345.5 99t119.5 294v486h479z" />
    <glyph glyph-name="v" unicode="v" horiz-adv-x="2035" 
d="M670 0l-592 1231h532l410 -918l407 918h529l-592 -1231h-694z" />
    <glyph glyph-name="w" unicode="w" horiz-adv-x="3303" 
d="M612 0l-534 1231h520l354 -879l389 879h621l391 -877l354 877h519l-535 -1231h-670l-368 823l-371 -823h-670z" />
    <glyph glyph-name="x" unicode="x" horiz-adv-x="2039" 
d="M78 0l624 616l-624 615h612l332 -373l330 373h610l-623 -615l623 -616h-610l-330 373l-332 -373h-612z" />
    <glyph glyph-name="y" unicode="y" horiz-adv-x="2043" 
d="M641 -532q-212 0 -461 73v357q278 -62 395 -62q52 0 83 3t62.5 11.5t53.5 27t44.5 47.5t47.5 75h-204l-584 1231h512l432 -909l432 909h512l-567 -1190q-53 -113 -107.5 -199t-122.5 -158.5t-145 -118.5t-173.5 -71.5t-209.5 -25.5z" />
    <glyph glyph-name="z" unicode="z" horiz-adv-x="1695" 
d="M121 0v346l837 539h-837v346h1454v-346l-836 -539h836v-346h-1454z" />
    <glyph glyph-name="braceleft" unicode="{" horiz-adv-x="1417" 
d="M1135 -406q-205 0 -345.5 27t-233 88t-126 162t-12.5 248l18 131q12 96 -36 139t-152 43h-86v369h86q104 0 152 44t36 138l-18 131q-21 147 12.5 248t126 161.5t233 87.5t345.5 27h159v-368h-153q-125 0 -192.5 -57.5t-49.5 -174.5l19 -129q11 -73 -6.5 -128t-57.5 -86
t-91.5 -45.5t-113.5 -14.5v-37q62 0 113.5 -14.5t91.5 -45.5t57.5 -86t6.5 -128l-19 -129q-18 -117 49.5 -174.5t192.5 -57.5h153v-369h-159z" />
    <glyph glyph-name="bar" unicode="|" horiz-adv-x="671" 
d="M121 -307v1945h430v-1945h-430z" />
    <glyph glyph-name="braceright" unicode="}" horiz-adv-x="1417" 
d="M283 1634q205 0 345.5 -26.5t232.5 -87.5t125.5 -162t12.5 -248l-18 -131q-12 -96 36 -139t152 -43h86v-369h-86q-104 0 -152 -44t-36 -138l18 -131q21 -147 -12.5 -248t-125.5 -162t-232.5 -88t-345.5 -27h-160v369h153q125 0 192.5 57t49.5 174l-18 129q-11 73 6.5 128
t57.5 86t91 46t113 15v37q-62 0 -113 14.5t-91 45.5t-57.5 86t-6.5 128l18 129q18 117 -49.5 174.5t-192.5 57.5h-153v368h160z" />
    <glyph glyph-name="asciitilde" unicode="~" horiz-adv-x="1869" 
d="M121 371q0 306 109 478.5t315 172.5q79 0 157 -25t139.5 -61t119.5 -72t119 -61t116 -25q92 0 130 55.5t38 188.5h385q0 -306 -109 -478.5t-315 -172.5q-79 0 -157 25t-139.5 60.5t-119.5 71.5t-119 61t-116 25q-92 0 -130 -55t-38 -188h-385z" />
    <glyph glyph-name="exclamdown" unicode="&#xa1;" horiz-adv-x="784" 
d="M639 735l20 -981h-536l22 981h494zM141 860v371h500v-371h-500z" />
    <glyph glyph-name="cent" unicode="&#xa2;" horiz-adv-x="1964" 
d="M827 -205v268q-346 32 -547.5 206.5t-201.5 445.5q0 270 201.5 443.5t547.5 205.5v274h295v-274q307 -29 506 -172t236 -363h-480q-23 59 -91.5 100t-170.5 60v-551q101 19 170 60.5t92 99.5h480q-37 -219 -236 -361.5t-506 -173.5v-268h-295zM549 715q0 -104 74 -176.5
t204 -98.5v547q-130 -27 -204 -98t-74 -174z" />
    <glyph glyph-name="sterling" unicode="&#xa3;" horiz-adv-x="1804" 
d="M119 371q179 143 227 227h-227v205h250q-4 17 -17.5 63t-20.5 85t-7 85q0 224 195 346.5t558 122.5q150 0 280.5 -13t325.5 -48v-369q-187 34 -296 47t-218 13q-191 0 -270.5 -49t-79.5 -160q0 -26 15 -123h612v-205h-615q-60 -160 -376 -227h1228v-371h-1564v371z" />
    <glyph glyph-name="currency" unicode="&#xa4;" horiz-adv-x="1990" 
d="M332 -82l-168 168l168 166q-111 86 -170.5 205t-59.5 262q0 287 230 467l-168 164l168 168l219 -215q192 71 446 71q250 0 445 -69l217 213l170 -168l-168 -164q111 -85 170 -204t59 -263q0 -290 -229 -469l168 -164l-170 -168l-217 215q-195 -72 -445 -72
q-251 0 -446 72zM575 719q0 -132 115.5 -210.5t306.5 -78.5q189 0 303.5 78.5t114.5 210.5q0 130 -114.5 208.5t-303.5 78.5q-191 0 -306.5 -78.5t-115.5 -208.5z" />
    <glyph glyph-name="yen" unicode="&#xa5;" horiz-adv-x="2275" 
d="M897 0v221h-575v182h575v89l-4 6h-571v184h419l-641 788h598l439 -575l440 575h598l-641 -788h420v-184h-572l-4 -6v-89h576v-182h-576v-221h-481z" />
    <glyph glyph-name="brokenbar" unicode="&#xa6;" horiz-adv-x="671" 
d="M121 870v768h430v-768h-430zM121 -307v768h430v-768h-430z" />
    <glyph glyph-name="section" unicode="&#xa7;" horiz-adv-x="1832" 
d="M938 -293q-173 0 -308 21.5t-244.5 69t-172 132t-70.5 203.5h461q3 -86 79.5 -115.5t264.5 -29.5q176 0 247 32.5t71 98.5q0 44 -28.5 68.5t-110.5 41.5t-250 33l-74 6q-89 8 -153.5 15.5t-134 18.5t-118 24t-96.5 31t-78.5 41.5t-55 53.5t-35.5 68.5t-11 85.5
q0 124 77 194.5t226 102.5q-161 45 -240.5 130t-79.5 222q0 101 41 177.5t110 124t172.5 77t216.5 41t253 11.5q765 0 795 -431h-463q-1 86 -78 116t-264 30q-179 0 -250.5 -31t-71.5 -98q0 -36 28.5 -56t105 -35.5t231.5 -31.5l82 -8q84 -8 140.5 -14.5t124.5 -16
t112.5 -19.5t94.5 -24.5t81.5 -31.5t62 -40t47.5 -51t27 -63.5t10 -77.5q0 -126 -78.5 -196t-230.5 -101q165 -47 245.5 -135t80.5 -236q0 -101 -41 -177t-110 -123.5t-172.5 -76.5t-215.5 -40t-252 -11zM563 719q0 -64 73.5 -94t270.5 -47l62 -7q4 0 13 -1t13 -1
q144 -10 209.5 23t65.5 96q0 66 -79.5 98.5t-283.5 47.5l-39 4h-2q-303 24 -303 -119z" />
    <glyph glyph-name="dieresis" unicode="&#xa8;" horiz-adv-x="1189" 
d="M731 1399v225h356v-225h-356zM205 1399v225h358v-225h-358z" />
    <glyph glyph-name="copyright" unicode="&#xa9;" horiz-adv-x="2181" 
d="M1087 -43q-297 0 -521 95t-345 271t-121 410q0 233 121 408t344.5 269.5t521.5 94.5q300 0 525 -94.5t347 -269.5t122 -408q0 -234 -122 -410t-347.5 -271t-524.5 -95zM344 733q0 -251 202 -402t541 -151q341 0 544.5 151t203.5 402q0 249 -203.5 399t-544.5 150
q-339 0 -541 -150t-202 -399zM551 731q0 184 144 283.5t413 99.5q225 0 360 -82t164 -233h-252q-15 46 -91.5 72t-203.5 26q-136 0 -212 -42t-76 -124t76 -124t212 -42q127 0 203.5 26.5t91.5 72.5h252q-29 -150 -164.5 -232t-359.5 -82q-269 0 -413 99t-144 282z" />
    <glyph glyph-name="guillemotleft" unicode="&#xab;" horiz-adv-x="2199" 
d="M1511 0l-532 616l532 615h568l-535 -615l535 -616h-568zM121 616l532 615h568l-535 -615l535 -616h-568z" />
    <glyph glyph-name="logicalnot" unicode="&#xac;" horiz-adv-x="1871" 
d="M1321 111v477h-1200v346h1632v-823h-432z" />
    <glyph glyph-name="registered" unicode="&#xae;" horiz-adv-x="2187" 
d="M1085 330q-444 0 -706 205t-262 552q0 228 118 398.5t337.5 263t512.5 92.5q424 0 675 -205t251 -549q0 -229 -113 -400.5t-323 -264t-490 -92.5zM360 1087q0 -246 196 -391t529 -145q312 0 496 145t184 391q0 243 -184 387t-496 144q-333 0 -529 -144t-196 -387z
M674 737v733h563q149 0 235.5 -68.5t86.5 -187.5q0 -84 -39.5 -144.5t-108.5 -90.5l160 -242h-301l-117 195h-233v-195h-246zM920 1124h276q52 0 80.5 20t28.5 56q0 34 -28.5 54t-80.5 20h-276v-150z" />
    <glyph glyph-name="macron" unicode="&#xaf;" horiz-adv-x="1257" 
d="M205 1430v194h950v-194h-950z" />
    <glyph glyph-name="degree" unicode="&#xb0;" horiz-adv-x="1447" 
d="M723 475q-136 0 -241.5 29t-172.5 77t-110 116t-60.5 141.5t-17.5 158.5t17.5 157.5t60.5 141t110 116.5t172.5 77t241.5 29t242.5 -29t173.5 -77t110 -116.5t60.5 -141t17.5 -157.5t-17.5 -158.5t-60.5 -141.5t-110 -116t-173.5 -77t-242.5 -29zM485 999
q0 -241 238 -241q242 0 242 241q0 50 -12 90t-38.5 74t-75 53t-116.5 19q-128 0 -183 -65.5t-55 -170.5z" />
    <glyph glyph-name="plusminus" unicode="&#xb1;" horiz-adv-x="1869" 
d="M719 471v320h-598v344h598v321h432v-321h598v-344h-598v-320h-432zM121 33v344h1628v-344h-1628z" />
    <glyph glyph-name="acute" unicode="&#xb4;" horiz-adv-x="1099" 
d="M205 1368v240l792 164v-240z" />
    <glyph glyph-name="paragraph" unicode="&#xb6;" horiz-adv-x="1921" 
d="M745 653q-329 0 -476.5 116.5t-147.5 377.5q0 259 147.5 375t476.5 116h429v-1945h-429v960zM1370 -307v1945h432v-1945h-432z" />
    <glyph glyph-name="periodcentered" unicode="&#xb7;" horiz-adv-x="741" 
d="M121 471v373h500v-373h-500z" />
    <glyph glyph-name="cedilla" unicode="&#xb8;" horiz-adv-x="964" 
d="M205 -319q185 -28 273.5 -21t88.5 59q0 45 -65 45q-43 3 -88 -30l-140 39l58 227h209l-27 -100q63 18 137 18q97 0 154 -50t57 -142q0 -69 -38.5 -120.5t-102 -79.5t-150 -41.5t-177.5 -12t-189 13.5v195z" />
    <glyph glyph-name="guillemotright" unicode="&#xbb;" horiz-adv-x="2191" 
d="M680 1231l532 -617l-532 -614h-567l534 616l-534 615h567zM971 0l534 616l-534 615h567l533 -617l-533 -614h-567z" />
    <glyph glyph-name="questiondown" unicode="&#xbf;" horiz-adv-x="1751" 
d="M1147 745q0 -92 -29.5 -164t-76.5 -116.5t-104 -79t-114.5 -58t-104.5 -46t-76.5 -51.5t-29.5 -66q0 -117 226 -117q163 0 244 61t81 189h461q-13 -283 -217 -427t-588 -144q-338 0 -522 98.5t-184 281.5q0 68 24.5 123t64.5 90t91.5 67t105 55t105 52.5t91.5 61
t64.5 80.5t24.5 110h463zM666 858v373h499v-373h-499z" />
    <glyph glyph-name="Agrave" unicode="&#xc0;" horiz-adv-x="2320" 
d="M100 0l754 1470h614l752 -1470h-514l-129 272h-834l-131 -272h-512zM764 1778v239l792 -164v-239zM907 618h504l-252 527z" />
    <glyph glyph-name="Aacute" unicode="&#xc1;" horiz-adv-x="2320" 
d="M100 0l754 1470h614l752 -1470h-514l-129 272h-834l-131 -272h-512zM764 1614v239l792 164v-239zM907 618h504l-252 527z" />
    <glyph glyph-name="Acircumflex" unicode="&#xc2;" horiz-adv-x="2320" 
d="M100 0l754 1470h614l752 -1470h-514l-129 272h-834l-131 -272h-512zM741 1608v243l420 164l418 -164v-243l-418 164zM907 618h504l-252 527z" />
    <glyph glyph-name="Atilde" unicode="&#xc3;" horiz-adv-x="2320" 
d="M100 0l754 1470h614l752 -1470h-514l-129 272h-834l-131 -272h-512zM582 1595q0 215 92 330t264 115q72 0 127.5 -21t89.5 -50.5t63.5 -59.5t65 -51t78.5 -21q139 0 139 205h238q0 -215 -92.5 -331t-262.5 -116q-61 0 -111 15t-80.5 38t-60.5 49.5t-52.5 49.5t-54.5 38
t-69 15q-66 0 -101.5 -52.5t-35.5 -152.5h-237zM907 618h504l-252 527z" />
    <glyph glyph-name="Adieresis" unicode="&#xc4;" horiz-adv-x="2320" 
d="M100 0l754 1470h614l752 -1470h-514l-129 272h-834l-131 -272h-512zM717 1645v225h358v-225h-358zM907 618h504l-252 527zM1243 1645v225h356v-225h-356z" />
    <glyph glyph-name="Aring" unicode="&#xc5;" horiz-adv-x="2320" 
d="M100 0l754 1470h614l752 -1470h-514l-129 272h-834l-131 -272h-512zM711 1864q0 131 107 198.5t341 67.5t340.5 -67.5t106.5 -198.5t-106.5 -199t-340.5 -68t-341 68t-107 199zM907 618h504l-252 527zM950 1864q0 -59 54.5 -83t154.5 -24t154.5 24t54.5 83
q0 106 -209 106t-209 -106z" />
    <glyph glyph-name="AE" unicode="&#xc6;" horiz-adv-x="2994" 
d="M100 0l625 1470h2148v-362h-1022v-207h981v-330h-981v-209h1022v-362h-1503v266h-633l-114 -266h-523zM885 614h485v492h-274z" />
    <glyph glyph-name="Ccedilla" unicode="&#xc7;" horiz-adv-x="2144" 
d="M803 -340q185 -28 273.5 -20.5t88.5 59.5q0 45 -65 45q-42 3 -88 -31l-140 39l54 213q-380 37 -603 243t-223 527q0 231 120.5 406t342.5 269.5t514 94.5q270 0 483 -78t339 -220.5t145 -329.5h-512q-19 97 -143.5 161t-311.5 64q-216 0 -345.5 -101t-129.5 -266
q0 -166 129.5 -268t345.5 -102q187 0 311.5 64t143.5 163h512q-28 -276 -275.5 -447.5t-635.5 -185.5l-21 -80q66 19 137 19q97 0 154 -50.5t57 -142.5q0 -69 -38.5 -120.5t-102 -79.5t-150 -41.5t-177.5 -12t-189 13.5v195z" />
    <glyph glyph-name="Egrave" unicode="&#xc8;" horiz-adv-x="1746" 
d="M121 0v1470h1503v-362h-1022v-207h981v-330h-981v-209h1022v-362h-1503zM535 1772v239l792 -164v-239z" />
    <glyph glyph-name="Eacute" unicode="&#xc9;" horiz-adv-x="1746" 
d="M121 0v1470h1503v-362h-1022v-207h981v-330h-981v-209h1022v-362h-1503zM535 1608v239l792 164v-239z" />
    <glyph glyph-name="Ecircumflex" unicode="&#xca;" horiz-adv-x="1746" 
d="M121 0v1470h1503v-362h-1022v-207h981v-330h-981v-209h1022v-362h-1503zM512 1602v243l420 164l418 -164v-243l-418 163z" />
    <glyph glyph-name="Edieresis" unicode="&#xcb;" horiz-adv-x="1746" 
d="M121 0v1470h1503v-362h-1022v-207h981v-330h-981v-209h1022v-362h-1503zM489 1638v226h359v-226h-359zM1016 1638v226h356v-226h-356z" />
    <glyph glyph-name="Igrave" unicode="&#xcc;" horiz-adv-x="722" 
d="M121 0v1470h481v-1470h-481zM-27 1772v239l779 -164v-239z" />
    <glyph glyph-name="Iacute" unicode="&#xcd;" horiz-adv-x="722" 
d="M121 0v1470h481v-1470h-481zM-33 1608v239l793 164v-239z" />
    <glyph glyph-name="Icircumflex" unicode="&#xce;" horiz-adv-x="722" 
d="M121 0v1470h481v-1470h-481zM-49 1602v243l411 164l410 -164v-243l-410 163z" />
    <glyph glyph-name="Idieresis" unicode="&#xcf;" horiz-adv-x="722" 
d="M121 0v1470h481v-1470h-481zM-72 1638v226h353v-226h-353zM444 1638v226h351v-226h-351z" />
    <glyph glyph-name="Eth" unicode="&#xd0;" horiz-adv-x="2007" 
d="M121 0v623h-178v188h178v659h1050q210 0 378.5 -94t263 -261.5t94.5 -377.5t-94.5 -378.5t-263 -263.5t-378.5 -95h-1050zM602 406h375q432 0 432 331q0 328 -432 328h-375v-254h303v-188h-303v-217z" />
    <glyph glyph-name="Ntilde" unicode="&#xd1;" horiz-adv-x="2187" 
d="M121 0v1470h713l751 -1007v1007h481v-1470h-712l-752 1010v-1010h-481zM518 1589q0 215 92 330t264 115q72 0 127.5 -21t89.5 -50.5t63.5 -59.5t65 -51t78.5 -21q140 0 140 205h237q0 -215 -92 -331t-262 -116q-61 0 -111 15t-80.5 38t-60.5 49.5t-52.5 49.5t-54.5 38
t-69 15q-66 0 -101.5 -52.5t-35.5 -152.5h-238z" />
    <glyph glyph-name="Ograve" unicode="&#xd2;" horiz-adv-x="2263" 
d="M1130 -41q-310 0 -543.5 95.5t-360 271.5t-126.5 409q0 231 126.5 406t360 269.5t543.5 94.5q311 0 545.5 -94.5t361 -269t126.5 -406.5q0 -233 -126.5 -409t-360.5 -271.5t-546 -95.5zM602 735q0 -168 143.5 -269t384.5 -101q244 0 388.5 101t144.5 269
q0 166 -144.5 266.5t-388.5 100.5q-242 0 -385 -100t-143 -267zM735 1772v239l793 -164v-239z" />
    <glyph glyph-name="Oacute" unicode="&#xd3;" horiz-adv-x="2263" 
d="M1130 -41q-310 0 -543.5 95.5t-360 271.5t-126.5 409q0 231 126.5 406t360 269.5t543.5 94.5q311 0 545.5 -94.5t361 -269t126.5 -406.5q0 -233 -126.5 -409t-360.5 -271.5t-546 -95.5zM602 735q0 -168 143.5 -269t384.5 -101q244 0 388.5 101t144.5 269
q0 166 -144.5 266.5t-388.5 100.5q-242 0 -385 -100t-143 -267zM735 1608v239l793 164v-239z" />
    <glyph glyph-name="Ocircumflex" unicode="&#xd4;" horiz-adv-x="2263" 
d="M1130 -41q-310 0 -543.5 95.5t-360 271.5t-126.5 409q0 231 126.5 406t360 269.5t543.5 94.5q311 0 545.5 -94.5t361 -269t126.5 -406.5q0 -233 -126.5 -409t-360.5 -271.5t-546 -95.5zM602 735q0 -168 143.5 -269t384.5 -101q244 0 388.5 101t144.5 269
q0 166 -144.5 266.5t-388.5 100.5q-242 0 -385 -100t-143 -267zM713 1602v243l420 164l417 -164v-243l-417 163z" />
    <glyph glyph-name="Otilde" unicode="&#xd5;" horiz-adv-x="2263" 
d="M1130 -41q-310 0 -543.5 95.5t-360 271.5t-126.5 409q0 231 126.5 406t360 269.5t543.5 94.5q311 0 545.5 -94.5t361 -269t126.5 -406.5q0 -233 -126.5 -409t-360.5 -271.5t-546 -95.5zM553 1589q0 215 92 330t264 115q72 0 127.5 -21t89.5 -50.5t63.5 -59.5t65 -51
t78.5 -21q140 0 140 205h237q0 -215 -92 -331t-262 -116q-61 0 -111 15t-80.5 38t-60.5 49.5t-52.5 49.5t-54.5 38t-69 15q-66 0 -101.5 -52.5t-35.5 -152.5h-238zM602 735q0 -168 143.5 -269t384.5 -101q244 0 388.5 101t144.5 269q0 166 -144.5 266.5t-388.5 100.5
q-242 0 -385 -100t-143 -267z" />
    <glyph glyph-name="Odieresis" unicode="&#xd6;" horiz-adv-x="2263" 
d="M1130 -41q-310 0 -543.5 95.5t-360 271.5t-126.5 409q0 231 126.5 406t360 269.5t543.5 94.5q311 0 545.5 -94.5t361 -269t126.5 -406.5q0 -233 -126.5 -409t-360.5 -271.5t-546 -95.5zM602 735q0 -168 143.5 -269t384.5 -101q244 0 388.5 101t144.5 269
q0 166 -144.5 266.5t-388.5 100.5q-242 0 -385 -100t-143 -267zM688 1638v226h359v-226h-359zM1214 1638v226h357v-226h-357z" />
    <glyph glyph-name="multiply" unicode="&#xd7;" horiz-adv-x="1830" 
d="M127 936l172 299l616 -356l619 356l174 -299l-446 -258l446 -258l-172 -299l-618 358l-621 -358l-174 299l448 258z" />
    <glyph glyph-name="Oslash" unicode="&#xd8;" horiz-adv-x="2263" 
d="M1130 -41q-139 0 -284 23l-105 -177h-303l148 250q-231 96 -358.5 272t-127.5 408q0 231 126.5 406t360 269.5t543.5 94.5q154 0 289 -24l103 174h303l-146 -246q231 -95 357.5 -269t126.5 -405q0 -233 -126.5 -409t-360.5 -271.5t-546 -95.5zM602 735q0 -99 53 -177
t150 -126l391 668q-20 2 -66 2q-242 0 -385 -100t-143 -267zM1069 367q20 -2 61 -2q244 0 388.5 101t144.5 269q0 97 -52.5 174t-148.5 125z" />
    <glyph glyph-name="Ugrave" unicode="&#xd9;" horiz-adv-x="2029" 
d="M1016 -41q-464 0 -679.5 190.5t-215.5 569.5v751h481v-735q0 -59 11 -109.5t39.5 -100t74 -84t119.5 -55.5t170 -21t170 21.5t118.5 56t73 84t39 99.5t10.5 109v735h484v-751q0 -378 -216 -569t-679 -191zM621 1772v239l792 -164v-239z" />
    <glyph glyph-name="Uacute" unicode="&#xda;" horiz-adv-x="2029" 
d="M1016 -41q-464 0 -679.5 190.5t-215.5 569.5v751h481v-735q0 -59 11 -109.5t39.5 -100t74 -84t119.5 -55.5t170 -21t170 21.5t118.5 56t73 84t39 99.5t10.5 109v735h484v-751q0 -378 -216 -569t-679 -191zM621 1608v239l792 164v-239z" />
    <glyph glyph-name="Ucircumflex" unicode="&#xdb;" horiz-adv-x="2029" 
d="M1016 -41q-464 0 -679.5 190.5t-215.5 569.5v751h481v-735q0 -59 11 -109.5t39.5 -100t74 -84t119.5 -55.5t170 -21t170 21.5t118.5 56t73 84t39 99.5t10.5 109v735h484v-751q0 -378 -216 -569t-679 -191zM598 1602v243l420 164l418 -164v-243l-418 163z" />
    <glyph glyph-name="Udieresis" unicode="&#xdc;" horiz-adv-x="2029" 
d="M1016 -41q-464 0 -679.5 190.5t-215.5 569.5v751h481v-735q0 -59 11 -109.5t39.5 -100t74 -84t119.5 -55.5t170 -21t170 21.5t118.5 56t73 84t39 99.5t10.5 109v735h484v-751q0 -378 -216 -569t-679 -191zM573 1638v226h359v-226h-359zM1100 1638v226h356v-226h-356z" />
    <glyph glyph-name="Yacute" unicode="&#xdd;" horiz-adv-x="2275" 
d="M897 0v492l-797 978h598l439 -575l440 575h598l-797 -978v-492h-481zM741 1608v239l793 164v-239z" />
    <glyph glyph-name="Thorn" unicode="&#xde;" horiz-adv-x="1941" 
d="M121 0v1470h481v-184h653q271 0 428.5 -144.5t157.5 -391.5t-157.5 -392t-428.5 -145h-653v-213h-481zM602 618h539q38 0 63 2t53 9.5t44.5 21.5t27 39t10.5 60q0 36 -11 61t-27 38.5t-44 21t-52.5 9t-63.5 1.5h-539v-263z" />
    <glyph glyph-name="germandbls" unicode="&#xdf;" horiz-adv-x="2031" 
d="M119 952q0 358 228 544.5t667 186.5q378 0 590.5 -119t212.5 -333q0 -126 -80.5 -219t-223.5 -138q217 -32 318.5 -126.5t101.5 -262.5q0 -249 -229.5 -367t-714.5 -118h-129v371h184q394 0 394 172q0 82 -80 110.5t-303 28.5h-195v322h154q158 0 232.5 31.5t74.5 101.5
q0 82 -91.5 128t-248.5 46q-184 0 -285.5 -83t-101.5 -233v-995h-475v952z" />
    <glyph glyph-name="agrave" unicode="&#xe0;" horiz-adv-x="1943" 
d="M657 -43q-165 0 -289.5 42t-201 136.5t-76.5 233.5q0 95 39.5 169.5t104.5 121t157 77t189 42.5t208 12q294 0 560 -68q-4 117 -93 165t-280 48q-160 0 -326.5 -25t-400.5 -80l-58 338q475 103 875 103q395 0 577.5 -146.5t182.5 -484.5v-641h-477v162
q-156 -99 -344 -152t-347 -53zM582 1532v240l792 -164v-240zM586 393q0 -56 57 -88.5t174 -32.5q102 0 258.5 31t272.5 70v102q-320 51 -494 51q-147 0 -207.5 -31t-60.5 -102z" />
    <glyph glyph-name="aacute" unicode="&#xe1;" horiz-adv-x="1943" 
d="M657 -43q-165 0 -289.5 42t-201 136.5t-76.5 233.5q0 95 39.5 169.5t104.5 121t157 77t189 42.5t208 12q294 0 560 -68q-4 117 -93 165t-280 48q-160 0 -326.5 -25t-400.5 -80l-58 338q475 103 875 103q395 0 577.5 -146.5t182.5 -484.5v-641h-477v162
q-156 -99 -344 -152t-347 -53zM582 1368v240l792 164v-240zM586 393q0 -56 57 -88.5t174 -32.5q102 0 258.5 31t272.5 70v102q-320 51 -494 51q-147 0 -207.5 -31t-60.5 -102z" />
    <glyph glyph-name="acircumflex" unicode="&#xe2;" horiz-adv-x="1943" 
d="M657 -43q-165 0 -289.5 42t-201 136.5t-76.5 233.5q0 95 39.5 169.5t104.5 121t157 77t189 42.5t208 12q294 0 560 -68q-4 117 -93 165t-280 48q-160 0 -326.5 -25t-400.5 -80l-58 338q475 103 875 103q395 0 577.5 -146.5t182.5 -484.5v-641h-477v162
q-156 -99 -344 -152t-347 -53zM559 1362v244l420 163l418 -163v-244l-418 164zM586 393q0 -56 57 -88.5t174 -32.5q102 0 258.5 31t272.5 70v102q-320 51 -494 51q-147 0 -207.5 -31t-60.5 -102z" />
    <glyph glyph-name="atilde" unicode="&#xe3;" horiz-adv-x="1943" 
d="M657 -43q-165 0 -289.5 42t-201 136.5t-76.5 233.5q0 95 39.5 169.5t104.5 121t157 77t189 42.5t208 12q294 0 560 -68q-4 117 -93 165t-280 48q-160 0 -326.5 -25t-400.5 -80l-58 338q475 103 875 103q395 0 577.5 -146.5t182.5 -484.5v-641h-477v162
q-156 -99 -344 -152t-347 -53zM399 1350q0 215 92.5 329.5t264.5 114.5q72 0 127.5 -21t89.5 -50.5t63.5 -59.5t65 -51t78.5 -21q139 0 139 205h237q0 -215 -92 -330.5t-262 -115.5q-73 0 -129 21t-90 51t-63.5 60t-66 51t-79.5 21q-66 0 -101.5 -52.5t-35.5 -151.5h-238z
M586 393q0 -56 57 -88.5t174 -32.5q102 0 258.5 31t272.5 70v102q-320 51 -494 51q-147 0 -207.5 -31t-60.5 -102z" />
    <glyph glyph-name="adieresis" unicode="&#xe4;" horiz-adv-x="1943" 
d="M657 -43q-165 0 -289.5 42t-201 136.5t-76.5 233.5q0 95 39.5 169.5t104.5 121t157 77t189 42.5t208 12q294 0 560 -68q-4 117 -93 165t-280 48q-160 0 -326.5 -25t-400.5 -80l-58 338q475 103 875 103q395 0 577.5 -146.5t182.5 -484.5v-641h-477v162
q-156 -99 -344 -152t-347 -53zM537 1399v225h358v-225h-358zM586 393q0 -56 57 -88.5t174 -32.5q102 0 258.5 31t272.5 70v102q-320 51 -494 51q-147 0 -207.5 -31t-60.5 -102zM1063 1399v225h356v-225h-356z" />
    <glyph glyph-name="aring" unicode="&#xe5;" horiz-adv-x="1943" 
d="M657 -43q-165 0 -289.5 42t-201 136.5t-76.5 233.5q0 95 39.5 169.5t104.5 121t157 77t189 42.5t208 12q294 0 560 -68q-4 117 -93 165t-280 48q-160 0 -326.5 -25t-400.5 -80l-58 338q475 103 875 103q395 0 577.5 -146.5t182.5 -484.5v-641h-477v162
q-156 -99 -344 -152t-347 -53zM528 1618q0 130 107.5 198t341.5 68t340 -67.5t106 -198.5t-106 -198.5t-340 -67.5t-341.5 68t-107.5 198zM586 393q0 -56 57 -88.5t174 -32.5q102 0 258.5 31t272.5 70v102q-320 51 -494 51q-147 0 -207.5 -31t-60.5 -102zM768 1618
q0 -59 54.5 -83t154.5 -24t154.5 24t54.5 83q0 106 -209 106t-209 -106z" />
    <glyph glyph-name="ae" unicode="&#xe6;" horiz-adv-x="3125" 
d="M702 -43q-306 0 -465 99t-159 276q0 202 198 304.5t578 102.5h354q0 84 -76 124t-233 40q-122 0 -249.5 -23t-313.5 -81l-135 305q150 69 338 108t366 39q369 0 568 -168q244 189 667 189q433 0 669 -193t236 -559h-1312q59 -231 438 -231q148 0 256.5 39.5t144.5 107.5
h463q-75 -242 -290 -360t-603 -117q-228 0 -408 56.5t-298 162.5q-127 -107 -316.5 -164t-417.5 -57zM571 395q0 -125 207 -125q272 0 430 117v113l-305 16q-184 11 -258 -21.5t-74 -99.5zM1743 748h813q-40 102 -139 148t-258 46q-343 0 -416 -194z" />
    <glyph glyph-name="ccedilla" unicode="&#xe7;" horiz-adv-x="1941" 
d="M725 -317q185 -28 273.5 -21t88.5 59q0 46 -65 46q-42 3 -88 -31l-139 39l47 190q-352 28 -558 202.5t-206 448.5q0 299 244 477.5t651 178.5q364 0 607 -147t284 -394h-480q-31 79 -142.5 125.5t-268.5 46.5q-192 0 -308 -78.5t-116 -208.5q0 -132 115.5 -210t308.5 -78
q156 0 268 47t143 125h480q-40 -232 -260 -378t-553 -161l-17 -59q63 18 137 18q97 0 154 -50t57 -142q0 -69 -38.5 -120.5t-102 -79.5t-150 -41.5t-177.5 -12t-189 13.5v195z" />
    <glyph glyph-name="egrave" unicode="&#xe8;" horiz-adv-x="1955" 
d="M975 -41q-272 0 -475.5 80t-313 228.5t-108.5 346.5q0 200 109.5 349t312.5 229t473 80q433 0 669 -193t236 -559h-1313q59 -231 439 -231q148 0 256.5 39.5t144.5 107.5h463q-75 -242 -290 -360t-603 -117zM553 1526v239l793 -163v-240zM575 748h814q-77 194 -398 194
q-343 0 -416 -194z" />
    <glyph glyph-name="eacute" unicode="&#xe9;" horiz-adv-x="1955" 
d="M975 -41q-272 0 -475.5 80t-313 228.5t-108.5 346.5q0 200 109.5 349t312.5 229t473 80q433 0 669 -193t236 -559h-1313q59 -231 439 -231q148 0 256.5 39.5t144.5 107.5h463q-75 -242 -290 -360t-603 -117zM553 1362v240l793 163v-239zM575 748h814q-77 194 -398 194
q-343 0 -416 -194z" />
    <glyph glyph-name="ecircumflex" unicode="&#xea;" horiz-adv-x="1955" 
d="M975 -41q-272 0 -475.5 80t-313 228.5t-108.5 346.5q0 200 109.5 349t312.5 229t473 80q433 0 669 -193t236 -559h-1313q59 -231 439 -231q148 0 256.5 39.5t144.5 107.5h463q-75 -242 -290 -360t-603 -117zM530 1356v243l420 164l418 -164v-243l-418 164zM575 748h814
q-77 194 -398 194q-343 0 -416 -194z" />
    <glyph glyph-name="edieresis" unicode="&#xeb;" horiz-adv-x="1955" 
d="M975 -41q-272 0 -475.5 80t-313 228.5t-108.5 346.5q0 200 109.5 349t312.5 229t473 80q433 0 669 -193t236 -559h-1313q59 -231 439 -231q148 0 256.5 39.5t144.5 107.5h463q-75 -242 -290 -360t-603 -117zM506 1393v225h358v-225h-358zM575 748h814q-77 194 -398 194
q-343 0 -416 -194zM1032 1393v225h357v-225h-357z" />
    <glyph glyph-name="igrave" unicode="&#xec;" horiz-adv-x="712" 
d="M121 0v1231h473v-1231h-473zM-39 1532v240l793 -164v-240z" />
    <glyph glyph-name="iacute" unicode="&#xed;" horiz-adv-x="712" 
d="M121 0v1231h473v-1231h-473zM-39 1368v240l793 164v-240z" />
    <glyph glyph-name="icircumflex" unicode="&#xee;" horiz-adv-x="712" 
d="M121 0v1231h473v-1231h-473zM-61 1362v244l419 163l418 -163v-244l-418 164z" />
    <glyph glyph-name="idieresis" unicode="&#xef;" horiz-adv-x="712" 
d="M121 0v1231h473v-1231h-473zM-84 1399v225h358v-225h-358zM442 1399v225h357v-225h-357z" />
    <glyph glyph-name="ntilde" unicode="&#xf1;" horiz-adv-x="2037" 
d="M119 0v1231h479v-277q81 99 175.5 167t230 109.5t299.5 41.5q616 0 616 -613v-659h-479v479q0 210 -84.5 305t-292.5 95q-226 0 -345.5 -99.5t-119.5 -294.5v-485h-479zM492 1343q0 215 92 330t264 115q72 0 127.5 -21t89.5 -50.5t63.5 -59.5t65 -51t78.5 -21
q139 0 139 205h238q0 -215 -92.5 -331t-262.5 -116q-61 0 -111 15t-80.5 38t-60.5 49.5t-52.5 49.5t-54.5 38t-69 15q-66 0 -101.5 -52.5t-35.5 -152.5h-237z" />
    <glyph glyph-name="ograve" unicode="&#xf2;" horiz-adv-x="1945" 
d="M973 -41q-268 0 -471 80.5t-313.5 229.5t-110.5 347q0 197 110.5 346t313.5 229.5t471 80.5t471 -80.5t313.5 -229.5t110.5 -346q0 -198 -110.5 -347t-313.5 -229.5t-471 -80.5zM553 616q0 -132 114.5 -210t305.5 -78t305.5 78t114.5 210q0 130 -114.5 208.5t-305.5 78.5
t-305.5 -78.5t-114.5 -208.5zM578 1532v240l792 -164v-240z" />
    <glyph glyph-name="oacute" unicode="&#xf3;" horiz-adv-x="1945" 
d="M973 -41q-268 0 -471 80.5t-313.5 229.5t-110.5 347q0 197 110.5 346t313.5 229.5t471 80.5t471 -80.5t313.5 -229.5t110.5 -346q0 -198 -110.5 -347t-313.5 -229.5t-471 -80.5zM553 616q0 -132 114.5 -210t305.5 -78t305.5 78t114.5 210q0 130 -114.5 208.5t-305.5 78.5
t-305.5 -78.5t-114.5 -208.5zM578 1368v240l792 164v-240z" />
    <glyph glyph-name="ocircumflex" unicode="&#xf4;" horiz-adv-x="1945" 
d="M973 -41q-268 0 -471 80.5t-313.5 229.5t-110.5 347q0 197 110.5 346t313.5 229.5t471 80.5t471 -80.5t313.5 -229.5t110.5 -346q0 -198 -110.5 -347t-313.5 -229.5t-471 -80.5zM553 616q0 -132 114.5 -210t305.5 -78t305.5 78t114.5 210q0 130 -114.5 208.5t-305.5 78.5
t-305.5 -78.5t-114.5 -208.5zM555 1362v244l420 163l418 -163v-244l-418 164z" />
    <glyph glyph-name="otilde" unicode="&#xf5;" horiz-adv-x="1945" 
d="M973 -41q-268 0 -471 80.5t-313.5 229.5t-110.5 347q0 197 110.5 346t313.5 229.5t471 80.5t471 -80.5t313.5 -229.5t110.5 -346q0 -198 -110.5 -347t-313.5 -229.5t-471 -80.5zM395 1350q0 215 92.5 329.5t264.5 114.5q72 0 127.5 -21t89.5 -50.5t63.5 -59.5t65 -51
t78.5 -21q139 0 139 205h237q0 -215 -92 -330.5t-262 -115.5q-73 0 -129 21t-90 51t-63.5 60t-66 51t-79.5 21q-66 0 -101.5 -52.5t-35.5 -151.5h-238zM553 616q0 -132 114.5 -210t305.5 -78t305.5 78t114.5 210q0 130 -114.5 208.5t-305.5 78.5t-305.5 -78.5t-114.5 -208.5
z" />
    <glyph glyph-name="odieresis" unicode="&#xf6;" horiz-adv-x="1945" 
d="M973 -41q-268 0 -471 80.5t-313.5 229.5t-110.5 347q0 197 110.5 346t313.5 229.5t471 80.5t471 -80.5t313.5 -229.5t110.5 -346q0 -198 -110.5 -347t-313.5 -229.5t-471 -80.5zM530 1399v225h359v-225h-359zM553 616q0 -132 114.5 -210t305.5 -78t305.5 78t114.5 210
q0 130 -114.5 208.5t-305.5 78.5t-305.5 -78.5t-114.5 -208.5zM1057 1399v225h356v-225h-356z" />
    <glyph glyph-name="divide" unicode="&#xf7;" horiz-adv-x="1951" 
d="M162 524v344h1628v-344h-1628zM782 39v287h385v-287h-385zM782 1063v287h385v-287h-385z" />
    <glyph glyph-name="oslash" unicode="&#xf8;" horiz-adv-x="1945" 
d="M973 -41q-40 0 -60 2l-69 -235h-273l80 268q-268 62 -420.5 225.5t-152.5 396.5q0 197 110.5 346t313.5 229.5t471 80.5q41 0 59 -2l72 237h272l-80 -270q268 -62 420 -225t152 -396q0 -198 -110.5 -347t-313.5 -229.5t-471 -80.5zM553 616q0 -90 55 -156t154 -100
l162 541q-171 -11 -271 -87.5t-100 -197.5zM1024 330q170 11 269.5 87.5t99.5 198.5q0 88 -54.5 154t-152.5 100z" />
    <glyph glyph-name="ugrave" unicode="&#xf9;" horiz-adv-x="2037" 
d="M1919 1231v-1231h-479v276q-124 -152 -293.5 -234.5t-411.5 -82.5q-142 0 -251.5 32.5t-193 103t-127.5 190.5t-44 286v660h479v-479q0 -210 84.5 -305t292.5 -95q226 0 345.5 99t119.5 294v486h479zM623 1532v240l792 -164v-240z" />
    <glyph glyph-name="uacute" unicode="&#xfa;" horiz-adv-x="2037" 
d="M1919 1231v-1231h-479v276q-124 -152 -293.5 -234.5t-411.5 -82.5q-142 0 -251.5 32.5t-193 103t-127.5 190.5t-44 286v660h479v-479q0 -210 84.5 -305t292.5 -95q226 0 345.5 99t119.5 294v486h479zM623 1368v240l792 164v-240z" />
    <glyph glyph-name="ucircumflex" unicode="&#xfb;" horiz-adv-x="2037" 
d="M1919 1231v-1231h-479v276q-124 -152 -293.5 -234.5t-411.5 -82.5q-142 0 -251.5 32.5t-193 103t-127.5 190.5t-44 286v660h479v-479q0 -210 84.5 -305t292.5 -95q226 0 345.5 99t119.5 294v486h479zM600 1362v244l420 163l418 -163v-244l-418 164z" />
    <glyph glyph-name="udieresis" unicode="&#xfc;" horiz-adv-x="2037" 
d="M1919 1231v-1231h-479v276q-124 -152 -293.5 -234.5t-411.5 -82.5q-142 0 -251.5 32.5t-193 103t-127.5 190.5t-44 286v660h479v-479q0 -210 84.5 -305t292.5 -95q226 0 345.5 99t119.5 294v486h479zM575 1399v225h359v-225h-359zM1102 1399v225h356v-225h-356z" />
    <glyph glyph-name="yacute" unicode="&#xfd;" horiz-adv-x="2043" 
d="M641 -532q-212 0 -461 73v357q278 -62 395 -62q52 0 83 3t62.5 11.5t53.5 27t44.5 47.5t47.5 75h-204l-584 1231h512l432 -909l432 909h512l-567 -1190q-53 -113 -107.5 -199t-122.5 -158.5t-145 -118.5t-173.5 -71.5t-209.5 -25.5zM600 1368v240l793 164v-240z" />
    <glyph glyph-name="thorn" unicode="&#xfe;" horiz-adv-x="1998" 
d="M121 -328v1966h473v-645q90 133 244 206t352 73q332 0 530.5 -178.5t198.5 -477.5q0 -298 -199 -477.5t-530 -179.5q-197 0 -351.5 73.5t-244.5 207.5v-568h-473zM594 586q15 -107 130.5 -170.5t303.5 -63.5q186 0 290.5 71.5t104.5 192.5t-104.5 192t-290.5 71
q-189 0 -304 -62.5t-130 -169.5v-61z" />
    <glyph glyph-name="ydieresis" unicode="&#xff;" horiz-adv-x="2043" 
d="M641 -532q-212 0 -461 73v357q278 -62 395 -62q52 0 83 3t62.5 11.5t53.5 27t44.5 47.5t47.5 75h-204l-584 1231h512l432 -909l432 909h512l-567 -1190q-53 -113 -107.5 -199t-122.5 -158.5t-145 -118.5t-173.5 -71.5t-209.5 -25.5zM553 1399v225h358v-225h-358z
M1079 1399v225h357v-225h-357z" />
    <glyph glyph-name="Amacron" unicode="&#x100;" horiz-adv-x="2320" 
d="M100 0l754 1470h614l752 -1470h-514l-129 272h-834l-131 -272h-512zM684 1675v195h950v-195h-950zM907 618h504l-252 527z" />
    <glyph glyph-name="amacron" unicode="&#x101;" horiz-adv-x="1943" 
d="M657 -43q-165 0 -289.5 42t-201 136.5t-76.5 233.5q0 95 39.5 169.5t104.5 121t157 77t189 42.5t208 12q294 0 560 -68q-4 117 -93 165t-280 48q-160 0 -326.5 -25t-400.5 -80l-58 338q475 103 875 103q395 0 577.5 -146.5t182.5 -484.5v-641h-477v162
q-156 -99 -344 -152t-347 -53zM502 1430v194h950v-194h-950zM586 393q0 -56 57 -88.5t174 -32.5q102 0 258.5 31t272.5 70v102q-320 51 -494 51q-147 0 -207.5 -31t-60.5 -102z" />
    <glyph glyph-name="Abreve" unicode="&#x102;" horiz-adv-x="2320" 
d="M100 0l754 1470h614l752 -1470h-514l-129 272h-834l-131 -272h-512zM698 2005h258q0 -83 46.5 -125.5t156.5 -42.5t156.5 42.5t46.5 125.5h258q0 -86 -24 -154.5t-65 -114t-100 -76t-126 -43.5t-146 -13t-146 13t-126 43.5t-100 76t-65 114t-24 154.5zM907 618h504
l-252 527z" />
    <glyph glyph-name="abreve" unicode="&#x103;" horiz-adv-x="1943" 
d="M657 -43q-165 0 -289.5 42t-201 136.5t-76.5 233.5q0 95 39.5 169.5t104.5 121t157 77t189 42.5t208 12q294 0 560 -68q-4 117 -93 165t-280 48q-160 0 -326.5 -25t-400.5 -80l-58 338q475 103 875 103q395 0 577.5 -146.5t182.5 -484.5v-641h-477v162
q-156 -99 -344 -152t-347 -53zM516 1759h258q0 -83 46.5 -125.5t156.5 -42.5t156.5 42.5t46.5 125.5h258q0 -86 -24 -154.5t-65 -114t-100 -76t-126 -43.5t-146 -13t-146 13t-126 43.5t-100 76t-65 114t-24 154.5zM586 393q0 -56 57 -88.5t174 -32.5q102 0 258.5 31
t272.5 70v102q-320 51 -494 51q-147 0 -207.5 -31t-60.5 -102z" />
    <glyph glyph-name="Aogonek" unicode="&#x104;" horiz-adv-x="2320" 
d="M100 0l754 1470h614l752 -1470h-127q-57 -49 -78.5 -82.5t-21.5 -71.5q0 -63 68.5 -88.5t244.5 -25.5v-228q-233 0 -361.5 23t-183.5 75t-55 146q0 76 40.5 134.5t127.5 117.5h-168l-129 272h-834l-131 -272h-512zM907 618h504l-252 527z" />
    <glyph glyph-name="aogonek" unicode="&#x105;" horiz-adv-x="1943" 
d="M647 -43q-98 0 -183 15t-156.5 47t-122 80t-79 117.5t-28.5 154.5q0 98 41.5 173t108 121t161 75t189 40t202.5 11q282 0 557 -68q-4 126 -96 174.5t-274 48.5q-164 0 -333.5 -23t-397.5 -75l-58 321q481 103 879 103q389 0 571 -146.5t182 -484.5v-641h-258
q-57 -49 -78.5 -82.5t-21.5 -71.5q0 -63 68.5 -88.5t244.5 -25.5v-228q-232 0 -360.5 23t-184 75t-55.5 146q0 77 41.5 136t130.5 118v166q-157 -101 -344.5 -156t-345.5 -55zM569 393q0 -58 59 -90.5t181 -32.5q103 0 258.5 29t269.5 63v125q-339 50 -483 50
q-149 0 -217 -32t-68 -112z" />
    <glyph glyph-name="Cacute" unicode="&#x106;" horiz-adv-x="2144" 
d="M1077 -41q-292 0 -514 95.5t-342.5 271.5t-120.5 409q0 231 120.5 406t342.5 269.5t514 94.5q270 0 483 -78t339 -220.5t145 -329.5h-512q-19 97 -143.5 161t-311.5 64q-216 0 -345.5 -101t-129.5 -266q0 -166 129.5 -268t345.5 -102q187 0 311.5 64t143.5 163h512
q-19 -189 -145 -332.5t-339 -222t-483 -78.5zM680 1608v239l793 164v-239z" />
    <glyph glyph-name="cacute" unicode="&#x107;" horiz-adv-x="1941" 
d="M973 -41q-407 0 -651 179t-244 478t244 477.5t651 178.5q364 0 607 -147t284 -394h-480q-31 79 -142.5 125.5t-268.5 46.5q-192 0 -308 -78.5t-116 -208.5q0 -132 115.5 -210t308.5 -78q156 0 268 47t143 125h480q-27 -162 -146 -285t-312 -189.5t-433 -66.5zM573 1368
v240l793 164v-240z" />
    <glyph glyph-name="Cdotaccent" unicode="&#x10a;" horiz-adv-x="2144" 
d="M1077 -41q-292 0 -514 95.5t-342.5 271.5t-120.5 409q0 231 120.5 406t342.5 269.5t514 94.5q270 0 483 -78t339 -220.5t145 -329.5h-512q-19 97 -143.5 161t-311.5 64q-216 0 -345.5 -101t-129.5 -266q0 -166 129.5 -268t345.5 -102q187 0 311.5 64t143.5 163h512
q-19 -189 -145 -332.5t-339 -222t-483 -78.5zM874 1665v199h402v-199h-402z" />
    <glyph glyph-name="cdotaccent" unicode="&#x10b;" horiz-adv-x="1941" 
d="M973 -41q-407 0 -651 179t-244 478t244 477.5t651 178.5q364 0 607 -147t284 -394h-480q-31 79 -142.5 125.5t-268.5 46.5q-192 0 -308 -78.5t-116 -208.5q0 -132 115.5 -210t308.5 -78q156 0 268 47t143 125h480q-27 -162 -146 -285t-312 -189.5t-433 -66.5zM770 1425
v199h401v-199h-401z" />
    <glyph glyph-name="Ccaron" unicode="&#x10c;" horiz-adv-x="2144" 
d="M1077 -41q-292 0 -514 95.5t-342.5 271.5t-120.5 409q0 231 120.5 406t342.5 269.5t514 94.5q270 0 483 -78t339 -220.5t145 -329.5h-512q-19 97 -143.5 161t-311.5 64q-216 0 -345.5 -101t-129.5 -266q0 -166 129.5 -268t345.5 -102q187 0 311.5 64t143.5 163h512
q-19 -189 -145 -332.5t-339 -222t-483 -78.5zM657 1743v246l418 -164l420 164v-246l-418 -164z" />
    <glyph glyph-name="ccaron" unicode="&#x10d;" horiz-adv-x="1941" 
d="M973 -41q-407 0 -651 179t-244 478t244 477.5t651 178.5q364 0 607 -147t284 -394h-480q-31 79 -142.5 125.5t-268.5 46.5q-192 0 -308 -78.5t-116 -208.5q0 -132 115.5 -210t308.5 -78q156 0 268 47t143 125h480q-27 -162 -146 -285t-312 -189.5t-433 -66.5zM551 1503
v246l418 -164l420 164v-246l-418 -164z" />
    <glyph glyph-name="Dcaron" unicode="&#x10e;" horiz-adv-x="2007" 
d="M121 0v1470h1050q210 0 378.5 -94t263 -261.5t94.5 -377.5t-94.5 -378.5t-263 -263.5t-378.5 -95h-1050zM422 1706v246l418 -164l420 164v-246l-418 -164zM602 406h375q432 0 432 331q0 328 -432 328h-375v-659z" />
    <glyph glyph-name="dcaron" unicode="&#x10f;" horiz-adv-x="2594" 
d="M1407 0v240q-90 -135 -244.5 -209t-353.5 -74q-332 0 -530.5 178t-198.5 477q0 298 199 478t530 180q199 0 353.5 -74.5t244.5 -210.5v653h475v-1638h-475zM575 612q0 -121 105 -191.5t291 -70.5q203 0 319.5 70.5t116.5 191.5t-117 193t-319 72q-186 0 -291 -72
t-105 -193zM2025 1284v354h447v-299l-199 -378h-219l139 323h-168z" />
    <glyph glyph-name="Dcroat" unicode="&#x110;" horiz-adv-x="2007" 
d="M121 0v623h-178v188h178v659h1050q210 0 378.5 -94t263 -261.5t94.5 -377.5t-94.5 -378.5t-263 -263.5t-378.5 -95h-1050zM602 406h375q432 0 432 331q0 328 -432 328h-375v-254h303v-188h-303v-217z" />
    <glyph glyph-name="dcroat" unicode="&#x111;" horiz-adv-x="2000" 
d="M1407 0v240q-90 -135 -244.5 -209t-353.5 -74q-332 0 -530.5 178t-198.5 477q0 298 199 478t530 180q199 0 353.5 -74.5t244.5 -210.5v332h-403v194h403v127h475v-127h219v-194h-219v-1317h-475zM575 612q0 -121 105 -191.5t291 -70.5q203 0 319.5 70.5t116.5 191.5
t-117 193t-319 72q-186 0 -291 -72t-105 -193z" />
    <glyph glyph-name="Emacron" unicode="&#x112;" horiz-adv-x="1746" 
d="M121 0v1470h1503v-362h-1022v-207h981v-330h-981v-209h1022v-362h-1503zM455 1669v195h950v-195h-950z" />
    <glyph glyph-name="emacron" unicode="&#x113;" horiz-adv-x="1955" 
d="M975 -41q-272 0 -475.5 80t-313 228.5t-108.5 346.5q0 200 109.5 349t312.5 229t473 80q433 0 669 -193t236 -559h-1313q59 -231 439 -231q148 0 256.5 39.5t144.5 107.5h463q-75 -242 -290 -360t-603 -117zM473 1423v195h950v-195h-950zM575 748h814q-77 194 -398 194
q-343 0 -416 -194z" />
    <glyph glyph-name="Edotaccent" unicode="&#x116;" horiz-adv-x="1746" 
d="M121 0v1470h1503v-362h-1022v-207h981v-330h-981v-209h1022v-362h-1503zM731 1665v199h402v-199h-402z" />
    <glyph glyph-name="edotaccent" unicode="&#x117;" horiz-adv-x="1955" 
d="M975 -41q-272 0 -475.5 80t-313 228.5t-108.5 346.5q0 200 109.5 349t312.5 229t473 80q433 0 669 -193t236 -559h-1313q59 -231 439 -231q148 0 256.5 39.5t144.5 107.5h463q-75 -242 -290 -360t-603 -117zM575 748h814q-77 194 -398 194q-343 0 -416 -194zM748 1419
v199h401v-199h-401z" />
    <glyph glyph-name="Eogonek" unicode="&#x118;" horiz-adv-x="1941" 
d="M121 0v1470h1503v-362h-1022v-207h981v-330h-981v-209h1022v-362h2q-57 -49 -78.5 -82.5t-21.5 -71.5q0 -63 68.5 -88.5t244.5 -25.5v-228q-233 0 -361.5 23t-183.5 75t-55 146q0 76 40.5 134.5t127.5 117.5h-1286z" />
    <glyph glyph-name="eogonek" unicode="&#x119;" horiz-adv-x="1955" 
d="M975 -41q-272 0 -475.5 80t-313 228.5t-108.5 346.5q0 200 109.5 349t312.5 229t473 80q433 0 669 -193t236 -559h-1313q59 -231 439 -231q148 0 256.5 39.5t144.5 107.5h463q-55 -176 -181.5 -285.5t-338.5 -156.5q-52 -45 -72.5 -78t-20.5 -70q0 -63 69 -88.5
t245 -25.5v-228q-233 0 -361.5 23t-183.5 75t-55 146q0 63 28 114t86 99q-35 -2 -108 -2zM575 748h814q-77 194 -398 194q-343 0 -416 -194z" />
    <glyph glyph-name="Ecaron" unicode="&#x11a;" horiz-adv-x="1746" 
d="M121 0v1470h1503v-362h-1022v-207h981v-330h-981v-209h1022v-362h-1503zM512 1743v246l418 -164l420 164v-246l-418 -164z" />
    <glyph glyph-name="ecaron" unicode="&#x11b;" horiz-adv-x="1955" 
d="M975 -41q-272 0 -475.5 80t-313 228.5t-108.5 346.5q0 200 109.5 349t312.5 229t473 80q433 0 669 -193t236 -559h-1313q59 -231 439 -231q148 0 256.5 39.5t144.5 107.5h463q-75 -242 -290 -360t-603 -117zM530 1497v246l418 -164l420 164v-246l-418 -164zM575 748h814
q-77 194 -398 194q-343 0 -416 -194z" />
    <glyph glyph-name="Gbreve" unicode="&#x11e;" horiz-adv-x="2160" 
d="M1135 -41q-312 0 -547 94t-362.5 268.5t-127.5 405.5q0 234 123.5 410.5t351.5 272t529 95.5q416 0 678.5 -160t281.5 -419h-516q-21 71 -142.5 121.5t-297.5 50.5q-232 0 -367 -103.5t-135 -267.5q0 -172 147.5 -266t411.5 -94q294 0 512 84v71h-610v299h997v-635
q-165 -108 -415 -167.5t-512 -59.5zM633 1995h258q0 -83 46.5 -125.5t156.5 -42.5t156 42.5t46 125.5h258q0 -107 -35.5 -186.5t-100 -125.5t-145 -68t-179.5 -22t-180 22t-145.5 68t-100 125.5t-35.5 186.5z" />
    <glyph glyph-name="gbreve" unicode="&#x11f;" horiz-adv-x="1996" 
d="M1026 -532q-402 0 -883 102l72 350q247 -46 409 -65t318 -19q255 0 359 60t104 200v142q-90 -133 -244 -206t-352 -73q-332 0 -530.5 178t-198.5 477q0 298 199 478t530 180q197 0 351.5 -73.5t244.5 -207.5v240h473v-1110q0 -336 -203.5 -494.5t-648.5 -158.5zM563 1759
h258q0 -83 46.5 -125.5t156.5 -42.5t156.5 42.5t46.5 125.5h258q0 -86 -24 -154.5t-65 -114t-100 -76t-126 -43.5t-146 -13t-146 13t-126 43.5t-100 76t-65 114t-24 154.5zM575 614q0 -121 105 -191.5t291 -70.5q189 0 304 62.5t130 169.5v61q-15 107 -130.5 170.5
t-303.5 63.5q-186 0 -291 -72t-105 -193z" />
    <glyph glyph-name="Gdotaccent" unicode="&#x120;" horiz-adv-x="2160" 
d="M1135 -41q-312 0 -547 94t-362.5 268.5t-127.5 405.5q0 234 123.5 410.5t351.5 272t529 95.5q416 0 678.5 -160t281.5 -419h-516q-21 71 -142.5 121.5t-297.5 50.5q-232 0 -367 -103.5t-135 -267.5q0 -172 147.5 -266t411.5 -94q294 0 512 84v71h-610v299h997v-635
q-165 -108 -415 -167.5t-512 -59.5zM893 1661v199h401v-199h-401z" />
    <glyph glyph-name="gdotaccent" unicode="&#x121;" horiz-adv-x="1996" 
d="M1026 -532q-402 0 -883 102l72 350q247 -46 409 -65t318 -19q255 0 359 60t104 200v142q-90 -133 -244 -206t-352 -73q-332 0 -530.5 178t-198.5 477q0 298 199 478t530 180q197 0 351.5 -73.5t244.5 -207.5v240h473v-1110q0 -336 -203.5 -494.5t-648.5 -158.5zM575 614
q0 -121 105 -191.5t291 -70.5q189 0 304 62.5t130 169.5v61q-15 107 -130.5 170.5t-303.5 63.5q-186 0 -291 -72t-105 -193zM825 1425v199h402v-199h-402z" />
    <glyph glyph-name="uni0122" unicode="&#x122;" horiz-adv-x="2160" 
d="M1135 -41q-312 0 -547 94t-362.5 268.5t-127.5 405.5q0 234 123.5 410.5t351.5 272t529 95.5q416 0 678.5 -160t281.5 -419h-516q-21 71 -142.5 121.5t-297.5 50.5q-232 0 -367 -103.5t-135 -267.5q0 -172 147.5 -266t411.5 -94q294 0 512 84v71h-610v299h997v-635
q-165 -108 -415 -167.5t-512 -59.5zM926 -352v243h411v-243l-213 -223h-196l139 223h-141z" />
    <glyph glyph-name="uni0123" unicode="&#x123;" horiz-adv-x="1996" 
d="M1026 -532q-402 0 -883 102l72 350q247 -46 409 -65t318 -19q255 0 359 60t104 200v142q-90 -133 -244 -206t-352 -73q-332 0 -530.5 178t-198.5 477q0 298 199 478t530 180q197 0 351.5 -73.5t244.5 -207.5v240h473v-1110q0 -336 -203.5 -494.5t-648.5 -158.5zM575 614
q0 -121 105 -191.5t291 -70.5q189 0 304 62.5t130 169.5v61q-15 107 -130.5 170.5t-303.5 63.5q-186 0 -291 -72t-105 -193zM821 1432v241l213 225h197l-137 -225h139v-241h-412z" />
    <glyph glyph-name="Hbar" unicode="&#x126;" horiz-adv-x="2222" 
d="M188 0v1116h-151v195h151v159h482v-159h880v159h482v-159h153v-195h-153v-1116h-482v535h-880v-535h-482zM670 938h880v178h-880v-178z" />
    <glyph glyph-name="hbar" unicode="&#x127;" horiz-adv-x="2035" 
d="M121 0v1315h-219v194h219v129h473v-129h405v-194h-405v-375q124 158 292.5 245t411.5 87q619 0 619 -613v-659h-475v479q0 213 -85.5 308.5t-295.5 95.5q-226 0 -346.5 -101t-120.5 -297v-485h-473z" />
    <glyph glyph-name="Imacron" unicode="&#x12a;" horiz-adv-x="722" 
d="M121 0v1470h481v-1470h-481zM-113 1669v195h951v-195h-951z" />
    <glyph glyph-name="imacron" unicode="&#x12b;" horiz-adv-x="712" 
d="M121 0v1231h473v-1231h-473zM-119 1430v194h950v-194h-950z" />
    <glyph glyph-name="Iogonek" unicode="&#x12e;" horiz-adv-x="722" 
d="M121 0v1470h481v-1470q-57 -49 -78.5 -82.5t-21.5 -71.5q0 -63 68.5 -88.5t244.5 -25.5v-228q-233 0 -361.5 23t-183.5 75t-55 146q0 76 40.5 134.5t127.5 117.5h-262z" />
    <glyph glyph-name="iogonek" unicode="&#x12f;" horiz-adv-x="712" 
d="M121 0v1231h473v-1231h-133q-57 -50 -79 -83t-22 -71q0 -63 69 -88.5t245 -25.5v-228q-233 0 -361.5 23t-183.5 75t-55 146q0 76 40.5 134.5t127.5 117.5h-121zM121 1356v282h473v-282h-473z" />
    <glyph glyph-name="Idotaccent" unicode="&#x130;" horiz-adv-x="722" 
d="M121 0v1470h481v-1470h-481zM162 1665v199h401v-199h-401z" />
    <glyph glyph-name="dotlessi" unicode="&#x131;" horiz-adv-x="712" 
d="M121 0v1231h473v-1231h-473z" />
    <glyph glyph-name="uni0136" unicode="&#x136;" horiz-adv-x="2066" 
d="M121 0v1470h481v-583l655 583h709l-692 -591l692 -879h-586l-452 584l-326 -277v-307h-481zM786 -352v243h412v-243l-213 -223h-197l140 223h-142z" />
    <glyph glyph-name="uni0137" unicode="&#x137;" horiz-adv-x="1982" 
d="M121 0v1638h473v-858l602 451h709l-688 -502l688 -729h-580l-438 489l-293 -215v-274h-473zM768 -352v243h412v-243l-213 -223h-197l139 223h-141z" />
    <glyph glyph-name="Lacute" unicode="&#x139;" horiz-adv-x="1660" 
d="M121 0v1470h481v-1064h981v-406h-1462zM123 1608v239l792 164v-239z" />
    <glyph glyph-name="lacute" unicode="&#x13a;" horiz-adv-x="714" 
d="M121 0v1638h473v-1638h-473zM-39 1776v239l793 164v-240z" />
    <glyph glyph-name="uni013B" unicode="&#x13b;" horiz-adv-x="1660" 
d="M121 0v1470h481v-1064h981v-406h-1462zM653 -352v243h412v-243l-213 -223h-197l140 223h-142z" />
    <glyph glyph-name="uni013C" unicode="&#x13c;" horiz-adv-x="714" 
d="M121 0v1638h473v-1638h-473zM160 -352v243h411v-243l-213 -223h-196l139 223h-141z" />
    <glyph glyph-name="Lcaron" unicode="&#x13d;" horiz-adv-x="1660" 
d="M121 0v1470h481v-1064h981v-406h-1462zM1120 1116v354h447v-299l-199 -378h-219l139 323h-168z" />
    <glyph glyph-name="lcaron" unicode="&#x13e;" horiz-adv-x="1345" 
d="M121 0v1638h473v-1638h-473zM778 1284v354h447v-299l-199 -378h-219l139 323h-168z" />
    <glyph glyph-name="Lslash" unicode="&#x141;" horiz-adv-x="1660" 
d="M121 0v666l-217 -70v244l217 69v561h481v-405l457 147v-245l-457 -148v-413h981v-406h-1462z" />
    <glyph glyph-name="lslash" unicode="&#x142;" horiz-adv-x="1228" 
d="M379 0v543l-303 -142v215l303 142v880h473v-663l303 141v-213l-303 -141v-762h-473z" />
    <glyph glyph-name="Nacute" unicode="&#x143;" horiz-adv-x="2187" 
d="M121 0v1470h713l751 -1007v1007h481v-1470h-712l-752 1010v-1010h-481zM698 1608v239l793 164v-239z" />
    <glyph glyph-name="nacute" unicode="&#x144;" horiz-adv-x="2037" 
d="M119 0v1231h479v-277q81 99 175.5 167t230 109.5t299.5 41.5q616 0 616 -613v-659h-479v479q0 210 -84.5 305t-292.5 95q-226 0 -345.5 -99.5t-119.5 -294.5v-485h-479zM674 1362v240l792 163v-239z" />
    <glyph glyph-name="uni0145" unicode="&#x145;" horiz-adv-x="2187" 
d="M121 0v1470h713l751 -1007v1007h481v-1470h-712l-752 1010v-1010h-481zM782 -352v243h412v-243l-213 -223h-197l140 223h-142z" />
    <glyph glyph-name="uni0146" unicode="&#x146;" horiz-adv-x="2037" 
d="M119 0v1231h479v-277q81 99 175.5 167t230 109.5t299.5 41.5q616 0 616 -613v-659h-479v479q0 210 -84.5 305t-292.5 95q-226 0 -345.5 -99.5t-119.5 -294.5v-485h-479zM819 -352v243h412v-243l-213 -223h-197l140 223h-142z" />
    <glyph glyph-name="Ncaron" unicode="&#x147;" horiz-adv-x="2187" 
d="M121 0v1470h713l751 -1007v1007h481v-1470h-712l-752 1010v-1010h-481zM676 1743v246l418 -164l419 164v-246l-417 -164z" />
    <glyph glyph-name="ncaron" unicode="&#x148;" horiz-adv-x="2037" 
d="M119 0v1231h479v-277q81 99 175.5 167t230 109.5t299.5 41.5q616 0 616 -613v-659h-479v479q0 210 -84.5 305t-292.5 95q-226 0 -345.5 -99.5t-119.5 -294.5v-485h-479zM651 1497v246l418 -164l420 164v-246l-418 -164z" />
    <glyph glyph-name="Eng" unicode="&#x14a;" horiz-adv-x="2187" 
d="M121 0v1470h713l751 -1007v1007h481v-1470q0 -258 -135.5 -394t-427.5 -136q-187 0 -362 30v307q146 -20 227 -20q62 0 95 15t51 61.5t18 136.5h-178l-752 1010v-1010h-481z" />
    <glyph glyph-name="eng" unicode="&#x14b;" horiz-adv-x="2037" 
d="M119 0v1231h479v-277q81 99 175.5 167t230 109.5t299.5 41.5q616 0 616 -613v-659q0 -126 -32 -222t-100 -166.5t-181.5 -107t-270.5 -36.5q-151 0 -346 30v359q144 -23 244 -23q127 0 169 36t42 130h-4v479q0 210 -84.5 305t-292.5 95q-226 0 -345.5 -99.5
t-119.5 -294.5v-485h-479z" />
    <glyph glyph-name="Omacron" unicode="&#x14c;" horiz-adv-x="2263" 
d="M1130 -41q-310 0 -543.5 95.5t-360 271.5t-126.5 409q0 231 126.5 406t360 269.5t543.5 94.5q311 0 545.5 -94.5t361 -269t126.5 -406.5q0 -233 -126.5 -409t-360.5 -271.5t-546 -95.5zM602 735q0 -168 143.5 -269t384.5 -101q244 0 388.5 101t144.5 269
q0 166 -144.5 266.5t-388.5 100.5q-242 0 -385 -100t-143 -267zM655 1669v195h951v-195h-951z" />
    <glyph glyph-name="omacron" unicode="&#x14d;" horiz-adv-x="1945" 
d="M973 -41q-268 0 -471 80.5t-313.5 229.5t-110.5 347q0 197 110.5 346t313.5 229.5t471 80.5t471 -80.5t313.5 -229.5t110.5 -346q0 -198 -110.5 -347t-313.5 -229.5t-471 -80.5zM498 1430v194h950v-194h-950zM553 616q0 -132 114.5 -210t305.5 -78t305.5 78t114.5 210
q0 130 -114.5 208.5t-305.5 78.5t-305.5 -78.5t-114.5 -208.5z" />
    <glyph glyph-name="Ohungarumlaut" unicode="&#x150;" horiz-adv-x="2263" 
d="M1130 -41q-310 0 -543.5 95.5t-360 271.5t-126.5 409q0 231 126.5 406t360 269.5t543.5 94.5q311 0 545.5 -94.5t361 -269t126.5 -406.5q0 -233 -126.5 -409t-360.5 -271.5t-546 -95.5zM602 735q0 -168 143.5 -269t384.5 -101q244 0 388.5 101t144.5 269
q0 166 -144.5 266.5t-388.5 100.5q-242 0 -385 -100t-143 -267zM647 1620v246l422 164v-246zM1190 1620v246l422 164v-246z" />
    <glyph glyph-name="ohungarumlaut" unicode="&#x151;" horiz-adv-x="1945" 
d="M973 -41q-268 0 -471 80.5t-313.5 229.5t-110.5 347q0 197 110.5 346t313.5 229.5t471 80.5t471 -80.5t313.5 -229.5t110.5 -346q0 -198 -110.5 -347t-313.5 -229.5t-471 -80.5zM492 1380v246l421 164v-246zM553 616q0 -132 114.5 -210t305.5 -78t305.5 78t114.5 210
q0 130 -114.5 208.5t-305.5 78.5t-305.5 -78.5t-114.5 -208.5zM1034 1380v246l422 164v-246z" />
    <glyph glyph-name="OE" unicode="&#x152;" horiz-adv-x="3401" 
d="M1130 -41q-310 0 -543.5 95.5t-360 271.5t-126.5 409q0 231 126.5 406t360 269.5t543.5 94.5q380 0 646 -141v106h1503v-362h-1022v-207h981v-330h-981v-209h1022v-362h-1503v102q-264 -143 -646 -143zM602 735q0 -168 143.5 -269t384.5 -101q244 0 388.5 101t144.5 269
q0 166 -144.5 266.5t-388.5 100.5q-242 0 -385 -100t-143 -267z" />
    <glyph glyph-name="oe" unicode="&#x153;" horiz-adv-x="3270" 
d="M973 -41q-268 0 -471 80.5t-313.5 229.5t-110.5 347q0 197 110.5 346t313.5 229.5t471 80.5q412 0 655 -182q243 182 658 182q433 0 669 -193t236 -559h-1313q59 -231 438 -231q148 0 257 39.5t145 107.5h463q-75 -242 -290 -360t-603 -117q-416 0 -662 182
q-243 -182 -653 -182zM553 616q0 -132 114.5 -210t305.5 -78q180 0 293 70t125 190v26v29q-12 120 -125 190t-293 70q-191 0 -305.5 -78.5t-114.5 -208.5zM1888 748h813q-40 102 -139 148t-258 46q-343 0 -416 -194z" />
    <glyph glyph-name="Racute" unicode="&#x154;" horiz-adv-x="2062" 
d="M121 0v1470h1198q604 0 604 -450q0 -151 -79 -250.5t-230 -144.5q143 -9 225 -88t82 -213v-324h-481v246q0 99 -35 134.5t-133 35.5h-670v-416h-481zM573 1608v239l793 164v-239zM602 801h602q108 0 162.5 30t54.5 113t-54.5 112t-162.5 29h-602v-284z" />
    <glyph glyph-name="racute" unicode="&#x155;" horiz-adv-x="1470" 
d="M121 0v1231h473v-268q92 164 212 236.5t286 72.5q155 0 299 -62v-411q-97 35 -168 48t-150 13q-286 0 -479 -258v-602h-473zM319 1368v240l793 164v-240z" />
    <glyph glyph-name="uni0156" unicode="&#x156;" horiz-adv-x="2062" 
d="M121 0v1470h1198q604 0 604 -450q0 -151 -79 -250.5t-230 -144.5q143 -9 225 -88t82 -213v-324h-481v246q0 99 -35 134.5t-133 35.5h-670v-416h-481zM602 801h602q108 0 162.5 30t54.5 113t-54.5 112t-162.5 29h-602v-284zM834 -352v243h411v-243l-213 -223h-196l139 223
h-141z" />
    <glyph glyph-name="uni0157" unicode="&#x157;" horiz-adv-x="1470" 
d="M121 0v1231h473v-268q92 164 212 236.5t286 72.5q155 0 299 -62v-411q-97 35 -168 48t-150 13q-286 0 -479 -258v-602h-473zM160 -352v243h411v-243l-213 -223h-196l139 223h-141z" />
    <glyph glyph-name="Rcaron" unicode="&#x158;" horiz-adv-x="2062" 
d="M121 0v1470h1198q604 0 604 -450q0 -151 -79 -250.5t-230 -144.5q143 -9 225 -88t82 -213v-324h-481v246q0 99 -35 134.5t-133 35.5h-670v-416h-481zM551 1743v246l418 -164l420 164v-246l-418 -164zM602 801h602q108 0 162.5 30t54.5 113t-54.5 112t-162.5 29h-602v-284
z" />
    <glyph glyph-name="rcaron" unicode="&#x159;" horiz-adv-x="1470" 
d="M121 0v1231h473v-268q92 164 212 236.5t286 72.5q155 0 299 -62v-411q-97 35 -168 48t-150 13q-286 0 -479 -258v-602h-473zM297 1503v246l418 -164l420 164v-246l-418 -164z" />
    <glyph glyph-name="Sacute" unicode="&#x15a;" horiz-adv-x="2015" 
d="M1051 -41q-227 0 -396.5 28.5t-293.5 90t-189 163t-72 244.5h500q0 -178 430 -178q158 0 245 15.5t114.5 40.5t27.5 67q0 29 -9.5 46.5t-32 31.5t-72 23t-117 16t-180.5 14l-72 4q-426 25 -618.5 139.5t-192.5 348.5q0 221 219.5 336.5t607.5 115.5q432 0 661.5 -128
t243.5 -373h-499q0 83 -99 118t-311 35q-126 0 -199 -13.5t-98.5 -35t-25.5 -55.5q0 -40 27.5 -62t110 -37.5t247.5 -27.5l84 -6q94 -7 161 -14t144.5 -17.5t132 -23.5t112.5 -32.5t97 -44t75 -57.5t57 -74t33.5 -93t12.5 -115q0 -110 -38.5 -193.5t-109.5 -139.5
t-179.5 -91.5t-239.5 -50.5t-299 -15zM606 1608v239l793 164v-239z" />
    <glyph glyph-name="sacute" unicode="&#x15b;" horiz-adv-x="1814" 
d="M938 -41q-421 0 -641 107t-219 344h495q0 -47 28.5 -76.5t109 -47.5t219.5 -18q125 0 196.5 12.5t97 35t25.5 59.5q0 54 -65.5 76.5t-259.5 37.5l-107 9q-131 11 -221.5 22t-176.5 29.5t-139.5 44t-95.5 62.5t-60 88t-18 118q0 410 791 410q172 0 310 -23t246.5 -71
t171 -129t69.5 -191h-496q-2 62 -76 92.5t-235 30.5q-293 0 -293 -90q0 -45 59 -65t238 -33l127 -11q96 -8 165.5 -15t143.5 -18.5t124.5 -26t100.5 -35t81.5 -47.5t56.5 -62t36 -80t11 -101q0 -102 -38.5 -178.5t-105.5 -125.5t-169.5 -79.5t-219.5 -42.5t-266 -12z
M514 1362v240l793 163v-239z" />
    <glyph glyph-name="Scedilla" unicode="&#x15e;" horiz-adv-x="2015" 
d="M752 -340q184 -28 273 -20.5t89 59.5q0 45 -65 45q-42 3 -88 -31l-140 39l53 211q-374 22 -568 146.5t-206 375.5h500q0 -178 430 -178q158 0 245 15.5t114.5 40.5t27.5 67q0 29 -9.5 46.5t-32 31.5t-72 23t-117 16t-180.5 14l-72 4q-426 25 -618.5 139.5t-192.5 348.5
q0 221 219.5 336.5t607.5 115.5q432 0 661.5 -128t243.5 -373h-499q0 83 -99 118t-311 35q-126 0 -199 -13.5t-98.5 -35t-25.5 -55.5q0 -40 27.5 -62t110 -37.5t247.5 -27.5l84 -6q94 -7 161 -14t144.5 -17.5t132 -23.5t112.5 -32.5t97 -44t75 -57.5t57 -74t33.5 -93
t12.5 -115q0 -134 -56 -228.5t-166.5 -151t-260.5 -82.5t-353 -28l-20 -80q67 19 137 19q97 0 154 -50.5t57 -142.5q0 -69 -38.5 -120.5t-102 -79.5t-150 -41.5t-177.5 -12t-189 13.5v195z" />
    <glyph glyph-name="scedilla" unicode="&#x15f;" horiz-adv-x="1814" 
d="M657 -340q185 -28 274 -20.5t89 59.5q0 45 -66 45q-42 3 -88 -31l-139 39l53 211q-344 18 -523.5 125.5t-178.5 321.5h495q0 -47 28.5 -76.5t109 -47.5t219.5 -18q125 0 196.5 12.5t97 35t25.5 59.5q0 54 -65.5 76.5t-259.5 37.5l-107 9q-131 11 -221.5 22t-176.5 29.5
t-139.5 44t-95.5 62.5t-60 88t-18 118q0 410 791 410q172 0 310 -23t246.5 -71t171 -129t69.5 -191h-496q-2 62 -76 92.5t-235 30.5q-293 0 -293 -90q0 -45 59 -65t238 -33l127 -11q96 -8 165.5 -15t143.5 -18.5t124.5 -26t100.5 -35t81.5 -47.5t56.5 -62t36 -80t11 -101
q0 -98 -35.5 -173t-98.5 -124t-158.5 -80.5t-206.5 -45t-251 -15.5l-20 -80q67 19 137 19q97 0 154 -50.5t57 -142.5q0 -69 -38.5 -120.5t-102.5 -79.5t-150.5 -41.5t-177.5 -12t-189 13.5v195z" />
    <glyph glyph-name="Scaron" unicode="&#x160;" horiz-adv-x="2015" 
d="M1051 -41q-227 0 -396.5 28.5t-293.5 90t-189 163t-72 244.5h500q0 -178 430 -178q158 0 245 15.5t114.5 40.5t27.5 67q0 29 -9.5 46.5t-32 31.5t-72 23t-117 16t-180.5 14l-72 4q-426 25 -618.5 139.5t-192.5 348.5q0 221 219.5 336.5t607.5 115.5q432 0 661.5 -128
t243.5 -373h-499q0 83 -99 118t-311 35q-126 0 -199 -13.5t-98.5 -35t-25.5 -55.5q0 -40 27.5 -62t110 -37.5t247.5 -27.5l84 -6q94 -7 161 -14t144.5 -17.5t132 -23.5t112.5 -32.5t97 -44t75 -57.5t57 -74t33.5 -93t12.5 -115q0 -110 -38.5 -193.5t-109.5 -139.5
t-179.5 -91.5t-239.5 -50.5t-299 -15zM584 1743v246l417 -164l420 164v-246l-417 -164z" />
    <glyph glyph-name="scaron" unicode="&#x161;" horiz-adv-x="1814" 
d="M938 -41q-421 0 -641 107t-219 344h495q0 -47 28.5 -76.5t109 -47.5t219.5 -18q125 0 196.5 12.5t97 35t25.5 59.5q0 54 -65.5 76.5t-259.5 37.5l-107 9q-131 11 -221.5 22t-176.5 29.5t-139.5 44t-95.5 62.5t-60 88t-18 118q0 410 791 410q172 0 310 -23t246.5 -71
t171 -129t69.5 -191h-496q-2 62 -76 92.5t-235 30.5q-293 0 -293 -90q0 -45 59 -65t238 -33l127 -11q96 -8 165.5 -15t143.5 -18.5t124.5 -26t100.5 -35t81.5 -47.5t56.5 -62t36 -80t11 -101q0 -102 -38.5 -178.5t-105.5 -125.5t-169.5 -79.5t-219.5 -42.5t-266 -12z
M489 1497v246l418 -164l420 164v-246l-418 -164z" />
    <glyph glyph-name="uni0162" unicode="&#x162;" horiz-adv-x="1949" 
d="M100 1065v405h1749v-405h-632v-1065h-156l-27 -100q63 18 137 18q97 0 154 -50t57 -142q0 -69 -38.5 -120.5t-102 -79.5t-150 -41.5t-177.5 -12t-189 13.5v195q185 -28 273.5 -21t88.5 59q0 45 -65 45q-43 3 -88 -30l-139 39l57 227h-117v1065h-635z" />
    <glyph glyph-name="uni0163" unicode="&#x163;" horiz-adv-x="1370" 
d="M78 885v346h244v225l471 123v-348h499v-346h-499v-344q0 -193 188 -193q81 0 140 8t171 33v-377q-204 -50 -399 -53l-14 -57q63 18 137 18q97 0 154 -50t57 -142q0 -69 -38.5 -120.5t-102.5 -79.5t-150.5 -41.5t-177.5 -12t-189 13.5v195q185 -28 274 -21t89 59
q0 46 -66 46q-42 3 -88 -31l-139 39l49 198q-180 31 -273 130.5t-93 265.5v516h-244z" />
    <glyph glyph-name="Tcaron" unicode="&#x164;" horiz-adv-x="1949" 
d="M100 1065v405h1749v-405h-632v-1065h-482v1065h-635zM557 1743v246l418 -164l420 164v-246l-418 -164z" />
    <glyph glyph-name="tcaron" unicode="&#x165;" horiz-adv-x="1918" 
d="M870 -41q-268 0 -408 103t-140 307v516h-244v346h244v225l471 123v-348h499v-346h-499v-344q0 -193 188 -193q81 0 140 8t171 33v-377q-210 -53 -422 -53zM1372 1284v354h447v-299l-199 -378h-219l139 323h-168z" />
    <glyph glyph-name="Tbar" unicode="&#x166;" horiz-adv-x="1949" 
d="M100 1065v405h1749v-405h-632v-338h475v-197h-475v-530h-482v530h-475v197h475v338h-635z" />
    <glyph glyph-name="tbar" unicode="&#x167;" horiz-adv-x="1370" 
d="M78 582v194h244v109h-244v346h244v225l471 123v-348h499v-346h-499v-109h499v-194h-499v-41q0 -193 188 -193q81 0 140 8t171 33v-377q-210 -53 -422 -53q-268 0 -408 103t-140 307v213h-244z" />
    <glyph glyph-name="Umacron" unicode="&#x16a;" horiz-adv-x="2029" 
d="M1016 -41q-464 0 -679.5 190.5t-215.5 569.5v751h481v-735q0 -59 11 -109.5t39.5 -100t74 -84t119.5 -55.5t170 -21t170 21.5t118.5 56t73 84t39 99.5t10.5 109v735h484v-751q0 -378 -216 -569t-679 -191zM541 1669v195h950v-195h-950z" />
    <glyph glyph-name="umacron" unicode="&#x16b;" horiz-adv-x="2037" 
d="M1919 1231v-1231h-479v276q-124 -152 -293.5 -234.5t-411.5 -82.5q-142 0 -251.5 32.5t-193 103t-127.5 190.5t-44 286v660h479v-479q0 -210 84.5 -305t292.5 -95q226 0 345.5 99t119.5 294v486h479zM543 1430v194h950v-194h-950z" />
    <glyph glyph-name="Uring" unicode="&#x16e;" horiz-adv-x="2029" 
d="M1016 -41q-464 0 -679.5 190.5t-215.5 569.5v751h481v-735q0 -59 11 -109.5t39.5 -100t74 -84t119.5 -55.5t170 -21t170 21.5t118.5 56t73 84t39 99.5t10.5 109v735h484v-751q0 -378 -216 -569t-679 -191zM567 1858q0 130 107.5 198t341.5 68t340 -67.5t106 -198.5
t-106 -199t-340 -68t-341.5 68t-107.5 199zM807 1858q0 -59 54.5 -83t154.5 -24t154.5 24t54.5 83q0 106 -209 106t-209 -106z" />
    <glyph glyph-name="uring" unicode="&#x16f;" horiz-adv-x="2037" 
d="M1919 1231v-1231h-479v276q-124 -152 -293.5 -234.5t-411.5 -82.5q-142 0 -251.5 32.5t-193 103t-127.5 190.5t-44 286v660h479v-479q0 -210 84.5 -305t292.5 -95q226 0 345.5 99t119.5 294v486h479zM569 1618q0 130 107.5 198t341.5 68t340 -67.5t106 -198.5
t-106 -198.5t-340 -67.5t-341.5 68t-107.5 198zM809 1618q0 -59 54.5 -83t154.5 -24t154.5 24t54.5 83q0 106 -209 106t-209 -106z" />
    <glyph glyph-name="Uhungarumlaut" unicode="&#x170;" horiz-adv-x="2029" 
d="M1016 -41q-464 0 -679.5 190.5t-215.5 569.5v751h481v-735q0 -59 11 -109.5t39.5 -100t74 -84t119.5 -55.5t170 -21t170 21.5t118.5 56t73 84t39 99.5t10.5 109v735h484v-751q0 -378 -216 -569t-679 -191zM532 1620v246l422 164v-246zM1075 1620v246l422 164v-246z" />
    <glyph glyph-name="uhungarumlaut" unicode="&#x171;" horiz-adv-x="2037" 
d="M1919 1231v-1231h-479v276q-124 -152 -293.5 -234.5t-411.5 -82.5q-142 0 -251.5 32.5t-193 103t-127.5 190.5t-44 286v660h479v-479q0 -210 84.5 -305t292.5 -95q226 0 345.5 99t119.5 294v486h479zM535 1380v246l421 164v-246zM1077 1380v246l422 164v-246z" />
    <glyph glyph-name="Uogonek" unicode="&#x172;" horiz-adv-x="2029" 
d="M1016 -41q-464 0 -679.5 190.5t-215.5 569.5v751h481v-735q0 -59 11 -109.5t39.5 -100t74 -84t119.5 -55.5t170 -21t170 21.5t118.5 56t73 84t39 99.5t10.5 109v735h484v-751q0 -292 -128 -472.5t-399 -248.5q-55 -47 -76.5 -80.5t-21.5 -71.5q0 -63 68.5 -88.5
t244.5 -25.5v-228q-233 0 -361.5 23t-183.5 75t-55 146q0 121 115 213q-31 -2 -98 -2z" />
    <glyph glyph-name="uogonek" unicode="&#x173;" horiz-adv-x="2037" 
d="M1919 1231v-1231h-258q-57 -49 -78.5 -82.5t-21.5 -71.5q0 -63 68.5 -88.5t244.5 -25.5v-228q-233 0 -361.5 23t-183.5 75t-55 146q0 76 40.5 134.5t127.5 117.5h-2v276q-124 -152 -293.5 -234.5t-411.5 -82.5q-142 0 -251.5 32.5t-193 103t-127.5 190.5t-44 286v660h479
v-479q0 -210 84.5 -305t292.5 -95q226 0 345.5 99t119.5 294v486h479z" />
    <glyph glyph-name="Wcircumflex" unicode="&#x174;" horiz-adv-x="3393" 
d="M588 0l-488 1470h486l358 -1110l434 1110h637l434 -1110l359 1110h485l-487 -1470h-692l-416 1083l-416 -1083h-694zM1278 1602v243l420 164l418 -164v-243l-418 163z" />
    <glyph glyph-name="wcircumflex" unicode="&#x175;" horiz-adv-x="3303" 
d="M612 0l-534 1231h520l354 -879l389 879h621l391 -877l354 877h519l-535 -1231h-670l-368 823l-371 -823h-670zM1235 1362v244l420 163l418 -163v-244l-418 164z" />
    <glyph glyph-name="Ycircumflex" unicode="&#x176;" horiz-adv-x="2275" 
d="M897 0v492l-797 978h598l439 -575l440 575h598l-797 -978v-492h-481zM719 1602v243l420 164l417 -164v-243l-417 163z" />
    <glyph glyph-name="ycircumflex" unicode="&#x177;" horiz-adv-x="2043" 
d="M641 -532q-212 0 -461 73v357q278 -62 395 -62q52 0 83 3t62.5 11.5t53.5 27t44.5 47.5t47.5 75h-204l-584 1231h512l432 -909l432 909h512l-567 -1190q-53 -113 -107.5 -199t-122.5 -158.5t-145 -118.5t-173.5 -71.5t-209.5 -25.5zM575 1362v244l420 163l418 -163v-244
l-418 164z" />
    <glyph glyph-name="Ydieresis" unicode="&#x178;" horiz-adv-x="2275" 
d="M897 0v492l-797 978h598l439 -575l440 575h598l-797 -978v-492h-481zM696 1638v226h359v-226h-359zM1223 1638v226h356v-226h-356z" />
    <glyph glyph-name="Zacute" unicode="&#x179;" horiz-adv-x="1886" 
d="M121 0v406l950 659h-950v405h1646v-405l-956 -659h956v-406h-1646zM547 1608v239l792 164v-239z" />
    <glyph glyph-name="zacute" unicode="&#x17a;" horiz-adv-x="1695" 
d="M121 0v346l837 539h-837v346h1454v-346l-836 -539h836v-346h-1454zM453 1368v240l792 164v-240z" />
    <glyph glyph-name="Zdotaccent" unicode="&#x17b;" horiz-adv-x="1886" 
d="M121 0v406l950 659h-950v405h1646v-405l-956 -659h956v-406h-1646zM741 1665v199h402v-199h-402z" />
    <glyph glyph-name="zdotaccent" unicode="&#x17c;" horiz-adv-x="1695" 
d="M121 0v346l837 539h-837v346h1454v-346l-836 -539h836v-346h-1454zM647 1425v199h402v-199h-402z" />
    <glyph glyph-name="Zcaron" unicode="&#x17d;" horiz-adv-x="1886" 
d="M121 0v406l950 659h-950v405h1646v-405l-956 -659h956v-406h-1646zM524 1743v246l418 -164l420 164v-246l-418 -164z" />
    <glyph glyph-name="zcaron" unicode="&#x17e;" horiz-adv-x="1695" 
d="M121 0v346l837 539h-837v346h1454v-346l-836 -539h836v-346h-1454zM428 1503v246l418 -164l420 164v-246l-418 -164z" />
    <glyph glyph-name="uni0218" unicode="&#x218;" horiz-adv-x="2015" 
d="M1051 -41q-227 0 -396.5 28.5t-293.5 90t-189 163t-72 244.5h500q0 -178 430 -178q158 0 245 15.5t114.5 40.5t27.5 67q0 29 -9.5 46.5t-32 31.5t-72 23t-117 16t-180.5 14l-72 4q-426 25 -618.5 139.5t-192.5 348.5q0 221 219.5 336.5t607.5 115.5q432 0 661.5 -128
t243.5 -373h-499q0 83 -99 118t-311 35q-126 0 -199 -13.5t-98.5 -35t-25.5 -55.5q0 -40 27.5 -62t110 -37.5t247.5 -27.5l84 -6q94 -7 161 -14t144.5 -17.5t132 -23.5t112.5 -32.5t97 -44t75 -57.5t57 -74t33.5 -93t12.5 -115q0 -110 -38.5 -193.5t-109.5 -139.5
t-179.5 -91.5t-239.5 -50.5t-299 -15zM803 -373v244h411v-244l-213 -223h-196l139 223h-141z" />
    <glyph glyph-name="uni0219" unicode="&#x219;" horiz-adv-x="1814" 
d="M938 -41q-421 0 -641 107t-219 344h495q0 -47 28.5 -76.5t109 -47.5t219.5 -18q125 0 196.5 12.5t97 35t25.5 59.5q0 54 -65.5 76.5t-259.5 37.5l-107 9q-131 11 -221.5 22t-176.5 29.5t-139.5 44t-95.5 62.5t-60 88t-18 118q0 410 791 410q172 0 310 -23t246.5 -71
t171 -129t69.5 -191h-496q-2 62 -76 92.5t-235 30.5q-293 0 -293 -90q0 -45 59 -65t238 -33l127 -11q96 -8 165.5 -15t143.5 -18.5t124.5 -26t100.5 -35t81.5 -47.5t56.5 -62t36 -80t11 -101q0 -102 -38.5 -178.5t-105.5 -125.5t-169.5 -79.5t-219.5 -42.5t-266 -12z
M711 -373v244h411v-244l-213 -223h-196l139 223h-141z" />
    <glyph glyph-name="uni021A" unicode="&#x21a;" horiz-adv-x="1949" 
d="M100 1065v405h1749v-405h-632v-1065h-482v1065h-635zM778 -352v243h412v-243l-213 -223h-197l140 223h-142z" />
    <glyph glyph-name="uni021B" unicode="&#x21b;" horiz-adv-x="1370" 
d="M870 -41q-268 0 -408 103t-140 307v516h-244v346h244v225l471 123v-348h499v-346h-499v-344q0 -193 188 -193q81 0 140 8t171 33v-377q-210 -53 -422 -53zM621 -350v244h411v-244l-213 -223h-196l139 223h-141z" />
    <glyph glyph-name="uni0237" unicode="&#x237;" horiz-adv-x="1083" 
d="M399 -532q-173 0 -360 32v314q175 -21 256 -21q117 0 157 43.5t40 179.5v1215h473v-1188q0 -278 -138.5 -426.5t-427.5 -148.5z" />
    <glyph glyph-name="circumflex" unicode="&#x2c6;" horiz-adv-x="1144" 
d="M205 1362v244l420 163l417 -163v-244l-417 164z" />
    <glyph glyph-name="caron" unicode="&#x2c7;" horiz-adv-x="1144" 
d="M625 1339l-420 164v246l418 -164l419 164v-246z" />
    <glyph glyph-name="breve" unicode="&#x2d8;" horiz-adv-x="1228" 
d="M666 1358q-79 0 -146 13t-126 43.5t-100 76t-65 114t-24 154.5h258q0 -83 46.5 -125.5t156.5 -42.5t156 42.5t46 125.5h258q0 -107 -35.5 -186.5t-100 -125.5t-145 -67.5t-179.5 -21.5z" />
    <glyph glyph-name="dotaccent" unicode="&#x2d9;" horiz-adv-x="708" 
d="M205 1425v199h401v-199h-401z" />
    <glyph glyph-name="ring" unicode="&#x2da;" horiz-adv-x="1202" 
d="M653 1352q-234 0 -341 67.5t-107 198.5t107 198.5t341 67.5t340.5 -67.5t106.5 -198.5t-106.5 -198.5t-340.5 -67.5zM444 1618q0 -59 54.5 -83t154.5 -24t154.5 24t54.5 83q0 106 -209 106t-209 -106z" />
    <glyph glyph-name="ogonek" unicode="&#x2db;" horiz-adv-x="907" 
d="M805 -496q-233 0 -361.5 23t-183.5 75t-55 146q0 77 41.5 136.5t132.5 119.5l213 -4q-57 -49 -78.5 -82.5t-21.5 -71.5q0 -63 68.5 -88.5t244.5 -25.5v-228z" />
    <glyph glyph-name="tilde" unicode="&#x2dc;" horiz-adv-x="1464" 
d="M1008 1350q-73 0 -129 21t-90 51t-63.5 60t-66 51t-79.5 21q-66 0 -102 -52.5t-36 -151.5h-237q0 215 92 329.5t264 114.5q72 0 127.5 -21t89.5 -50.5t63.5 -59.5t65 -51t78.5 -21q139 0 139 205h238q0 -215 -92 -330.5t-262 -115.5z" />
    <glyph glyph-name="hungarumlaut" unicode="&#x2dd;" horiz-adv-x="1271" 
d="M748 1380v246l421 164v-246zM205 1380v246l422 164v-246z" />
    <glyph glyph-name="gravecomb" unicode="&#x300;" 
d="M895 1368l-793 164v240l793 -164v-240z" />
    <glyph glyph-name="acutecomb" unicode="&#x301;" 
d="M102 1368v240l793 164v-240z" />
    <glyph glyph-name="uni0302" unicode="&#x302;" 
d="M102 1362v244l420 163l418 -163v-244l-418 164z" />
    <glyph glyph-name="tildecomb" unicode="&#x303;" 
d="M905 1350q-73 0 -129 21t-90 51t-63.5 60t-66 51t-79.5 21q-66 0 -101.5 -52.5t-35.5 -151.5h-238q0 215 92.5 329.5t264.5 114.5q72 0 127.5 -21t89.5 -50.5t63.5 -59.5t65 -51t78.5 -21q139 0 139 205h238q0 -215 -92 -330.5t-263 -115.5z" />
    <glyph glyph-name="uni0304" unicode="&#x304;" 
d="M102 1430v194h951v-194h-951z" />
    <glyph glyph-name="uni0306" unicode="&#x306;" 
d="M563 1358q-79 0 -146 13t-126 43.5t-100 76t-65 114t-24 154.5h258q0 -83 46.5 -125.5t156.5 -42.5t156.5 42.5t46.5 125.5h258q0 -86 -24 -154.5t-65 -114t-100 -76t-126 -43.5t-146 -13z" />
    <glyph glyph-name="uni0307" unicode="&#x307;" 
d="M102 1425v199h402v-199h-402z" />
    <glyph glyph-name="uni0308" unicode="&#x308;" 
d="M629 1399v225h356v-225h-356zM102 1399v225h359v-225h-359z" />
    <glyph glyph-name="uni030A" unicode="&#x30a;" 
d="M551 1352q-234 0 -341.5 68t-107.5 198t107.5 198t341.5 68t340 -67.5t106 -198.5t-106 -198.5t-340 -67.5zM342 1618q0 -59 54.5 -83t154.5 -24t154.5 24t54.5 83q0 106 -209 106t-209 -106z" />
    <glyph glyph-name="uni030B" unicode="&#x30b;" 
d="M645 1380v246l422 164v-246zM102 1380v246l422 164v-246z" />
    <glyph glyph-name="uni030C" unicode="&#x30c;" 
d="M522 1339l-420 164v246l418 -164l420 164v-246z" />
    <glyph glyph-name="uni0312" unicode="&#x312;" 
d="M102 1432v241l213 225h197l-137 -225h139v-241h-412z" />
    <glyph glyph-name="uni0326" unicode="&#x326;" 
d="M104 -575l140 223h-142v243h412v-243l-213 -223h-197z" />
    <glyph glyph-name="uni0327" unicode="&#x327;" 
d="M102 -319q184 -28 273.5 -21t89.5 59q0 45 -66 45q-43 3 -88 -30l-139 39l57 227h209l-26 -100q63 18 137 18q97 0 154 -50t57 -142q0 -69 -38.5 -120.5t-102.5 -79.5t-150.5 -41.5t-177.5 -12t-189 13.5v195z" />
    <glyph glyph-name="uni0328" unicode="&#x328;" 
d="M702 -496q-233 0 -361.5 23t-183.5 75t-55 146q0 77 41.5 136.5t132.5 119.5l213 -4q-57 -49 -78.5 -82.5t-21.5 -71.5q0 -63 68.5 -88.5t244.5 -25.5v-228z" />
    <glyph glyph-name="uni0335" unicode="&#x335;" 
d="M102 600v195h973v-195h-973z" />
    <glyph glyph-name="uni0336" unicode="&#x336;" 
d="M102 600v195h2038v-195h-2038z" />
    <glyph glyph-name="uni0337" unicode="&#x337;" 
d="M244 -307l585 1925h451l-584 -1925h-452z" />
    <glyph glyph-name="uni0338" unicode="&#x338;" 
d="M102 -301l533 1782h272l-532 -1782h-273z" />
    <glyph glyph-name="Wgrave" unicode="&#x1e80;" horiz-adv-x="3393" 
d="M588 0l-488 1470h486l358 -1110l434 1110h637l434 -1110l359 1110h485l-487 -1470h-692l-416 1083l-416 -1083h-694zM1300 1772v239l793 -164v-239z" />
    <glyph glyph-name="wgrave" unicode="&#x1e81;" horiz-adv-x="3303" 
d="M612 0l-534 1231h520l354 -879l389 879h621l391 -877l354 877h519l-535 -1231h-670l-368 823l-371 -823h-670zM1257 1532v240l793 -164v-240z" />
    <glyph glyph-name="Wacute" unicode="&#x1e82;" horiz-adv-x="3393" 
d="M588 0l-488 1470h486l358 -1110l434 1110h637l434 -1110l359 1110h485l-487 -1470h-692l-416 1083l-416 -1083h-694zM1300 1608v239l793 164v-239z" />
    <glyph glyph-name="wacute" unicode="&#x1e83;" horiz-adv-x="3303" 
d="M612 0l-534 1231h520l354 -879l389 879h621l391 -877l354 877h519l-535 -1231h-670l-368 823l-371 -823h-670zM1257 1368v240l793 164v-240z" />
    <glyph glyph-name="Wdieresis" unicode="&#x1e84;" horiz-adv-x="3393" 
d="M588 0l-488 1470h486l358 -1110l434 1110h637l434 -1110l359 1110h485l-487 -1470h-692l-416 1083l-416 -1083h-694zM1255 1638v226h359v-226h-359zM1782 1638v226h356v-226h-356z" />
    <glyph glyph-name="wdieresis" unicode="&#x1e85;" horiz-adv-x="3303" 
d="M612 0l-534 1231h520l354 -879l389 879h621l391 -877l354 877h519l-535 -1231h-670l-368 823l-371 -823h-670zM1210 1399v225h359v-225h-359zM1737 1399v225h356v-225h-356z" />
    <glyph glyph-name="Ygrave" unicode="&#x1ef2;" horiz-adv-x="2275" 
d="M897 0v492l-797 978h598l439 -575l440 575h598l-797 -978v-492h-481zM741 1772v239l793 -164v-239z" />
    <glyph glyph-name="ygrave" unicode="&#x1ef3;" horiz-adv-x="2043" 
d="M641 -532q-212 0 -461 73v357q278 -62 395 -62q52 0 83 3t62.5 11.5t53.5 27t44.5 47.5t47.5 75h-204l-584 1231h512l432 -909l432 909h512l-567 -1190q-53 -113 -107.5 -199t-122.5 -158.5t-145 -118.5t-173.5 -71.5t-209.5 -25.5zM600 1532v240l793 -164v-240z" />
    <glyph glyph-name="endash" unicode="&#x2013;" horiz-adv-x="2361" 
d="M162 524v344h2038v-344h-2038z" />
    <glyph glyph-name="emdash" unicode="&#x2014;" horiz-adv-x="2770" 
d="M162 524v344h2447v-344h-2447z" />
    <glyph glyph-name="quoteleft" unicode="&#x2018;" horiz-adv-x="815" 
d="M696 1599l-84 -784h-471l146 784h409z" />
    <glyph glyph-name="quoteright" unicode="&#x2019;" horiz-adv-x="792" 
d="M119 815l84 784h471l-146 -784h-409z" />
    <glyph glyph-name="quotesinglbase" unicode="&#x201a;" horiz-adv-x="741" 
d="M166 -451l141 451h-186v373h500v-373l-234 -451h-221z" />
    <glyph glyph-name="quotedblleft" unicode="&#x201c;" horiz-adv-x="1433" 
d="M1315 1599l-84 -784h-471l145 784h410zM121 815l145 784h410l-84 -784h-471z" />
    <glyph glyph-name="quotedblright" unicode="&#x201d;" horiz-adv-x="1433" 
d="M119 815l84 784h471l-146 -784h-409zM758 815l84 784h471l-146 -784h-409z" />
    <glyph glyph-name="quotedblbase" unicode="&#x201e;" horiz-adv-x="1376" 
d="M801 -451l141 451h-186v373h499v-373l-233 -451h-221zM121 0v373h500v-373l-234 -451h-221l141 451h-186z" />
    <glyph glyph-name="dagger" unicode="&#x2020;" horiz-adv-x="1884" 
d="M727 -307v1149h-606v389h606v397h430v-397h604v-389h-604v-1149h-430z" />
    <glyph glyph-name="daggerdbl" unicode="&#x2021;" horiz-adv-x="1884" 
d="M121 115v389h606v338h-606v389h606v397h430v-397h604v-389h-604v-338h604v-389h-604v-422h-430v422h-606z" />
    <glyph glyph-name="bullet" unicode="&#x2022;" horiz-adv-x="1091" 
d="M547 354q-217 0 -321.5 74t-104.5 229q0 153 104.5 226t321.5 73t319.5 -72.5t102.5 -226.5q0 -155 -102.5 -229t-319.5 -74z" />
    <glyph glyph-name="ellipsis" unicode="&#x2026;" horiz-adv-x="1976" 
d="M121 0v373h500v-373h-500zM739 0v373h500v-373h-500zM1356 0v373h499v-373h-499z" />
    <glyph glyph-name="perthousand" unicode="&#x2030;" horiz-adv-x="4308" 
d="M3647 -41q-139 0 -252 43t-183 114.5t-108 160.5t-38 184q0 75 23 147t71.5 135.5t116 111t163 75.5t207.5 28q139 0 252 -42.5t183.5 -113.5t108.5 -158.5t38 -182.5t-38 -184t-108.5 -160.5t-183.5 -114.5t-252 -43zM121 1020q0 94 38 180.5t108.5 156t183 111
t251.5 41.5t252 -41.5t183.5 -111t108.5 -156t38 -180.5q0 -96 -38 -183.5t-108.5 -157.5t-183.5 -111.5t-252 -41.5t-251.5 41.5t-183.5 111.5t-108.5 157.5t-37.5 183.5zM485 1020q0 -90 51.5 -150.5t165.5 -60.5t167 60.5t53 150.5q0 88 -53 147.5t-167 59.5
q-78 0 -128.5 -31t-69.5 -75.5t-19 -100.5zM883 0l925 1477h392l-928 -1477h-389zM1798 446q0 76 23.5 147.5t71.5 134.5t116 109.5t163.5 73.5t207.5 27q139 0 251.5 -41t183.5 -110.5t108.5 -157t37.5 -183.5q0 -95 -37.5 -181.5t-108.5 -155.5t-183.5 -110.5
t-251.5 -41.5t-252 41.5t-183.5 110.5t-108.5 155.5t-38 181.5zM2161 446q0 -88 52.5 -147t166.5 -59q113 0 165 59t52 147q0 57 -19.5 102.5t-70 77t-127.5 31.5q-114 0 -166.5 -60.5t-52.5 -150.5zM3430 461q0 -41 11.5 -78.5t36 -70t68 -51.5t101.5 -19q59 0 103 19
t68.5 51.5t36.5 70t12 78.5q0 90 -53 152.5t-167 62.5q-112 0 -164.5 -62.5t-52.5 -152.5z" />
    <glyph glyph-name="guilsinglleft" unicode="&#x2039;" horiz-adv-x="1341" 
d="M653 0l-532 616l532 615h568l-535 -615l535 -616h-568z" />
    <glyph glyph-name="guilsinglright" unicode="&#x203a;" horiz-adv-x="1341" 
d="M688 1231l533 -617l-533 -614h-567l534 616l-534 615h567z" />
    <glyph glyph-name="fraction" unicode="&#x2044;" horiz-adv-x="1318" 
d="M141 -307l586 1925h451l-584 -1925h-453z" />
    <glyph glyph-name="Euro" unicode="&#x20ac;" horiz-adv-x="2117" 
d="M1319 -43q-468 0 -709.5 126.5t-302.5 408.5h-188v184h166v47v37h-166v184h184q58 295 302 428t720 133q212 0 368.5 -19t303.5 -63v-389q-144 44 -278.5 63t-299.5 19q-230 0 -368.5 -41t-200.5 -131h909v-184h-968v-31q0 -37 2 -53h966v-184h-891q134 -146 545 -146
q303 0 584 82v-389q-148 -44 -306.5 -63t-371.5 -19z" />
    <glyph glyph-name="trademark" unicode="&#x2122;" horiz-adv-x="2568" 
d="M117 1219v251h930v-251h-322v-482h-289v482h-319zM1139 737v733h438l188 -399l189 399h436v-733h-289v469l-225 -469h-240l-209 465v-465h-288z" />
    <glyph glyph-name="arrowleft" unicode="&#x2190;" horiz-adv-x="2357" 
d="M786 2l-624 631l624 627l211 -199l-301 -279h1499v-303h-1501l303 -278z" />
    <glyph glyph-name="arrowup" unicode="&#x2191;" horiz-adv-x="1501" 
d="M1378 881l-198 -211l-279 303v-973h-303v971l-279 -301l-198 211l627 624z" />
    <glyph glyph-name="arrowright" unicode="&#x2192;" horiz-adv-x="2357" 
d="M1569 2l-211 199l303 278h-1499v303h1499l-303 279l213 199l624 -627z" />
    <glyph glyph-name="arrowdown" unicode="&#x2193;" horiz-adv-x="1501" 
d="M1378 582l-630 -625l-627 625l198 211l279 -301v978h303v-981l279 304z" />
    <glyph glyph-name="arrowboth" unicode="&#x2194;" horiz-adv-x="2918" 
d="M786 0l-624 631l624 626l211 -198l-301 -279h1528l-303 279l211 198l625 -626l-625 -631l-211 199l303 278h-1530l303 -278z" />
    <glyph glyph-name="arrowupdn" unicode="&#x2195;" horiz-adv-x="1499" 
d="M748 -256l-627 625l198 211l279 -301v907l-279 -303l-198 213l627 624l630 -626l-198 -211l-279 303v-910l279 304l198 -211z" />
    <glyph glyph-name="uni2196" unicode="&#x2196;" horiz-adv-x="1673" 
d="M100 580l4 886l885 2l8 -288l-411 18l987 -985l-215 -213l-987 985l18 -416z" />
    <glyph glyph-name="uni2197" unicode="&#x2197;" horiz-adv-x="1669" 
d="M1569 580l-289 -11l18 414l-985 -983l-213 213l981 981l-409 -16l8 290l885 -2z" />
    <glyph glyph-name="uni2198" unicode="&#x2198;" horiz-adv-x="1679" 
d="M1577 893l-2 -889h-885l-10 289l414 -19l-994 983l213 213l996 -983l-19 414z" />
    <glyph glyph-name="uni2199" unicode="&#x2199;" horiz-adv-x="1671" 
d="M989 4h-885l-4 889l289 8l-18 -414l987 983l213 -213l-985 -983l411 19z" />
    <glyph glyph-name="emptyset" unicode="&#x2205;" horiz-adv-x="2244" 
d="M297 -340l-231 231l229 230q-195 248 -195 602q0 200 67 373.5t193.5 304t323 205.5t440.5 75q343 0 586 -145l238 238l231 -232l-223 -223q188 -247 188 -596q0 -160 -41 -303.5t-125.5 -264.5t-204.5 -209t-286 -137t-363 -49q-333 0 -583 144zM561 723q0 -168 51 -285
l801 801q-123 57 -291 57q-278 0 -419.5 -150.5t-141.5 -422.5zM838 201q118 -56 284 -56q277 0 418 152.5t141 425.5q0 156 -47 274z" />
    <glyph glyph-name="product" unicode="&#x220f;" horiz-adv-x="2654" 
d="M100 1249v389h2454v-389h-451v-1556h-430v1556h-690v-1556h-430v1556h-453z" />
    <glyph glyph-name="minus" unicode="&#x2212;" horiz-adv-x="1869" 
d="M121 524v344h1628v-344h-1628z" />
    <glyph glyph-name="integral" unicode="&#x222b;" horiz-adv-x="1855" 
d="M39 82q40 0 68.5 0.5t70 4t72.5 9.5t70 18t68.5 28t62 41t57.5 56t47.5 73.5t38.5 93.5l156 520q40 131 86.5 234t106.5 176.5t113 126.5t133.5 85t137.5 51.5t156.5 27.5t159 9.5t174.5 1.5v-389q-52 0 -87.5 -1.5t-89.5 -8t-93 -19t-85.5 -36t-80.5 -57t-65.5 -85
t-51.5 -116.5l-158 -520q-40 -131 -86.5 -234.5t-106.5 -177t-113 -126.5t-133.5 -85.5t-137.5 -51.5t-157 -27t-159 -9.5t-174 -1.5v389z" />
    <glyph glyph-name="approxequal" unicode="&#x2248;" horiz-adv-x="1871" 
d="M121 776q0 306 109 478.5t315 172.5q79 0 157 -25t139.5 -60.5t119.5 -71.5t119 -61t116 -25q92 0 130 55.5t38 187.5h385q0 -306 -109 -478.5t-315 -172.5q-79 0 -157 25t-139.5 61t-119.5 72t-119 61t-116 25q-92 0 -130 -55t-38 -189h-385zM121 2q0 306 109 478.5
t315 172.5q79 0 157 -25t139.5 -60.5t119.5 -71.5t119 -61t116 -25q92 0 130 55.5t38 187.5h385q0 -306 -109 -478.5t-315 -172.5q-79 0 -157 25t-139.5 61t-119.5 72t-119 61t-116 25q-92 0 -130 -55t-38 -189h-385z" />
    <glyph glyph-name="notequal" unicode="&#x2260;" horiz-adv-x="1869" 
d="M121 852v344h823l129 422h307l-127 -422h496v-344h-600l-94 -311h694v-344h-799l-153 -504h-310l154 504h-520v344h624l95 311h-719z" />
    <glyph glyph-name="lessequal" unicode="&#x2264;" horiz-adv-x="1873" 
d="M121 2v344h1628v-344h-1628zM121 678v610l1626 221v-393l-1247 -133l1247 -135v-393z" />
    <glyph glyph-name="greaterequal" unicode="&#x2265;" horiz-adv-x="1878" 
d="M129 2v344h1628v-344h-1628zM127 461v393l1247 133l-1247 135v394l1626 -224v-610z" />
    <glyph glyph-name="lozenge" unicode="&#x25ca;" horiz-adv-x="1978" 
d="M670 -369l-549 1006l549 1001h639l546 -1001l-546 -1006h-639zM563 635l426 -787l426 787l-426 786z" />
    <glyph glyph-name="A.ss01" horiz-adv-x="2701" 
d="M100 0l715 1470h1071l717 -1470h-535l-129 268h-1173l-129 -268h-537zM934 616h835l-217 449h-403z" />
    <glyph glyph-name="Aacute.ss01" horiz-adv-x="2701" 
d="M100 0l715 1470h1071l717 -1470h-535l-129 268h-1173l-129 -268h-537zM934 616h835l-217 449h-403zM956 1608v239l793 164v-239z" />
    <glyph glyph-name="Abreve.ss01" horiz-adv-x="2701" 
d="M100 0l715 1470h1071l717 -1470h-535l-129 268h-1173l-129 -268h-537zM891 1999h258q0 -83 46.5 -125.5t156.5 -42.5t156 42.5t46 125.5h258q0 -107 -35.5 -186.5t-100 -125.5t-145 -68t-179.5 -22t-180 22t-145.5 68t-100 125.5t-35.5 186.5zM934 616h835l-217 449h-403
z" />
    <glyph glyph-name="Acircumflex.ss01" horiz-adv-x="2701" 
d="M100 0l715 1470h1071l717 -1470h-535l-129 268h-1173l-129 -268h-537zM934 616h835l-217 449h-403zM934 1602v243l420 164l418 -164v-243l-418 163z" />
    <glyph glyph-name="Adieresis.ss01" horiz-adv-x="2701" 
d="M100 0l715 1470h1071l717 -1470h-535l-129 268h-1173l-129 -268h-537zM909 1638v226h359v-226h-359zM934 616h835l-217 449h-403zM1436 1638v226h356v-226h-356z" />
    <glyph glyph-name="Agrave.ss01" horiz-adv-x="2701" 
d="M100 0l715 1470h1071l717 -1470h-535l-129 268h-1173l-129 -268h-537zM934 616h835l-217 449h-403zM956 1772v239l793 -164v-239z" />
    <glyph glyph-name="Amacron.ss01" horiz-adv-x="2701" 
d="M100 0l715 1470h1071l717 -1470h-535l-129 268h-1173l-129 -268h-537zM877 1669v195h950v-195h-950zM934 616h835l-217 449h-403z" />
    <glyph glyph-name="Aogonek.ss01" horiz-adv-x="2701" 
d="M100 0l715 1470h1071l717 -1470h-109q-57 -49 -78.5 -82.5t-21.5 -71.5q0 -63 68.5 -88.5t244.5 -25.5v-228q-233 0 -361.5 23t-183.5 75t-55 146q0 76 40.5 134.5t127.5 117.5h-207l-129 268h-1173l-129 -268h-537zM934 616h835l-217 449h-403z" />
    <glyph glyph-name="Aring.ss01" horiz-adv-x="2701" 
d="M100 0l715 1470h1071l717 -1470h-535l-129 268h-1173l-129 -268h-537zM903 1858q0 130 107.5 198t341.5 68t340 -67.5t106 -198.5t-106 -199t-340 -68t-341.5 68t-107.5 199zM934 616h835l-217 449h-403zM1143 1858q0 -59 54.5 -83t154.5 -24t154.5 24t54.5 83
q0 106 -209 106t-209 -106z" />
    <glyph glyph-name="Atilde.ss01" horiz-adv-x="2701" 
d="M100 0l715 1470h1071l717 -1470h-535l-129 268h-1173l-129 -268h-537zM774 1589q0 215 92 330t264 115q72 0 127.5 -21t89.5 -50.5t63.5 -59.5t65 -51t78.5 -21q140 0 140 205h237q0 -215 -92 -331t-262 -116q-61 0 -111 15t-80.5 38t-60.5 49.5t-52.5 49.5t-54.5 38
t-69 15q-66 0 -101.5 -52.5t-35.5 -152.5h-238zM934 616h835l-217 449h-403z" />
    <glyph glyph-name="V.ss01" horiz-adv-x="2701" 
d="M815 0l-715 1470h537l512 -1064h403l516 1064h535l-717 -1470h-1071z" />
    <glyph glyph-name="W.ss01" horiz-adv-x="3612" 
d="M588 0l-488 1470h506l344 -1064h183l309 1064h731l311 -1064h182l345 1064h501l-485 -1470h-924l-297 1051l-297 -1051h-921z" />
    <glyph glyph-name="Wacute.ss01" horiz-adv-x="3612" 
d="M588 0l-488 1470h506l344 -1064h183l309 1064h731l311 -1064h182l345 1064h501l-485 -1470h-924l-297 1051l-297 -1051h-921zM1411 1608v239l793 164v-239z" />
    <glyph glyph-name="Wcircumflex.ss01" horiz-adv-x="3612" 
d="M588 0l-488 1470h506l344 -1064h183l309 1064h731l311 -1064h182l345 1064h501l-485 -1470h-924l-297 1051l-297 -1051h-921zM1389 1602v243l419 164l418 -164v-243l-418 163z" />
    <glyph glyph-name="Wdieresis.ss01" horiz-adv-x="3612" 
d="M588 0l-488 1470h506l344 -1064h183l309 1064h731l311 -1064h182l345 1064h501l-485 -1470h-924l-297 1051l-297 -1051h-921zM1364 1638v226h358v-226h-358zM1890 1638v226h357v-226h-357z" />
    <glyph glyph-name="Wgrave.ss01" horiz-adv-x="3612" 
d="M588 0l-488 1470h506l344 -1064h183l309 1064h731l311 -1064h182l345 1064h501l-485 -1470h-924l-297 1051l-297 -1051h-921zM1411 1772v239l793 -164v-239z" />
    <glyph glyph-name="K.ss02" horiz-adv-x="2228" 
d="M1511 0l-456 535h-453v-535h-481v1470h481v-532h453l456 532h576l-617 -735l617 -735h-576z" />
    <glyph glyph-name="uni0136.ss02" horiz-adv-x="2228" 
d="M1511 0l-456 535h-453v-535h-481v1470h481v-532h453l456 532h576l-617 -735l617 -735h-576zM860 -352v243h412v-243l-213 -223h-197l139 223h-141z" />
    <glyph glyph-name="R.ss02" horiz-adv-x="2029" 
d="M121 0v1470h1237q275 0 421 -137t146 -395q0 -171 -81.5 -299.5t-233.5 -187.5l313 -451h-551l-252 408h-518v-408h-481zM602 793h604q44 0 72 2t58.5 10t47.5 23.5t28 43t11 66.5q0 41 -11 69t-28 43t-48 23t-58 10t-72 2h-604v-292z" />
    <glyph glyph-name="Racute.ss02" horiz-adv-x="2029" 
d="M121 0v1470h1237q275 0 421 -137t146 -395q0 -171 -81.5 -299.5t-233.5 -187.5l313 -451h-551l-252 408h-518v-408h-481zM571 1608v239l793 164v-239zM602 793h604q44 0 72 2t58.5 10t47.5 23.5t28 43t11 66.5q0 41 -11 69t-28 43t-48 23t-58 10t-72 2h-604v-292z" />
    <glyph glyph-name="Rcaron.ss02" horiz-adv-x="2029" 
d="M121 0v1470h1237q275 0 421 -137t146 -395q0 -171 -81.5 -299.5t-233.5 -187.5l313 -451h-551l-252 408h-518v-408h-481zM549 1743v246l418 -164l419 164v-246l-417 -164zM602 793h604q44 0 72 2t58.5 10t47.5 23.5t28 43t11 66.5q0 41 -11 69t-28 43t-48 23t-58 10
t-72 2h-604v-292z" />
    <glyph glyph-name="uni0156.ss02" horiz-adv-x="2029" 
d="M121 0v1470h1237q275 0 421 -137t146 -395q0 -171 -81.5 -299.5t-233.5 -187.5l313 -451h-551l-252 408h-518v-408h-481zM602 793h604q44 0 72 2t58.5 10t47.5 23.5t28 43t11 66.5q0 41 -11 69t-28 43t-48 23t-58 10t-72 2h-604v-292zM770 -352v243h412v-243l-213 -223
h-197l139 223h-141z" />
    <glyph glyph-name="i.loclTRK" horiz-adv-x="712" 
d="M121 0v1231h473v-1231h-473zM127 1505v283h465v-283h-465z" />
    <glyph glyph-name="a.ss01" horiz-adv-x="1998" 
d="M1407 0v242q-90 -135 -244.5 -209t-353.5 -74q-332 0 -530.5 178t-198.5 477q0 298 199 478t530 180q199 0 353.5 -74.5t244.5 -210.5v244h473v-1231h-473zM575 614q0 -121 105 -191.5t291 -70.5q203 0 319.5 70.5t116.5 191.5t-117 193t-319 72q-186 0 -291 -72
t-105 -193z" />
    <glyph glyph-name="aacute.ss01" horiz-adv-x="1998" 
d="M1407 0v242q-90 -135 -244.5 -209t-353.5 -74q-332 0 -530.5 178t-198.5 477q0 298 199 478t530 180q199 0 353.5 -74.5t244.5 -210.5v244h473v-1231h-473zM575 614q0 -121 105 -191.5t291 -70.5q203 0 319.5 70.5t116.5 191.5t-117 193t-319 72q-186 0 -291 -72
t-105 -193zM604 1368v240l793 164v-240z" />
    <glyph glyph-name="abreve.ss01" horiz-adv-x="1998" 
d="M1407 0v242q-90 -135 -244.5 -209t-353.5 -74q-332 0 -530.5 178t-198.5 477q0 298 199 478t530 180q199 0 353.5 -74.5t244.5 -210.5v244h473v-1231h-473zM539 1759h258q0 -83 46 -125.5t156 -42.5t156.5 42.5t46.5 125.5h258q0 -86 -24 -154.5t-65 -114t-100 -76
t-126 -43.5t-146 -13q-99 0 -179.5 21.5t-145 67.5t-100 125.5t-35.5 186.5zM575 614q0 -121 105 -191.5t291 -70.5q203 0 319.5 70.5t116.5 191.5t-117 193t-319 72q-186 0 -291 -72t-105 -193z" />
    <glyph glyph-name="acircumflex.ss01" horiz-adv-x="1998" 
d="M1407 0v242q-90 -135 -244.5 -209t-353.5 -74q-332 0 -530.5 178t-198.5 477q0 298 199 478t530 180q199 0 353.5 -74.5t244.5 -210.5v244h473v-1231h-473zM575 614q0 -121 105 -191.5t291 -70.5q203 0 319.5 70.5t116.5 191.5t-117 193t-319 72q-186 0 -291 -72
t-105 -193zM582 1362v244l419 163l418 -163v-244l-418 164z" />
    <glyph glyph-name="adieresis.ss01" horiz-adv-x="1998" 
d="M1407 0v242q-90 -135 -244.5 -209t-353.5 -74q-332 0 -530.5 178t-198.5 477q0 298 199 478t530 180q199 0 353.5 -74.5t244.5 -210.5v244h473v-1231h-473zM557 1399v225h358v-225h-358zM575 614q0 -121 105 -191.5t291 -70.5q203 0 319.5 70.5t116.5 191.5t-117 193
t-319 72q-186 0 -291 -72t-105 -193zM1083 1399v225h357v-225h-357z" />
    <glyph glyph-name="agrave.ss01" horiz-adv-x="1998" 
d="M1407 0v242q-90 -135 -244.5 -209t-353.5 -74q-332 0 -530.5 178t-198.5 477q0 298 199 478t530 180q199 0 353.5 -74.5t244.5 -210.5v244h473v-1231h-473zM575 614q0 -121 105 -191.5t291 -70.5q203 0 319.5 70.5t116.5 191.5t-117 193t-319 72q-186 0 -291 -72
t-105 -193zM604 1532v240l793 -164v-240z" />
    <glyph glyph-name="amacron.ss01" horiz-adv-x="1998" 
d="M1407 0v242q-90 -135 -244.5 -209t-353.5 -74q-332 0 -530.5 178t-198.5 477q0 298 199 478t530 180q199 0 353.5 -74.5t244.5 -210.5v244h473v-1231h-473zM524 1430v194h951v-194h-951zM575 614q0 -121 105 -191.5t291 -70.5q203 0 319.5 70.5t116.5 191.5t-117 193
t-319 72q-186 0 -291 -72t-105 -193z" />
    <glyph glyph-name="aogonek.ss01" horiz-adv-x="1998" 
d="M807 -41q-332 0 -530.5 179t-198.5 478q0 298 199 477t530 179q203 0 358 -76.5t242 -216.5v252h473v-1231h-254q-57 -50 -78.5 -82t-21.5 -70q0 -64 68 -89t245 -25v-228q-232 0 -360 23t-183 75t-55 146q0 76 40 134t128 116h-2v252q-87 -140 -242 -216.5t-358 -76.5z
M571 616q0 -123 105.5 -195.5t292.5 -72.5q204 0 321 72.5t117 195.5q0 122 -117 194.5t-321 72.5q-187 0 -292.5 -72t-105.5 -195z" />
    <glyph glyph-name="aring.ss01" horiz-adv-x="1998" 
d="M1407 0v242q-90 -135 -244.5 -209t-353.5 -74q-332 0 -530.5 178t-198.5 477q0 298 199 478t530 180q199 0 353.5 -74.5t244.5 -210.5v244h473v-1231h-473zM551 1618q0 131 107 198.5t341 67.5t340.5 -67.5t106.5 -198.5t-106.5 -198.5t-340.5 -67.5t-341 67.5
t-107 198.5zM575 614q0 -121 105 -191.5t291 -70.5q203 0 319.5 70.5t116.5 191.5t-117 193t-319 72q-186 0 -291 -72t-105 -193zM791 1618q0 -59 54.5 -83t153.5 -24q100 0 154.5 24t54.5 83q0 106 -209 106q-208 0 -208 -106z" />
    <glyph glyph-name="atilde.ss01" horiz-adv-x="1998" 
d="M1407 0v242q-90 -135 -244.5 -209t-353.5 -74q-332 0 -530.5 178t-198.5 477q0 298 199 478t530 180q199 0 353.5 -74.5t244.5 -210.5v244h473v-1231h-473zM422 1350q0 215 92 329.5t264 114.5q72 0 127.5 -21t89.5 -50.5t63.5 -59.5t65 -51t78.5 -21q139 0 139 205h238
q0 -215 -92 -330.5t-262 -115.5q-73 0 -129 21t-90 51t-63.5 60t-66 51t-79.5 21q-66 0 -102 -52.5t-36 -151.5h-237zM575 614q0 -121 105 -191.5t291 -70.5q203 0 319.5 70.5t116.5 191.5t-117 193t-319 72q-186 0 -291 -72t-105 -193z" />
    <glyph glyph-name="g.ss01" horiz-adv-x="1988" 
d="M899 -532q-438 0 -629.5 69.5t-191.5 231.5q0 212 297 247q-144 22 -209 76.5t-62 153.5q9 204 277 252q-270 101 -270 344q0 217 207 323.5t630 106.5q262 0 449 -41h528v-217q-69 0 -180 26q59 -83 59 -196q0 -212 -212.5 -317t-643.5 -105h-368q-75 0 -104.5 -14.5
t-29.5 -49.5q0 -15 11 -23.5t49 -15.5t110.5 -9.5t196.5 -2.5h393q151 0 266 -21.5t201.5 -67.5t132 -125t45.5 -189q0 -240 -226 -338t-726 -98zM530 -119q0 -64 100.5 -86t356.5 -22q267 0 372 24t105 90t-102 89.5t-358 23.5q-259 0 -366.5 -25.5t-107.5 -93.5zM649 846
q0 -148 303 -148q152 0 233 38t81 110q0 73 -80.5 111t-233.5 38q-303 0 -303 -149z" />
    <glyph glyph-name="gbreve.ss01" horiz-adv-x="1988" 
d="M899 -532q-438 0 -629.5 69.5t-191.5 231.5q0 212 297 247q-144 22 -209 76.5t-62 153.5q9 204 277 252q-270 101 -270 344q0 217 207 323.5t630 106.5q262 0 449 -41h528v-217q-69 0 -180 26q59 -83 59 -196q0 -212 -212.5 -317t-643.5 -105h-368q-75 0 -104.5 -14.5
t-29.5 -49.5q0 -15 11 -23.5t49 -15.5t110.5 -9.5t196.5 -2.5h393q151 0 266 -21.5t201.5 -67.5t132 -125t45.5 -189q0 -240 -226 -338t-726 -98zM465 1753h258q0 -83 46.5 -125.5t156.5 -42.5t156 42.5t46 125.5h258q0 -107 -35.5 -186.5t-100 -125.5t-145 -67.5
t-179.5 -21.5q-79 0 -146 13t-126 43.5t-100 76t-65 114t-24 154.5zM530 -119q0 -64 100.5 -86t356.5 -22q267 0 372 24t105 90t-102 89.5t-358 23.5q-259 0 -366.5 -25.5t-107.5 -93.5zM649 846q0 -148 303 -148q152 0 233 38t81 110q0 73 -80.5 111t-233.5 38
q-303 0 -303 -149z" />
    <glyph glyph-name="uni0123.ss01" horiz-adv-x="1988" 
d="M899 -532q-438 0 -629.5 69.5t-191.5 231.5q0 212 297 247q-144 22 -209 76.5t-62 153.5q9 204 277 252q-270 101 -270 344q0 217 207 323.5t630 106.5q262 0 449 -41h528v-217q-69 0 -180 26q59 -83 59 -196q0 -212 -212.5 -317t-643.5 -105h-368q-75 0 -104.5 -14.5
t-29.5 -49.5q0 -15 11 -23.5t49 -15.5t110.5 -9.5t196.5 -2.5h393q151 0 266 -21.5t201.5 -67.5t132 -125t45.5 -189q0 -240 -226 -338t-726 -98zM530 -119q0 -64 100.5 -86t356.5 -22q267 0 372 24t105 90t-102 89.5t-358 23.5q-259 0 -366.5 -25.5t-107.5 -93.5zM649 846
q0 -148 303 -148q152 0 233 38t81 110q0 73 -80.5 111t-233.5 38q-303 0 -303 -149zM721 1425v242l213 225h196l-137 -225h140v-242h-412z" />
    <glyph glyph-name="gdotaccent.ss01" horiz-adv-x="1988" 
d="M899 -532q-438 0 -629.5 69.5t-191.5 231.5q0 212 297 247q-144 22 -209 76.5t-62 153.5q9 204 277 252q-270 101 -270 344q0 217 207 323.5t630 106.5q262 0 449 -41h528v-217q-69 0 -180 26q59 -83 59 -196q0 -212 -212.5 -317t-643.5 -105h-368q-75 0 -104.5 -14.5
t-29.5 -49.5q0 -15 11 -23.5t49 -15.5t110.5 -9.5t196.5 -2.5h393q151 0 266 -21.5t201.5 -67.5t132 -125t45.5 -189q0 -240 -226 -338t-726 -98zM530 -119q0 -64 100.5 -86t356.5 -22q267 0 372 24t105 90t-102 89.5t-358 23.5q-259 0 -366.5 -25.5t-107.5 -93.5zM649 846
q0 -148 303 -148q152 0 233 38t81 110q0 73 -80.5 111t-233.5 38q-303 0 -303 -149zM727 1419v199h401v-199h-401z" />
    <glyph glyph-name="uni030C.alt" 
d="M131 961l139 323h-168v354h447v-299l-199 -378h-219z" />
    </font>
</defs>
</svg>
