<?xml version="1.0" standalone="no"?>
<!DOCTYPE svg PUBLIC "-//W3C//DTD SVG 1.1//EN" "http://www.w3.org/Graphics/SVG/1.1/DTD/svg11.dtd" >
<svg xmlns="http://www.w3.org/2000/svg" xmlns:xlink="http://www.w3.org/1999/xlink" version="1.1">
<metadata>
Created by FontForge 20170731 at Fri Nov 25 10:47:34 2022
 By Aleksey,,,
Pangram Pangram
</metadata>
<defs>
<font id="PPMonumentExtended-Regular" horiz-adv-x="0" >
  <font-face 
    font-family="PP Monument Extended"
    font-weight="400"
    font-stretch="normal"
    units-per-em="2048"
    panose-1="0 0 0 0 0 0 0 0 0 0"
    ascent="1638"
    descent="-410"
    x-height="1210"
    cap-height="1452"
    bbox="-139 -557 3852 2130"
    underline-thickness="124"
    underline-position="-308"
    unicode-range="U+0020-FB02"
  />
<missing-glyph horiz-adv-x="1064" 
d="M872 1638v-2130h-673v2130h673zM356 -344h353v70h-217l149 100h68v70h-353v-70h148l-148 -100v-70zM356 -55h353v241h-353v-241zM356 313h353v242h-213v-121h73v49h70v-100h-213v172h-70v-242zM356 602h353v213h-70v-141h-283v-72zM356 723h213v149h140v70h-353v-70h140
v-79h-140v-70zM356 999h353v72h-140v150h-213v-222zM356 1276h353v72h-140v77h140v70h-351v-70h138v-77h-140v-72zM426 16v99h213v-99h-213zM426 1071v78h70v-78h-70z" />
    <glyph glyph-name="f_i" unicode="fi" horiz-adv-x="2013" 
d="M453 1278q0 125 41 202t140 117.5t265 40.5h952v-172h-884q-146 0 -195 -43.5t-49 -173.5v-39h1128v-1210h-270v1006h-858v-1006h-270v1006h-332v204h332v68z" />
    <glyph glyph-name="f_l" unicode="fl" horiz-adv-x="2013" 
d="M453 1278q0 125 41 202t140 117.5t265 40.5h952v-1638h-270v1466h-614q-146 0 -195 -43.5t-49 -173.5v-39h534v-204h-534v-1006h-270v1006h-332v204h332v68z" />
    <glyph glyph-name="f_f" unicode="ff" horiz-adv-x="2566" 
d="M453 1278q0 125 41 202t140 117.5t265 40.5h426v-172h-358q-146 0 -195 -43.5t-49 -173.5v-39h858v68q0 125 41.5 202t140.5 117.5t265 40.5h426v-172h-359q-146 0 -195 -43.5t-49 -173.5v-39h603v-204h-603v-1006h-270v1006h-858v-1006h-270v1006h-332v204h332v68z" />
    <glyph glyph-name="f_f_i" unicode="ffi" horiz-adv-x="3141" 
d="M453 1278q0 125 41 202t140 117.5t265 40.5h426v-172h-358q-146 0 -195 -43.5t-49 -173.5v-39h858v68q0 125 41.5 202t140.5 117.5t265 40.5h952v-172h-885q-146 0 -195 -43.5t-49 -173.5v-39h1129v-1210h-270v1006h-859v-1006h-270v1006h-858v-1006h-270v1006h-332v204
h332v68z" />
    <glyph glyph-name=".notdef" horiz-adv-x="1064" 
d="M872 1638v-2130h-673v2130h673zM356 -344h353v70h-217l149 100h68v70h-353v-70h148l-148 -100v-70zM356 -55h353v241h-353v-241zM356 313h353v242h-213v-121h73v49h70v-100h-213v172h-70v-242zM356 602h353v213h-70v-141h-283v-72zM356 723h213v149h140v70h-353v-70h140
v-79h-140v-70zM356 999h353v72h-140v150h-213v-222zM356 1276h353v72h-140v77h140v70h-351v-70h138v-77h-140v-72zM426 16v99h213v-99h-213zM426 1071v78h70v-78h-70z" />
    <glyph glyph-name=".null" 
 />
    <glyph glyph-name="nonmarkingreturn" horiz-adv-x="682" 
 />
    <glyph glyph-name="space" unicode=" " horiz-adv-x="808" 
 />
    <glyph glyph-name="space" unicode="&#xa0;" horiz-adv-x="808" 
 />
    <glyph glyph-name="exclam" unicode="!" horiz-adv-x="643" 
d="M182 453l-12 1003h301l-10 -1003h-279zM164 0v246h315v-246h-315z" />
    <glyph glyph-name="quotedbl" unicode="&#x22;" horiz-adv-x="1091" 
d="M657 858l-26 721h299l-25 -721h-248zM162 1579h299l-25 -721h-248z" />
    <glyph glyph-name="numbersign" unicode="#" horiz-adv-x="2666" 
d="M1376 -307l135 446h-649l-135 -446h-260l135 446h-428v203h490l163 545h-491v203h553l137 456h258l-137 -456h651l137 456h258l-137 -456h436v-203h-497l-164 -545h502v-203h-564l-135 -446h-258zM922 342h651l164 545h-652z" />
    <glyph glyph-name="dollar" unicode="$" horiz-adv-x="1996" 
d="M872 -205v168q-371 19 -552.5 140.5t-188.5 381.5h285q0 -150 108.5 -225t347.5 -90v467q-260 21 -411 70.5t-219 138t-68 231.5q0 199 176.5 299t521.5 111v151h248v-153q339 -23 508.5 -146.5t175.5 -351.5h-282q0 137 -99.5 205t-302.5 86v-447q89 -7 153 -13
t134.5 -16t120 -22t101 -29t85.5 -39t65 -51.5t48.5 -66t28 -82.5t10.5 -102q0 -120 -50 -206t-149 -138t-232.5 -77t-314.5 -30v-164h-248zM457 1077q0 -113 87 -159t328 -68v434q-224 -6 -319.5 -54t-95.5 -153zM1120 164q247 8 355 62t108 175q0 49 -14.5 82t-43.5 56.5
t-87.5 38.5t-130.5 24.5t-187 18.5v-457z" />
    <glyph glyph-name="percent" unicode="%" horiz-adv-x="2836" 
d="M760 0l1081 1456h236l-1082 -1456h-235zM162 1036q0 85 31.5 164t93 145t164.5 106t233 40q131 0 234.5 -40t164.5 -106t92 -145t31 -164q0 -68 -19 -132.5t-60 -123.5t-101 -103t-148 -70.5t-194 -26.5q-130 0 -233 39.5t-164.5 106t-93 145.5t-31.5 165zM375 1038
q0 -130 85 -208t224 -78q140 0 225.5 78t85.5 208q0 129 -85.5 206t-225.5 77q-139 0 -224 -77.5t-85 -205.5zM1630 414q0 68 19 132.5t60 123.5t101 103t148 70.5t194 26.5q105 0 192.5 -26.5t147.5 -70.5t101.5 -103t60.5 -123.5t19 -132.5q0 -85 -31.5 -164t-92.5 -145
t-164 -106t-233 -40q-131 0 -234.5 40t-164.5 106t-92 145t-31 164zM1841 414q0 -129 85.5 -207t225.5 -78q139 0 224.5 78.5t85.5 206.5q0 130 -85.5 207t-224.5 77q-140 0 -225.5 -77t-85.5 -207z" />
    <glyph glyph-name="ampersand" unicode="&#x26;" horiz-adv-x="2244" 
d="M858 -41q-341 0 -522.5 105.5t-181.5 302.5q0 282 393 421q-176 145 -176 320q0 172 151 269.5t418 97.5q255 0 404 -89.5t149 -244.5q0 -141 -129 -250.5t-365 -169.5l535 -352q125 143 149 391h230q-23 -304 -207 -506l385 -254h-354l-191 125q-262 -166 -688 -166z
M440 406q0 -125 121.5 -189.5t356.5 -64.5q272 0 450 90l-639 420q-148 -40 -218.5 -102.5t-70.5 -153.5zM633 1092q0 -126 164 -236q264 59 365.5 115.5t101.5 140.5t-83.5 132t-228.5 48q-153 0 -236 -52t-83 -148z" />
    <glyph glyph-name="quotesingle" unicode="'" horiz-adv-x="624" 
d="M188 858l-26 721h299l-25 -721h-248z" />
    <glyph glyph-name="parenleft" unicode="(" horiz-adv-x="1232" 
d="M1069 -410q-219 0 -385 59.5t-283.5 182.5t-178 320t-60.5 464q0 266 60.5 462t178 319t283.5 182t385 59v-215q-158 0 -272 -41t-197 -134t-123.5 -250t-40.5 -382q0 -226 41 -384t124 -251.5t197 -134.5t271 -41v-215z" />
    <glyph glyph-name="parenright" unicode=")" horiz-adv-x="1232" 
d="M164 1638q219 0 385 -59.5t283.5 -182.5t178 -320t60.5 -464q0 -266 -60.5 -462t-178 -319t-283.5 -182t-385 -59v215q158 0 272 41t197 134t123.5 250t40.5 382q0 226 -41 384t-124 251.5t-197 134.5t-271 41v215z" />
    <glyph glyph-name="asterisk" unicode="*" horiz-adv-x="1243" 
d="M535 745l28 359l-323 -203l-78 143l354 160l-354 158l78 143l323 -202l-28 358h174l-27 -358l324 202l75 -143l-354 -160l354 -158l-77 -143l-322 203l27 -359h-174z" />
    <glyph glyph-name="plus" unicode="+" horiz-adv-x="1878" 
d="M815 0v594h-653v205h653v594h248v-594h651v-205h-651v-594h-248z" />
    <glyph glyph-name="comma" unicode="," horiz-adv-x="624" 
d="M190 -369l97 369h-135v252h321v-252l-151 -369h-132z" />
    <glyph glyph-name="hyphen" unicode="-" horiz-adv-x="1959" 
d="M203 594v205h1552v-205h-1552z" />
    <glyph glyph-name="period" unicode="." horiz-adv-x="624" 
d="M152 0v252h321v-252h-321z" />
    <glyph glyph-name="slash" unicode="/" horiz-adv-x="1163" 
d="M174 -307l557 1853h258l-557 -1853h-258z" />
    <glyph glyph-name="zero" unicode="0" horiz-adv-x="1865" 
d="M932 -41q-186 0 -335.5 56t-249.5 157.5t-153 243t-53 311.5t53 311t153 241.5t249.5 156t335.5 55.5t336 -55.5t249.5 -156.5t153 -241.5t53.5 -310.5t-53.5 -311t-153 -242.5t-249.5 -158t-336 -56.5zM432 727q0 -251 133 -391.5t367 -140.5q235 0 368.5 141t133.5 391
q0 248 -133.5 388t-368.5 140q-234 0 -367 -139.5t-133 -388.5z" />
    <glyph glyph-name="one" unicode="1" horiz-adv-x="1628" 
d="M162 0v215h516v1008l-455 -172l-61 202l540 199h248v-1237h514v-215h-1302z" />
    <glyph glyph-name="two" unicode="2" horiz-adv-x="1812" 
d="M154 115q0 104 42 187.5t112.5 140.5t162.5 103t193.5 79.5t203 64.5t193.5 64t162.5 72t112.5 95t42 126q0 247 -401 247q-237 0 -368.5 -84.5t-131.5 -257.5h-282q15 265 223.5 401t564.5 136q324 0 501 -109t177 -319q0 -94 -38 -170.5t-102.5 -128.5t-149 -94.5
t-179 -74t-190 -60t-184.5 -59t-160.5 -65t-120.5 -84t-62 -110.5h1176v-215h-1497v115z" />
    <glyph glyph-name="three" unicode="3" horiz-adv-x="1820" 
d="M936 -41q-381 0 -582 133t-213 397h275q0 -113 67 -187t182 -106t279 -32q455 0 455 266q0 127 -100 180.5t-316 53.5h-182v165h174q207 2 305 55.5t98 174.5q0 120 -108.5 177.5t-335.5 57.5q-263 0 -390.5 -80t-127.5 -251h-264q27 526 792 526q360 0 537.5 -104
t177.5 -302q0 -133 -69.5 -214t-215.5 -119q155 -37 230 -121.5t75 -222.5q0 -217 -184.5 -332t-558.5 -115z" />
    <glyph glyph-name="four" unicode="4" horiz-adv-x="1998" 
d="M1270 0v295h-1108v205l1108 952h272v-952h295v-205h-295v-295h-272zM461 500h809v706z" />
    <glyph glyph-name="five" unicode="5" horiz-adv-x="1814" 
d="M918 -41q-344 0 -547.5 132t-231.5 370h301q29 -138 149.5 -211.5t317.5 -73.5q219 0 343 92t124 252q0 147 -106.5 227t-298.5 80q-125 0 -241.5 -38t-246.5 -121l-268 61l139 725h1239v-217h-1003l-74 -352q97 54 238.5 85t294.5 31q299 0 463.5 -125.5t164.5 -357.5
q0 -262 -200.5 -410.5t-556.5 -148.5z" />
    <glyph glyph-name="six" unicode="6" horiz-adv-x="1867" 
d="M965 -41q-392 0 -598.5 187t-206.5 542q0 384 229.5 593.5t650.5 209.5q258 0 572 -64v-217q-329 64 -541 64q-271 0 -416 -105.5t-180 -330.5q193 184 535 184q345 0 532 -132.5t187 -377.5q0 -258 -204 -405.5t-560 -147.5zM477 500q0 -146 129.5 -235t343.5 -89
q221 0 348 91t127 249q0 149 -116.5 230t-333.5 81q-226 0 -362 -89t-136 -238z" />
    <glyph glyph-name="seven" unicode="7" horiz-adv-x="1681" 
d="M516 0q0 859 731 1239h-1124v213h1436v-213q-400 -215 -585.5 -516t-185.5 -723h-272z" />
    <glyph glyph-name="eight" unicode="8" horiz-adv-x="1927" 
d="M963 -41q-181 0 -319.5 21.5t-230.5 59.5t-150.5 95t-83.5 123.5t-25 149.5q0 150 105 244.5t325 133.5q-308 77 -308 326q0 178 167.5 277.5t519.5 99.5t520 -100t168 -277q0 -246 -308 -326q221 -39 327 -133.5t106 -244.5q0 -82 -25.5 -148.5t-84.5 -123.5
t-151.5 -95.5t-231.5 -60t-320 -21.5zM444 426q0 -132 125.5 -206.5t393.5 -74.5q269 0 394.5 74.5t125.5 206.5q0 260 -520 260q-519 0 -519 -260zM539 1096q0 -207 424 -207q225 0 325.5 53.5t100.5 153.5q0 217 -426 217q-226 0 -325 -56.5t-99 -160.5z" />
    <glyph glyph-name="nine" unicode="9" horiz-adv-x="1867" 
d="M903 1489q392 0 598.5 -187t206.5 -542q0 -384 -230 -593.5t-651 -209.5q-262 0 -571 63v218q329 -64 541 -64q271 0 416 105.5t180 330.5q-193 -184 -535 -184q-345 0 -532 132.5t-187 377.5q0 258 204 405.5t560 147.5zM442 932q0 -149 117 -230t334 -81q226 0 362 89
t136 238q0 146 -129.5 235t-343.5 89q-221 0 -348.5 -91t-127.5 -249z" />
    <glyph glyph-name="colon" unicode=":" horiz-adv-x="624" 
d="M152 0v252h321v-252h-321zM152 614v252h321v-252h-321z" />
    <glyph glyph-name="semicolon" unicode=";" horiz-adv-x="624" 
d="M190 -369l97 369h-135v252h321v-252l-151 -369h-132zM152 614v252h321v-252h-321z" />
    <glyph glyph-name="less" unicode="&#x3c;" horiz-adv-x="1855" 
d="M1694 1186v-230l-1325 -258l1325 -260v-229l-1532 319v340z" />
    <glyph glyph-name="equal" unicode="=" horiz-adv-x="1878" 
d="M162 922v204h1552v-204h-1552zM162 266v205h1552v-205h-1552z" />
    <glyph glyph-name="greater" unicode="&#x3e;" horiz-adv-x="1855" 
d="M162 209v229l1325 258l-1325 260v230l1532 -320v-340z" />
    <glyph glyph-name="question" unicode="?" horiz-adv-x="1742" 
d="M662 438q0 79 22 142t58.5 104.5t84.5 74t101 54.5t106 41.5t101 40t84.5 45t58.5 61t22 84.5q0 60 -29 103t-84 66.5t-123.5 33.5t-158.5 10q-243 0 -364 -82.5t-121 -277.5h-264q6 284 196 417.5t553 133.5q678 0 678 -375q0 -68 -22.5 -121.5t-60.5 -88.5t-87.5 -62.5
t-104 -49t-108.5 -43t-103.5 -48.5t-87.5 -60.5t-60.5 -85t-22.5 -117.5h-264zM633 0v252h321v-252h-321z" />
    <glyph glyph-name="at" unicode="@" horiz-adv-x="2895" 
d="M1462 -514q-307 0 -555 75t-416.5 214t-259 338.5t-90.5 445.5q0 250 93 454.5t265.5 347t427.5 220.5t570 78q291 0 526.5 -69t396 -196t247 -309t86.5 -405q0 -299 -144 -479.5t-383 -180.5q-148 0 -247.5 69.5t-131.5 195.5q-68 -122 -199 -185t-317 -63
q-267 0 -427.5 139t-160.5 387q0 249 160.5 389t427.5 140q174 0 302.5 -57.5t199.5 -166.5v187h195v-637q0 -106 57 -164.5t158 -58.5q135 0 217 127.5t82 336.5q0 377 -277.5 596.5t-767.5 219.5q-267 0 -482 -64.5t-359.5 -183t-222 -287t-77.5 -375.5q0 -417 296 -656
t823 -239q289 0 587 76l52 -174q-292 -86 -652 -86zM946 563q0 -163 117.5 -253.5t312.5 -90.5q214 0 335.5 89.5t121.5 254.5t-122 255.5t-335 90.5q-194 0 -312 -91.5t-118 -254.5z" />
    <glyph glyph-name="A" unicode="A" horiz-adv-x="2238" 
d="M141 0l805 1452h348l801 -1452h-293l-178 332h-1010l-178 -332h-295zM725 537h788l-393 735z" />
    <glyph glyph-name="B" unicode="B" horiz-adv-x="1953" 
d="M162 0v1452h1091q247 0 361.5 -97.5t114.5 -264.5q0 -119 -64 -206t-182 -130q329 -78 329 -359q0 -185 -118.5 -290t-347.5 -105h-1184zM436 205h824q268 0 268 221q0 61 -22 104.5t-61 67.5t-84.5 34.5t-100.5 10.5h-824v-438zM436 819h742q58 0 106 11t88 35t62 67.5
t22 103.5q0 211 -278 211h-742v-428z" />
    <glyph glyph-name="C" unicode="C" horiz-adv-x="2131" 
d="M1087 -41q-276 0 -490.5 94.5t-335 269.5t-120.5 404q0 228 120.5 402t335 267t490.5 93q243 0 443 -77t320 -210.5t141 -300.5h-289q-13 66 -62 128.5t-125 114t-188 82.5t-240 31q-298 0 -479.5 -148t-181.5 -382q0 -236 181.5 -385t479.5 -149q103 0 196 20.5
t163.5 56t125.5 81.5t87 97.5t43 104.5h289q-15 -126 -89 -236t-191.5 -189t-279 -124t-344.5 -45z" />
    <glyph glyph-name="D" unicode="D" horiz-adv-x="2015" 
d="M162 0v1452h946q217 0 392.5 -93.5t274.5 -259.5t99 -372t-99 -372.5t-274.5 -260.5t-392.5 -94h-946zM436 233h565q268 0 429 135t161 359q0 223 -161 357.5t-429 134.5h-565v-986z" />
    <glyph glyph-name="E" unicode="E" horiz-adv-x="1742" 
d="M162 0v1452h1429v-211h-1155v-416h1114v-196h-1114v-416h1155v-213h-1429z" />
    <glyph glyph-name="F" unicode="F" horiz-adv-x="1742" 
d="M162 0v1452h1429v-233h-1155v-471h1032v-234h-1032v-514h-274z" />
    <glyph glyph-name="G" unicode="G" horiz-adv-x="2142" 
d="M1110 -41q-292 0 -512.5 94t-339.5 267.5t-119 402.5q0 231 118.5 405.5t336 268.5t506.5 94q202 0 369.5 -44.5t279 -122t177.5 -179.5t79 -219h-309q-8 41 -33 83t-73.5 85t-114.5 75.5t-162.5 53t-210.5 20.5q-163 0 -292.5 -43t-209 -116t-121 -165.5t-41.5 -195.5
q0 -107 42.5 -199.5t125.5 -163.5t216.5 -112t303.5 -41q195 0 349.5 33t291.5 106v160h-702v248h940v-559q-360 -236 -895 -236z" />
    <glyph glyph-name="H" unicode="H" horiz-adv-x="2035" 
d="M162 0v1452h274v-610h1163v610h275v-1452h-275v610h-1163v-610h-274z" />
    <glyph glyph-name="I" unicode="I" horiz-adv-x="598" 
d="M162 0v1452h274v-1452h-274z" />
    <glyph glyph-name="J" unicode="J" horiz-adv-x="1937" 
d="M969 -31q-214 0 -370 51t-251.5 149.5t-140.5 234.5t-45 315h274q0 -88 13.5 -159.5t50 -140t95 -114.5t153.5 -74t221 -28q105 0 189 19t141 55t97 82t62 106t31.5 121t9.5 133v500h-674v233h949v-733q0 -179 -44 -314t-138 -234.5t-250.5 -150.5t-372.5 -51z" />
    <glyph glyph-name="K" unicode="K" horiz-adv-x="1990" 
d="M162 0v1452h274v-784l1004 784h409l-755 -596l755 -856h-338l-620 696l-455 -358v-338h-274z" />
    <glyph glyph-name="L" unicode="L" horiz-adv-x="1658" 
d="M162 0v1452h274v-1219h1092v-233h-1366z" />
    <glyph glyph-name="M" unicode="M" horiz-adv-x="2496" 
d="M162 0v1452h413l674 -1155l672 1155h412v-1452h-273v1190l-684 -1190h-256l-684 1190v-1190h-274z" />
    <glyph glyph-name="N" unicode="N" horiz-adv-x="2099" 
d="M162 0v1452h403l1098 -1204v1204h272v-1452h-401l-1098 1204v-1204h-274z" />
    <glyph glyph-name="O" unicode="O" horiz-adv-x="2207" 
d="M1104 -41q-440 0 -701.5 209.5t-261.5 558.5q0 230 117.5 402.5t336 266t509.5 93.5q290 0 508 -94t335 -266.5t117 -401.5q0 -173 -68 -316t-192 -242.5t-303.5 -154.5t-396.5 -55zM426 727q0 -241 182.5 -387.5t495.5 -146.5q311 0 494.5 147.5t183.5 386.5
q0 238 -182.5 384t-495.5 146t-495.5 -146t-182.5 -384z" />
    <glyph glyph-name="P" unicode="P" horiz-adv-x="1931" 
d="M162 0v1452h1048q267 0 422.5 -139t155.5 -381q0 -241 -156 -380.5t-422 -139.5h-774v-412h-274zM436 643h717q167 0 259.5 71t92.5 218t-92 217t-260 70h-717v-576z" />
    <glyph glyph-name="Q" unicode="Q" horiz-adv-x="2109" 
d="M1817 -123l-195 182q-217 -100 -518 -100q-440 0 -701.5 209.5t-261.5 558.5q0 230 117.5 402.5t336 266t509.5 93.5q290 0 508 -94t335 -266.5t117 -401.5q0 -172 -67 -314.5t-193 -244.5l158 -148zM426 727q0 -241 182.5 -387.5t495.5 -146.5q179 0 321 51l-323 303
l143 147l367 -344q170 147 170 377q0 238 -182.5 384t-495.5 146t-495.5 -146t-182.5 -384z" />
    <glyph glyph-name="R" unicode="R" horiz-adv-x="2023" 
d="M162 0v1452h1112q565 0 565 -418q0 -145 -77 -241t-226 -134q134 -5 213.5 -78t79.5 -200v-381h-273v342q0 97 -48 141.5t-148 44.5h-924v-528h-274zM436 754h781q171 0 255 57t84 186q0 126 -83.5 179t-255.5 53h-781v-475z" />
    <glyph glyph-name="S" unicode="S" horiz-adv-x="1996" 
d="M1040 -41q-228 0 -391 27t-280 88t-175.5 162.5t-62.5 248.5h285q0 -172 146 -246.5t478 -74.5q290 0 416.5 54t126.5 183q0 33 -5.5 58t-20.5 46t-34 35.5t-54.5 27t-73 20.5t-98 15.5t-121.5 12.5t-150 11l-82 6q-289 18 -454.5 66t-240.5 138.5t-75 239.5
q0 212 200 312t591 100q415 0 624 -124.5t215 -377.5h-282q0 164 -142 230.5t-438 66.5q-264 0 -374.5 -47t-110.5 -160q0 -43 10.5 -74.5t37 -55.5t63.5 -40t99.5 -28.5t134.5 -20.5t179 -16l86 -6q127 -9 207.5 -17t174 -22.5t150 -34t113.5 -50.5t87 -72t48.5 -98.5
t18.5 -131.5q0 -102 -37 -179t-105 -128.5t-172 -83.5t-228.5 -46t-283.5 -14z" />
    <glyph glyph-name="T" unicode="T" horiz-adv-x="1957" 
d="M141 1219v233h1676v-233h-701v-1219h-272v1219h-703z" />
    <glyph glyph-name="U" unicode="U" horiz-adv-x="2019" 
d="M1010 -41q-231 0 -397.5 54t-264 155.5t-142 235t-44.5 305.5v743h274v-735q0 -524 574 -524q571 0 571 524v735h274v-743q0 -137 -27 -249t-89.5 -206.5t-159 -158.5t-240.5 -100t-329 -36z" />
    <glyph glyph-name="V" unicode="V" horiz-adv-x="2238" 
d="M926 0l-785 1452h295l684 -1272l682 1272h293l-784 -1452h-385z" />
    <glyph glyph-name="W" unicode="W" horiz-adv-x="3362" 
d="M711 0l-570 1452h281l485 -1249l594 1249h359l596 -1249l485 1249h278l-567 -1452h-383l-588 1245l-587 -1245h-383z" />
    <glyph glyph-name="X" unicode="X" horiz-adv-x="2185" 
d="M141 0l760 727l-760 725h375l578 -567l577 567h373l-758 -725l758 -727h-373l-577 567l-578 -567h-375z" />
    <glyph glyph-name="Y" unicode="Y" horiz-adv-x="2199" 
d="M963 0v489l-822 963h344l615 -735l616 735h340l-819 -963v-489h-274z" />
    <glyph glyph-name="Z" unicode="Z" horiz-adv-x="1875" 
d="M162 0v233l1171 986h-1171v233h1550v-233l-1171 -986h1171v-233h-1550z" />
    <glyph glyph-name="bracketleft" unicode="[" horiz-adv-x="1232" 
d="M162 -410v2048h907v-215h-633v-1618h633v-215h-907z" />
    <glyph glyph-name="backslash" unicode="\" horiz-adv-x="1142" 
d="M721 -307l-559 1853h260l557 -1853h-258z" />
    <glyph glyph-name="bracketright" unicode="]" horiz-adv-x="1232" 
d="M1071 1638v-2048h-907v215h633v1618h-633v215h907z" />
    <glyph glyph-name="asciicircum" unicode="^" horiz-adv-x="1857" 
d="M162 717l594 921h348l590 -921h-262l-502 796l-506 -796h-262z" />
    <glyph glyph-name="underscore" unicode="_" horiz-adv-x="2369" 
d="M203 -373v213h1962v-213h-1962z" />
    <glyph glyph-name="grave" unicode="`" horiz-adv-x="1060" 
d="M958 1386l-753 164v150l753 -164v-150z" />
    <glyph glyph-name="a" unicode="a" horiz-adv-x="1941" 
d="M1497 729q0 161 -112 222t-355 61q-145 0 -307.5 -30.5t-407.5 -94.5l-41 252q425 112 795 112q375 0 544 -132.5t169 -428.5v-690h-285v147q-170 -91 -362.5 -140.5t-382.5 -49.5q-279 0 -427.5 105.5t-148.5 302.5q0 208 175.5 317t502.5 109q288 0 643 -93v31z
M473 383q0 -112 87.5 -169.5t258.5 -57.5q295 0 678 182v160q-210 52 -341 71t-294 19q-203 0 -296 -47t-93 -158z" />
    <glyph glyph-name="b" unicode="b" horiz-adv-x="1961" 
d="M162 0v1638h270v-684q95 141 263.5 219t385.5 78q338 0 540 -176t202 -469q0 -294 -202 -470.5t-540 -176.5q-217 0 -386 78.5t-263 220.5v-258h-270zM432 606q0 -187 151 -297t412 -110q245 0 388 110t143 297q0 185 -143 295.5t-388 110.5q-261 0 -412 -110t-151 -296z
" />
    <glyph glyph-name="c" unicode="c" horiz-adv-x="1894" 
d="M963 -41q-379 0 -605.5 176t-226.5 469q0 295 226.5 471t605.5 176q317 0 535.5 -130t264.5 -345h-276q-40 118 -183 189t-341 71q-257 0 -410.5 -118t-153.5 -314q0 -195 154 -312.5t410 -117.5q198 0 341 71t183 189h276q-46 -216 -264.5 -345.5t-535.5 -129.5z" />
    <glyph glyph-name="d" unicode="d" horiz-adv-x="1959" 
d="M1530 0v254q-95 -141 -263.5 -219t-385.5 -78q-338 0 -540 176t-202 469q0 294 202 470.5t540 176.5q217 0 386 -78.5t263 -220.5v688h268v-1638h-268zM436 602q0 -185 143 -295t388 -110q261 0 412 109.5t151 295.5q0 187 -151 297.5t-412 110.5q-245 0 -388 -110.5
t-143 -297.5z" />
    <glyph glyph-name="e" unicode="e" horiz-adv-x="1900" 
d="M971 -41q-394 0 -619 171t-225 474q0 302 224 474.5t605 172.5q388 0 603 -189.5t215 -555.5h-1354q31 -161 174 -245.5t385 -84.5q197 0 326.5 58t169.5 163h280q-56 -209 -256.5 -323.5t-527.5 -114.5zM424 717h1057q-71 319 -523 319q-225 0 -361.5 -79.5
t-172.5 -239.5z" />
    <glyph glyph-name="f" unicode="f" horiz-adv-x="1368" 
d="M453 1290q0 125 44 206.5t149.5 127t277.5 45.5q169 0 333 -20v-179q-185 17 -272 17q-157 0 -209.5 -46.5t-52.5 -176.5v-54h534v-204h-534v-1006h-270v1006h-332v204h332v80z" />
    <glyph glyph-name="g" unicode="g" horiz-adv-x="1957" 
d="M1018 -532q-195 0 -368.5 15.5t-448.5 55.5l35 205q277 -36 423.5 -48.5t311.5 -12.5q163 0 272 23t171.5 73t88 117.5t25.5 166.5v191q-94 -140 -262 -217.5t-385 -77.5q-338 0 -540 176t-202 469q0 294 202 470.5t540 176.5q216 0 384 -77.5t263 -217.5v254h268v-1132
q0 -150 -39 -259t-127.5 -189.5t-241 -121t-370.5 -40.5zM436 604q0 -185 143 -295t388 -110q246 0 395 98t166 266v82q-17 170 -166 268.5t-395 98.5q-245 0 -388 -110.5t-143 -297.5z" />
    <glyph glyph-name="h" unicode="h" horiz-adv-x="1931" 
d="M162 0v1638h270v-749q112 171 290 266.5t417 95.5q152 0 264.5 -33t196.5 -106.5t126.5 -198.5t42.5 -301v-612h-270v524q0 269 -112 384.5t-365 115.5q-265 0 -427.5 -138t-162.5 -374v-512h-270z" />
    <glyph glyph-name="i" unicode="i" horiz-adv-x="593" 
d="M162 0v1210h270v-1210h-270zM162 1395v243h270v-243h-270z" />
    <glyph glyph-name="j" unicode="j" horiz-adv-x="993" 
d="M412 -532q-149 0 -332 36v189q190 -33 274 -33q126 0 166.5 55t40.5 217v1278h270v-1263q0 -239 -96 -359t-323 -120zM561 1395v243h270v-243h-270z" />
    <glyph glyph-name="k" unicode="k" horiz-adv-x="1853" 
d="M162 0v1638h270v-1034l877 606h411l-684 -475l684 -735h-331l-547 600l-410 -285v-315h-270z" />
    <glyph glyph-name="l" unicode="l" horiz-adv-x="595" 
d="M162 0v1638h270v-1638h-270z" />
    <glyph glyph-name="m" unicode="m" horiz-adv-x="2844" 
d="M2398 604q0 224 -89 316t-286 92q-98 0 -179 -24t-144 -73t-98 -132.5t-35 -194.5v-588h-289v604q0 224 -89 316t-286 92q-99 0 -180 -24t-144 -73t-98 -132.5t-35 -194.5v-588h-286v1210h286v-194q199 235 572 235q389 0 502 -299q198 299 618 299q126 0 223.5 -32
t171.5 -102t113 -188.5t39 -283.5v-645h-287v604z" />
    <glyph glyph-name="n" unicode="n" horiz-adv-x="1939" 
d="M160 0v1210h286v-262q118 148 297 225.5t410 77.5q151 0 263 -32.5t195.5 -105.5t126 -197t42.5 -300v-616h-287v520q0 265 -110 378.5t-359 113.5q-260 0 -419 -134.5t-159 -367.5v-510h-286z" />
    <glyph glyph-name="o" unicode="o" horiz-adv-x="1923" 
d="M963 -41q-247 0 -435.5 79t-292.5 226t-104 340q0 194 104 341t292.5 226.5t435.5 79.5q246 0 434 -79.5t291.5 -226.5t103.5 -341q0 -193 -103.5 -340t-291.5 -226t-434 -79zM401 604q0 -194 155 -312t407 -118q250 0 404.5 118t154.5 312q0 196 -154.5 314t-404.5 118
q-252 0 -407 -118t-155 -314z" />
    <glyph glyph-name="p" unicode="p" horiz-adv-x="1961" 
d="M162 -500v1710h270v-256q95 141 263.5 219t385.5 78q338 0 540 -176t202 -469q0 -294 -202 -470.5t-540 -176.5q-217 0 -386 78.5t-263 220.5v-758h-270zM432 606q0 -187 151 -297t412 -110q245 0 388 110t143 297q0 185 -143 295.5t-388 110.5q-261 0 -412 -110
t-151 -296z" />
    <glyph glyph-name="q" unicode="q" horiz-adv-x="1959" 
d="M1798 1210v-1683h-268v729q-95 -141 -263.5 -219t-385.5 -78q-338 0 -540 176t-202 469q0 294 202 470.5t540 176.5q217 0 386 -78.5t263 -220.5v258h268zM436 604q0 -185 143 -295t388 -110q261 0 412 109.5t151 295.5q0 187 -151 297.5t-412 110.5q-245 0 -388 -110.5
t-143 -297.5z" />
    <glyph glyph-name="r" unicode="r" horiz-adv-x="1409" 
d="M162 0v1210h270v-237q120 152 252.5 215t294.5 63q171 0 319 -53v-235q-163 51 -329 51q-61 0 -118 -10t-126.5 -36t-144.5 -79t-148 -131v-758h-270z" />
    <glyph glyph-name="s" unicode="s" horiz-adv-x="1830" 
d="M946 -41q-798 0 -819 428h297q13 -102 148.5 -151.5t400.5 -49.5q471 0 471 156q0 73 -106 110.5t-367 59.5l-121 10q-362 31 -522 117t-160 250q0 362 727 362q361 0 550 -94.5t214 -290.5h-297q-22 86 -131 122t-348 36q-230 0 -342.5 -31.5t-112.5 -99.5
q0 -66 100.5 -98t364.5 -52l135 -10q362 -28 519 -114t157 -263q0 -397 -758 -397z" />
    <glyph glyph-name="t" unicode="t" horiz-adv-x="1417" 
d="M936 -41q-127 0 -217 20.5t-156.5 68t-98.5 129.5t-32 202v627h-311v204h311v275l268 82v-357h588v-204h-588v-541q0 -84 17 -139t55 -86t90 -43.5t129 -12.5q112 0 297 37v-221q-209 -41 -352 -41z" />
    <glyph glyph-name="u" unicode="u" horiz-adv-x="1939" 
d="M1780 1210v-1210h-287v262q-118 -148 -297 -225.5t-410 -77.5q-151 0 -263 32.5t-195 105.5t-125.5 197t-42.5 300v616h286v-520q0 -265 110 -378t359 -113q260 0 419 134t159 367v510h287z" />
    <glyph glyph-name="v" unicode="v" horiz-adv-x="1957" 
d="M788 0l-657 1210h303l547 -1042l545 1042h301l-656 -1210h-383z" />
    <glyph glyph-name="w" unicode="w" horiz-adv-x="3080" 
d="M686 0l-555 1210h295l448 -1009l492 1009h348l492 -1007l448 1007h295l-555 -1210h-371l-483 979l-483 -979h-371z" />
    <glyph glyph-name="x" unicode="x" horiz-adv-x="1912" 
d="M131 0l641 604l-641 606h354l471 -471l471 471h355l-641 -606l641 -604h-355l-471 469l-471 -469h-354z" />
    <glyph glyph-name="y" unicode="y" horiz-adv-x="1937" 
d="M557 -532q-152 0 -362 53v207q226 -45 327 -45q36 0 65 3.5t55 13.5t45 20.5t40.5 33t37 42t37.5 56t38 66.5t43 82h-119l-633 1210h293l545 -1044l544 1044h293l-641 -1230q-54 -105 -96.5 -176t-98.5 -140t-113.5 -108.5t-133.5 -63.5t-166 -24z" />
    <glyph glyph-name="z" unicode="z" horiz-adv-x="1681" 
d="M162 0v205l1016 801h-1016v204h1358v-204l-1016 -801h1016v-205h-1358z" />
    <glyph glyph-name="braceleft" unicode="{" horiz-adv-x="1302" 
d="M1028 -406q-163 0 -276 26.5t-188.5 86t-103 158.5t-9.5 241l18 156q16 133 -32 185.5t-156 52.5h-78v233h78q108 0 156 52.5t32 185.5l-18 155q-18 142 9.5 241t103 158.5t188.5 86t276 26.5h111v-215h-109q-165 0 -245.5 -78.5t-59.5 -254.5l20 -156q11 -80 -3 -139.5
t-48 -94.5t-80 -52t-104 -17v-29q58 0 104 -17t80 -52t48 -94.5t3 -139.5l-20 -154q-21 -178 59.5 -256.5t245.5 -78.5h109v-216h-111z" />
    <glyph glyph-name="bar" unicode="|" horiz-adv-x="573" 
d="M162 -307v1945h250v-1945h-250z" />
    <glyph glyph-name="braceright" unicode="}" horiz-adv-x="1302" 
d="M274 1634q163 0 276 -26.5t189 -86t103.5 -158.5t9.5 -241l-18 -155q-16 -133 32 -185.5t156 -52.5h78v-233h-78q-108 0 -156 -52.5t-32 -185.5l18 -156q18 -142 -9.5 -241t-103.5 -158.5t-189 -86t-276 -26.5h-110v215h108q345 0 306 334l-21 156q-11 80 3 139.5
t48 94.5t80.5 52t104.5 17v29q-58 0 -104.5 17t-80.5 52t-48 94.5t-3 139.5l21 153q39 336 -306 336h-108v215h110z" />
    <glyph glyph-name="asciitilde" unicode="~" horiz-adv-x="1867" 
d="M162 410q0 91 11 169.5t39 154.5t71 130t112.5 86.5t159.5 32.5q91 0 172 -35t141 -84.5t117 -99t124.5 -84.5t139.5 -35q129 0 180.5 84t51.5 254h225q0 -90 -10.5 -168.5t-38.5 -155t-71 -130t-112 -86.5t-159 -33q-92 0 -173 35t-141.5 84.5t-117.5 99t-125 84.5
t-140 35q-129 0 -180 -84t-51 -254h-225z" />
    <glyph glyph-name="exclamdown" unicode="&#xa1;" horiz-adv-x="643" 
d="M461 758l12 -1004h-301l10 1004h279zM164 965v245h315v-245h-315z" />
    <glyph glyph-name="cent" unicode="&#xa2;" horiz-adv-x="1904" 
d="M842 -205v266q-328 29 -519.5 201t-191.5 440q0 269 191.5 442t519.5 202v292h248v-295q269 -25 450.5 -150.5t222.5 -318.5h-276q-34 98 -139.5 165t-257.5 87v-845q153 20 258 86.5t139 164.5h276q-41 -193 -222.5 -318.5t-450.5 -150.5v-268h-248zM399 702
q0 -170 119 -282.5t324 -138.5v845q-205 -26 -324 -139.5t-119 -284.5z" />
    <glyph glyph-name="sterling" unicode="&#xa3;" horiz-adv-x="1994" 
d="M160 227q144 102 209 182t80 171h-289v196h278q-3 18 -11 55t-12 59.5t-8 58.5t-4 71q0 237 188 354t576 117q170 0 316 -13.5t358 -47.5v-228q-203 35 -335 48.5t-283 13.5q-282 0 -403.5 -69.5t-121.5 -227.5q0 -55 23 -191h903v-196h-895q-17 -130 -110 -214.5
t-275 -138.5h1497v-227h-1681v227z" />
    <glyph glyph-name="currency" unicode="&#xa4;" horiz-adv-x="2000" 
d="M291 -152l-107 105l256 254q-129 86 -199.5 214t-70.5 286q0 159 69.5 286t200.5 213l-256 254l107 105l289 -285q187 74 421 74q233 0 420 -74l289 285l107 -105l-256 -254q131 -86 200.5 -213t69.5 -286q0 -158 -70.5 -286t-199.5 -214l256 -254l-107 -105l-289 287
q-191 -74 -420 -74q-230 0 -421 74zM440 707q0 -194 155 -312.5t406 -118.5q250 0 405 118.5t155 312.5q0 195 -155 313.5t-405 118.5q-252 0 -406.5 -118t-154.5 -314z" />
    <glyph glyph-name="yen" unicode="&#xa5;" horiz-adv-x="2199" 
d="M963 0v225h-676v174h676v90l-7 7h-669v176h520l-666 780h344l615 -735l616 735h340l-663 -780h516v-176h-666l-6 -7v-90h672v-174h-672v-225h-274z" />
    <glyph glyph-name="brokenbar" unicode="&#xa6;" horiz-adv-x="573" 
d="M162 881v757h250v-757h-250zM162 -307v758h250v-758h-250z" />
    <glyph glyph-name="section" unicode="&#xa7;" horiz-adv-x="1794" 
d="M934 -233q-352 0 -542 91t-214 300h264q15 -120 130.5 -169.5t365.5 -49.5q236 0 336 46t100 144q0 58 -42.5 94.5t-141.5 62t-281 46.5l-75 8q-123 15 -213.5 29.5t-172 35.5t-135 46.5t-94 60t-58.5 78.5t-18 100q0 128 92 200t273 99q-182 43 -267 119.5t-85 202.5
q0 83 31.5 145.5t89.5 105t147 69.5t197 38.5t247 11.5q349 0 536 -90t212 -299h-264q-17 120 -130 168.5t-360 48.5q-239 0 -341.5 -46t-102.5 -144q0 -78 104.5 -120t386.5 -77l70 -8q120 -14 206.5 -28.5t166.5 -34.5t132 -45.5t91.5 -60t57.5 -79.5t18 -102
q0 -130 -92.5 -199.5t-278.5 -95.5q186 -43 272 -121t86 -211q0 -104 -47 -176.5t-140.5 -114.5t-219 -60.5t-297.5 -18.5zM395 748q0 -92 106 -140.5t367 -77.5l70 -8h8q237 -7 344 38.5t107 144.5q0 96 -109.5 146t-378.5 79l-53 6h-8q-238 7 -345.5 -39t-107.5 -149z" />
    <glyph glyph-name="dieresis" unicode="&#xa8;" horiz-adv-x="1019" 
d="M684 1411v164h234v-164h-234zM205 1411v164h233v-164h-233z" />
    <glyph glyph-name="copyright" unicode="&#xa9;" horiz-adv-x="2119" 
d="M1059 -43q-275 0 -482.5 93.5t-321.5 268t-114 408.5q0 233 114 406.5t321.5 265.5t482.5 92q277 0 484 -92.5t320 -265.5t113 -406q0 -234 -112.5 -408.5t-320 -268t-484.5 -93.5zM297 727q0 -283 206 -456t556 -173t557 173.5t207 455.5q0 280 -206.5 451.5
t-557.5 171.5q-350 0 -556 -171.5t-206 -451.5zM569 725q0 180 131 282.5t377 102.5q207 0 327.5 -81t147.5 -220h-161q-22 74 -102 118t-222 44q-153 0 -247.5 -60.5t-94.5 -185.5q0 -86 47 -143t121.5 -81t173.5 -24q142 0 222 44t102 118h161q-27 -139 -147.5 -220
t-327.5 -81q-247 0 -377.5 102.5t-130.5 284.5z" />
    <glyph glyph-name="guillemotleft" unicode="&#xab;" horiz-adv-x="1871" 
d="M1378 0l-532 604l532 606h330l-532 -604l532 -606h-330zM162 604l532 606h330l-532 -604l532 -606h-330z" />
    <glyph glyph-name="logicalnot" unicode="&#xac;" horiz-adv-x="1894" 
d="M1483 141v486h-1321v202h1571v-688h-250z" />
    <glyph glyph-name="registered" unicode="&#xae;" horiz-adv-x="2052" 
d="M1016 418q-420 0 -658.5 178.5t-238.5 490.5q0 310 238.5 487t658.5 177q401 0 627.5 -177t226.5 -487q0 -313 -226 -491t-628 -178zM274 1087q0 -247 196.5 -386.5t545.5 -139.5q330 0 515 139t185 387q0 245 -185 383t-515 138q-349 0 -545.5 -138t-196.5 -383z
M621 735v717h532q148 0 224.5 -60.5t76.5 -172.5q0 -89 -45.5 -145.5t-116.5 -78.5l146 -260h-189l-121 230h-352v-230h-155zM776 1092h359q159 0 159 118q0 57 -38 85t-121 28h-359v-231z" />
    <glyph glyph-name="macron" unicode="&#xaf;" horiz-adv-x="1181" 
d="M205 1446v129h874v-129h-874z" />
    <glyph glyph-name="degree" unicode="&#xb0;" horiz-adv-x="1390" 
d="M694 555q-101 0 -183.5 18.5t-139.5 52.5t-98.5 77.5t-65 98t-34.5 109t-11 115.5q0 73 15 137.5t53 127t96.5 107t153 72t214.5 27.5q121 0 215.5 -27.5t153.5 -72t97.5 -107t53.5 -127t15 -137.5t-15 -138t-53.5 -127.5t-97.5 -107t-153.5 -71.5t-215.5 -27zM375 1026
q0 -139 83.5 -220t235.5 -81q154 0 238 81t84 220q0 140 -83.5 219.5t-238.5 79.5q-152 0 -235.5 -79.5t-83.5 -219.5z" />
    <glyph glyph-name="plusminus" unicode="&#xb1;" horiz-adv-x="1878" 
d="M815 481v379h-653v205h653v379h248v-379h651v-205h-651v-379h-248zM162 102v205h1552v-205h-1552z" />
    <glyph glyph-name="acute" unicode="&#xb4;" horiz-adv-x="1060" 
d="M205 1386v150l753 164v-150z" />
    <glyph glyph-name="paragraph" unicode="&#xb6;" horiz-adv-x="1701" 
d="M805 758q-355 0 -499 98.5t-144 341.5t144 341.5t499 98.5h248v-1945h-248v1065zM1292 -307v1945h248v-1945h-248z" />
    <glyph glyph-name="periodcentered" unicode="&#xb7;" horiz-adv-x="645" 
d="M152 522v252h321v-252h-321z" />
    <glyph glyph-name="cedilla" unicode="&#xb8;" horiz-adv-x="894" 
d="M205 -365q407 -64 407 82q0 37 -27.5 57.5t-70.5 22.5q-62 3 -131 -37l-107 25l50 215h137l-29 -125q73 25 156 25q90 0 146.5 -45t56.5 -134q0 -62 -33 -107.5t-88.5 -71t-132 -37.5t-159.5 -10.5t-175 13.5v127z" />
    <glyph glyph-name="guillemotright" unicode="&#xbb;" horiz-adv-x="1867" 
d="M489 1210l533 -604l-533 -606h-329l532 606l-532 604h329zM844 0l532 606l-532 604h330l532 -604l-532 -606h-330z" />
    <glyph glyph-name="questiondown" unicode="&#xbf;" horiz-adv-x="1742" 
d="M1081 772q0 -79 -22 -142t-59 -104.5t-85 -74t-101 -54.5t-105.5 -41.5t-100.5 -40t-85 -45t-59 -61t-22 -84.5q0 -60 29 -103t84.5 -66.5t124 -33.5t158.5 -10q243 0 364 82.5t121 277.5h264q-6 -284 -196 -417.5t-553 -133.5q-678 0 -678 375q0 68 22.5 121.5
t60.5 88.5t87.5 62.5t104 49t108.5 43t103.5 48.5t87.5 60.5t60.5 85t22.5 117.5h264zM788 958v252h322v-252h-322z" />
    <glyph glyph-name="Agrave" unicode="&#xc0;" horiz-adv-x="2238" 
d="M141 0l805 1452h348l801 -1452h-293l-178 332h-1010l-178 -332h-295zM725 537h788l-393 735zM741 1796v150l754 -164v-150z" />
    <glyph glyph-name="Aacute" unicode="&#xc1;" horiz-adv-x="2238" 
d="M141 0l805 1452h348l801 -1452h-293l-178 332h-1010l-178 -332h-295zM725 537h788l-393 735zM741 1632v150l754 164v-150z" />
    <glyph glyph-name="Acircumflex" unicode="&#xc2;" horiz-adv-x="2238" 
d="M141 0l805 1452h348l801 -1452h-293l-178 332h-1010l-178 -332h-295zM725 537h788l-393 735zM737 1618v151l381 164l381 -164v-151l-381 160z" />
    <glyph glyph-name="Atilde" unicode="&#xc3;" horiz-adv-x="2238" 
d="M141 0l805 1452h348l801 -1452h-293l-178 332h-1010l-178 -332h-295zM604 1606q0 167 81 261.5t222 94.5q50 0 91 -12t68.5 -31t51 -42t44.5 -45.5t43 -41.5t52 -31t66 -12q75 0 118.5 54.5t43.5 150.5h151q0 -167 -80 -261t-223 -94q-50 0 -91 11.5t-68.5 30.5t-51.5 42
t-45.5 45.5t-43.5 41.5t-52 30.5t-66 11.5q-74 0 -116.5 -54t-42.5 -150h-152zM725 537h788l-393 735z" />
    <glyph glyph-name="Adieresis" unicode="&#xc4;" horiz-adv-x="2238" 
d="M141 0l805 1452h348l801 -1452h-293l-178 332h-1010l-178 -332h-295zM725 537h788l-393 735zM762 1657v164h233v-164h-233zM1241 1657v164h234v-164h-234z" />
    <glyph glyph-name="Aring" unicode="&#xc5;" horiz-adv-x="2238" 
d="M141 0l805 1452h348l801 -1452h-293l-178 332h-1010l-178 -332h-295zM713 1825q0 237 407 237q406 0 406 -237q0 -238 -406 -238q-407 0 -407 238zM725 537h788l-393 735zM862 1825q0 -67 63.5 -97t194.5 -30t192.5 30t61.5 97q0 66 -62 96.5t-192 30.5q-258 0 -258 -127
z" />
    <glyph glyph-name="AE" unicode="&#xc6;" horiz-adv-x="2967" 
d="M141 0l695 1452h1980v-211h-1155v-416h1114v-196h-1114v-416h1155v-213h-1430v340h-782l-164 -340h-299zM705 545h681v694h-346z" />
    <glyph glyph-name="Ccedilla" unicode="&#xc7;" horiz-adv-x="2131" 
d="M858 -385q408 -64 408 82q0 37 -28 57.5t-71 22.5q-62 3 -131 -37l-106 24l45 199q-246 19 -434.5 118t-294 266t-105.5 380q0 228 120.5 402t335 267t490.5 93q243 0 443 -77t320 -210.5t141 -300.5h-289q-13 66 -62 128.5t-125 114t-188 82.5t-240 31
q-298 0 -479.5 -148t-181.5 -382q0 -236 181.5 -385t479.5 -149q103 0 196 20.5t163.5 56t125.5 81.5t87 97.5t43 104.5h289q-20 -166 -136.5 -299.5t-311 -212t-431.5 -82.5l-25 -104q70 24 156 24q90 0 146.5 -44.5t56.5 -133.5q0 -62 -33 -107.5t-88.5 -71t-132 -37.5
t-159.5 -10.5t-175 13.5v127z" />
    <glyph glyph-name="Egrave" unicode="&#xc8;" horiz-adv-x="1742" 
d="M162 0v1452h1429v-211h-1155v-416h1114v-196h-1114v-416h1155v-213h-1429zM528 1794v150l754 -164v-150z" />
    <glyph glyph-name="Eacute" unicode="&#xc9;" horiz-adv-x="1742" 
d="M162 0v1452h1429v-211h-1155v-416h1114v-196h-1114v-416h1155v-213h-1429zM528 1630v150l754 164v-150z" />
    <glyph glyph-name="Ecircumflex" unicode="&#xca;" horiz-adv-x="1742" 
d="M162 0v1452h1429v-211h-1155v-416h1114v-196h-1114v-416h1155v-213h-1429zM524 1616v151l381 164l381 -164v-151l-381 160z" />
    <glyph glyph-name="Edieresis" unicode="&#xcb;" horiz-adv-x="1742" 
d="M162 0v1452h1429v-211h-1155v-416h1114v-196h-1114v-416h1155v-213h-1429zM549 1655v164h233v-164h-233zM1028 1655v164h234v-164h-234z" />
    <glyph glyph-name="Igrave" unicode="&#xcc;" horiz-adv-x="598" 
d="M162 0v1452h274v-1452h-274zM-16 1794v150l632 -164v-150z" />
    <glyph glyph-name="Iacute" unicode="&#xcd;" horiz-adv-x="598" 
d="M162 0v1452h274v-1452h-274zM-78 1630v150l754 164v-150z" />
    <glyph glyph-name="Icircumflex" unicode="&#xce;" horiz-adv-x="598" 
d="M162 0v1452h274v-1452h-274zM-20 1616v151l319 164l322 -164v-151l-322 160z" />
    <glyph glyph-name="Idieresis" unicode="&#xcf;" horiz-adv-x="598" 
d="M162 0v1452h274v-1452h-274zM0 1655v164h197v-164h-197zM403 1655v164h197v-164h-197z" />
    <glyph glyph-name="Eth" unicode="&#xd0;" horiz-adv-x="2015" 
d="M162 0v655h-201v123h201v674h946q217 0 392.5 -93.5t274.5 -259.5t99 -372t-99 -372.5t-274.5 -260.5t-392.5 -94h-946zM436 233h565q268 0 429 135t161 359q0 223 -161 357.5t-429 134.5h-565v-441h416v-123h-416v-422z" />
    <glyph glyph-name="Ntilde" unicode="&#xd1;" horiz-adv-x="2099" 
d="M162 0v1452h403l1098 -1204v1204h272v-1452h-401l-1098 1204v-1204h-274zM535 1604q0 167 81 261.5t222 94.5q50 0 91 -12t68.5 -31t51 -42t44.5 -45.5t42.5 -41.5t51.5 -31t66 -12q75 0 118.5 54.5t43.5 150.5h152q0 -167 -80 -261t-223 -94q-50 0 -91 11.5t-68.5 30.5
t-51.5 42t-45.5 45.5t-43.5 41.5t-52 30.5t-66 11.5q-74 0 -117 -54t-43 -150h-151z" />
    <glyph glyph-name="Ograve" unicode="&#xd2;" horiz-adv-x="2207" 
d="M1104 -41q-440 0 -701.5 209.5t-261.5 558.5q0 230 117.5 402.5t336 266t509.5 93.5q290 0 508 -94t335 -266.5t117 -401.5q0 -173 -68 -316t-192 -242.5t-303.5 -154.5t-396.5 -55zM426 727q0 -241 182.5 -387.5t495.5 -146.5q311 0 494.5 147.5t183.5 386.5
q0 238 -182.5 384t-495.5 146t-495.5 -146t-182.5 -384zM725 1794v150l754 -164v-150z" />
    <glyph glyph-name="Oacute" unicode="&#xd3;" horiz-adv-x="2207" 
d="M1104 -41q-440 0 -701.5 209.5t-261.5 558.5q0 230 117.5 402.5t336 266t509.5 93.5q290 0 508 -94t335 -266.5t117 -401.5q0 -173 -68 -316t-192 -242.5t-303.5 -154.5t-396.5 -55zM426 727q0 -241 182.5 -387.5t495.5 -146.5q311 0 494.5 147.5t183.5 386.5
q0 238 -182.5 384t-495.5 146t-495.5 -146t-182.5 -384zM725 1630v150l754 164v-150z" />
    <glyph glyph-name="Ocircumflex" unicode="&#xd4;" horiz-adv-x="2207" 
d="M1104 -41q-440 0 -701.5 209.5t-261.5 558.5q0 230 117.5 402.5t336 266t509.5 93.5q290 0 508 -94t335 -266.5t117 -401.5q0 -173 -68 -316t-192 -242.5t-303.5 -154.5t-396.5 -55zM426 727q0 -241 182.5 -387.5t495.5 -146.5q311 0 494.5 147.5t183.5 386.5
q0 238 -182.5 384t-495.5 146t-495.5 -146t-182.5 -384zM723 1616v151l381 164l381 -164v-151l-381 160z" />
    <glyph glyph-name="Otilde" unicode="&#xd5;" horiz-adv-x="2207" 
d="M1104 -41q-440 0 -701.5 209.5t-261.5 558.5q0 230 117.5 402.5t336 266t509.5 93.5q290 0 508 -94t335 -266.5t117 -401.5q0 -173 -68 -316t-192 -242.5t-303.5 -154.5t-396.5 -55zM426 727q0 -241 182.5 -387.5t495.5 -146.5q311 0 494.5 147.5t183.5 386.5
q0 238 -182.5 384t-495.5 146t-495.5 -146t-182.5 -384zM588 1604q0 167 81 261.5t222 94.5q50 0 91 -12t68.5 -31t51 -42t44.5 -45.5t43 -41.5t52 -31t66 -12q75 0 118 54.5t43 150.5h152q0 -167 -80 -261t-223 -94q-50 0 -91 11.5t-68.5 30.5t-51.5 42t-45.5 45.5
t-43.5 41.5t-52 30.5t-66 11.5q-74 0 -117 -54t-43 -150h-151z" />
    <glyph glyph-name="Odieresis" unicode="&#xd6;" horiz-adv-x="2207" 
d="M1104 -41q-440 0 -701.5 209.5t-261.5 558.5q0 230 117.5 402.5t336 266t509.5 93.5q290 0 508 -94t335 -266.5t117 -401.5q0 -173 -68 -316t-192 -242.5t-303.5 -154.5t-396.5 -55zM426 727q0 -241 182.5 -387.5t495.5 -146.5q311 0 494.5 147.5t183.5 386.5
q0 238 -182.5 384t-495.5 146t-495.5 -146t-182.5 -384zM748 1655v164h233v-164h-233zM1227 1655v164h233v-164h-233z" />
    <glyph glyph-name="multiply" unicode="&#xd7;" horiz-adv-x="1775" 
d="M166 997l100 177l621 -359l620 359l103 -177l-518 -299l520 -301l-103 -176l-620 359l-623 -359l-102 176l520 301z" />
    <glyph glyph-name="Oslash" unicode="&#xd8;" horiz-adv-x="2207" 
d="M1104 -41q-128 0 -242 18l-71 -159h-185l88 198q-261 82 -407 267.5t-146 443.5q0 230 117.5 402.5t336 266t509.5 93.5q120 0 237 -19l72 162h184l-88 -200q263 -80 409 -264t146 -441q0 -173 -68 -316t-192 -242.5t-303.5 -154.5t-396.5 -55zM426 727q0 -172 96 -299.5
t273 -187.5l448 1009q-60 8 -139 8q-313 0 -495.5 -146t-182.5 -384zM961 201q60 -8 143 -8q311 0 494.5 147.5t183.5 386.5q0 171 -97 298t-274 187z" />
    <glyph glyph-name="Ugrave" unicode="&#xd9;" horiz-adv-x="2019" 
d="M1010 -41q-231 0 -397.5 54t-264 155.5t-142 235t-44.5 305.5v743h274v-735q0 -524 574 -524q571 0 571 524v735h274v-743q0 -137 -27 -249t-89.5 -206.5t-159 -158.5t-240.5 -100t-329 -36zM633 1794v150l753 -164v-150z" />
    <glyph glyph-name="Uacute" unicode="&#xda;" horiz-adv-x="2019" 
d="M1010 -41q-231 0 -397.5 54t-264 155.5t-142 235t-44.5 305.5v743h274v-735q0 -524 574 -524q571 0 571 524v735h274v-743q0 -137 -27 -249t-89.5 -206.5t-159 -158.5t-240.5 -100t-329 -36zM633 1630v150l753 164v-150z" />
    <glyph glyph-name="Ucircumflex" unicode="&#xdb;" horiz-adv-x="2019" 
d="M1010 -41q-231 0 -397.5 54t-264 155.5t-142 235t-44.5 305.5v743h274v-735q0 -524 574 -524q571 0 571 524v735h274v-743q0 -137 -27 -249t-89.5 -206.5t-159 -158.5t-240.5 -100t-329 -36zM629 1616v151l381 164l381 -164v-151l-381 160z" />
    <glyph glyph-name="Udieresis" unicode="&#xdc;" horiz-adv-x="2019" 
d="M1010 -41q-231 0 -397.5 54t-264 155.5t-142 235t-44.5 305.5v743h274v-735q0 -524 574 -524q571 0 571 524v735h274v-743q0 -137 -27 -249t-89.5 -206.5t-159 -158.5t-240.5 -100t-329 -36zM653 1655v164h234v-164h-234zM1133 1655v164h233v-164h-233z" />
    <glyph glyph-name="Yacute" unicode="&#xdd;" horiz-adv-x="2199" 
d="M963 0v489l-822 963h344l615 -735l616 735h340l-819 -963v-489h-274zM723 1630v150l754 164v-150z" />
    <glyph glyph-name="Thorn" unicode="&#xde;" horiz-adv-x="1910" 
d="M162 0v1452h274v-205h764q268 0 417.5 -134.5t149.5 -377.5t-149.5 -377.5t-417.5 -134.5h-764v-223h-274zM436 457h707q164 0 253 64t89 214q0 151 -89 215t-253 64h-707v-557z" />
    <glyph glyph-name="germandbls" unicode="&#xdf;" horiz-adv-x="2007" 
d="M160 973q0 343 214 521.5t632 178.5q219 0 384 -50.5t258 -150t93 -237.5q0 -129 -85 -225t-229 -138q441 -58 441 -393q0 -479 -873 -479h-188v227h219q265 0 405 72t140 209q0 123 -117 174t-383 51h-266v230h242q397 0 397 219q0 123 -128.5 192.5t-330.5 69.5
q-263 0 -402 -116t-139 -333v-995h-284v973z" />
    <glyph glyph-name="agrave" unicode="&#xe0;" horiz-adv-x="1941" 
d="M1497 729q0 161 -112 222t-355 61q-145 0 -307.5 -30.5t-407.5 -94.5l-41 252q425 112 795 112q375 0 544 -132.5t169 -428.5v-690h-285v147q-170 -91 -362.5 -140.5t-382.5 -49.5q-279 0 -427.5 105.5t-148.5 302.5q0 208 175.5 317t502.5 109q288 0 643 -93v31z
M473 383q0 -112 87.5 -169.5t258.5 -57.5q295 0 678 182v160q-210 52 -341 71t-294 19q-203 0 -296 -47t-93 -158zM618 1552v150l754 -164v-149z" />
    <glyph glyph-name="aacute" unicode="&#xe1;" horiz-adv-x="1941" 
d="M1497 729q0 161 -112 222t-355 61q-145 0 -307.5 -30.5t-407.5 -94.5l-41 252q425 112 795 112q375 0 544 -132.5t169 -428.5v-690h-285v147q-170 -91 -362.5 -140.5t-382.5 -49.5q-279 0 -427.5 105.5t-148.5 302.5q0 208 175.5 317t502.5 109q288 0 643 -93v31z
M473 383q0 -112 87.5 -169.5t258.5 -57.5q295 0 678 182v160q-210 52 -341 71t-294 19q-203 0 -296 -47t-93 -158zM618 1389v149l754 164v-150z" />
    <glyph glyph-name="acircumflex" unicode="&#xe2;" horiz-adv-x="1941" 
d="M1497 729q0 161 -112 222t-355 61q-145 0 -307.5 -30.5t-407.5 -94.5l-41 252q425 112 795 112q375 0 544 -132.5t169 -428.5v-690h-285v147q-170 -91 -362.5 -140.5t-382.5 -49.5q-279 0 -427.5 105.5t-148.5 302.5q0 208 175.5 317t502.5 109q288 0 643 -93v31z
M473 383q0 -112 87.5 -169.5t258.5 -57.5q295 0 678 182v160q-210 52 -341 71t-294 19q-203 0 -296 -47t-93 -158zM616 1374v152l381 164l381 -164v-152l-381 160z" />
    <glyph glyph-name="atilde" unicode="&#xe3;" horiz-adv-x="1941" 
d="M1497 729q0 161 -112 222t-355 61q-145 0 -307.5 -30.5t-407.5 -94.5l-41 252q425 112 795 112q375 0 544 -132.5t169 -428.5v-690h-285v147q-170 -91 -362.5 -140.5t-382.5 -49.5q-279 0 -427.5 105.5t-148.5 302.5q0 208 175.5 317t502.5 109q288 0 643 -93v31z
M473 383q0 -112 87.5 -169.5t258.5 -57.5q295 0 678 182v160q-210 52 -341 71t-294 19q-203 0 -296 -47t-93 -158zM481 1362q0 167 81 261.5t222 94.5q50 0 91 -12t68.5 -31t51 -42t44.5 -45.5t43 -41.5t52 -31t66 -12q75 0 118.5 54.5t43.5 150.5h151q0 -167 -80 -260.5
t-223 -93.5q-68 0 -119.5 22t-83.5 53t-60.5 62.5t-66.5 53.5t-87 22q-74 0 -117 -54.5t-43 -150.5h-152z" />
    <glyph glyph-name="adieresis" unicode="&#xe4;" horiz-adv-x="1941" 
d="M1497 729q0 161 -112 222t-355 61q-145 0 -307.5 -30.5t-407.5 -94.5l-41 252q425 112 795 112q375 0 544 -132.5t169 -428.5v-690h-285v147q-170 -91 -362.5 -140.5t-382.5 -49.5q-279 0 -427.5 105.5t-148.5 302.5q0 208 175.5 317t502.5 109q288 0 643 -93v31z
M473 383q0 -112 87.5 -169.5t258.5 -57.5q295 0 678 182v160q-210 52 -341 71t-294 19q-203 0 -296 -47t-93 -158zM639 1413v164h233v-164h-233zM1118 1413v164h234v-164h-234z" />
    <glyph glyph-name="aring" unicode="&#xe5;" horiz-adv-x="1941" 
d="M1497 729q0 161 -112 222t-355 61q-145 0 -307.5 -30.5t-407.5 -94.5l-41 252q425 112 795 112q375 0 544 -132.5t169 -428.5v-690h-285v147q-170 -91 -362.5 -140.5t-382.5 -49.5q-279 0 -427.5 105.5t-148.5 302.5q0 208 175.5 317t502.5 109q288 0 643 -93v31z
M473 383q0 -112 87.5 -169.5t258.5 -57.5q295 0 678 182v160q-210 52 -341 71t-294 19q-203 0 -296 -47t-93 -158zM590 1581q0 238 407 238q406 0 406 -238t-406 -238q-407 0 -407 238zM739 1581q0 -67 63.5 -97t194.5 -30t192.5 30t61.5 97q0 66 -62 96.5t-192 30.5
q-258 0 -258 -127z" />
    <glyph glyph-name="ae" unicode="&#xe6;" horiz-adv-x="3162" 
d="M715 -41q-284 0 -434 96t-150 271q0 204 181.5 292.5t596.5 88.5h453q0 160 -113 244.5t-331 84.5q-244 0 -603 -114l-75 182q330 135 680 135q434 0 602 -233q108 119 283 182t401 63q388 0 602.5 -189.5t214.5 -555.5h-1354q31 -161 174 -245.5t385 -84.5
q197 0 326.5 58t169.5 163h280q-56 -209 -256.5 -323.5t-527.5 -114.5q-259 0 -449 77t-292 220q-116 -143 -313.5 -220t-450.5 -77zM410 362q0 -217 344 -217q225 0 381.5 78t226.5 219v111l-424 10q-207 6 -322.5 -13.5t-160.5 -63.5t-45 -124zM1673 717h1057
q-71 319 -522 319q-225 0 -362 -79.5t-173 -239.5z" />
    <glyph glyph-name="ccedilla" unicode="&#xe7;" horiz-adv-x="1894" 
d="M764 -375q407 -64 407 82q0 37 -27.5 57.5t-70.5 22.5q-62 3 -131 -37l-106 25l43 186q-345 20 -546.5 193.5t-201.5 449.5q0 295 226.5 471t605.5 176q317 0 535.5 -130t264.5 -345h-276q-40 118 -183 189t-341 71q-257 0 -410.5 -118t-153.5 -314q0 -195 154 -312.5
t410 -117.5q198 0 341 71t183 189h276q-44 -206 -247 -334.5t-500 -140.5l-23 -94q70 24 156 24q90 0 146.5 -44.5t56.5 -133.5q0 -62 -33 -107.5t-88.5 -71t-132 -37.5t-159.5 -10.5t-175 13.5v127z" />
    <glyph glyph-name="egrave" unicode="&#xe8;" horiz-adv-x="1900" 
d="M971 -41q-394 0 -619 171t-225 474q0 302 224 474.5t605 172.5q388 0 603 -189.5t215 -555.5h-1354q31 -161 174 -245.5t385 -84.5q197 0 326.5 58t169.5 163h280q-56 -209 -256.5 -323.5t-527.5 -114.5zM424 717h1057q-71 319 -523 319q-225 0 -361.5 -79.5
t-172.5 -239.5zM561 1530v149l754 -163v-150z" />
    <glyph glyph-name="eacute" unicode="&#xe9;" horiz-adv-x="1900" 
d="M971 -41q-394 0 -619 171t-225 474q0 302 224 474.5t605 172.5q388 0 603 -189.5t215 -555.5h-1354q31 -161 174 -245.5t385 -84.5q197 0 326.5 58t169.5 163h280q-56 -209 -256.5 -323.5t-527.5 -114.5zM424 717h1057q-71 319 -523 319q-225 0 -361.5 -79.5
t-172.5 -239.5zM561 1366v150l754 163v-149z" />
    <glyph glyph-name="ecircumflex" unicode="&#xea;" horiz-adv-x="1900" 
d="M971 -41q-394 0 -619 171t-225 474q0 302 224 474.5t605 172.5q388 0 603 -189.5t215 -555.5h-1354q31 -161 174 -245.5t385 -84.5q197 0 326.5 58t169.5 163h280q-56 -209 -256.5 -323.5t-527.5 -114.5zM424 717h1057q-71 319 -523 319q-225 0 -361.5 -79.5
t-172.5 -239.5zM557 1352v151l381 164l381 -164v-151l-381 159z" />
    <glyph glyph-name="edieresis" unicode="&#xeb;" horiz-adv-x="1900" 
d="M971 -41q-394 0 -619 171t-225 474q0 302 224 474.5t605 172.5q388 0 603 -189.5t215 -555.5h-1354q31 -161 174 -245.5t385 -84.5q197 0 326.5 58t169.5 163h280q-56 -209 -256.5 -323.5t-527.5 -114.5zM424 717h1057q-71 319 -523 319q-225 0 -361.5 -79.5
t-172.5 -239.5zM582 1391v163h233v-163h-233zM1061 1391v163h233v-163h-233z" />
    <glyph glyph-name="igrave" unicode="&#xec;" horiz-adv-x="593" 
d="M162 0v1210h270v-1210h-270zM-80 1550v150l754 -164v-150z" />
    <glyph glyph-name="iacute" unicode="&#xed;" horiz-adv-x="593" 
d="M162 0v1210h270v-1210h-270zM-80 1386v150l754 164v-150z" />
    <glyph glyph-name="icircumflex" unicode="&#xee;" horiz-adv-x="593" 
d="M162 0v1210h270v-1210h-270zM-82 1372v152l381 164l381 -164v-152l-381 160z" />
    <glyph glyph-name="idieresis" unicode="&#xef;" horiz-adv-x="593" 
d="M162 0v1210h270v-1210h-270zM-59 1411v164h233v-164h-233zM420 1411v164h233v-164h-233z" />
    <glyph glyph-name="ntilde" unicode="&#xf1;" horiz-adv-x="1939" 
d="M160 0v1210h286v-262q118 148 297 225.5t410 77.5q151 0 263 -32.5t195.5 -105.5t126 -197t42.5 -300v-616h-287v520q0 265 -110 378.5t-359 113.5q-260 0 -419 -134.5t-159 -367.5v-510h-286zM461 1339q0 167 81 262t222 95q50 0 91 -12t68.5 -31t51 -42t44.5 -45.5
t43 -41.5t52 -31t66 -12q75 0 118 54.5t43 150.5h152q0 -167 -80 -261t-223 -94q-50 0 -91 11.5t-68.5 30.5t-51.5 42t-45.5 45.5t-43.5 41.5t-52 30.5t-66 11.5q-74 0 -117 -54.5t-43 -150.5h-151z" />
    <glyph glyph-name="ograve" unicode="&#xf2;" horiz-adv-x="1923" 
d="M963 -41q-247 0 -435.5 79t-292.5 226t-104 340q0 194 104 341t292.5 226.5t435.5 79.5q246 0 434 -79.5t291.5 -226.5t103.5 -341q0 -193 -103.5 -340t-291.5 -226t-434 -79zM401 604q0 -194 155 -312t407 -118q250 0 404.5 118t154.5 312q0 196 -154.5 314t-404.5 118
q-252 0 -407 -118t-155 -314zM586 1550v150l753 -164v-150z" />
    <glyph glyph-name="oacute" unicode="&#xf3;" horiz-adv-x="1923" 
d="M963 -41q-247 0 -435.5 79t-292.5 226t-104 340q0 194 104 341t292.5 226.5t435.5 79.5q246 0 434 -79.5t291.5 -226.5t103.5 -341q0 -193 -103.5 -340t-291.5 -226t-434 -79zM401 604q0 -194 155 -312t407 -118q250 0 404.5 118t154.5 312q0 196 -154.5 314t-404.5 118
q-252 0 -407 -118t-155 -314zM586 1386v150l753 164v-150z" />
    <glyph glyph-name="ocircumflex" unicode="&#xf4;" horiz-adv-x="1923" 
d="M963 -41q-247 0 -435.5 79t-292.5 226t-104 340q0 194 104 341t292.5 226.5t435.5 79.5q246 0 434 -79.5t291.5 -226.5t103.5 -341q0 -193 -103.5 -340t-291.5 -226t-434 -79zM401 604q0 -194 155 -312t407 -118q250 0 404.5 118t154.5 312q0 196 -154.5 314t-404.5 118
q-252 0 -407 -118t-155 -314zM582 1372v152l381 164l380 -164v-152l-380 160z" />
    <glyph glyph-name="otilde" unicode="&#xf5;" horiz-adv-x="1923" 
d="M963 -41q-247 0 -435.5 79t-292.5 226t-104 340q0 194 104 341t292.5 226.5t435.5 79.5q246 0 434 -79.5t291.5 -226.5t103.5 -341q0 -193 -103.5 -340t-291.5 -226t-434 -79zM401 604q0 -194 155 -312t407 -118q250 0 404.5 118t154.5 312q0 196 -154.5 314t-404.5 118
q-252 0 -407 -118t-155 -314zM446 1360q0 167 81.5 261.5t222.5 94.5q50 0 91 -12t68.5 -31t51 -42t44.5 -45.5t42.5 -41.5t51.5 -31t66 -12q75 0 118.5 54.5t43.5 150.5h152q0 -167 -80 -260.5t-223 -93.5q-68 0 -119.5 22t-83.5 53t-60.5 62.5t-67 53.5t-87.5 22
q-74 0 -117 -54.5t-43 -150.5h-152z" />
    <glyph glyph-name="odieresis" unicode="&#xf6;" horiz-adv-x="1923" 
d="M963 -41q-247 0 -435.5 79t-292.5 226t-104 340q0 194 104 341t292.5 226.5t435.5 79.5q246 0 434 -79.5t291.5 -226.5t103.5 -341q0 -193 -103.5 -340t-291.5 -226t-434 -79zM401 604q0 -194 155 -312t407 -118q250 0 404.5 118t154.5 312q0 196 -154.5 314t-404.5 118
q-252 0 -407 -118t-155 -314zM606 1411v164h234v-164h-234zM1085 1411v164h234v-164h-234z" />
    <glyph glyph-name="divide" unicode="&#xf7;" horiz-adv-x="1959" 
d="M203 594v205h1552v-205h-1552zM848 156v206h264v-206h-264zM848 1044v209h264v-209h-264z" />
    <glyph glyph-name="oslash" unicode="&#xf8;" horiz-adv-x="1923" 
d="M963 -41q-37 0 -111 4l-74 -250h-168l82 275q-261 58 -411 220t-150 396q0 194 104 341t292.5 226.5t435.5 79.5q36 0 106 -4l74 248h168l-82 -270q262 -58 412.5 -221.5t150.5 -399.5q0 -193 -103.5 -340t-291.5 -226t-434 -79zM401 604q0 -150 95 -256.5t260 -148.5
l250 837h-43q-252 0 -407 -118t-155 -314zM915 176q16 -2 48 -2q250 0 404.5 118t154.5 312q0 152 -95 259t-260 149z" />
    <glyph glyph-name="ugrave" unicode="&#xf9;" horiz-adv-x="1939" 
d="M1780 1210v-1210h-287v262q-118 -148 -297 -225.5t-410 -77.5q-151 0 -263 32.5t-195 105.5t-125.5 197t-42.5 300v616h286v-520q0 -265 110 -378t359 -113q260 0 419 134t159 367v510h287zM571 1550v150l754 -164v-150z" />
    <glyph glyph-name="uacute" unicode="&#xfa;" horiz-adv-x="1939" 
d="M1780 1210v-1210h-287v262q-118 -148 -297 -225.5t-410 -77.5q-151 0 -263 32.5t-195 105.5t-125.5 197t-42.5 300v616h286v-520q0 -265 110 -378t359 -113q260 0 419 134t159 367v510h287zM571 1386v150l754 164v-150z" />
    <glyph glyph-name="ucircumflex" unicode="&#xfb;" horiz-adv-x="1939" 
d="M1780 1210v-1210h-287v262q-118 -148 -297 -225.5t-410 -77.5q-151 0 -263 32.5t-195 105.5t-125.5 197t-42.5 300v616h286v-520q0 -265 110 -378t359 -113q260 0 419 134t159 367v510h287zM567 1372v152l381 164l381 -164v-152l-381 160z" />
    <glyph glyph-name="udieresis" unicode="&#xfc;" horiz-adv-x="1939" 
d="M1780 1210v-1210h-287v262q-118 -148 -297 -225.5t-410 -77.5q-151 0 -263 32.5t-195 105.5t-125.5 197t-42.5 300v616h286v-520q0 -265 110 -378t359 -113q260 0 419 134t159 367v510h287zM592 1411v164h233v-164h-233zM1071 1411v164h234v-164h-234z" />
    <glyph glyph-name="yacute" unicode="&#xfd;" horiz-adv-x="1937" 
d="M557 -532q-152 0 -362 53v207q226 -45 327 -45q36 0 65 3.5t55 13.5t45 20.5t40.5 33t37 42t37.5 56t38 66.5t43 82h-119l-633 1210h293l545 -1044l544 1044h293l-641 -1230q-54 -105 -96.5 -176t-98.5 -140t-113.5 -108.5t-133.5 -63.5t-166 -24zM588 1386v150l753 164
v-150z" />
    <glyph glyph-name="thorn" unicode="&#xfe;" horiz-adv-x="1959" 
d="M162 -410v2048h270v-682q94 140 262 217.5t385 77.5q338 0 540 -176t202 -469q0 -294 -202 -470.5t-540 -176.5q-216 0 -384 77.5t-263 217.5v-664h-270zM432 565q17 -170 166 -268t395 -98q245 0 388 110t143 297q0 185 -143 295.5t-388 110.5q-246 0 -395 -98
t-166 -267v-82z" />
    <glyph glyph-name="ydieresis" unicode="&#xff;" horiz-adv-x="1937" 
d="M557 -532q-152 0 -362 53v207q226 -45 327 -45q36 0 65 3.5t55 13.5t45 20.5t40.5 33t37 42t37.5 56t38 66.5t43 82h-119l-633 1210h293l545 -1044l544 1044h293l-641 -1230q-54 -105 -96.5 -176t-98.5 -140t-113.5 -108.5t-133.5 -63.5t-166 -24zM608 1411v164h234v-164
h-234zM1087 1411v164h234v-164h-234z" />
    <glyph glyph-name="Amacron" unicode="&#x100;" horiz-adv-x="2238" 
d="M141 0l805 1452h348l801 -1452h-293l-178 332h-1010l-178 -332h-295zM680 1692v129h874v-129h-874zM725 537h788l-393 735z" />
    <glyph glyph-name="amacron" unicode="&#x101;" horiz-adv-x="1941" 
d="M1497 729q0 161 -112 222t-355 61q-145 0 -307.5 -30.5t-407.5 -94.5l-41 252q425 112 795 112q375 0 544 -132.5t169 -428.5v-690h-285v147q-170 -91 -362.5 -140.5t-382.5 -49.5q-279 0 -427.5 105.5t-148.5 302.5q0 208 175.5 317t502.5 109q288 0 643 -93v31z
M473 383q0 -112 87.5 -169.5t258.5 -57.5q295 0 678 182v160q-210 52 -341 71t-294 19q-203 0 -296 -47t-93 -158zM559 1448v129h875v-129h-875z" />
    <glyph glyph-name="Abreve" unicode="&#x102;" horiz-adv-x="2238" 
d="M141 0l805 1452h348l801 -1452h-293l-178 332h-1010l-178 -332h-295zM690 1974h162q0 -112 65 -158.5t201 -46.5t201 46.5t65 158.5h162q0 -352 -428 -352t-428 352zM725 537h788l-393 735z" />
    <glyph glyph-name="abreve" unicode="&#x103;" horiz-adv-x="1941" 
d="M1497 729q0 161 -112 222t-355 61q-145 0 -307.5 -30.5t-407.5 -94.5l-41 252q425 112 795 112q375 0 544 -132.5t169 -428.5v-690h-285v147q-170 -91 -362.5 -140.5t-382.5 -49.5q-279 0 -427.5 105.5t-148.5 302.5q0 208 175.5 317t502.5 109q288 0 643 -93v31z
M473 383q0 -112 87.5 -169.5t258.5 -57.5q295 0 678 182v160q-210 52 -341 71t-294 19q-203 0 -296 -47t-93 -158zM567 1731h162q0 -112 65 -158.5t201 -46.5t201.5 46.5t65.5 158.5h161q0 -353 -428 -353t-428 353z" />
    <glyph glyph-name="Aogonek" unicode="&#x104;" horiz-adv-x="2238" 
d="M141 0l805 1452h348l801 -1452h-63q-78 -64 -107 -106.5t-29 -92.5q0 -75 71 -107t241 -32v-145q-268 0 -378 52t-110 177q0 71 39 132.5t121 121.5h-78l-178 332h-1010l-178 -332h-295zM725 537h788l-393 735z" />
    <glyph glyph-name="aogonek" unicode="&#x105;" horiz-adv-x="1953" 
d="M1456 731q0 61 -15 110t-40 82.5t-62.5 58.5t-76 39t-88 22.5t-91.5 11t-92 2.5q-158 0 -326 -24.5t-397 -86.5l-41 191q417 114 809 114q352 0 520 -133t168 -424v-694h-129q-78 -64 -106.5 -106.5t-28.5 -92.5q0 -75 71 -107t241 -32v-145q-268 0 -378 52t-110 177
q0 74 42 137t130 127v156q-398 -207 -749 -207q-281 0 -428.5 104.5t-147.5 307.5q0 94 37 167.5t99.5 120.5t152.5 77t188 42.5t213 12.5q286 0 635 -95v35zM410 381q0 -119 92 -177.5t286 -58.5q149 0 327.5 44t340.5 106v248q-9 2 -50 11.5t-55 12.5t-54.5 11.5t-60 12
t-58 11t-63.5 10.5t-61.5 8t-65.5 7.5t-63.5 4t-66.5 1.5q-448 0 -448 -252z" />
    <glyph glyph-name="Cacute" unicode="&#x106;" horiz-adv-x="2131" 
d="M1087 -41q-276 0 -490.5 94.5t-335 269.5t-120.5 404q0 228 120.5 402t335 267t490.5 93q243 0 443 -77t320 -210.5t141 -300.5h-289q-13 66 -62 128.5t-125 114t-188 82.5t-240 31q-298 0 -479.5 -148t-181.5 -382q0 -236 181.5 -385t479.5 -149q103 0 196 20.5
t163.5 56t125.5 81.5t87 97.5t43 104.5h289q-15 -126 -89 -236t-191.5 -189t-279 -124t-344.5 -45zM698 1630v150l754 164v-150z" />
    <glyph glyph-name="cacute" unicode="&#x107;" horiz-adv-x="1894" 
d="M963 -41q-379 0 -605.5 176t-226.5 469q0 295 226.5 471t605.5 176q317 0 535.5 -130t264.5 -345h-276q-40 118 -183 189t-341 71q-257 0 -410.5 -118t-153.5 -314q0 -195 154 -312.5t410 -117.5q198 0 341 71t183 189h276q-46 -216 -264.5 -345.5t-535.5 -129.5z
M584 1386v150l753 164v-150z" />
    <glyph glyph-name="Cdotaccent" unicode="&#x10a;" horiz-adv-x="2131" 
d="M1087 -41q-276 0 -490.5 94.5t-335 269.5t-120.5 404q0 228 120.5 402t335 267t490.5 93q243 0 443 -77t320 -210.5t141 -300.5h-289q-13 66 -62 128.5t-125 114t-188 82.5t-240 31q-298 0 -479.5 -148t-181.5 -382q0 -236 181.5 -385t479.5 -149q103 0 196 20.5
t163.5 56t125.5 81.5t87 97.5t43 104.5h289q-15 -126 -89 -236t-191.5 -189t-279 -124t-344.5 -45zM948 1669v150h256v-150h-256z" />
    <glyph glyph-name="cdotaccent" unicode="&#x10b;" horiz-adv-x="1894" 
d="M963 -41q-379 0 -605.5 176t-226.5 469q0 295 226.5 471t605.5 176q317 0 535.5 -130t264.5 -345h-276q-40 118 -183 189t-341 71q-257 0 -410.5 -118t-153.5 -314q0 -195 154 -312.5t410 -117.5q198 0 341 71t183 189h276q-46 -216 -264.5 -345.5t-535.5 -129.5z
M834 1425v150h256v-150h-256z" />
    <glyph glyph-name="Ccaron" unicode="&#x10c;" horiz-adv-x="2131" 
d="M1087 -41q-276 0 -490.5 94.5t-335 269.5t-120.5 404q0 228 120.5 402t335 267t490.5 93q243 0 443 -77t320 -210.5t141 -300.5h-289q-13 66 -62 128.5t-125 114t-188 82.5t-240 31q-298 0 -479.5 -148t-181.5 -382q0 -236 181.5 -385t479.5 -149q103 0 196 20.5
t163.5 56t125.5 81.5t87 97.5t43 104.5h289q-15 -126 -89 -236t-191.5 -189t-279 -124t-344.5 -45zM696 1772v151l381 -160l381 160v-151l-381 -164z" />
    <glyph glyph-name="ccaron" unicode="&#x10d;" horiz-adv-x="1894" 
d="M963 -41q-379 0 -605.5 176t-226.5 469q0 295 226.5 471t605.5 176q317 0 535.5 -130t264.5 -345h-276q-40 118 -183 189t-341 71q-257 0 -410.5 -118t-153.5 -314q0 -195 154 -312.5t410 -117.5q198 0 341 71t183 189h276q-46 -216 -264.5 -345.5t-535.5 -129.5z
M582 1528v151l381 -159l380 159v-151l-380 -164z" />
    <glyph glyph-name="Dcaron" unicode="&#x10e;" horiz-adv-x="2015" 
d="M162 0v1452h946q217 0 392.5 -93.5t274.5 -259.5t99 -372t-99 -372.5t-274.5 -260.5t-392.5 -94h-946zM436 233h565q268 0 429 135t161 359q0 223 -161 357.5t-429 134.5h-565v-986zM463 1753v152l381 -160l381 160v-152l-381 -164z" />
    <glyph glyph-name="dcaron" unicode="&#x10f;" horiz-adv-x="2416" 
d="M1530 0v254q-95 -141 -263.5 -219t-385.5 -78q-338 0 -540 176t-202 469q0 294 202 470.5t540 176.5q217 0 386 -78.5t263 -220.5v688h268v-1638h-268zM436 602q0 -185 143 -295t388 -110q261 0 412 109.5t151 295.5q0 187 -151 297.5t-412 110.5q-245 0 -388 -110.5
t-143 -297.5zM1964 1403v235h289v-208l-133 -332h-131l94 305h-119z" />
    <glyph glyph-name="Dcroat" unicode="&#x110;" horiz-adv-x="2015" 
d="M162 0v655h-201v123h201v674h946q217 0 392.5 -93.5t274.5 -259.5t99 -372t-99 -372.5t-274.5 -260.5t-392.5 -94h-946zM436 233h565q268 0 429 135t161 359q0 223 -161 357.5t-429 134.5h-565v-441h416v-123h-416v-422z" />
    <glyph glyph-name="dcroat" unicode="&#x111;" horiz-adv-x="1959" 
d="M1530 0v254q-95 -141 -263.5 -219t-385.5 -78q-338 0 -540 176t-202 469q0 294 202 470.5t540 176.5q217 0 386 -78.5t263 -220.5v400h-455v129h455v159h268v-159h203v-129h-203v-1350h-268zM436 602q0 -185 143 -295t388 -110q261 0 412 109.5t151 295.5
q0 187 -151 297.5t-412 110.5q-245 0 -388 -110.5t-143 -297.5z" />
    <glyph glyph-name="Emacron" unicode="&#x112;" horiz-adv-x="1742" 
d="M162 0v1452h1429v-211h-1155v-416h1114v-196h-1114v-416h1155v-213h-1429zM467 1690v129h874v-129h-874z" />
    <glyph glyph-name="emacron" unicode="&#x113;" horiz-adv-x="1900" 
d="M971 -41q-394 0 -619 171t-225 474q0 302 224 474.5t605 172.5q388 0 603 -189.5t215 -555.5h-1354q31 -161 174 -245.5t385 -84.5q197 0 326.5 58t169.5 163h280q-56 -209 -256.5 -323.5t-527.5 -114.5zM424 717h1057q-71 319 -523 319q-225 0 -361.5 -79.5
t-172.5 -239.5zM500 1425v129h874v-129h-874z" />
    <glyph glyph-name="Edotaccent" unicode="&#x116;" horiz-adv-x="1742" 
d="M162 0v1452h1429v-211h-1155v-416h1114v-196h-1114v-416h1155v-213h-1429zM778 1669v150h256v-150h-256z" />
    <glyph glyph-name="edotaccent" unicode="&#x117;" horiz-adv-x="1900" 
d="M971 -41q-394 0 -619 171t-225 474q0 302 224 474.5t605 172.5q388 0 603 -189.5t215 -555.5h-1354q31 -161 174 -245.5t385 -84.5q197 0 326.5 58t169.5 163h280q-56 -209 -256.5 -323.5t-527.5 -114.5zM424 717h1057q-71 319 -523 319q-225 0 -361.5 -79.5
t-172.5 -239.5zM811 1405v149h256v-149h-256z" />
    <glyph glyph-name="Eogonek" unicode="&#x118;" horiz-adv-x="1841" 
d="M162 0v1452h1429v-211h-1155v-416h1114v-196h-1114v-416h1155v-213h-2q-78 -64 -106.5 -106.5t-28.5 -92.5q0 -75 70.5 -107t240.5 -32v-145q-268 0 -377.5 52t-109.5 177q0 71 39 132.5t121 121.5h-1276z" />
    <glyph glyph-name="eogonek" unicode="&#x119;" horiz-adv-x="1900" 
d="M971 -41q-394 0 -619 171t-225 474q0 302 224 474.5t605 172.5q388 0 603 -189.5t215 -555.5h-1354q31 -161 174 -245.5t385 -84.5q197 0 326.5 58t169.5 163h280q-45 -168 -183 -276t-362 -144q-62 -53 -85 -92t-23 -84q0 -75 70.5 -107t240.5 -32v-145
q-268 0 -377.5 52t-109.5 177q0 114 110 215q-20 -2 -65 -2zM424 717h1057q-71 319 -523 319q-225 0 -361.5 -79.5t-172.5 -239.5z" />
    <glyph glyph-name="Ecaron" unicode="&#x11a;" horiz-adv-x="1742" 
d="M162 0v1452h1429v-211h-1155v-416h1114v-196h-1114v-416h1155v-213h-1429zM524 1772v151l381 -160l381 160v-151l-381 -164z" />
    <glyph glyph-name="ecaron" unicode="&#x11b;" horiz-adv-x="1900" 
d="M971 -41q-394 0 -619 171t-225 474q0 302 224 474.5t605 172.5q388 0 603 -189.5t215 -555.5h-1354q31 -161 174 -245.5t385 -84.5q197 0 326.5 58t169.5 163h280q-56 -209 -256.5 -323.5t-527.5 -114.5zM424 717h1057q-71 319 -523 319q-225 0 -361.5 -79.5
t-172.5 -239.5zM557 1507v152l381 -160l381 160v-152l-381 -164z" />
    <glyph glyph-name="Gbreve" unicode="&#x11e;" horiz-adv-x="2142" 
d="M1110 -41q-292 0 -512.5 94t-339.5 267.5t-119 402.5q0 231 118.5 405.5t336 268.5t506.5 94q202 0 369.5 -44.5t279 -122t177.5 -179.5t79 -219h-309q-8 41 -33 83t-73.5 85t-114.5 75.5t-162.5 53t-210.5 20.5q-163 0 -292.5 -43t-209 -116t-121 -165.5t-41.5 -195.5
q0 -107 42.5 -199.5t125.5 -163.5t216.5 -112t303.5 -41q195 0 349.5 33t291.5 106v160h-702v248h940v-559q-360 -236 -895 -236zM662 1954h161q0 -112 65.5 -158.5t201.5 -46.5t201 46.5t65 158.5h162q0 -352 -428 -352t-428 352z" />
    <glyph glyph-name="gbreve" unicode="&#x11f;" horiz-adv-x="1957" 
d="M1018 -532q-195 0 -368.5 15.5t-448.5 55.5l35 205q277 -36 423.5 -48.5t311.5 -12.5q163 0 272 23t171.5 73t88 117.5t25.5 166.5v191q-94 -140 -262 -217.5t-385 -77.5q-338 0 -540 176t-202 469q0 294 202 470.5t540 176.5q216 0 384 -77.5t263 -217.5v254h268v-1132
q0 -150 -39 -259t-127.5 -189.5t-241 -121t-370.5 -40.5zM436 604q0 -185 143 -295t388 -110q246 0 395 98t166 266v82q-17 170 -166 268.5t-395 98.5q-245 0 -388 -110.5t-143 -297.5zM582 1729h161q0 -112 65.5 -158.5t201.5 -46.5t201 46.5t65 158.5h162
q0 -353 -428 -353t-428 353z" />
    <glyph glyph-name="Gdotaccent" unicode="&#x120;" horiz-adv-x="2142" 
d="M1110 -41q-292 0 -512.5 94t-339.5 267.5t-119 402.5q0 231 118.5 405.5t336 268.5t506.5 94q202 0 369.5 -44.5t279 -122t177.5 -179.5t79 -219h-309q-8 41 -33 83t-73.5 85t-114.5 75.5t-162.5 53t-210.5 20.5q-163 0 -292.5 -43t-209 -116t-121 -165.5t-41.5 -195.5
q0 -107 42.5 -199.5t125.5 -163.5t216.5 -112t303.5 -41q195 0 349.5 33t291.5 106v160h-702v248h940v-559q-360 -236 -895 -236zM963 1651v149h256v-149h-256z" />
    <glyph glyph-name="gdotaccent" unicode="&#x121;" horiz-adv-x="1957" 
d="M1018 -532q-195 0 -368.5 15.5t-448.5 55.5l35 205q277 -36 423.5 -48.5t311.5 -12.5q163 0 272 23t171.5 73t88 117.5t25.5 166.5v191q-94 -140 -262 -217.5t-385 -77.5q-338 0 -540 176t-202 469q0 294 202 470.5t540 176.5q216 0 384 -77.5t263 -217.5v254h268v-1132
q0 -150 -39 -259t-127.5 -189.5t-241 -121t-370.5 -40.5zM436 604q0 -185 143 -295t388 -110q246 0 395 98t166 266v82q-17 170 -166 268.5t-395 98.5q-245 0 -388 -110.5t-143 -297.5zM881 1425v150h256v-150h-256z" />
    <glyph glyph-name="uni0122" unicode="&#x122;" horiz-adv-x="2142" 
d="M1110 -41q-292 0 -512.5 94t-339.5 267.5t-119 402.5q0 231 118.5 405.5t336 268.5t506.5 94q202 0 369.5 -44.5t279 -122t177.5 -179.5t79 -219h-309q-8 41 -33 83t-73.5 85t-114.5 75.5t-162.5 53t-210.5 20.5q-163 0 -292.5 -43t-209 -116t-121 -165.5t-41.5 -195.5
q0 -107 42.5 -199.5t125.5 -163.5t216.5 -112t303.5 -41q195 0 349.5 33t291.5 106v160h-702v248h940v-559q-360 -236 -895 -236zM948 -328v181h273v-181l-150 -209h-119l99 209h-103z" />
    <glyph glyph-name="uni0123" unicode="&#x123;" horiz-adv-x="1957" 
d="M1018 -532q-195 0 -368.5 15.5t-448.5 55.5l35 205q277 -36 423.5 -48.5t311.5 -12.5q163 0 272 23t171.5 73t88 117.5t25.5 166.5v191q-94 -140 -262 -217.5t-385 -77.5q-338 0 -540 176t-202 469q0 294 202 470.5t540 176.5q216 0 384 -77.5t263 -217.5v254h268v-1132
q0 -150 -39 -259t-127.5 -189.5t-241 -121t-370.5 -40.5zM436 604q0 -185 143 -295t388 -110q246 0 395 98t166 266v82q-17 170 -166 268.5t-395 98.5q-245 0 -388 -110.5t-143 -297.5zM874 1440v180l150 209h119l-101 -209h105v-180h-273z" />
    <glyph glyph-name="Hbar" unicode="&#x126;" horiz-adv-x="2123" 
d="M205 0v1120h-156v129h156v203h274v-203h1163v203h275v-203h158v-129h-158v-1120h-275v610h-1163v-610h-274zM479 842h1163v278h-1163v-278z" />
    <glyph glyph-name="hbar" unicode="&#x127;" horiz-adv-x="1931" 
d="M162 0v1348h-203v129h203v161h270v-161h453v-129h-453v-459q112 171 290 266.5t417 95.5q152 0 264.5 -33t196.5 -106.5t126.5 -198.5t42.5 -301v-612h-270v524q0 269 -112 384.5t-365 115.5q-265 0 -427.5 -138t-162.5 -374v-512h-270z" />
    <glyph glyph-name="Imacron" unicode="&#x12a;" horiz-adv-x="598" 
d="M162 0v1452h274v-1452h-274zM-137 1690v129h874v-129h-874z" />
    <glyph glyph-name="imacron" unicode="&#x12b;" horiz-adv-x="593" 
d="M162 0v1210h270v-1210h-270zM-139 1446v129h874v-129h-874z" />
    <glyph glyph-name="Iogonek" unicode="&#x12e;" horiz-adv-x="598" 
d="M162 0v1452h274v-1452q-78 -64 -106.5 -106.5t-28.5 -92.5q0 -75 70.5 -107t240.5 -32v-145q-268 0 -377.5 52t-109.5 177q0 71 39 132.5t121 121.5h-123z" />
    <glyph glyph-name="iogonek" unicode="&#x12f;" horiz-adv-x="593" 
d="M162 0v1210h270v-1210h-67q-78 -64 -107 -106.5t-29 -92.5q0 -75 71 -107t241 -32v-145q-268 0 -378 52t-110 177q0 71 39 132.5t121 121.5h-51zM162 1395v243h270v-243h-270z" />
    <glyph glyph-name="Idotaccent" unicode="&#x130;" horiz-adv-x="598" 
d="M162 0v1452h274v-1452h-274zM172 1669v150h256v-150h-256z" />
    <glyph glyph-name="dotlessi" unicode="&#x131;" horiz-adv-x="593" 
d="M162 0v1210h270v-1210h-270z" />
    <glyph glyph-name="uni0136" unicode="&#x136;" horiz-adv-x="1990" 
d="M162 0v1452h274v-784l1004 784h409l-755 -596l755 -856h-338l-620 696l-455 -358v-338h-274zM831 -328v181h273v-181l-150 -209h-118l98 209h-103z" />
    <glyph glyph-name="uni0137" unicode="&#x137;" horiz-adv-x="1853" 
d="M162 0v1638h270v-1034l877 606h411l-684 -475l684 -735h-331l-547 600l-410 -285v-315h-270zM768 -328v181h272v-181l-149 -209h-119l98 209h-102z" />
    <glyph glyph-name="Lacute" unicode="&#x139;" horiz-adv-x="1658" 
d="M162 0v1452h274v-1219h1092v-233h-1366zM164 1630v150l754 164v-150z" />
    <glyph glyph-name="lacute" unicode="&#x13a;" horiz-adv-x="595" 
d="M162 0v1638h270v-1638h-270zM-80 1817v149l754 164v-150z" />
    <glyph glyph-name="uni013B" unicode="&#x13b;" horiz-adv-x="1658" 
d="M162 0v1452h274v-1219h1092v-233h-1366zM719 -328v181h272v-181l-149 -209h-119l98 209h-102z" />
    <glyph glyph-name="uni013C" unicode="&#x13c;" horiz-adv-x="595" 
d="M162 0v1638h270v-1638h-270zM170 -328v181h272v-181l-149 -209h-119l98 209h-102z" />
    <glyph glyph-name="Lcaron" unicode="&#x13d;" horiz-adv-x="1658" 
d="M162 0v1452h274v-1219h1092v-233h-1366zM1204 1217v235h289v-209l-133 -332h-131l94 306h-119z" />
    <glyph glyph-name="lcaron" unicode="&#x13e;" horiz-adv-x="1069" 
d="M162 0v1638h270v-1638h-270zM616 1403v235h289v-208l-133 -332h-131l94 305h-119z" />
    <glyph glyph-name="Lslash" unicode="&#x141;" horiz-adv-x="1658" 
d="M162 0v637l-232 -94v155l232 95v659h274v-547l606 246v-156l-606 -245v-517h1092v-233h-1366z" />
    <glyph glyph-name="lslash" unicode="&#x142;" horiz-adv-x="1015" 
d="M373 0v623l-285 -136v142l285 135v874h270v-745l283 135v-141l-283 -135v-752h-270z" />
    <glyph glyph-name="Nacute" unicode="&#x143;" horiz-adv-x="2099" 
d="M162 0v1452h403l1098 -1204v1204h272v-1452h-401l-1098 1204v-1204h-274zM674 1630v150l753 164v-150z" />
    <glyph glyph-name="nacute" unicode="&#x144;" horiz-adv-x="1939" 
d="M160 0v1210h286v-262q118 148 297 225.5t410 77.5q151 0 263 -32.5t195.5 -105.5t126 -197t42.5 -300v-616h-287v520q0 265 -110 378.5t-359 113.5q-260 0 -419 -134.5t-159 -367.5v-510h-286zM598 1366v150l754 163v-149z" />
    <glyph glyph-name="uni0145" unicode="&#x145;" horiz-adv-x="2099" 
d="M162 0v1452h403l1098 -1204v1204h272v-1452h-401l-1098 1204v-1204h-274zM866 -328v181h273v-181l-150 -209h-119l99 209h-103z" />
    <glyph glyph-name="uni0146" unicode="&#x146;" horiz-adv-x="1939" 
d="M160 0v1210h286v-262q118 148 297 225.5t410 77.5q151 0 263 -32.5t195.5 -105.5t126 -197t42.5 -300v-616h-287v520q0 265 -110 378.5t-359 113.5q-260 0 -419 -134.5t-159 -367.5v-510h-286zM846 -328v181h272v-181l-149 -209h-119l98 209h-102z" />
    <glyph glyph-name="Ncaron" unicode="&#x147;" horiz-adv-x="2099" 
d="M162 0v1452h403l1098 -1204v1204h272v-1452h-401l-1098 1204v-1204h-274zM670 1772v151l381 -160l381 160v-151l-381 -164z" />
    <glyph glyph-name="ncaron" unicode="&#x148;" horiz-adv-x="1939" 
d="M160 0v1210h286v-262q118 148 297 225.5t410 77.5q151 0 263 -32.5t195.5 -105.5t126 -197t42.5 -300v-616h-287v520q0 265 -110 378.5t-359 113.5q-260 0 -419 -134.5t-159 -367.5v-510h-286zM596 1507v152l381 -160l381 160v-152l-381 -164z" />
    <glyph glyph-name="Eng" unicode="&#x14a;" horiz-adv-x="2099" 
d="M162 0v1452h403l1098 -1204v1204h272v-1452q0 -126 -24 -218t-80.5 -162t-155.5 -105t-243 -35q-194 0 -363 39v184q172 -35 295 -35q103 0 159.5 27.5t84.5 99.5t28 205h-102l-1098 1204v-1204h-274z" />
    <glyph glyph-name="eng" unicode="&#x14b;" horiz-adv-x="1939" 
d="M160 0v1210h286v-262q118 148 297 225.5t410 77.5q151 0 263 -32.5t195.5 -105.5t126 -197t42.5 -300v-616q0 -131 -24 -224.5t-81.5 -165t-159 -107t-249.5 -35.5q-182 0 -355 40v209q174 -36 303 -36q170 0 233.5 67.5t63.5 251.5h-18v520q0 265 -110 378.5t-359 113.5
q-260 0 -419 -134.5t-159 -367.5v-510h-286z" />
    <glyph glyph-name="Omacron" unicode="&#x14c;" horiz-adv-x="2207" 
d="M1104 -41q-440 0 -701.5 209.5t-261.5 558.5q0 230 117.5 402.5t336 266t509.5 93.5q290 0 508 -94t335 -266.5t117 -401.5q0 -173 -68 -316t-192 -242.5t-303.5 -154.5t-396.5 -55zM426 727q0 -241 182.5 -387.5t495.5 -146.5q311 0 494.5 147.5t183.5 386.5
q0 238 -182.5 384t-495.5 146t-495.5 -146t-182.5 -384zM666 1690v129h874v-129h-874z" />
    <glyph glyph-name="omacron" unicode="&#x14d;" horiz-adv-x="1923" 
d="M963 -41q-247 0 -435.5 79t-292.5 226t-104 340q0 194 104 341t292.5 226.5t435.5 79.5q246 0 434 -79.5t291.5 -226.5t103.5 -341q0 -193 -103.5 -340t-291.5 -226t-434 -79zM401 604q0 -194 155 -312t407 -118q250 0 404.5 118t154.5 312q0 196 -154.5 314t-404.5 118
q-252 0 -407 -118t-155 -314zM524 1446v129h875v-129h-875z" />
    <glyph glyph-name="Ohungarumlaut" unicode="&#x150;" horiz-adv-x="2207" 
d="M1104 -41q-440 0 -701.5 209.5t-261.5 558.5q0 230 117.5 402.5t336 266t509.5 93.5q290 0 508 -94t335 -266.5t117 -401.5q0 -173 -68 -316t-192 -242.5t-303.5 -154.5t-396.5 -55zM426 727q0 -241 182.5 -387.5t495.5 -146.5q311 0 494.5 147.5t183.5 386.5
q0 238 -182.5 384t-495.5 146t-495.5 -146t-182.5 -384zM649 1634v154l404 164v-154zM1153 1634v154l401 164v-154z" />
    <glyph glyph-name="ohungarumlaut" unicode="&#x151;" horiz-adv-x="1923" 
d="M963 -41q-247 0 -435.5 79t-292.5 226t-104 340q0 194 104 341t292.5 226.5t435.5 79.5q246 0 434 -79.5t291.5 -226.5t103.5 -341q0 -193 -103.5 -340t-291.5 -226t-434 -79zM401 604q0 -194 155 -312t407 -118q250 0 404.5 118t154.5 312q0 196 -154.5 314t-404.5 118
q-252 0 -407 -118t-155 -314zM508 1391v153l403 164v-154zM1012 1391v153l401 164v-154z" />
    <glyph glyph-name="OE" unicode="&#x152;" horiz-adv-x="3418" 
d="M1104 -41q-440 0 -701.5 209.5t-261.5 558.5q0 230 117.5 402.5t336 266t509.5 93.5q232 0 418.5 -61t314.5 -175v199h1430v-211h-1156v-416h1115v-196h-1115v-416h1156v-213h-1430v197q-127 -115 -314 -176.5t-419 -61.5zM426 727q0 -241 182.5 -387.5t495.5 -146.5
q311 0 494.5 147.5t183.5 386.5q0 238 -182.5 384t-495.5 146t-495.5 -146t-182.5 -384z" />
    <glyph glyph-name="oe" unicode="&#x153;" horiz-adv-x="3301" 
d="M963 -41q-247 0 -435.5 79t-292.5 226t-104 340q0 194 104 341t292.5 226.5t435.5 79.5q226 0 403 -67t285 -191q105 125 283 191.5t411 66.5q388 0 602.5 -189.5t214.5 -555.5h-1354q31 -161 174 -245.5t385 -84.5q197 0 326.5 58t169.5 163h281q-56 -209 -257 -323.5
t-528 -114.5q-241 0 -422 66t-288 190q-106 -122 -284 -189t-402 -67zM401 604q0 -194 155 -312t407 -118q230 0 381 101.5t174 271.5q-2 18 -2 57q0 40 2 58q-23 172 -173.5 273t-381.5 101q-252 0 -407 -118t-155 -314zM1812 717h1057q-71 319 -522 319q-225 0 -362 -79.5
t-173 -239.5z" />
    <glyph glyph-name="Racute" unicode="&#x154;" horiz-adv-x="2023" 
d="M162 0v1452h1112q565 0 565 -418q0 -145 -77 -241t-226 -134q134 -5 213.5 -78t79.5 -200v-381h-273v342q0 97 -48 141.5t-148 44.5h-924v-528h-274zM436 754h781q171 0 255 57t84 186q0 126 -83.5 179t-255.5 53h-781v-475zM567 1630v150l754 164v-150z" />
    <glyph glyph-name="racute" unicode="&#x155;" horiz-adv-x="1409" 
d="M162 0v1210h270v-237q120 152 252.5 215t294.5 63q171 0 319 -53v-235q-163 51 -329 51q-61 0 -118 -10t-126.5 -36t-144.5 -79t-148 -131v-758h-270zM328 1386v150l753 164v-150z" />
    <glyph glyph-name="uni0156" unicode="&#x156;" horiz-adv-x="2023" 
d="M162 0v1452h1112q565 0 565 -418q0 -145 -77 -241t-226 -134q134 -5 213.5 -78t79.5 -200v-381h-273v342q0 97 -48 141.5t-148 44.5h-924v-528h-274zM436 754h781q171 0 255 57t84 186q0 126 -83.5 179t-255.5 53h-781v-475zM879 -328v181h272v-181l-150 -209h-118
l98 209h-102z" />
    <glyph glyph-name="uni0157" unicode="&#x157;" horiz-adv-x="1409" 
d="M162 0v1210h270v-237q120 152 252.5 215t294.5 63q171 0 319 -53v-235q-163 51 -329 51q-61 0 -118 -10t-126.5 -36t-144.5 -79t-148 -131v-758h-270zM170 -328v181h272v-181l-149 -209h-119l98 209h-102z" />
    <glyph glyph-name="Rcaron" unicode="&#x158;" horiz-adv-x="2023" 
d="M162 0v1452h1112q565 0 565 -418q0 -145 -77 -241t-226 -134q134 -5 213.5 -78t79.5 -200v-381h-273v342q0 97 -48 141.5t-148 44.5h-924v-528h-274zM436 754h781q171 0 255 57t84 186q0 126 -83.5 179t-255.5 53h-781v-475zM563 1772v151l381 -160l381 160v-151
l-381 -164z" />
    <glyph glyph-name="rcaron" unicode="&#x159;" horiz-adv-x="1409" 
d="M162 0v1210h270v-237q120 152 252.5 215t294.5 63q171 0 319 -53v-235q-163 51 -329 51q-61 0 -118 -10t-126.5 -36t-144.5 -79t-148 -131v-758h-270zM324 1528v151l381 -159l380 159v-151l-380 -164z" />
    <glyph glyph-name="Sacute" unicode="&#x15a;" horiz-adv-x="1996" 
d="M1040 -41q-228 0 -391 27t-280 88t-175.5 162.5t-62.5 248.5h285q0 -172 146 -246.5t478 -74.5q290 0 416.5 54t126.5 183q0 33 -5.5 58t-20.5 46t-34 35.5t-54.5 27t-73 20.5t-98 15.5t-121.5 12.5t-150 11l-82 6q-289 18 -454.5 66t-240.5 138.5t-75 239.5
q0 212 200 312t591 100q415 0 624 -124.5t215 -377.5h-282q0 164 -142 230.5t-438 66.5q-264 0 -374.5 -47t-110.5 -160q0 -43 10.5 -74.5t37 -55.5t63.5 -40t99.5 -28.5t134.5 -20.5t179 -16l86 -6q127 -9 207.5 -17t174 -22.5t150 -34t113.5 -50.5t87 -72t48.5 -98.5
t18.5 -131.5q0 -102 -37 -179t-105 -128.5t-172 -83.5t-228.5 -46t-283.5 -14zM621 1630v150l753 164v-150z" />
    <glyph glyph-name="sacute" unicode="&#x15b;" horiz-adv-x="1830" 
d="M946 -41q-798 0 -819 428h297q13 -102 148.5 -151.5t400.5 -49.5q471 0 471 156q0 73 -106 110.5t-367 59.5l-121 10q-362 31 -522 117t-160 250q0 362 727 362q361 0 550 -94.5t214 -290.5h-297q-22 86 -131 122t-348 36q-230 0 -342.5 -31.5t-112.5 -99.5
q0 -66 100.5 -98t364.5 -52l135 -10q362 -28 519 -114t157 -263q0 -397 -758 -397zM545 1366v150l753 163v-149z" />
    <glyph glyph-name="Scedilla" unicode="&#x15e;" horiz-adv-x="1996" 
d="M799 -385q407 -64 407 82q0 37 -27.5 57.5t-70.5 22.5q-62 3 -131 -37l-107 24l45 197q-393 14 -585 135t-199 389h285q0 -172 146 -246.5t478 -74.5q290 0 416.5 54t126.5 183q0 33 -5.5 58t-20.5 46t-34 35.5t-54.5 27t-73 20.5t-98 15.5t-121.5 12.5t-150 11l-82 6
q-289 18 -454.5 66t-240.5 138.5t-75 239.5q0 212 200 312t591 100q415 0 624 -124.5t215 -377.5h-282q0 164 -142 230.5t-438 66.5q-264 0 -374.5 -47t-110.5 -160q0 -43 10.5 -74.5t37 -55.5t63.5 -40t99.5 -28.5t134.5 -20.5t179 -16l86 -6q127 -9 207.5 -17t174 -22.5
t150 -34t113.5 -50.5t87 -72t48.5 -98.5t18.5 -131.5q0 -101 -36.5 -178t-103.5 -128t-169 -83.5t-224.5 -46.5t-279.5 -15l-25 -104q70 24 156 24q90 0 146 -44.5t56 -133.5q0 -62 -33 -107.5t-88.5 -71t-131.5 -37.5t-159 -10.5t-175 13.5v127z" />
    <glyph glyph-name="scedilla" unicode="&#x15f;" horiz-adv-x="1830" 
d="M723 -385q407 -64 407 82q0 37 -27.5 57.5t-70.5 22.5q-62 3 -131 -37l-106 24l45 197q-692 27 -713 426h297q13 -102 148.5 -151.5t400.5 -49.5q471 0 471 156q0 73 -106 110.5t-367 59.5l-121 10q-362 31 -522 117t-160 250q0 362 727 362q361 0 550 -94.5t214 -290.5
h-297q-22 86 -131 122t-348 36q-230 0 -342.5 -31.5t-112.5 -99.5q0 -66 100.5 -98t364.5 -52l135 -10q362 -28 519 -114t157 -263q0 -388 -727 -397l-25 -104q70 24 156 24q90 0 146.5 -44.5t56.5 -133.5q0 -62 -33 -107.5t-88.5 -71t-132 -37.5t-159.5 -10.5t-175 13.5
v127z" />
    <glyph glyph-name="Scaron" unicode="&#x160;" horiz-adv-x="1996" 
d="M1040 -41q-228 0 -391 27t-280 88t-175.5 162.5t-62.5 248.5h285q0 -172 146 -246.5t478 -74.5q290 0 416.5 54t126.5 183q0 33 -5.5 58t-20.5 46t-34 35.5t-54.5 27t-73 20.5t-98 15.5t-121.5 12.5t-150 11l-82 6q-289 18 -454.5 66t-240.5 138.5t-75 239.5
q0 212 200 312t591 100q415 0 624 -124.5t215 -377.5h-282q0 164 -142 230.5t-438 66.5q-264 0 -374.5 -47t-110.5 -160q0 -43 10.5 -74.5t37 -55.5t63.5 -40t99.5 -28.5t134.5 -20.5t179 -16l86 -6q127 -9 207.5 -17t174 -22.5t150 -34t113.5 -50.5t87 -72t48.5 -98.5
t18.5 -131.5q0 -102 -37 -179t-105 -128.5t-172 -83.5t-228.5 -46t-283.5 -14zM616 1772v151l381 -160l381 160v-151l-381 -164z" />
    <glyph glyph-name="scaron" unicode="&#x161;" horiz-adv-x="1830" 
d="M946 -41q-798 0 -819 428h297q13 -102 148.5 -151.5t400.5 -49.5q471 0 471 156q0 73 -106 110.5t-367 59.5l-121 10q-362 31 -522 117t-160 250q0 362 727 362q361 0 550 -94.5t214 -290.5h-297q-22 86 -131 122t-348 36q-230 0 -342.5 -31.5t-112.5 -99.5
q0 -66 100.5 -98t364.5 -52l135 -10q362 -28 519 -114t157 -263q0 -397 -758 -397zM541 1507v152l381 -160l381 160v-152l-381 -164z" />
    <glyph glyph-name="uni0162" unicode="&#x162;" horiz-adv-x="1957" 
d="M141 1219v233h1676v-233h-701v-1219h-78l-28 -125q73 25 155 25q90 0 146.5 -45t56.5 -134q0 -62 -33 -107.5t-88.5 -71t-132 -37.5t-159.5 -10.5t-175 13.5v127q408 -64 408 82q0 37 -27.5 57.5t-70.5 22.5q-63 3 -132 -37l-106 25l49 215h-57v1219h-703z" />
    <glyph glyph-name="uni0163" unicode="&#x163;" horiz-adv-x="1417" 
d="M936 -41h-41l-23 -94q70 24 156 24q90 0 146.5 -44.5t56.5 -133.5q0 -62 -33 -107.5t-88.5 -71t-132 -37.5t-159.5 -10.5t-175 13.5v127q408 -64 408 82q0 37 -28 57.5t-71 22.5q-62 3 -131 -37l-106 25l45 196q-165 27 -246.5 123t-81.5 285v627h-311v204h311v275
l268 82v-357h588v-204h-588v-541q0 -84 17 -139t55 -86t90 -43.5t129 -12.5q112 0 297 37v-221q-209 -41 -352 -41z" />
    <glyph glyph-name="Tcaron" unicode="&#x164;" horiz-adv-x="1957" 
d="M141 1219v233h1676v-233h-701v-1219h-272v1219h-703zM598 1772v151l381 -160l381 160v-151l-381 -164z" />
    <glyph glyph-name="tcaron" unicode="&#x165;" horiz-adv-x="1794" 
d="M936 -41q-127 0 -217 20.5t-156.5 68t-98.5 129.5t-32 202v627h-311v204h311v275l268 82v-357h588v-204h-588v-541q0 -84 17 -139t55 -86t90 -43.5t129 -12.5q112 0 297 37v-221q-209 -41 -352 -41zM1364 1403v235h289v-208l-133 -332h-131l94 305h-119z" />
    <glyph glyph-name="Tbar" unicode="&#x166;" horiz-adv-x="1957" 
d="M141 1219v233h1676v-233h-701v-500h475v-129h-475v-590h-272v590h-479v129h479v500h-703z" />
    <glyph glyph-name="tbar" unicode="&#x167;" horiz-adv-x="1417" 
d="M121 612v129h311v265h-311v204h311v275l268 82v-357h588v-204h-588v-265h588v-129h-588v-147q0 -84 17 -139t55 -86t90 -43.5t129 -12.5q112 0 297 37v-221q-209 -41 -352 -41q-127 0 -217 20.5t-156.5 68t-98.5 129.5t-32 202v233h-311z" />
    <glyph glyph-name="Umacron" unicode="&#x16a;" horiz-adv-x="2019" 
d="M1010 -41q-231 0 -397.5 54t-264 155.5t-142 235t-44.5 305.5v743h274v-735q0 -524 574 -524q571 0 571 524v735h274v-743q0 -137 -27 -249t-89.5 -206.5t-159 -158.5t-240.5 -100t-329 -36zM571 1690v129h875v-129h-875z" />
    <glyph glyph-name="umacron" unicode="&#x16b;" horiz-adv-x="1939" 
d="M1780 1210v-1210h-287v262q-118 -148 -297 -225.5t-410 -77.5q-151 0 -263 32.5t-195 105.5t-125.5 197t-42.5 300v616h286v-520q0 -265 110 -378t359 -113q260 0 419 134t159 367v510h287zM510 1446v129h874v-129h-874z" />
    <glyph glyph-name="Uring" unicode="&#x16e;" horiz-adv-x="2019" 
d="M1010 -41q-231 0 -397.5 54t-264 155.5t-142 235t-44.5 305.5v743h274v-735q0 -524 574 -524q571 0 571 524v735h274v-743q0 -137 -27 -249t-89.5 -206.5t-159 -158.5t-240.5 -100t-329 -36zM604 1823q0 237 408 237q405 0 405 -237q0 -238 -405 -238q-408 0 -408 238z
M754 1823q0 -67 63.5 -97t194.5 -30t192.5 30t61.5 97q0 66 -62 96.5t-192 30.5q-258 0 -258 -127z" />
    <glyph glyph-name="uring" unicode="&#x16f;" horiz-adv-x="1939" 
d="M1780 1210v-1210h-287v262q-118 -148 -297 -225.5t-410 -77.5q-151 0 -263 32.5t-195 105.5t-125.5 197t-42.5 300v616h286v-520q0 -265 110 -378t359 -113q260 0 419 134t159 367v510h287zM543 1579q0 238 407 238q406 0 406 -238t-406 -238q-407 0 -407 238zM692 1579
q0 -67 63.5 -97t194.5 -30t192.5 30t61.5 97q0 66 -62 96.5t-192 30.5q-258 0 -258 -127z" />
    <glyph glyph-name="Uhungarumlaut" unicode="&#x170;" horiz-adv-x="2019" 
d="M1010 -41q-231 0 -397.5 54t-264 155.5t-142 235t-44.5 305.5v743h274v-735q0 -524 574 -524q571 0 571 524v735h274v-743q0 -137 -27 -249t-89.5 -206.5t-159 -158.5t-240.5 -100t-329 -36zM557 1634v154l404 164v-154zM1061 1634v154l401 164v-154z" />
    <glyph glyph-name="uhungarumlaut" unicode="&#x171;" horiz-adv-x="1939" 
d="M1780 1210v-1210h-287v262q-118 -148 -297 -225.5t-410 -77.5q-151 0 -263 32.5t-195 105.5t-125.5 197t-42.5 300v616h286v-520q0 -265 110 -378t359 -113q260 0 419 134t159 367v510h287zM496 1391v153l403 164v-154zM999 1391v153l402 164v-154z" />
    <glyph glyph-name="Uogonek" unicode="&#x172;" horiz-adv-x="2019" 
d="M1010 -41q-231 0 -397.5 54t-264 155.5t-142 235t-44.5 305.5v743h274v-735q0 -524 574 -524q571 0 571 524v735h274v-743q0 -580 -501 -711q-76 -63 -104.5 -105t-28.5 -92q0 -75 70.5 -107t240.5 -32v-145q-268 0 -378 52t-110 177q0 117 117 219q-70 -6 -151 -6z" />
    <glyph glyph-name="uogonek" unicode="&#x173;" horiz-adv-x="1939" 
d="M1780 1210v-1210h-140q-78 -64 -106.5 -106.5t-28.5 -92.5q0 -75 71 -107t241 -32v-145q-268 0 -378 52t-110 177q0 137 164 258v258q-118 -148 -297 -225.5t-410 -77.5q-151 0 -263 32.5t-195 105.5t-125.5 197t-42.5 300v616h286v-520q0 -265 110 -378t359 -113
q260 0 419 134t159 367v510h287z" />
    <glyph glyph-name="Wcircumflex" unicode="&#x174;" horiz-adv-x="3362" 
d="M711 0l-570 1452h281l485 -1249l594 1249h359l596 -1249l485 1249h278l-567 -1452h-383l-588 1245l-587 -1245h-383zM1300 1616v151l381 164l381 -164v-151l-381 160z" />
    <glyph glyph-name="wcircumflex" unicode="&#x175;" horiz-adv-x="3080" 
d="M686 0l-555 1210h295l448 -1009l492 1009h348l492 -1007l448 1007h295l-555 -1210h-371l-483 979l-483 -979h-371zM1159 1372v152l381 164l381 -164v-152l-381 160z" />
    <glyph glyph-name="Ycircumflex" unicode="&#x176;" horiz-adv-x="2199" 
d="M963 0v489l-822 963h344l615 -735l616 735h340l-819 -963v-489h-274zM719 1616v151l381 164l381 -164v-151l-381 160z" />
    <glyph glyph-name="ycircumflex" unicode="&#x177;" horiz-adv-x="1937" 
d="M557 -532q-152 0 -362 53v207q226 -45 327 -45q36 0 65 3.5t55 13.5t45 20.5t40.5 33t37 42t37.5 56t38 66.5t43 82h-119l-633 1210h293l545 -1044l544 1044h293l-641 -1230q-54 -105 -96.5 -176t-98.5 -140t-113.5 -108.5t-133.5 -63.5t-166 -24zM586 1372v152l381 164
l381 -164v-152l-381 160z" />
    <glyph glyph-name="Ydieresis" unicode="&#x178;" horiz-adv-x="2199" 
d="M963 0v489l-822 963h344l615 -735l616 735h340l-819 -963v-489h-274zM743 1655v164h234v-164h-234zM1223 1655v164h233v-164h-233z" />
    <glyph glyph-name="Zacute" unicode="&#x179;" horiz-adv-x="1875" 
d="M162 0v233l1171 986h-1171v233h1550v-233l-1171 -986h1171v-233h-1550zM559 1630v150l754 164v-150z" />
    <glyph glyph-name="zacute" unicode="&#x17a;" horiz-adv-x="1681" 
d="M162 0v205l1016 801h-1016v204h1358v-204l-1016 -801h1016v-205h-1358zM463 1386v150l754 164v-150z" />
    <glyph glyph-name="Zdotaccent" unicode="&#x17b;" horiz-adv-x="1875" 
d="M162 0v233l1171 986h-1171v233h1550v-233l-1171 -986h1171v-233h-1550zM809 1669v150h256v-150h-256z" />
    <glyph glyph-name="zdotaccent" unicode="&#x17c;" horiz-adv-x="1681" 
d="M162 0v205l1016 801h-1016v204h1358v-204l-1016 -801h1016v-205h-1358zM713 1425v150h256v-150h-256z" />
    <glyph glyph-name="Zcaron" unicode="&#x17d;" horiz-adv-x="1875" 
d="M162 0v233l1171 986h-1171v233h1550v-233l-1171 -986h1171v-233h-1550zM557 1772v151l381 -160l381 160v-151l-381 -164z" />
    <glyph glyph-name="zcaron" unicode="&#x17e;" horiz-adv-x="1681" 
d="M162 0v205l1016 801h-1016v204h1358v-204l-1016 -801h1016v-205h-1358zM461 1528v151l381 -159l381 159v-151l-381 -164z" />
    <glyph glyph-name="uni0218" unicode="&#x218;" horiz-adv-x="1996" 
d="M1040 -41q-228 0 -391 27t-280 88t-175.5 162.5t-62.5 248.5h285q0 -172 146 -246.5t478 -74.5q290 0 416.5 54t126.5 183q0 33 -5.5 58t-20.5 46t-34 35.5t-54.5 27t-73 20.5t-98 15.5t-121.5 12.5t-150 11l-82 6q-289 18 -454.5 66t-240.5 138.5t-75 239.5
q0 212 200 312t591 100q415 0 624 -124.5t215 -377.5h-282q0 164 -142 230.5t-438 66.5q-264 0 -374.5 -47t-110.5 -160q0 -43 10.5 -74.5t37 -55.5t63.5 -40t99.5 -28.5t134.5 -20.5t179 -16l86 -6q127 -9 207.5 -17t174 -22.5t150 -34t113.5 -50.5t87 -72t48.5 -98.5
t18.5 -131.5q0 -102 -37 -179t-105 -128.5t-172 -83.5t-228.5 -46t-283.5 -14zM870 -348v180h273v-180l-150 -209h-119l99 209h-103z" />
    <glyph glyph-name="uni0219" unicode="&#x219;" horiz-adv-x="1830" 
d="M946 -41q-798 0 -819 428h297q13 -102 148.5 -151.5t400.5 -49.5q471 0 471 156q0 73 -106 110.5t-367 59.5l-121 10q-362 31 -522 117t-160 250q0 362 727 362q361 0 550 -94.5t214 -290.5h-297q-22 86 -131 122t-348 36q-230 0 -342.5 -31.5t-112.5 -99.5
q0 -66 100.5 -98t364.5 -52l135 -10q362 -28 519 -114t157 -263q0 -397 -758 -397zM795 -348v180h272v-180l-149 -209h-119l98 209h-102z" />
    <glyph glyph-name="uni021A" unicode="&#x21a;" horiz-adv-x="1957" 
d="M141 1219v233h1676v-233h-701v-1219h-272v1219h-703zM852 -328v181h272v-181l-149 -209h-119l98 209h-102z" />
    <glyph glyph-name="uni021B" unicode="&#x21b;" horiz-adv-x="1417" 
d="M936 -41q-127 0 -217 20.5t-156.5 68t-98.5 129.5t-32 202v627h-311v204h311v275l268 82v-357h588v-204h-588v-541q0 -84 17 -139t55 -86t90 -43.5t129 -12.5q112 0 297 37v-221q-209 -41 -352 -41zM717 -338v180h272v-180l-149 -209h-119l98 209h-102z" />
    <glyph glyph-name="uni0237" unicode="&#x237;" horiz-adv-x="993" 
d="M412 -532q-149 0 -332 36v189q190 -33 274 -33q126 0 166.5 55t40.5 217v1278h270v-1263q0 -239 -96 -359t-323 -120z" />
    <glyph glyph-name="circumflex" unicode="&#x2c6;" horiz-adv-x="1069" 
d="M205 1372v152l381 164l381 -164v-152l-381 160z" />
    <glyph glyph-name="caron" unicode="&#x2c7;" horiz-adv-x="1069" 
d="M586 1364l-381 164v151l381 -159l381 159v-151z" />
    <glyph glyph-name="breve" unicode="&#x2d8;" horiz-adv-x="1163" 
d="M633 1376q-428 0 -428 353h162q0 -112 65 -158.5t201 -46.5t201 46.5t65 158.5h162q0 -353 -428 -353z" />
    <glyph glyph-name="dotaccent" unicode="&#x2d9;" horiz-adv-x="563" 
d="M205 1425v150h256v-150h-256z" />
    <glyph glyph-name="ring" unicode="&#x2da;" horiz-adv-x="1120" 
d="M612 1341q-407 0 -407 238t407 238q406 0 406 -238t-406 -238zM354 1579q0 -67 63.5 -97t194.5 -30t192.5 30t61.5 97q0 66 -62 96.5t-192 30.5q-258 0 -258 -127z" />
    <glyph glyph-name="ogonek" unicode="&#x2db;" horiz-adv-x="794" 
d="M692 -483q-268 0 -377.5 52t-109.5 177q0 75 44 140t138 130l129 -16q-78 -64 -106.5 -106.5t-28.5 -92.5q0 -75 70.5 -107t240.5 -32v-145z" />
    <glyph glyph-name="tilde" unicode="&#x2dc;" horiz-adv-x="1339" 
d="M934 1352q-68 0 -119.5 22t-83.5 53t-60.5 62.5t-67 53.5t-87.5 22q-74 0 -117 -54.5t-43 -150.5h-151q0 167 81 261.5t222 94.5q50 0 91 -12t68.5 -31t51 -42t44.5 -45.5t43 -41.5t52 -31t66 -12q75 0 118 54.5t43 150.5h152q0 -167 -80 -260.5t-223 -93.5z" />
    <glyph glyph-name="hungarumlaut" unicode="&#x2dd;" horiz-adv-x="1212" 
d="M709 1391v153l401 164v-154zM205 1391v153l403 164v-154z" />
    <glyph glyph-name="gravecomb" unicode="&#x300;" 
d="M856 1386l-754 164v150l754 -164v-150z" />
    <glyph glyph-name="acutecomb" unicode="&#x301;" 
d="M102 1386v150l754 164v-150z" />
    <glyph glyph-name="uni0302" unicode="&#x302;" 
d="M102 1372v152l381 164l381 -164v-152l-381 160z" />
    <glyph glyph-name="tildecomb" unicode="&#x303;" 
d="M831 1352q-68 0 -119.5 22t-83.5 53t-60.5 62.5t-66.5 53.5t-87 22q-74 0 -117 -54.5t-43 -150.5h-152q0 167 81.5 261.5t222.5 94.5q50 0 91 -12t68.5 -31t51 -42t44.5 -45.5t42.5 -41.5t51.5 -31t66 -12q75 0 118.5 54.5t43.5 150.5h152q0 -167 -80.5 -260.5
t-223.5 -93.5z" />
    <glyph glyph-name="uni0304" unicode="&#x304;" 
d="M102 1446v129h875v-129h-875z" />
    <glyph glyph-name="uni0306" unicode="&#x306;" 
d="M530 1376q-428 0 -428 353h162q0 -112 65 -158.5t201 -46.5t201.5 46.5t65.5 158.5h161q0 -353 -428 -353z" />
    <glyph glyph-name="uni0307" unicode="&#x307;" 
d="M102 1425v150h256v-150h-256z" />
    <glyph glyph-name="uni0308" unicode="&#x308;" 
d="M582 1411v164h233v-164h-233zM102 1411v164h234v-164h-234z" />
    <glyph glyph-name="uni030A" unicode="&#x30a;" 
d="M510 1341q-408 0 -408 238t408 238q405 0 405 -238t-405 -238zM252 1579q0 -67 63.5 -97t194.5 -30t192.5 30t61.5 97q0 66 -62 96.5t-192 30.5q-258 0 -258 -127z" />
    <glyph glyph-name="uni030B" unicode="&#x30b;" 
d="M606 1391v153l402 164v-154zM102 1391v153l404 164v-154z" />
    <glyph glyph-name="uni030C" unicode="&#x30c;" 
d="M483 1364l-381 164v151l381 -159l381 159v-151z" />
    <glyph glyph-name="uni0312" unicode="&#x312;" 
d="M102 1440v180l150 209h119l-101 -209h105v-180h-273z" />
    <glyph glyph-name="uni0326" unicode="&#x326;" 
d="M106 -537l99 209h-103v181h273v-181l-150 -209h-119z" />
    <glyph glyph-name="uni0327" unicode="&#x327;" 
d="M102 -365q408 -64 408 82q0 37 -27.5 57.5t-70.5 22.5q-62 3 -131 -37l-107 25l49 215h137l-28 -125q73 25 155 25q90 0 146.5 -45t56.5 -134q0 -62 -33 -107.5t-88.5 -71t-132 -37.5t-159.5 -10.5t-175 13.5v127z" />
    <glyph glyph-name="uni0328" unicode="&#x328;" 
d="M590 -483q-268 0 -378 52t-110 177q0 75 44.5 139.5t138.5 130.5l129 -16q-78 -64 -106.5 -106.5t-28.5 -92.5q0 -75 70.5 -107t240.5 -32v-145z" />
    <glyph glyph-name="uni0335" unicode="&#x335;" 
d="M102 633v129h897v-129h-897z" />
    <glyph glyph-name="uni0336" unicode="&#x336;" 
d="M102 633v129h1962v-129h-1962z" />
    <glyph glyph-name="uni0337" unicode="&#x337;" 
d="M276 -307l558 1853h258l-557 -1853h-259z" />
    <glyph glyph-name="uni0338" unicode="&#x338;" 
d="M102 -254l533 1782h168l-533 -1782h-168z" />
    <glyph glyph-name="Wgrave" unicode="&#x1e80;" horiz-adv-x="3362" 
d="M711 0l-570 1452h281l485 -1249l594 1249h359l596 -1249l485 1249h278l-567 -1452h-383l-588 1245l-587 -1245h-383zM1305 1794v150l753 -164v-150z" />
    <glyph glyph-name="wgrave" unicode="&#x1e81;" horiz-adv-x="3080" 
d="M686 0l-555 1210h295l448 -1009l492 1009h348l492 -1007l448 1007h295l-555 -1210h-371l-483 979l-483 -979h-371zM1163 1550v150l754 -164v-150z" />
    <glyph glyph-name="Wacute" unicode="&#x1e82;" horiz-adv-x="3362" 
d="M711 0l-570 1452h281l485 -1249l594 1249h359l596 -1249l485 1249h278l-567 -1452h-383l-588 1245l-587 -1245h-383zM1305 1630v150l753 164v-150z" />
    <glyph glyph-name="wacute" unicode="&#x1e83;" horiz-adv-x="3080" 
d="M686 0l-555 1210h295l448 -1009l492 1009h348l492 -1007l448 1007h295l-555 -1210h-371l-483 979l-483 -979h-371zM1163 1386v150l754 164v-150z" />
    <glyph glyph-name="Wdieresis" unicode="&#x1e84;" horiz-adv-x="3362" 
d="M711 0l-570 1452h281l485 -1249l594 1249h359l596 -1249l485 1249h278l-567 -1452h-383l-588 1245l-587 -1245h-383zM1325 1655v164h234v-164h-234zM1804 1655v164h234v-164h-234z" />
    <glyph glyph-name="wdieresis" unicode="&#x1e85;" horiz-adv-x="3080" 
d="M686 0l-555 1210h295l448 -1009l492 1009h348l492 -1007l448 1007h295l-555 -1210h-371l-483 979l-483 -979h-371zM1184 1411v164h233v-164h-233zM1663 1411v164h233v-164h-233z" />
    <glyph glyph-name="Ygrave" unicode="&#x1ef2;" horiz-adv-x="2199" 
d="M963 0v489l-822 963h344l615 -735l616 735h340l-819 -963v-489h-274zM723 1794v150l754 -164v-150z" />
    <glyph glyph-name="ygrave" unicode="&#x1ef3;" horiz-adv-x="1937" 
d="M557 -532q-152 0 -362 53v207q226 -45 327 -45q36 0 65 3.5t55 13.5t45 20.5t40.5 33t37 42t37.5 56t38 66.5t43 82h-119l-633 1210h293l545 -1044l544 1044h293l-641 -1230q-54 -105 -96.5 -176t-98.5 -140t-113.5 -108.5t-133.5 -63.5t-166 -24zM588 1550v150l753 -164
v-150z" />
    <glyph glyph-name="endash" unicode="&#x2013;" horiz-adv-x="2369" 
d="M203 594v205h1962v-205h-1962z" />
    <glyph glyph-name="emdash" unicode="&#x2014;" horiz-adv-x="2779" 
d="M203 594v205h2371v-205h-2371z" />
    <glyph glyph-name="quoteleft" unicode="&#x2018;" horiz-adv-x="710" 
d="M539 1579l-88 -721h-267l123 721h232z" />
    <glyph glyph-name="quoteright" unicode="&#x2019;" horiz-adv-x="698" 
d="M172 858l88 721h266l-123 -721h-231z" />
    <glyph glyph-name="quotesinglbase" unicode="&#x201a;" horiz-adv-x="645" 
d="M190 -369l97 369h-135v252h321v-252l-151 -369h-132z" />
    <glyph glyph-name="quotedblleft" unicode="&#x201c;" horiz-adv-x="1183" 
d="M1012 1579l-88 -721h-267l123 721h232zM172 858l123 721h231l-88 -721h-266z" />
    <glyph glyph-name="quotedblright" unicode="&#x201d;" horiz-adv-x="1183" 
d="M172 858l88 721h266l-123 -721h-231zM655 858l88 721h267l-123 -721h-232z" />
    <glyph glyph-name="quotedblbase" unicode="&#x201e;" horiz-adv-x="1085" 
d="M631 -369l96 369h-135v252h321v-252l-151 -369h-131zM152 0v252h321v-252l-151 -369h-132l97 369h-135z" />
    <glyph glyph-name="dagger" unicode="&#x2020;" horiz-adv-x="1802" 
d="M778 -307v1290h-616v227h616v342h248v-342h612v-227h-612v-1290h-248z" />
    <glyph glyph-name="daggerdbl" unicode="&#x2021;" horiz-adv-x="1802" 
d="M162 242v225h616v516h-616v227h616v342h248v-342h612v-227h-612v-516h612v-225h-612v-549h-248v549h-616z" />
    <glyph glyph-name="bullet" unicode="&#x2022;" horiz-adv-x="890" 
d="M446 449q-145 0 -214.5 49t-69.5 153q0 101 69.5 150t214.5 49q143 0 212 -49t69 -150q0 -104 -69 -153t-212 -49z" />
    <glyph glyph-name="ellipsis" unicode="&#x2026;" horiz-adv-x="1652" 
d="M152 0v252h321v-252h-321zM666 0v252h321v-252h-321zM1180 0v252h321v-252h-321z" />
    <glyph glyph-name="perthousand" unicode="&#x2030;" horiz-adv-x="3983" 
d="M3328 -41q-105 0 -192.5 27t-147 72t-101 105t-60.5 125t-19 132t19 132t60.5 125t101 105t147 72t192.5 27q106 0 195 -27t148.5 -72t101 -105t60.5 -125t19 -132t-19 -132t-60.5 -125t-101 -105t-148.5 -72t-195 -27zM162 1036q0 85 31.5 164t93 145t164.5 106t233 40
q131 0 234.5 -40t164.5 -106t92 -145t31 -164q0 -68 -19 -132.5t-60 -123.5t-101 -103t-148 -70.5t-194 -26.5q-130 0 -233 39.5t-164.5 106t-93 145.5t-31.5 165zM375 1038q0 -130 85 -208t224 -78q140 0 225.5 78t85.5 208q0 129 -85.5 206t-225.5 77q-139 0 -224 -77.5
t-85 -205.5zM760 0l1081 1456h236l-1082 -1456h-235zM1630 414q0 68 19 132.5t60 123.5t101 103t148 70.5t194 26.5q105 0 192.5 -26.5t147.5 -70.5t101.5 -103t60.5 -123.5t19 -132.5q0 -85 -31.5 -164t-92.5 -145t-164 -106t-233 -40q-131 0 -234.5 40t-164.5 106t-92 145
t-31 164zM1841 414q0 -129 85.5 -207t225.5 -78q139 0 224.5 78.5t85.5 206.5q0 130 -85.5 207t-224.5 77q-140 0 -225.5 -77t-85.5 -207zM3021 422q0 -129 84.5 -210t222.5 -81q139 0 225 81t86 210t-85.5 208t-225.5 79q-138 0 -222.5 -79t-84.5 -208z" />
    <glyph glyph-name="guilsinglleft" unicode="&#x2039;" horiz-adv-x="1185" 
d="M694 0l-532 604l532 606h330l-532 -604l532 -606h-330z" />
    <glyph glyph-name="guilsinglright" unicode="&#x203a;" horiz-adv-x="1185" 
d="M492 1210l532 -604l-532 -606h-330l532 606l-532 604h330z" />
    <glyph glyph-name="fraction" unicode="&#x2044;" horiz-adv-x="1163" 
d="M174 -307l557 1853h258l-557 -1853h-258z" />
    <glyph glyph-name="Euro" unicode="&#x20ac;" horiz-adv-x="2136" 
d="M1319 -43q-430 0 -664.5 125t-300.5 391h-194v176h170q-2 23 -2 72q0 45 2 65h-170v177h192q64 273 300 400.5t669 127.5q372 0 661 -82v-235q-293 81 -610 81q-291 0 -462 -71t-238 -221h1073v-177h-1114q-2 -20 -2 -61q0 -26 4 -76h1112v-176h-1065
q69 -141 237.5 -208.5t450.5 -67.5q328 0 614 82v-240q-292 -82 -663 -82z" />
    <glyph glyph-name="trademark" unicode="&#x2122;" horiz-adv-x="2392" 
d="M119 1294v158h852v-158h-338v-559h-178v559h-336zM1094 735v717h256l303 -530l303 530h256v-717h-178v541l-305 -541h-162l-295 539v-539h-178z" />
    <glyph glyph-name="arrowleft" unicode="&#x2190;" horiz-adv-x="2347" 
d="M786 8l-583 608l583 605l132 -123l-396 -391h1620v-185h-1620l396 -391z" />
    <glyph glyph-name="arrowup" unicode="&#x2191;" horiz-adv-x="1542" 
d="M1378 907l-123 -131l-393 398v-1174h-182v1174l-393 -398l-123 131l606 584z" />
    <glyph glyph-name="arrowright" unicode="&#x2192;" horiz-adv-x="2347" 
d="M1559 8l-129 123l395 391h-1622v185h1622l-395 391l129 123l583 -605z" />
    <glyph glyph-name="arrowdown" unicode="&#x2193;" horiz-adv-x="1542" 
d="M1378 541l-608 -584l-606 584l123 131l393 -398v1178h182v-1178l393 398z" />
    <glyph glyph-name="arrowboth" unicode="&#x2194;" horiz-adv-x="2797" 
d="M786 6l-583 608l583 607l132 -125l-396 -391h1753l-395 391l131 125l584 -607l-584 -608l-131 123l397 393h-1757l398 -393z" />
    <glyph glyph-name="arrowupdn" unicode="&#x2195;" horiz-adv-x="1542" 
d="M770 -193l-606 584l123 129l393 -395v1198l-393 -397l-123 129l606 583l608 -583l-123 -129l-393 397v-1198l393 395l123 -129z" />
    <glyph glyph-name="uni2196" unicode="&#x2196;" horiz-adv-x="1740" 
d="M143 592l19 842l839 16l5 -180l-555 4l1146 -1143l-129 -131l-1149 1145l3 -559z" />
    <glyph glyph-name="uni2197" unicode="&#x2197;" horiz-adv-x="1734" 
d="M1591 590l-178 -4l2 557l-1143 -1143l-131 131l1145 1141l-557 -2l4 178l840 -14z" />
    <glyph glyph-name="uni2198" unicode="&#x2198;" horiz-adv-x="1740" 
d="M1597 862l-18 -844l-840 -16l-6 180l557 -4l-1149 1145l131 129l1149 -1145l-4 559z" />
    <glyph glyph-name="uni2199" unicode="&#x2199;" horiz-adv-x="1736" 
d="M1001 4l-839 16l-19 842l179 4l-3 -557l1143 1143l131 -129l-1144 -1143l557 2z" />
    <glyph glyph-name="emptyset" unicode="&#x2205;" horiz-adv-x="2242" 
d="M250 -293l-139 137l254 254q-224 253 -224 639q0 159 40 300.5t121.5 257.5t197.5 200t275 130t347 46q383 0 631 -184l240 239l139 -137l-236 -235q205 -246 205 -617q0 -200 -64 -370.5t-184.5 -297t-308 -198.5t-422.5 -72q-367 0 -610 170zM403 737q0 -277 138 -463
l1042 1043q-182 131 -461 131q-343 0 -531 -191.5t-188 -519.5zM682 139q176 -116 440 -116q342 0 529.5 192.5t187.5 521.5q0 265 -121 439z" />
    <glyph glyph-name="product" unicode="&#x220f;" horiz-adv-x="2641" 
d="M141 1413v225h2358v-225h-496v-1720h-248v1720h-868v-1720h-248v1720h-498z" />
    <glyph glyph-name="minus" unicode="&#x2212;" horiz-adv-x="1878" 
d="M162 594v205h1552v-205h-1552z" />
    <glyph glyph-name="integral" unicode="&#x222b;" horiz-adv-x="1863" 
d="M80 -82q96 0 166 7t139.5 25.5t119 52.5t93.5 87.5t75 132t52 183.5l115 520q26 114 60 207t70 162t86.5 123t94.5 90t109 61t116 38.5t128.5 20.5t133.5 8.5t144 1.5v-225q-91 0 -159 -7t-138 -25t-122 -52.5t-98.5 -87.5t-79.5 -132t-55 -183l-114 -520
q-26 -117 -60.5 -212t-69 -165.5t-86.5 -124t-92 -89t-108.5 -59.5t-113 -36.5t-128 -18.5t-131 -7t-143.5 -1h-4v225z" />
    <glyph glyph-name="approxequal" unicode="&#x2248;" horiz-adv-x="1869" 
d="M162 745q0 91 11 170t39 155t71 129.5t112.5 86.5t159.5 33q91 0 172 -35t141 -84.5t117 -99t124.5 -84.5t139.5 -35q129 0 180.5 84t51.5 254h225q0 -90 -10.5 -169t-38.5 -155t-71 -130t-112 -87t-159 -33q-92 0 -173 35t-141.5 84.5t-117.5 99t-125 84.5t-140 35
q-129 0 -180 -84t-51 -254h-225zM162 51q0 91 11 170t39 155t71 129.5t112.5 86.5t159.5 33q91 0 172 -35t141 -84.5t117 -99t124.5 -84.5t139.5 -35q129 0 180.5 84t51.5 254h225q0 -90 -10.5 -169t-38.5 -155t-71 -130t-112 -87t-159 -33q-92 0 -173 35t-141.5 84.5
t-117.5 99t-125 84.5t-140 35q-129 0 -180 -84t-51 -254h-225z" />
    <glyph glyph-name="notequal" unicode="&#x2260;" horiz-adv-x="1878" 
d="M162 922v204h835l127 420h187l-127 -420h530v-204h-592l-135 -451h727v-205h-790l-172 -573h-187l172 573h-575v205h639l135 451h-774z" />
    <glyph glyph-name="lessequal" unicode="&#x2264;" horiz-adv-x="1878" 
d="M162 72v204h1552v-204h-1552zM162 815v340l1532 318v-230l-1325 -258l1325 -260v-229z" />
    <glyph glyph-name="greaterequal" unicode="&#x2265;" horiz-adv-x="1880" 
d="M166 72v204h1552v-204h-1552zM184 500v229l1325 258l-1325 260v230l1532 -320v-340z" />
    <glyph glyph-name="lozenge" unicode="&#x25ca;" horiz-adv-x="1869" 
d="M756 -287l-594 963l594 962h360l590 -962l-590 -963h-360zM432 676l504 -832l502 832l-502 831z" />
    <glyph glyph-name="A.ss01" horiz-adv-x="2590" 
d="M141 0l785 1452h739l782 -1452h-305l-186 340h-1321l-186 -340h-308zM745 545h1100l-368 674h-363z" />
    <glyph glyph-name="Aacute.ss01" horiz-adv-x="2590" 
d="M141 0l785 1452h739l782 -1452h-305l-186 340h-1321l-186 -340h-308zM745 545h1100l-368 674h-363zM918 1630v150l753 164v-150z" />
    <glyph glyph-name="Abreve.ss01" horiz-adv-x="2590" 
d="M141 0l785 1452h739l782 -1452h-305l-186 340h-1321l-186 -340h-308zM745 545h1100l-368 674h-363zM866 1972h162q0 -112 65 -158.5t201 -46.5t201.5 46.5t65.5 158.5h161q0 -352 -428 -352t-428 352z" />
    <glyph glyph-name="Acircumflex.ss01" horiz-adv-x="2590" 
d="M141 0l785 1452h739l782 -1452h-305l-186 340h-1321l-186 -340h-308zM745 545h1100l-368 674h-363zM915 1616v151l381 164l381 -164v-151l-381 160z" />
    <glyph glyph-name="Adieresis.ss01" horiz-adv-x="2590" 
d="M141 0l785 1452h739l782 -1452h-305l-186 340h-1321l-186 -340h-308zM745 545h1100l-368 674h-363zM940 1655v164h234v-164h-234zM1419 1655v164h234v-164h-234z" />
    <glyph glyph-name="Agrave.ss01" horiz-adv-x="2590" 
d="M141 0l785 1452h739l782 -1452h-305l-186 340h-1321l-186 -340h-308zM745 545h1100l-368 674h-363zM918 1794v150l753 -164v-150z" />
    <glyph glyph-name="Amacron.ss01" horiz-adv-x="2590" 
d="M141 0l785 1452h739l782 -1452h-305l-186 340h-1321l-186 -340h-308zM745 545h1100l-368 674h-363zM858 1690v129h875v-129h-875z" />
    <glyph glyph-name="Aogonek.ss01" horiz-adv-x="2590" 
d="M141 0l785 1452h739l782 -1452h-55q-78 -64 -106.5 -106.5t-28.5 -92.5q0 -75 70.5 -107t240.5 -32v-145q-268 0 -377.5 52t-109.5 177q0 71 39 132.5t121 121.5h-99l-186 340h-1321l-186 -340h-308zM745 545h1100l-368 674h-363z" />
    <glyph glyph-name="Aring.ss01" horiz-adv-x="2590" 
d="M141 0l785 1452h739l782 -1452h-305l-186 340h-1321l-186 -340h-308zM745 545h1100l-368 674h-363zM889 1823q0 237 407 237q406 0 406 -237q0 -238 -406 -238q-407 0 -407 238zM1038 1823q0 -67 63.5 -97t194.5 -30t192.5 30t61.5 97q0 66 -62 96.5t-192 30.5
q-258 0 -258 -127z" />
    <glyph glyph-name="Atilde.ss01" horiz-adv-x="2590" 
d="M141 0l785 1452h739l782 -1452h-305l-186 340h-1321l-186 -340h-308zM745 545h1100l-368 674h-363zM780 1604q0 167 81 261.5t222 94.5q50 0 91 -12t68.5 -31t51 -42t44.5 -45.5t43 -41.5t52 -31t66 -12q75 0 118.5 54.5t43.5 150.5h151q0 -167 -80 -261t-223 -94
q-68 0 -119.5 22t-83.5 53.5t-60.5 62.5t-66.5 53t-87 22q-74 0 -117 -54t-43 -150h-152z" />
    <glyph glyph-name="V.ss01" horiz-adv-x="2590" 
d="M926 0l-785 1452h308l665 -1219h363l665 1219h305l-782 -1452h-739z" />
    <glyph glyph-name="W.ss01" horiz-adv-x="3565" 
d="M711 0l-570 1452h289l483 -1219h207l465 1219h406l463 -1219h208l473 1219h287l-557 -1452h-622l-455 1229l-457 -1229h-620z" />
    <glyph glyph-name="Wacute.ss01" horiz-adv-x="3565" 
d="M711 0l-570 1452h289l483 -1219h207l465 1219h406l463 -1219h208l473 1219h287l-557 -1452h-622l-455 1229l-457 -1229h-620zM1409 1630v150l754 164v-150z" />
    <glyph glyph-name="Wcircumflex.ss01" horiz-adv-x="3565" 
d="M711 0l-570 1452h289l483 -1219h207l465 1219h406l463 -1219h208l473 1219h287l-557 -1452h-622l-455 1229l-457 -1229h-620zM1407 1616v151l381 164l381 -164v-151l-381 160z" />
    <glyph glyph-name="Wdieresis.ss01" horiz-adv-x="3565" 
d="M711 0l-570 1452h289l483 -1219h207l465 1219h406l463 -1219h208l473 1219h287l-557 -1452h-622l-455 1229l-457 -1229h-620zM1432 1655v164h233v-164h-233zM1911 1655v164h233v-164h-233z" />
    <glyph glyph-name="Wgrave.ss01" horiz-adv-x="3565" 
d="M711 0l-570 1452h289l483 -1219h207l465 1219h406l463 -1219h208l473 1219h287l-557 -1452h-622l-455 1229l-457 -1229h-620zM1409 1794v150l754 -164v-150z" />
    <glyph glyph-name="K.ss02" horiz-adv-x="2103" 
d="M1608 0l-596 610h-576v-610h-274v1452h274v-608h576l596 608h331l-684 -725l684 -727h-331z" />
    <glyph glyph-name="uni0136.ss02" horiz-adv-x="2103" 
d="M1608 0l-596 610h-576v-610h-274v1452h274v-608h576l596 608h331l-684 -725l684 -727h-331zM858 -328v181h272v-181l-149 -209h-119l99 209h-103z" />
    <glyph glyph-name="R.ss02" horiz-adv-x="1996" 
d="M162 0v1452h1141q271 0 409.5 -129t138.5 -360q0 -178 -92.5 -301.5t-271.5 -165.5l356 -496h-315l-328 475h-764v-475h-274zM436 696h793q169 0 254.5 64.5t85.5 202.5q0 139 -85 202.5t-255 63.5h-793v-533z" />
    <glyph glyph-name="Racute.ss02" horiz-adv-x="1996" 
d="M162 0v1452h1141q271 0 409.5 -129t138.5 -360q0 -178 -92.5 -301.5t-271.5 -165.5l356 -496h-315l-328 475h-764v-475h-274zM436 696h793q169 0 254.5 64.5t85.5 202.5q0 139 -85 202.5t-255 63.5h-793v-533zM555 1630v150l754 164v-150z" />
    <glyph glyph-name="Rcaron.ss02" horiz-adv-x="1996" 
d="M162 0v1452h1141q271 0 409.5 -129t138.5 -360q0 -178 -92.5 -301.5t-271.5 -165.5l356 -496h-315l-328 475h-764v-475h-274zM436 696h793q169 0 254.5 64.5t85.5 202.5q0 139 -85 202.5t-255 63.5h-793v-533zM553 1772v151l381 -160l381 160v-151l-381 -164z" />
    <glyph glyph-name="uni0156.ss02" horiz-adv-x="1996" 
d="M162 0v1452h1141q271 0 409.5 -129t138.5 -360q0 -178 -92.5 -301.5t-271.5 -165.5l356 -496h-315l-328 475h-764v-475h-274zM436 696h793q169 0 254.5 64.5t85.5 202.5q0 139 -85 202.5t-255 63.5h-793v-533zM807 -328v181h272v-181l-149 -209h-119l98 209h-102z" />
    <glyph glyph-name="i.loclTRK" horiz-adv-x="593" 
d="M162 0v1210h270v-1210h-270zM160 1470v181h276v-181h-276z" />
    <glyph glyph-name="a.ss01" horiz-adv-x="1959" 
d="M1530 0v256q-95 -141 -263.5 -219t-385.5 -78q-338 0 -540 176t-202 469q0 294 202 470.5t540 176.5q217 0 386 -78.5t263 -220.5v258h268v-1210h-268zM436 604q0 -185 143 -295t388 -110q261 0 412 109.5t151 295.5q0 187 -151 297.5t-412 110.5q-245 0 -388 -110.5
t-143 -297.5z" />
    <glyph glyph-name="aacute.ss01" horiz-adv-x="1959" 
d="M1530 0v256q-95 -141 -263.5 -219t-385.5 -78q-338 0 -540 176t-202 469q0 294 202 470.5t540 176.5q217 0 386 -78.5t263 -220.5v258h268v-1210h-268zM436 604q0 -185 143 -295t388 -110q261 0 412 109.5t151 295.5q0 187 -151 297.5t-412 110.5q-245 0 -388 -110.5
t-143 -297.5zM602 1386v150l754 164v-150z" />
    <glyph glyph-name="abreve.ss01" horiz-adv-x="1959" 
d="M1530 0v256q-95 -141 -263.5 -219t-385.5 -78q-338 0 -540 176t-202 469q0 294 202 470.5t540 176.5q217 0 386 -78.5t263 -220.5v258h268v-1210h-268zM436 604q0 -185 143 -295t388 -110q261 0 412 109.5t151 295.5q0 187 -151 297.5t-412 110.5q-245 0 -388 -110.5
t-143 -297.5zM551 1729h162q0 -112 65 -158.5t201 -46.5t201 46.5t65 158.5h162q0 -353 -428 -353t-428 353z" />
    <glyph glyph-name="acircumflex.ss01" horiz-adv-x="1959" 
d="M1530 0v256q-95 -141 -263.5 -219t-385.5 -78q-338 0 -540 176t-202 469q0 294 202 470.5t540 176.5q217 0 386 -78.5t263 -220.5v258h268v-1210h-268zM436 604q0 -185 143 -295t388 -110q261 0 412 109.5t151 295.5q0 187 -151 297.5t-412 110.5q-245 0 -388 -110.5
t-143 -297.5zM600 1372v152l381 164l381 -164v-152l-381 160z" />
    <glyph glyph-name="adieresis.ss01" horiz-adv-x="1959" 
d="M1530 0v256q-95 -141 -263.5 -219t-385.5 -78q-338 0 -540 176t-202 469q0 294 202 470.5t540 176.5q217 0 386 -78.5t263 -220.5v258h268v-1210h-268zM436 604q0 -185 143 -295t388 -110q261 0 412 109.5t151 295.5q0 187 -151 297.5t-412 110.5q-245 0 -388 -110.5
t-143 -297.5zM625 1411v164h233v-164h-233zM1104 1411v164h233v-164h-233z" />
    <glyph glyph-name="agrave.ss01" horiz-adv-x="1959" 
d="M1530 0v256q-95 -141 -263.5 -219t-385.5 -78q-338 0 -540 176t-202 469q0 294 202 470.5t540 176.5q217 0 386 -78.5t263 -220.5v258h268v-1210h-268zM436 604q0 -185 143 -295t388 -110q261 0 412 109.5t151 295.5q0 187 -151 297.5t-412 110.5q-245 0 -388 -110.5
t-143 -297.5zM602 1550v150l754 -164v-150z" />
    <glyph glyph-name="amacron.ss01" horiz-adv-x="1959" 
d="M1530 0v256q-95 -141 -263.5 -219t-385.5 -78q-338 0 -540 176t-202 469q0 294 202 470.5t540 176.5q217 0 386 -78.5t263 -220.5v258h268v-1210h-268zM436 604q0 -185 143 -295t388 -110q261 0 412 109.5t151 295.5q0 187 -151 297.5t-412 110.5q-245 0 -388 -110.5
t-143 -297.5zM543 1446v129h874v-129h-874z" />
    <glyph glyph-name="aogonek.ss01" horiz-adv-x="1959" 
d="M874 -41q-338 0 -540.5 176t-202.5 469q0 294 202.5 470.5t540.5 176.5q233 0 403.5 -89.5t252.5 -250.5v299h268v-1210h-127q-78 -65 -106.5 -106.5t-28.5 -90.5q0 -77 70.5 -109t240.5 -32v-145q-267 0 -377 53t-110 178q0 73 41.5 135.5t128.5 124.5v291
q-82 -161 -252.5 -250.5t-403.5 -89.5zM410 604q0 -192 147 -306t399 -114q264 0 419 114.5t155 305.5q0 193 -155 307.5t-419 114.5q-252 0 -399 -114.5t-147 -307.5z" />
    <glyph glyph-name="aring.ss01" horiz-adv-x="1959" 
d="M1530 0v256q-95 -141 -263.5 -219t-385.5 -78q-338 0 -540 176t-202 469q0 294 202 470.5t540 176.5q217 0 386 -78.5t263 -220.5v258h268v-1210h-268zM436 604q0 -185 143 -295t388 -110q261 0 412 109.5t151 295.5q0 187 -151 297.5t-412 110.5q-245 0 -388 -110.5
t-143 -297.5zM573 1579q0 238 408 238q405 0 405 -238t-405 -238q-408 0 -408 238zM723 1579q0 -67 63.5 -97t194.5 -30t192.5 30t61.5 97q0 66 -62 96.5t-192 30.5q-258 0 -258 -127z" />
    <glyph glyph-name="atilde.ss01" horiz-adv-x="1959" 
d="M1530 0v256q-95 -141 -263.5 -219t-385.5 -78q-338 0 -540 176t-202 469q0 294 202 470.5t540 176.5q217 0 386 -78.5t263 -220.5v258h268v-1210h-268zM436 604q0 -185 143 -295t388 -110q261 0 412 109.5t151 295.5q0 187 -151 297.5t-412 110.5q-245 0 -388 -110.5
t-143 -297.5zM465 1360q0 167 81 261.5t222 94.5q50 0 91 -12t68.5 -31t51 -42t44.5 -45.5t43 -41.5t52 -31t66 -12q75 0 118.5 54.5t43.5 150.5h151q0 -167 -80 -260.5t-223 -93.5q-68 0 -119.5 22t-83.5 53t-60.5 62.5t-67 53.5t-87.5 22q-74 0 -117 -54.5t-43 -150.5
h-151z" />
    <glyph glyph-name="g.ss01" horiz-adv-x="1974" 
d="M946 -532q-417 0 -618 78t-201 241q0 109 70.5 174t216.5 90q-120 23 -178 75.5t-56 135.5q6 190 283 219q-299 94 -299 348q0 215 198.5 318.5t610.5 103.5q257 0 438 -41h500v-192q-73 0 -185 16q62 -83 62 -203q0 -209 -200 -309t-617 -100h-4h-322q-203 0 -203 -90
q0 -80 326 -80h365q358 0 529 -87t171 -269q0 -218 -217.5 -323t-669.5 -105zM401 -150q0 -82 147 -121.5t451 -39.5q596 0 596 176q0 84 -138.5 123t-432.5 39q-317 0 -470 -43t-153 -134zM483 831q0 -94 121.5 -139t370.5 -45q252 0 373.5 45t121.5 139q0 99 -122 147
t-373 48q-492 0 -492 -195z" />
    <glyph glyph-name="gbreve.ss01" horiz-adv-x="1974" 
d="M946 -532q-417 0 -618 78t-201 241q0 109 70.5 174t216.5 90q-120 23 -178 75.5t-56 135.5q6 190 283 219q-299 94 -299 348q0 215 198.5 318.5t610.5 103.5q257 0 438 -41h500v-192q-73 0 -185 16q62 -83 62 -203q0 -209 -200 -309t-617 -100h-4h-322q-203 0 -203 -90
q0 -80 326 -80h365q358 0 529 -87t171 -269q0 -218 -217.5 -323t-669.5 -105zM401 -150q0 -82 147 -121.5t451 -39.5q596 0 596 176q0 84 -138.5 123t-432.5 39q-317 0 -470 -43t-153 -134zM483 831q0 -94 121.5 -139t370.5 -45q252 0 373.5 45t121.5 139q0 99 -122 147
t-373 48q-492 0 -492 -195zM483 1708h162q0 -112 65 -158.5t201 -46.5t201.5 46.5t65.5 158.5h161q0 -352 -428 -352t-428 352z" />
    <glyph glyph-name="uni0123.ss01" horiz-adv-x="1974" 
d="M946 -532q-417 0 -618 78t-201 241q0 109 70.5 174t216.5 90q-120 23 -178 75.5t-56 135.5q6 190 283 219q-299 94 -299 348q0 215 198.5 318.5t610.5 103.5q257 0 438 -41h500v-192q-73 0 -185 16q62 -83 62 -203q0 -209 -200 -309t-617 -100h-4h-322q-203 0 -203 -90
q0 -80 326 -80h365q358 0 529 -87t171 -269q0 -218 -217.5 -323t-669.5 -105zM401 -150q0 -82 147 -121.5t451 -39.5q596 0 596 176q0 84 -138.5 123t-432.5 39q-317 0 -470 -43t-153 -134zM483 831q0 -94 121.5 -139t370.5 -45q252 0 373.5 45t121.5 139q0 99 -122 147
t-373 48q-492 0 -492 -195zM776 1419v180l150 209h118l-100 -209h105v-180h-273z" />
    <glyph glyph-name="gdotaccent.ss01" horiz-adv-x="1974" 
d="M946 -532q-417 0 -618 78t-201 241q0 109 70.5 174t216.5 90q-120 23 -178 75.5t-56 135.5q6 190 283 219q-299 94 -299 348q0 215 198.5 318.5t610.5 103.5q257 0 438 -41h500v-192q-73 0 -185 16q62 -83 62 -203q0 -209 -200 -309t-617 -100h-4h-322q-203 0 -203 -90
q0 -80 326 -80h365q358 0 529 -87t171 -269q0 -218 -217.5 -323t-669.5 -105zM401 -150q0 -82 147 -121.5t451 -39.5q596 0 596 176q0 84 -138.5 123t-432.5 39q-317 0 -470 -43t-153 -134zM483 831q0 -94 121.5 -139t370.5 -45q252 0 373.5 45t121.5 139q0 99 -122 147
t-373 48q-492 0 -492 -195zM782 1405v149h256v-149h-256z" />
    <glyph glyph-name="uni030C.alt" 
d="M127 1098l94 305h-119v235h289v-208l-133 -332h-131z" />
    </font>
</defs>
</svg>
